G04 #@! TF.FileFunction,Soldermask,Top*
%FSLAX46Y46*%
G04 Gerber Fmt 4.6, Leading zero omitted, Abs format (unit mm)*
G04 Created by KiCad (PCBNEW 4.0.2-stable) date Tuesday, April 24, 2018 'PMt' 12:07:57 PM*
%MOMM*%
G01*
G04 APERTURE LIST*
%ADD10C,0.025400*%
G04 APERTURE END LIST*
D10*
G36*
X150810361Y-98984189D02*
X150922589Y-99007226D01*
X150961344Y-99023517D01*
X151028204Y-99051622D01*
X151123184Y-99115687D01*
X151203915Y-99196984D01*
X151235614Y-99244695D01*
X151267314Y-99292408D01*
X151305297Y-99384563D01*
X151310973Y-99398333D01*
X151324657Y-99467444D01*
X151333225Y-99510716D01*
X151331398Y-99641574D01*
X151306016Y-99753295D01*
X151277305Y-99817780D01*
X151259418Y-99857956D01*
X151259417Y-99857957D01*
X151202314Y-99938907D01*
X151200688Y-99942084D01*
X151200010Y-99945593D01*
X151200336Y-99949152D01*
X151201641Y-99952479D01*
X151203821Y-99955310D01*
X151206704Y-99957423D01*
X151210061Y-99958648D01*
X151213626Y-99958890D01*
X151217452Y-99957999D01*
X151400553Y-99884021D01*
X151596272Y-99846686D01*
X151795515Y-99848077D01*
X151990693Y-99888141D01*
X152158452Y-99958661D01*
X152174372Y-99965353D01*
X152339556Y-100076770D01*
X152381165Y-100118671D01*
X152479953Y-100218151D01*
X152590215Y-100384109D01*
X152666143Y-100568323D01*
X152704844Y-100763776D01*
X152701666Y-100991355D01*
X152657523Y-101185651D01*
X152607590Y-101297800D01*
X152576482Y-101367672D01*
X152576481Y-101367673D01*
X152461628Y-101530488D01*
X152317339Y-101667893D01*
X152149108Y-101774655D01*
X151963345Y-101846708D01*
X151963342Y-101846708D01*
X151963341Y-101846709D01*
X151840577Y-101868355D01*
X151767124Y-101881307D01*
X151767123Y-101881307D01*
X151567922Y-101877135D01*
X151494372Y-101860964D01*
X151373320Y-101834349D01*
X151190736Y-101754580D01*
X151027124Y-101640867D01*
X150888715Y-101497540D01*
X150888714Y-101497539D01*
X150780780Y-101330058D01*
X150707432Y-101144802D01*
X150671464Y-100948831D01*
X150671464Y-100948828D01*
X150674246Y-100749600D01*
X150712777Y-100568325D01*
X150715671Y-100554708D01*
X150794164Y-100371570D01*
X150906731Y-100207169D01*
X150987174Y-100128394D01*
X150989350Y-100125559D01*
X150990650Y-100122230D01*
X150990971Y-100118671D01*
X150990288Y-100115163D01*
X150988655Y-100111985D01*
X150986201Y-100109387D01*
X150983121Y-100107575D01*
X150979657Y-100106694D01*
X150976086Y-100106812D01*
X150973695Y-100107480D01*
X150906865Y-100133402D01*
X150831645Y-100146665D01*
X150794036Y-100153297D01*
X150794035Y-100153297D01*
X150741659Y-100152200D01*
X150679494Y-100150898D01*
X150567599Y-100126296D01*
X150462613Y-100080429D01*
X150368536Y-100015044D01*
X150288951Y-99932631D01*
X150240827Y-99857957D01*
X150226888Y-99836328D01*
X150184713Y-99729806D01*
X150164032Y-99617124D01*
X150164032Y-99617121D01*
X150165631Y-99502565D01*
X150189451Y-99390501D01*
X150234584Y-99285198D01*
X150299311Y-99190666D01*
X150340239Y-99150587D01*
X150381168Y-99110506D01*
X150477033Y-99047775D01*
X150583258Y-99004857D01*
X150695796Y-98983389D01*
X150810361Y-98984189D01*
X150810361Y-98984189D01*
G37*
G36*
X132522361Y-98984189D02*
X132634589Y-99007226D01*
X132673344Y-99023517D01*
X132740204Y-99051622D01*
X132835184Y-99115687D01*
X132915915Y-99196984D01*
X132947614Y-99244695D01*
X132979314Y-99292408D01*
X133017297Y-99384563D01*
X133022973Y-99398333D01*
X133036657Y-99467444D01*
X133045225Y-99510716D01*
X133043398Y-99641574D01*
X133018016Y-99753295D01*
X132989305Y-99817780D01*
X132971418Y-99857956D01*
X132971417Y-99857957D01*
X132905377Y-99951576D01*
X132822410Y-100030584D01*
X132725677Y-100091972D01*
X132618863Y-100133402D01*
X132618860Y-100133403D01*
X132536768Y-100147878D01*
X132506036Y-100153297D01*
X132506035Y-100153297D01*
X132453659Y-100152200D01*
X132391494Y-100150898D01*
X132279599Y-100126296D01*
X132174613Y-100080429D01*
X132080536Y-100015044D01*
X132000951Y-99932631D01*
X131952827Y-99857957D01*
X131938888Y-99836328D01*
X131896713Y-99729806D01*
X131876032Y-99617124D01*
X131876032Y-99617121D01*
X131877631Y-99502565D01*
X131901451Y-99390501D01*
X131946584Y-99285198D01*
X132011311Y-99190666D01*
X132052239Y-99150587D01*
X132093168Y-99110506D01*
X132189033Y-99047775D01*
X132295258Y-99004857D01*
X132407796Y-98983389D01*
X132522361Y-98984189D01*
X132522361Y-98984189D01*
G37*
G36*
X124394361Y-98984189D02*
X124506589Y-99007226D01*
X124545344Y-99023517D01*
X124612204Y-99051622D01*
X124707184Y-99115687D01*
X124787915Y-99196984D01*
X124819614Y-99244695D01*
X124851314Y-99292408D01*
X124889297Y-99384563D01*
X124894973Y-99398333D01*
X124908657Y-99467444D01*
X124917225Y-99510716D01*
X124915398Y-99641574D01*
X124890016Y-99753295D01*
X124861305Y-99817780D01*
X124843418Y-99857956D01*
X124843417Y-99857957D01*
X124777377Y-99951576D01*
X124694410Y-100030584D01*
X124597677Y-100091972D01*
X124490863Y-100133402D01*
X124490860Y-100133403D01*
X124408768Y-100147878D01*
X124378036Y-100153297D01*
X124378035Y-100153297D01*
X124325659Y-100152200D01*
X124263494Y-100150898D01*
X124151599Y-100126296D01*
X124046613Y-100080429D01*
X123952536Y-100015044D01*
X123872951Y-99932631D01*
X123824827Y-99857957D01*
X123810888Y-99836328D01*
X123768713Y-99729806D01*
X123748032Y-99617124D01*
X123748032Y-99617121D01*
X123749631Y-99502565D01*
X123773451Y-99390501D01*
X123818584Y-99285198D01*
X123883311Y-99190666D01*
X123924239Y-99150587D01*
X123965168Y-99110506D01*
X124061033Y-99047775D01*
X124167258Y-99004857D01*
X124279796Y-98983389D01*
X124394361Y-98984189D01*
X124394361Y-98984189D01*
G37*
G36*
X121854361Y-98984189D02*
X121966589Y-99007226D01*
X122005344Y-99023517D01*
X122072204Y-99051622D01*
X122167184Y-99115687D01*
X122247915Y-99196984D01*
X122279614Y-99244695D01*
X122311314Y-99292408D01*
X122349297Y-99384563D01*
X122354973Y-99398333D01*
X122368657Y-99467444D01*
X122377225Y-99510716D01*
X122375398Y-99641574D01*
X122350016Y-99753295D01*
X122321305Y-99817780D01*
X122303418Y-99857956D01*
X122303417Y-99857957D01*
X122237377Y-99951576D01*
X122154410Y-100030584D01*
X122057677Y-100091972D01*
X121950863Y-100133402D01*
X121950860Y-100133403D01*
X121868768Y-100147878D01*
X121838036Y-100153297D01*
X121838035Y-100153297D01*
X121785659Y-100152200D01*
X121723494Y-100150898D01*
X121611599Y-100126296D01*
X121506613Y-100080429D01*
X121412536Y-100015044D01*
X121332951Y-99932631D01*
X121284827Y-99857957D01*
X121270888Y-99836328D01*
X121228713Y-99729806D01*
X121208032Y-99617124D01*
X121208032Y-99617121D01*
X121209631Y-99502565D01*
X121233451Y-99390501D01*
X121278584Y-99285198D01*
X121343311Y-99190666D01*
X121384239Y-99150587D01*
X121425168Y-99110506D01*
X121521033Y-99047775D01*
X121627258Y-99004857D01*
X121739796Y-98983389D01*
X121854361Y-98984189D01*
X121854361Y-98984189D01*
G37*
G36*
X119314361Y-98984189D02*
X119426589Y-99007226D01*
X119465344Y-99023517D01*
X119532204Y-99051622D01*
X119627184Y-99115687D01*
X119707915Y-99196984D01*
X119739614Y-99244695D01*
X119771314Y-99292408D01*
X119809297Y-99384563D01*
X119814973Y-99398333D01*
X119828657Y-99467444D01*
X119837225Y-99510716D01*
X119835398Y-99641574D01*
X119810016Y-99753295D01*
X119781305Y-99817780D01*
X119763418Y-99857956D01*
X119763417Y-99857957D01*
X119697377Y-99951576D01*
X119614410Y-100030584D01*
X119517677Y-100091972D01*
X119410863Y-100133402D01*
X119410860Y-100133403D01*
X119328768Y-100147878D01*
X119298036Y-100153297D01*
X119298035Y-100153297D01*
X119245659Y-100152200D01*
X119183494Y-100150898D01*
X119071599Y-100126296D01*
X118966613Y-100080429D01*
X118872536Y-100015044D01*
X118792951Y-99932631D01*
X118744827Y-99857957D01*
X118730888Y-99836328D01*
X118688713Y-99729806D01*
X118668032Y-99617124D01*
X118668032Y-99617121D01*
X118669631Y-99502565D01*
X118693451Y-99390501D01*
X118738584Y-99285198D01*
X118803311Y-99190666D01*
X118844239Y-99150587D01*
X118885168Y-99110506D01*
X118981033Y-99047775D01*
X119087258Y-99004857D01*
X119199796Y-98983389D01*
X119314361Y-98984189D01*
X119314361Y-98984189D01*
G37*
G36*
X135062361Y-98984189D02*
X135174589Y-99007226D01*
X135213344Y-99023517D01*
X135280204Y-99051622D01*
X135375184Y-99115687D01*
X135455915Y-99196984D01*
X135487614Y-99244695D01*
X135519314Y-99292408D01*
X135557297Y-99384563D01*
X135562973Y-99398333D01*
X135576657Y-99467444D01*
X135585225Y-99510716D01*
X135583398Y-99641574D01*
X135558016Y-99753295D01*
X135529305Y-99817780D01*
X135511418Y-99857956D01*
X135511417Y-99857957D01*
X135445377Y-99951576D01*
X135362410Y-100030584D01*
X135265677Y-100091972D01*
X135158863Y-100133402D01*
X135158860Y-100133403D01*
X135076768Y-100147878D01*
X135046036Y-100153297D01*
X135046035Y-100153297D01*
X134993659Y-100152200D01*
X134931494Y-100150898D01*
X134819599Y-100126296D01*
X134714613Y-100080429D01*
X134620536Y-100015044D01*
X134540951Y-99932631D01*
X134492827Y-99857957D01*
X134478888Y-99836328D01*
X134436713Y-99729806D01*
X134416032Y-99617124D01*
X134416032Y-99617121D01*
X134417631Y-99502565D01*
X134441451Y-99390501D01*
X134486584Y-99285198D01*
X134551311Y-99190666D01*
X134592239Y-99150587D01*
X134633168Y-99110506D01*
X134729033Y-99047775D01*
X134835258Y-99004857D01*
X134947796Y-98983389D01*
X135062361Y-98984189D01*
X135062361Y-98984189D01*
G37*
G36*
X111186361Y-98984189D02*
X111298589Y-99007226D01*
X111337344Y-99023517D01*
X111404204Y-99051622D01*
X111499184Y-99115687D01*
X111579915Y-99196984D01*
X111611614Y-99244695D01*
X111643314Y-99292408D01*
X111681297Y-99384563D01*
X111686973Y-99398333D01*
X111700657Y-99467444D01*
X111709225Y-99510716D01*
X111707398Y-99641574D01*
X111682016Y-99753295D01*
X111653305Y-99817780D01*
X111635418Y-99857956D01*
X111635417Y-99857957D01*
X111569377Y-99951576D01*
X111486410Y-100030584D01*
X111389677Y-100091972D01*
X111282863Y-100133402D01*
X111282860Y-100133403D01*
X111200768Y-100147878D01*
X111170036Y-100153297D01*
X111170035Y-100153297D01*
X111117659Y-100152200D01*
X111055494Y-100150898D01*
X110943599Y-100126296D01*
X110838613Y-100080429D01*
X110744536Y-100015044D01*
X110664951Y-99932631D01*
X110616827Y-99857957D01*
X110602888Y-99836328D01*
X110560713Y-99729806D01*
X110540032Y-99617124D01*
X110540032Y-99617121D01*
X110541631Y-99502565D01*
X110565451Y-99390501D01*
X110610584Y-99285198D01*
X110675311Y-99190666D01*
X110716239Y-99150587D01*
X110757168Y-99110506D01*
X110853033Y-99047775D01*
X110959258Y-99004857D01*
X111071796Y-98983389D01*
X111186361Y-98984189D01*
X111186361Y-98984189D01*
G37*
G36*
X108646361Y-98984189D02*
X108758589Y-99007226D01*
X108797344Y-99023517D01*
X108864204Y-99051622D01*
X108959184Y-99115687D01*
X109039915Y-99196984D01*
X109071614Y-99244695D01*
X109103314Y-99292408D01*
X109141297Y-99384563D01*
X109146973Y-99398333D01*
X109160657Y-99467444D01*
X109169225Y-99510716D01*
X109167398Y-99641574D01*
X109142016Y-99753295D01*
X109113305Y-99817780D01*
X109095418Y-99857956D01*
X109095417Y-99857957D01*
X109029377Y-99951576D01*
X108946410Y-100030584D01*
X108849677Y-100091972D01*
X108742863Y-100133402D01*
X108742860Y-100133403D01*
X108660768Y-100147878D01*
X108630036Y-100153297D01*
X108630035Y-100153297D01*
X108577659Y-100152200D01*
X108515494Y-100150898D01*
X108403599Y-100126296D01*
X108298613Y-100080429D01*
X108204536Y-100015044D01*
X108124951Y-99932631D01*
X108076827Y-99857957D01*
X108062888Y-99836328D01*
X108020713Y-99729806D01*
X108000032Y-99617124D01*
X108000032Y-99617121D01*
X108001631Y-99502565D01*
X108025451Y-99390501D01*
X108070584Y-99285198D01*
X108135311Y-99190666D01*
X108176239Y-99150587D01*
X108217168Y-99110506D01*
X108313033Y-99047775D01*
X108419258Y-99004857D01*
X108531796Y-98983389D01*
X108646361Y-98984189D01*
X108646361Y-98984189D01*
G37*
G36*
X106106361Y-98984189D02*
X106218589Y-99007226D01*
X106257344Y-99023517D01*
X106324204Y-99051622D01*
X106419184Y-99115687D01*
X106499915Y-99196984D01*
X106531614Y-99244695D01*
X106563314Y-99292408D01*
X106601297Y-99384563D01*
X106606973Y-99398333D01*
X106620657Y-99467444D01*
X106629225Y-99510716D01*
X106627398Y-99641574D01*
X106602016Y-99753295D01*
X106573305Y-99817780D01*
X106555418Y-99857956D01*
X106555417Y-99857957D01*
X106489377Y-99951576D01*
X106406410Y-100030584D01*
X106309677Y-100091972D01*
X106202863Y-100133402D01*
X106202860Y-100133403D01*
X106120768Y-100147878D01*
X106090036Y-100153297D01*
X106090035Y-100153297D01*
X106037659Y-100152200D01*
X105975494Y-100150898D01*
X105863599Y-100126296D01*
X105758613Y-100080429D01*
X105664536Y-100015044D01*
X105584951Y-99932631D01*
X105536827Y-99857957D01*
X105522888Y-99836328D01*
X105480713Y-99729806D01*
X105460032Y-99617124D01*
X105460032Y-99617121D01*
X105461631Y-99502565D01*
X105485451Y-99390501D01*
X105530584Y-99285198D01*
X105595311Y-99190666D01*
X105636239Y-99150587D01*
X105677168Y-99110506D01*
X105773033Y-99047775D01*
X105879258Y-99004857D01*
X105991796Y-98983389D01*
X106106361Y-98984189D01*
X106106361Y-98984189D01*
G37*
G36*
X137602361Y-98984189D02*
X137714589Y-99007226D01*
X137753344Y-99023517D01*
X137820204Y-99051622D01*
X137915184Y-99115687D01*
X137995915Y-99196984D01*
X138027614Y-99244695D01*
X138059314Y-99292408D01*
X138097297Y-99384563D01*
X138102973Y-99398333D01*
X138116657Y-99467444D01*
X138125225Y-99510716D01*
X138123398Y-99641574D01*
X138098016Y-99753295D01*
X138069305Y-99817780D01*
X138051418Y-99857956D01*
X138051417Y-99857957D01*
X137985377Y-99951576D01*
X137902410Y-100030584D01*
X137805677Y-100091972D01*
X137698863Y-100133402D01*
X137698860Y-100133403D01*
X137616768Y-100147878D01*
X137586036Y-100153297D01*
X137586035Y-100153297D01*
X137533659Y-100152200D01*
X137471494Y-100150898D01*
X137359599Y-100126296D01*
X137254613Y-100080429D01*
X137160536Y-100015044D01*
X137080951Y-99932631D01*
X137032827Y-99857957D01*
X137018888Y-99836328D01*
X136976713Y-99729806D01*
X136956032Y-99617124D01*
X136956032Y-99617121D01*
X136957631Y-99502565D01*
X136981451Y-99390501D01*
X137026584Y-99285198D01*
X137091311Y-99190666D01*
X137132239Y-99150587D01*
X137173168Y-99110506D01*
X137269033Y-99047775D01*
X137375258Y-99004857D01*
X137487796Y-98983389D01*
X137602361Y-98984189D01*
X137602361Y-98984189D01*
G37*
G36*
X148270361Y-98984189D02*
X148382589Y-99007226D01*
X148421344Y-99023517D01*
X148488204Y-99051622D01*
X148583184Y-99115687D01*
X148663915Y-99196984D01*
X148695614Y-99244695D01*
X148727314Y-99292408D01*
X148765297Y-99384563D01*
X148770973Y-99398333D01*
X148784657Y-99467444D01*
X148793225Y-99510716D01*
X148791398Y-99641574D01*
X148766016Y-99753295D01*
X148737305Y-99817780D01*
X148719418Y-99857956D01*
X148719417Y-99857957D01*
X148653377Y-99951576D01*
X148570410Y-100030584D01*
X148473677Y-100091972D01*
X148366863Y-100133402D01*
X148366860Y-100133403D01*
X148284768Y-100147878D01*
X148254036Y-100153297D01*
X148254035Y-100153297D01*
X148201659Y-100152200D01*
X148139494Y-100150898D01*
X148027599Y-100126296D01*
X147922613Y-100080429D01*
X147828536Y-100015044D01*
X147748951Y-99932631D01*
X147700827Y-99857957D01*
X147686888Y-99836328D01*
X147644713Y-99729806D01*
X147624032Y-99617124D01*
X147624032Y-99617121D01*
X147625631Y-99502565D01*
X147649451Y-99390501D01*
X147694584Y-99285198D01*
X147759311Y-99190666D01*
X147800239Y-99150587D01*
X147841168Y-99110506D01*
X147937033Y-99047775D01*
X148043258Y-99004857D01*
X148155796Y-98983389D01*
X148270361Y-98984189D01*
X148270361Y-98984189D01*
G37*
G36*
X145730361Y-98984189D02*
X145842589Y-99007226D01*
X145881344Y-99023517D01*
X145948204Y-99051622D01*
X146043184Y-99115687D01*
X146123915Y-99196984D01*
X146155614Y-99244695D01*
X146187314Y-99292408D01*
X146225297Y-99384563D01*
X146230973Y-99398333D01*
X146244657Y-99467444D01*
X146253225Y-99510716D01*
X146251398Y-99641574D01*
X146226016Y-99753295D01*
X146197305Y-99817780D01*
X146179418Y-99857956D01*
X146179417Y-99857957D01*
X146113377Y-99951576D01*
X146030410Y-100030584D01*
X145933677Y-100091972D01*
X145826863Y-100133402D01*
X145826860Y-100133403D01*
X145744768Y-100147878D01*
X145714036Y-100153297D01*
X145714035Y-100153297D01*
X145661659Y-100152200D01*
X145599494Y-100150898D01*
X145487599Y-100126296D01*
X145382613Y-100080429D01*
X145288536Y-100015044D01*
X145208951Y-99932631D01*
X145160827Y-99857957D01*
X145146888Y-99836328D01*
X145104713Y-99729806D01*
X145084032Y-99617124D01*
X145084032Y-99617121D01*
X145085631Y-99502565D01*
X145109451Y-99390501D01*
X145154584Y-99285198D01*
X145219311Y-99190666D01*
X145260239Y-99150587D01*
X145301168Y-99110506D01*
X145397033Y-99047775D01*
X145503258Y-99004857D01*
X145615796Y-98983389D01*
X145730361Y-98984189D01*
X145730361Y-98984189D01*
G37*
G36*
X104089200Y-100152200D02*
X102920800Y-100152200D01*
X102920800Y-98983800D01*
X104089200Y-98983800D01*
X104089200Y-100152200D01*
X104089200Y-100152200D01*
G37*
G36*
X117297200Y-100152200D02*
X116128800Y-100152200D01*
X116128800Y-98983800D01*
X117297200Y-98983800D01*
X117297200Y-100152200D01*
X117297200Y-100152200D01*
G37*
G36*
X130505200Y-100152200D02*
X129336800Y-100152200D01*
X129336800Y-98983800D01*
X130505200Y-98983800D01*
X130505200Y-100152200D01*
X130505200Y-100152200D01*
G37*
G36*
X143713200Y-100152200D02*
X142544800Y-100152200D01*
X142544800Y-98983800D01*
X143713200Y-98983800D01*
X143713200Y-100152200D01*
X143713200Y-100152200D01*
G37*
G36*
X112061200Y-96752400D02*
X111458800Y-96752400D01*
X111458800Y-96010000D01*
X112061200Y-96010000D01*
X112061200Y-96752400D01*
X112061200Y-96752400D01*
G37*
G36*
X125269200Y-96752400D02*
X124666800Y-96752400D01*
X124666800Y-96010000D01*
X125269200Y-96010000D01*
X125269200Y-96752400D01*
X125269200Y-96752400D01*
G37*
G36*
X138604200Y-96752400D02*
X138001800Y-96752400D01*
X138001800Y-96010000D01*
X138604200Y-96010000D01*
X138604200Y-96752400D01*
X138604200Y-96752400D01*
G37*
G36*
X151939200Y-96752400D02*
X151336800Y-96752400D01*
X151336800Y-96010000D01*
X151939200Y-96010000D01*
X151939200Y-96752400D01*
X151939200Y-96752400D01*
G37*
G36*
X110507400Y-96602400D02*
X108905000Y-96602400D01*
X108905000Y-96000000D01*
X110507400Y-96000000D01*
X110507400Y-96602400D01*
X110507400Y-96602400D01*
G37*
G36*
X104607400Y-96602400D02*
X103005000Y-96602400D01*
X103005000Y-96000000D01*
X104607400Y-96000000D01*
X104607400Y-96602400D01*
X104607400Y-96602400D01*
G37*
G36*
X123715400Y-96602400D02*
X122113000Y-96602400D01*
X122113000Y-96000000D01*
X123715400Y-96000000D01*
X123715400Y-96602400D01*
X123715400Y-96602400D01*
G37*
G36*
X117815400Y-96602400D02*
X116213000Y-96602400D01*
X116213000Y-96000000D01*
X117815400Y-96000000D01*
X117815400Y-96602400D01*
X117815400Y-96602400D01*
G37*
G36*
X136923400Y-96602400D02*
X135321000Y-96602400D01*
X135321000Y-96000000D01*
X136923400Y-96000000D01*
X136923400Y-96602400D01*
X136923400Y-96602400D01*
G37*
G36*
X131023400Y-96602400D02*
X129421000Y-96602400D01*
X129421000Y-96000000D01*
X131023400Y-96000000D01*
X131023400Y-96602400D01*
X131023400Y-96602400D01*
G37*
G36*
X150131400Y-96602400D02*
X148529000Y-96602400D01*
X148529000Y-96000000D01*
X150131400Y-96000000D01*
X150131400Y-96602400D01*
X150131400Y-96602400D01*
G37*
G36*
X144231400Y-96602400D02*
X142629000Y-96602400D01*
X142629000Y-96000000D01*
X144231400Y-96000000D01*
X144231400Y-96602400D01*
X144231400Y-96602400D01*
G37*
G36*
X117815400Y-95952400D02*
X116213000Y-95952400D01*
X116213000Y-95350000D01*
X117815400Y-95350000D01*
X117815400Y-95952400D01*
X117815400Y-95952400D01*
G37*
G36*
X123715400Y-95952400D02*
X122113000Y-95952400D01*
X122113000Y-95350000D01*
X123715400Y-95350000D01*
X123715400Y-95952400D01*
X123715400Y-95952400D01*
G37*
G36*
X104607400Y-95952400D02*
X103005000Y-95952400D01*
X103005000Y-95350000D01*
X104607400Y-95350000D01*
X104607400Y-95952400D01*
X104607400Y-95952400D01*
G37*
G36*
X131023400Y-95952400D02*
X129421000Y-95952400D01*
X129421000Y-95350000D01*
X131023400Y-95350000D01*
X131023400Y-95952400D01*
X131023400Y-95952400D01*
G37*
G36*
X136923400Y-95952400D02*
X135321000Y-95952400D01*
X135321000Y-95350000D01*
X136923400Y-95350000D01*
X136923400Y-95952400D01*
X136923400Y-95952400D01*
G37*
G36*
X144231400Y-95952400D02*
X142629000Y-95952400D01*
X142629000Y-95350000D01*
X144231400Y-95350000D01*
X144231400Y-95952400D01*
X144231400Y-95952400D01*
G37*
G36*
X150131400Y-95952400D02*
X148529000Y-95952400D01*
X148529000Y-95350000D01*
X150131400Y-95350000D01*
X150131400Y-95952400D01*
X150131400Y-95952400D01*
G37*
G36*
X110507400Y-95952400D02*
X108905000Y-95952400D01*
X108905000Y-95350000D01*
X110507400Y-95350000D01*
X110507400Y-95952400D01*
X110507400Y-95952400D01*
G37*
G36*
X110507400Y-95302400D02*
X108905000Y-95302400D01*
X108905000Y-94700000D01*
X110507400Y-94700000D01*
X110507400Y-95302400D01*
X110507400Y-95302400D01*
G37*
G36*
X117815400Y-95302400D02*
X116213000Y-95302400D01*
X116213000Y-94700000D01*
X117815400Y-94700000D01*
X117815400Y-95302400D01*
X117815400Y-95302400D01*
G37*
G36*
X104607400Y-95302400D02*
X103005000Y-95302400D01*
X103005000Y-94700000D01*
X104607400Y-94700000D01*
X104607400Y-95302400D01*
X104607400Y-95302400D01*
G37*
G36*
X150131400Y-95302400D02*
X148529000Y-95302400D01*
X148529000Y-94700000D01*
X150131400Y-94700000D01*
X150131400Y-95302400D01*
X150131400Y-95302400D01*
G37*
G36*
X144231400Y-95302400D02*
X142629000Y-95302400D01*
X142629000Y-94700000D01*
X144231400Y-94700000D01*
X144231400Y-95302400D01*
X144231400Y-95302400D01*
G37*
G36*
X136923400Y-95302400D02*
X135321000Y-95302400D01*
X135321000Y-94700000D01*
X136923400Y-94700000D01*
X136923400Y-95302400D01*
X136923400Y-95302400D01*
G37*
G36*
X131023400Y-95302400D02*
X129421000Y-95302400D01*
X129421000Y-94700000D01*
X131023400Y-94700000D01*
X131023400Y-95302400D01*
X131023400Y-95302400D01*
G37*
G36*
X123715400Y-95302400D02*
X122113000Y-95302400D01*
X122113000Y-94700000D01*
X123715400Y-94700000D01*
X123715400Y-95302400D01*
X123715400Y-95302400D01*
G37*
G36*
X110507400Y-94652400D02*
X108905000Y-94652400D01*
X108905000Y-94050000D01*
X110507400Y-94050000D01*
X110507400Y-94652400D01*
X110507400Y-94652400D01*
G37*
G36*
X104607400Y-94652400D02*
X103005000Y-94652400D01*
X103005000Y-94050000D01*
X104607400Y-94050000D01*
X104607400Y-94652400D01*
X104607400Y-94652400D01*
G37*
G36*
X117815400Y-94652400D02*
X116213000Y-94652400D01*
X116213000Y-94050000D01*
X117815400Y-94050000D01*
X117815400Y-94652400D01*
X117815400Y-94652400D01*
G37*
G36*
X150131400Y-94652400D02*
X148529000Y-94652400D01*
X148529000Y-94050000D01*
X150131400Y-94050000D01*
X150131400Y-94652400D01*
X150131400Y-94652400D01*
G37*
G36*
X144231400Y-94652400D02*
X142629000Y-94652400D01*
X142629000Y-94050000D01*
X144231400Y-94050000D01*
X144231400Y-94652400D01*
X144231400Y-94652400D01*
G37*
G36*
X136923400Y-94652400D02*
X135321000Y-94652400D01*
X135321000Y-94050000D01*
X136923400Y-94050000D01*
X136923400Y-94652400D01*
X136923400Y-94652400D01*
G37*
G36*
X131023400Y-94652400D02*
X129421000Y-94652400D01*
X129421000Y-94050000D01*
X131023400Y-94050000D01*
X131023400Y-94652400D01*
X131023400Y-94652400D01*
G37*
G36*
X123715400Y-94652400D02*
X122113000Y-94652400D01*
X122113000Y-94050000D01*
X123715400Y-94050000D01*
X123715400Y-94652400D01*
X123715400Y-94652400D01*
G37*
G36*
X151939200Y-94642400D02*
X151336800Y-94642400D01*
X151336800Y-93900000D01*
X151939200Y-93900000D01*
X151939200Y-94642400D01*
X151939200Y-94642400D01*
G37*
G36*
X138604200Y-94642400D02*
X138001800Y-94642400D01*
X138001800Y-93900000D01*
X138604200Y-93900000D01*
X138604200Y-94642400D01*
X138604200Y-94642400D01*
G37*
G36*
X125269200Y-94642400D02*
X124666800Y-94642400D01*
X124666800Y-93900000D01*
X125269200Y-93900000D01*
X125269200Y-94642400D01*
X125269200Y-94642400D01*
G37*
G36*
X112061200Y-94642400D02*
X111458800Y-94642400D01*
X111458800Y-93900000D01*
X112061200Y-93900000D01*
X112061200Y-94642400D01*
X112061200Y-94642400D01*
G37*
G36*
X125419200Y-92412200D02*
X124516800Y-92412200D01*
X124516800Y-91459800D01*
X125419200Y-91459800D01*
X125419200Y-92412200D01*
X125419200Y-92412200D01*
G37*
G36*
X116402200Y-92412200D02*
X115499800Y-92412200D01*
X115499800Y-91459800D01*
X116402200Y-91459800D01*
X116402200Y-92412200D01*
X116402200Y-92412200D01*
G37*
G36*
X112211200Y-92412200D02*
X111308800Y-92412200D01*
X111308800Y-91459800D01*
X112211200Y-91459800D01*
X112211200Y-92412200D01*
X112211200Y-92412200D01*
G37*
G36*
X103194200Y-92412200D02*
X102291800Y-92412200D01*
X102291800Y-91459800D01*
X103194200Y-91459800D01*
X103194200Y-92412200D01*
X103194200Y-92412200D01*
G37*
G36*
X142818200Y-92412200D02*
X141915800Y-92412200D01*
X141915800Y-91459800D01*
X142818200Y-91459800D01*
X142818200Y-92412200D01*
X142818200Y-92412200D01*
G37*
G36*
X138627200Y-92412200D02*
X137724800Y-92412200D01*
X137724800Y-91459800D01*
X138627200Y-91459800D01*
X138627200Y-92412200D01*
X138627200Y-92412200D01*
G37*
G36*
X129610200Y-92412200D02*
X128707800Y-92412200D01*
X128707800Y-91459800D01*
X129610200Y-91459800D01*
X129610200Y-92412200D01*
X129610200Y-92412200D01*
G37*
G36*
X151835200Y-92412200D02*
X150932800Y-92412200D01*
X150932800Y-91459800D01*
X151835200Y-91459800D01*
X151835200Y-92412200D01*
X151835200Y-92412200D01*
G37*
G36*
X108730200Y-92262200D02*
X107677800Y-92262200D01*
X107677800Y-91609800D01*
X108730200Y-91609800D01*
X108730200Y-92262200D01*
X108730200Y-92262200D01*
G37*
G36*
X118382200Y-92262200D02*
X117329800Y-92262200D01*
X117329800Y-91609800D01*
X118382200Y-91609800D01*
X118382200Y-92262200D01*
X118382200Y-92262200D01*
G37*
G36*
X106952200Y-92262200D02*
X105899800Y-92262200D01*
X105899800Y-91609800D01*
X106952200Y-91609800D01*
X106952200Y-92262200D01*
X106952200Y-92262200D01*
G37*
G36*
X123716200Y-92262200D02*
X122663800Y-92262200D01*
X122663800Y-91609800D01*
X123716200Y-91609800D01*
X123716200Y-92262200D01*
X123716200Y-92262200D01*
G37*
G36*
X121938200Y-92262200D02*
X120885800Y-92262200D01*
X120885800Y-91609800D01*
X121938200Y-91609800D01*
X121938200Y-92262200D01*
X121938200Y-92262200D01*
G37*
G36*
X120160200Y-92262200D02*
X119107800Y-92262200D01*
X119107800Y-91609800D01*
X120160200Y-91609800D01*
X120160200Y-92262200D01*
X120160200Y-92262200D01*
G37*
G36*
X136924200Y-92262200D02*
X135871800Y-92262200D01*
X135871800Y-91609800D01*
X136924200Y-91609800D01*
X136924200Y-92262200D01*
X136924200Y-92262200D01*
G37*
G36*
X131590200Y-92262200D02*
X130537800Y-92262200D01*
X130537800Y-91609800D01*
X131590200Y-91609800D01*
X131590200Y-92262200D01*
X131590200Y-92262200D01*
G37*
G36*
X150132200Y-92262200D02*
X149079800Y-92262200D01*
X149079800Y-91609800D01*
X150132200Y-91609800D01*
X150132200Y-92262200D01*
X150132200Y-92262200D01*
G37*
G36*
X146576200Y-92262200D02*
X145523800Y-92262200D01*
X145523800Y-91609800D01*
X146576200Y-91609800D01*
X146576200Y-92262200D01*
X146576200Y-92262200D01*
G37*
G36*
X144798200Y-92262200D02*
X143745800Y-92262200D01*
X143745800Y-91609800D01*
X144798200Y-91609800D01*
X144798200Y-92262200D01*
X144798200Y-92262200D01*
G37*
G36*
X105174200Y-92262200D02*
X104121800Y-92262200D01*
X104121800Y-91609800D01*
X105174200Y-91609800D01*
X105174200Y-92262200D01*
X105174200Y-92262200D01*
G37*
G36*
X135146200Y-92262200D02*
X134093800Y-92262200D01*
X134093800Y-91609800D01*
X135146200Y-91609800D01*
X135146200Y-92262200D01*
X135146200Y-92262200D01*
G37*
G36*
X148354200Y-92262200D02*
X147301800Y-92262200D01*
X147301800Y-91609800D01*
X148354200Y-91609800D01*
X148354200Y-92262200D01*
X148354200Y-92262200D01*
G37*
G36*
X133368200Y-92262200D02*
X132315800Y-92262200D01*
X132315800Y-91609800D01*
X133368200Y-91609800D01*
X133368200Y-92262200D01*
X133368200Y-92262200D01*
G37*
G36*
X110508200Y-92262200D02*
X109455800Y-92262200D01*
X109455800Y-91609800D01*
X110508200Y-91609800D01*
X110508200Y-92262200D01*
X110508200Y-92262200D01*
G37*
G36*
X151835200Y-90912200D02*
X150932800Y-90912200D01*
X150932800Y-89959800D01*
X151835200Y-89959800D01*
X151835200Y-90912200D01*
X151835200Y-90912200D01*
G37*
G36*
X142818200Y-90912200D02*
X141915800Y-90912200D01*
X141915800Y-89959800D01*
X142818200Y-89959800D01*
X142818200Y-90912200D01*
X142818200Y-90912200D01*
G37*
G36*
X112211200Y-90912200D02*
X111308800Y-90912200D01*
X111308800Y-89959800D01*
X112211200Y-89959800D01*
X112211200Y-90912200D01*
X112211200Y-90912200D01*
G37*
G36*
X103194200Y-90912200D02*
X102291800Y-90912200D01*
X102291800Y-89959800D01*
X103194200Y-89959800D01*
X103194200Y-90912200D01*
X103194200Y-90912200D01*
G37*
G36*
X138627200Y-90912200D02*
X137724800Y-90912200D01*
X137724800Y-89959800D01*
X138627200Y-89959800D01*
X138627200Y-90912200D01*
X138627200Y-90912200D01*
G37*
G36*
X116402200Y-90912200D02*
X115499800Y-90912200D01*
X115499800Y-89959800D01*
X116402200Y-89959800D01*
X116402200Y-90912200D01*
X116402200Y-90912200D01*
G37*
G36*
X129610200Y-90912200D02*
X128707800Y-90912200D01*
X128707800Y-89959800D01*
X129610200Y-89959800D01*
X129610200Y-90912200D01*
X129610200Y-90912200D01*
G37*
G36*
X125419200Y-90912200D02*
X124516800Y-90912200D01*
X124516800Y-89959800D01*
X125419200Y-89959800D01*
X125419200Y-90912200D01*
X125419200Y-90912200D01*
G37*
G36*
X150132200Y-90762200D02*
X149079800Y-90762200D01*
X149079800Y-90109800D01*
X150132200Y-90109800D01*
X150132200Y-90762200D01*
X150132200Y-90762200D01*
G37*
G36*
X148354200Y-90762200D02*
X147301800Y-90762200D01*
X147301800Y-90109800D01*
X148354200Y-90109800D01*
X148354200Y-90762200D01*
X148354200Y-90762200D01*
G37*
G36*
X105174200Y-90762200D02*
X104121800Y-90762200D01*
X104121800Y-90109800D01*
X105174200Y-90109800D01*
X105174200Y-90762200D01*
X105174200Y-90762200D01*
G37*
G36*
X106952200Y-90762200D02*
X105899800Y-90762200D01*
X105899800Y-90109800D01*
X106952200Y-90109800D01*
X106952200Y-90762200D01*
X106952200Y-90762200D01*
G37*
G36*
X108730200Y-90762200D02*
X107677800Y-90762200D01*
X107677800Y-90109800D01*
X108730200Y-90109800D01*
X108730200Y-90762200D01*
X108730200Y-90762200D01*
G37*
G36*
X110508200Y-90762200D02*
X109455800Y-90762200D01*
X109455800Y-90109800D01*
X110508200Y-90109800D01*
X110508200Y-90762200D01*
X110508200Y-90762200D01*
G37*
G36*
X118382200Y-90762200D02*
X117329800Y-90762200D01*
X117329800Y-90109800D01*
X118382200Y-90109800D01*
X118382200Y-90762200D01*
X118382200Y-90762200D01*
G37*
G36*
X120160200Y-90762200D02*
X119107800Y-90762200D01*
X119107800Y-90109800D01*
X120160200Y-90109800D01*
X120160200Y-90762200D01*
X120160200Y-90762200D01*
G37*
G36*
X121938200Y-90762200D02*
X120885800Y-90762200D01*
X120885800Y-90109800D01*
X121938200Y-90109800D01*
X121938200Y-90762200D01*
X121938200Y-90762200D01*
G37*
G36*
X123716200Y-90762200D02*
X122663800Y-90762200D01*
X122663800Y-90109800D01*
X123716200Y-90109800D01*
X123716200Y-90762200D01*
X123716200Y-90762200D01*
G37*
G36*
X131590200Y-90762200D02*
X130537800Y-90762200D01*
X130537800Y-90109800D01*
X131590200Y-90109800D01*
X131590200Y-90762200D01*
X131590200Y-90762200D01*
G37*
G36*
X146576200Y-90762200D02*
X145523800Y-90762200D01*
X145523800Y-90109800D01*
X146576200Y-90109800D01*
X146576200Y-90762200D01*
X146576200Y-90762200D01*
G37*
G36*
X133368200Y-90762200D02*
X132315800Y-90762200D01*
X132315800Y-90109800D01*
X133368200Y-90109800D01*
X133368200Y-90762200D01*
X133368200Y-90762200D01*
G37*
G36*
X144798200Y-90762200D02*
X143745800Y-90762200D01*
X143745800Y-90109800D01*
X144798200Y-90109800D01*
X144798200Y-90762200D01*
X144798200Y-90762200D01*
G37*
G36*
X135146200Y-90762200D02*
X134093800Y-90762200D01*
X134093800Y-90109800D01*
X135146200Y-90109800D01*
X135146200Y-90762200D01*
X135146200Y-90762200D01*
G37*
G36*
X136924200Y-90762200D02*
X135871800Y-90762200D01*
X135871800Y-90109800D01*
X136924200Y-90109800D01*
X136924200Y-90762200D01*
X136924200Y-90762200D01*
G37*
G36*
X106441200Y-88206200D02*
X103138800Y-88206200D01*
X103138800Y-87053800D01*
X106441200Y-87053800D01*
X106441200Y-88206200D01*
X106441200Y-88206200D01*
G37*
G36*
X119649200Y-88206200D02*
X116346800Y-88206200D01*
X116346800Y-87053800D01*
X119649200Y-87053800D01*
X119649200Y-88206200D01*
X119649200Y-88206200D01*
G37*
G36*
X111491200Y-88206200D02*
X108188800Y-88206200D01*
X108188800Y-87053800D01*
X111491200Y-87053800D01*
X111491200Y-88206200D01*
X111491200Y-88206200D01*
G37*
G36*
X124699200Y-88206200D02*
X121396800Y-88206200D01*
X121396800Y-87053800D01*
X124699200Y-87053800D01*
X124699200Y-88206200D01*
X124699200Y-88206200D01*
G37*
G36*
X137907200Y-88206200D02*
X134604800Y-88206200D01*
X134604800Y-87053800D01*
X137907200Y-87053800D01*
X137907200Y-88206200D01*
X137907200Y-88206200D01*
G37*
G36*
X146065200Y-88206200D02*
X142762800Y-88206200D01*
X142762800Y-87053800D01*
X146065200Y-87053800D01*
X146065200Y-88206200D01*
X146065200Y-88206200D01*
G37*
G36*
X151115200Y-88206200D02*
X147812800Y-88206200D01*
X147812800Y-87053800D01*
X151115200Y-87053800D01*
X151115200Y-88206200D01*
X151115200Y-88206200D01*
G37*
G36*
X132857200Y-88206200D02*
X129554800Y-88206200D01*
X129554800Y-87053800D01*
X132857200Y-87053800D01*
X132857200Y-88206200D01*
X132857200Y-88206200D01*
G37*
G36*
X137907200Y-85666200D02*
X134604800Y-85666200D01*
X134604800Y-84513800D01*
X137907200Y-84513800D01*
X137907200Y-85666200D01*
X137907200Y-85666200D01*
G37*
G36*
X132857200Y-85666200D02*
X129554800Y-85666200D01*
X129554800Y-84513800D01*
X132857200Y-84513800D01*
X132857200Y-85666200D01*
X132857200Y-85666200D01*
G37*
G36*
X124699200Y-85666200D02*
X121396800Y-85666200D01*
X121396800Y-84513800D01*
X124699200Y-84513800D01*
X124699200Y-85666200D01*
X124699200Y-85666200D01*
G37*
G36*
X119649200Y-85666200D02*
X116346800Y-85666200D01*
X116346800Y-84513800D01*
X119649200Y-84513800D01*
X119649200Y-85666200D01*
X119649200Y-85666200D01*
G37*
G36*
X111491200Y-85666200D02*
X108188800Y-85666200D01*
X108188800Y-84513800D01*
X111491200Y-84513800D01*
X111491200Y-85666200D01*
X111491200Y-85666200D01*
G37*
G36*
X106441200Y-85666200D02*
X103138800Y-85666200D01*
X103138800Y-84513800D01*
X106441200Y-84513800D01*
X106441200Y-85666200D01*
X106441200Y-85666200D01*
G37*
G36*
X146065200Y-85666200D02*
X142762800Y-85666200D01*
X142762800Y-84513800D01*
X146065200Y-84513800D01*
X146065200Y-85666200D01*
X146065200Y-85666200D01*
G37*
G36*
X151115200Y-85666200D02*
X147812800Y-85666200D01*
X147812800Y-84513800D01*
X151115200Y-84513800D01*
X151115200Y-85666200D01*
X151115200Y-85666200D01*
G37*
G36*
X119314361Y-79426189D02*
X119426589Y-79449226D01*
X119465344Y-79465517D01*
X119532204Y-79493622D01*
X119627184Y-79557687D01*
X119707915Y-79638984D01*
X119739613Y-79686695D01*
X119771314Y-79734408D01*
X119809297Y-79826563D01*
X119814973Y-79840333D01*
X119828657Y-79909444D01*
X119837225Y-79952716D01*
X119835398Y-80083574D01*
X119810016Y-80195295D01*
X119781305Y-80259780D01*
X119763418Y-80299956D01*
X119763417Y-80299957D01*
X119697377Y-80393576D01*
X119614410Y-80472584D01*
X119517677Y-80533972D01*
X119410863Y-80575402D01*
X119410860Y-80575403D01*
X119328768Y-80589878D01*
X119298036Y-80595297D01*
X119298035Y-80595297D01*
X119245659Y-80594200D01*
X119183494Y-80592898D01*
X119071599Y-80568296D01*
X118966613Y-80522429D01*
X118872536Y-80457044D01*
X118792951Y-80374631D01*
X118744827Y-80299957D01*
X118730888Y-80278328D01*
X118688713Y-80171806D01*
X118668032Y-80059124D01*
X118668032Y-80059121D01*
X118669631Y-79944565D01*
X118693451Y-79832501D01*
X118738584Y-79727198D01*
X118803311Y-79632666D01*
X118844239Y-79592587D01*
X118885168Y-79552506D01*
X118981033Y-79489775D01*
X119087258Y-79446857D01*
X119199796Y-79425389D01*
X119314361Y-79426189D01*
X119314361Y-79426189D01*
G37*
G36*
X121854361Y-79426189D02*
X121966589Y-79449226D01*
X122005344Y-79465517D01*
X122072204Y-79493622D01*
X122167184Y-79557687D01*
X122247915Y-79638984D01*
X122279614Y-79686695D01*
X122311314Y-79734408D01*
X122349297Y-79826563D01*
X122354973Y-79840333D01*
X122368657Y-79909444D01*
X122377225Y-79952716D01*
X122375398Y-80083574D01*
X122350016Y-80195295D01*
X122321305Y-80259780D01*
X122303418Y-80299956D01*
X122303417Y-80299957D01*
X122237377Y-80393576D01*
X122154410Y-80472584D01*
X122057677Y-80533972D01*
X121950863Y-80575402D01*
X121950860Y-80575403D01*
X121868768Y-80589878D01*
X121838036Y-80595297D01*
X121838035Y-80595297D01*
X121785659Y-80594200D01*
X121723494Y-80592898D01*
X121611599Y-80568296D01*
X121506613Y-80522429D01*
X121412536Y-80457044D01*
X121332951Y-80374631D01*
X121284827Y-80299957D01*
X121270888Y-80278328D01*
X121228713Y-80171806D01*
X121208032Y-80059124D01*
X121208032Y-80059121D01*
X121209631Y-79944565D01*
X121233451Y-79832501D01*
X121278584Y-79727198D01*
X121343311Y-79632666D01*
X121384239Y-79592587D01*
X121425168Y-79552506D01*
X121521033Y-79489775D01*
X121627258Y-79446857D01*
X121739796Y-79425389D01*
X121854361Y-79426189D01*
X121854361Y-79426189D01*
G37*
G36*
X106106361Y-79426189D02*
X106218589Y-79449226D01*
X106257344Y-79465517D01*
X106324204Y-79493622D01*
X106419184Y-79557687D01*
X106499915Y-79638984D01*
X106531613Y-79686695D01*
X106563314Y-79734408D01*
X106601297Y-79826563D01*
X106606973Y-79840333D01*
X106620657Y-79909444D01*
X106629225Y-79952716D01*
X106627398Y-80083574D01*
X106602016Y-80195295D01*
X106573305Y-80259780D01*
X106555418Y-80299956D01*
X106555417Y-80299957D01*
X106489377Y-80393576D01*
X106406410Y-80472584D01*
X106309677Y-80533972D01*
X106202863Y-80575402D01*
X106202860Y-80575403D01*
X106120768Y-80589878D01*
X106090036Y-80595297D01*
X106090035Y-80595297D01*
X106037659Y-80594200D01*
X105975494Y-80592898D01*
X105863599Y-80568296D01*
X105758613Y-80522429D01*
X105664536Y-80457044D01*
X105584951Y-80374631D01*
X105536827Y-80299957D01*
X105522888Y-80278328D01*
X105480713Y-80171806D01*
X105460032Y-80059124D01*
X105460032Y-80059121D01*
X105461631Y-79944565D01*
X105485451Y-79832501D01*
X105530584Y-79727198D01*
X105595311Y-79632666D01*
X105636239Y-79592587D01*
X105677168Y-79552506D01*
X105773033Y-79489775D01*
X105879258Y-79446857D01*
X105991796Y-79425389D01*
X106106361Y-79426189D01*
X106106361Y-79426189D01*
G37*
G36*
X108646361Y-79426189D02*
X108758589Y-79449226D01*
X108797344Y-79465517D01*
X108864204Y-79493622D01*
X108959184Y-79557687D01*
X109039915Y-79638984D01*
X109071613Y-79686695D01*
X109103314Y-79734408D01*
X109141297Y-79826563D01*
X109146973Y-79840333D01*
X109160657Y-79909444D01*
X109169225Y-79952716D01*
X109167398Y-80083574D01*
X109142016Y-80195295D01*
X109113305Y-80259780D01*
X109095418Y-80299956D01*
X109095417Y-80299957D01*
X109029377Y-80393576D01*
X108946410Y-80472584D01*
X108849677Y-80533972D01*
X108742863Y-80575402D01*
X108742860Y-80575403D01*
X108660768Y-80589878D01*
X108630036Y-80595297D01*
X108630035Y-80595297D01*
X108577659Y-80594200D01*
X108515494Y-80592898D01*
X108403599Y-80568296D01*
X108298613Y-80522429D01*
X108204536Y-80457044D01*
X108124951Y-80374631D01*
X108076827Y-80299957D01*
X108062888Y-80278328D01*
X108020713Y-80171806D01*
X108000032Y-80059124D01*
X108000032Y-80059121D01*
X108001631Y-79944565D01*
X108025451Y-79832501D01*
X108070584Y-79727198D01*
X108135311Y-79632666D01*
X108176239Y-79592587D01*
X108217168Y-79552506D01*
X108313033Y-79489775D01*
X108419258Y-79446857D01*
X108531796Y-79425389D01*
X108646361Y-79426189D01*
X108646361Y-79426189D01*
G37*
G36*
X111186361Y-79426189D02*
X111298589Y-79449226D01*
X111337344Y-79465517D01*
X111404204Y-79493622D01*
X111499184Y-79557687D01*
X111579915Y-79638984D01*
X111611613Y-79686695D01*
X111643314Y-79734408D01*
X111681297Y-79826563D01*
X111686973Y-79840333D01*
X111700657Y-79909444D01*
X111709225Y-79952716D01*
X111707398Y-80083574D01*
X111682016Y-80195295D01*
X111653305Y-80259780D01*
X111635418Y-80299956D01*
X111635417Y-80299957D01*
X111569377Y-80393576D01*
X111486410Y-80472584D01*
X111389677Y-80533972D01*
X111282863Y-80575402D01*
X111282860Y-80575403D01*
X111200768Y-80589878D01*
X111170036Y-80595297D01*
X111170035Y-80595297D01*
X111117659Y-80594200D01*
X111055494Y-80592898D01*
X110943599Y-80568296D01*
X110838613Y-80522429D01*
X110744536Y-80457044D01*
X110664951Y-80374631D01*
X110616827Y-80299957D01*
X110602888Y-80278328D01*
X110560713Y-80171806D01*
X110540032Y-80059124D01*
X110540032Y-80059121D01*
X110541631Y-79944565D01*
X110565451Y-79832501D01*
X110610584Y-79727198D01*
X110675311Y-79632666D01*
X110716239Y-79592587D01*
X110757168Y-79552506D01*
X110853033Y-79489775D01*
X110959258Y-79446857D01*
X111071796Y-79425389D01*
X111186361Y-79426189D01*
X111186361Y-79426189D01*
G37*
G36*
X132522361Y-79426189D02*
X132634589Y-79449226D01*
X132673344Y-79465517D01*
X132740204Y-79493622D01*
X132835184Y-79557687D01*
X132915915Y-79638984D01*
X132947614Y-79686695D01*
X132979314Y-79734408D01*
X133017297Y-79826563D01*
X133022973Y-79840333D01*
X133036657Y-79909444D01*
X133045225Y-79952716D01*
X133043398Y-80083574D01*
X133018016Y-80195295D01*
X132989305Y-80259780D01*
X132971418Y-80299956D01*
X132971417Y-80299957D01*
X132905377Y-80393576D01*
X132822410Y-80472584D01*
X132725677Y-80533972D01*
X132618863Y-80575402D01*
X132618860Y-80575403D01*
X132536768Y-80589878D01*
X132506036Y-80595297D01*
X132506035Y-80595297D01*
X132453659Y-80594200D01*
X132391494Y-80592898D01*
X132279599Y-80568296D01*
X132174613Y-80522429D01*
X132080536Y-80457044D01*
X132000951Y-80374631D01*
X131952827Y-80299957D01*
X131938888Y-80278328D01*
X131896713Y-80171806D01*
X131876032Y-80059124D01*
X131876032Y-80059121D01*
X131877631Y-79944565D01*
X131901451Y-79832501D01*
X131946584Y-79727198D01*
X132011311Y-79632666D01*
X132052239Y-79592587D01*
X132093168Y-79552506D01*
X132189033Y-79489775D01*
X132295258Y-79446857D01*
X132407796Y-79425389D01*
X132522361Y-79426189D01*
X132522361Y-79426189D01*
G37*
G36*
X135062361Y-79426189D02*
X135174589Y-79449226D01*
X135213344Y-79465517D01*
X135280204Y-79493622D01*
X135375184Y-79557687D01*
X135455915Y-79638984D01*
X135487614Y-79686695D01*
X135519314Y-79734408D01*
X135557297Y-79826563D01*
X135562973Y-79840333D01*
X135576657Y-79909444D01*
X135585225Y-79952716D01*
X135583398Y-80083574D01*
X135558016Y-80195295D01*
X135529305Y-80259780D01*
X135511418Y-80299956D01*
X135511417Y-80299957D01*
X135445377Y-80393576D01*
X135362410Y-80472584D01*
X135265677Y-80533972D01*
X135158863Y-80575402D01*
X135158860Y-80575403D01*
X135076768Y-80589878D01*
X135046036Y-80595297D01*
X135046035Y-80595297D01*
X134993659Y-80594200D01*
X134931494Y-80592898D01*
X134819599Y-80568296D01*
X134714613Y-80522429D01*
X134620536Y-80457044D01*
X134540951Y-80374631D01*
X134492827Y-80299957D01*
X134478888Y-80278328D01*
X134436713Y-80171806D01*
X134416032Y-80059124D01*
X134416032Y-80059121D01*
X134417631Y-79944565D01*
X134441451Y-79832501D01*
X134486584Y-79727198D01*
X134551311Y-79632666D01*
X134592239Y-79592587D01*
X134633168Y-79552506D01*
X134729033Y-79489775D01*
X134835258Y-79446857D01*
X134947796Y-79425389D01*
X135062361Y-79426189D01*
X135062361Y-79426189D01*
G37*
G36*
X137602361Y-79426189D02*
X137714589Y-79449226D01*
X137753344Y-79465517D01*
X137820204Y-79493622D01*
X137915184Y-79557687D01*
X137995915Y-79638984D01*
X138027614Y-79686695D01*
X138059314Y-79734408D01*
X138097297Y-79826563D01*
X138102973Y-79840333D01*
X138116657Y-79909444D01*
X138125225Y-79952716D01*
X138123398Y-80083574D01*
X138098016Y-80195295D01*
X138069305Y-80259780D01*
X138051418Y-80299956D01*
X138051417Y-80299957D01*
X137985377Y-80393576D01*
X137902410Y-80472584D01*
X137805677Y-80533972D01*
X137698863Y-80575402D01*
X137698860Y-80575403D01*
X137616768Y-80589878D01*
X137586036Y-80595297D01*
X137586035Y-80595297D01*
X137533659Y-80594200D01*
X137471494Y-80592898D01*
X137359599Y-80568296D01*
X137254613Y-80522429D01*
X137160536Y-80457044D01*
X137080951Y-80374631D01*
X137032827Y-80299957D01*
X137018888Y-80278328D01*
X136976713Y-80171806D01*
X136956032Y-80059124D01*
X136956032Y-80059121D01*
X136957631Y-79944565D01*
X136981451Y-79832501D01*
X137026584Y-79727198D01*
X137091311Y-79632666D01*
X137132239Y-79592587D01*
X137173168Y-79552506D01*
X137269033Y-79489775D01*
X137375258Y-79446857D01*
X137487796Y-79425389D01*
X137602361Y-79426189D01*
X137602361Y-79426189D01*
G37*
G36*
X145730361Y-79426189D02*
X145842589Y-79449226D01*
X145881344Y-79465517D01*
X145948204Y-79493622D01*
X146043184Y-79557687D01*
X146123915Y-79638984D01*
X146155614Y-79686695D01*
X146187314Y-79734408D01*
X146225297Y-79826563D01*
X146230973Y-79840333D01*
X146244657Y-79909444D01*
X146253225Y-79952716D01*
X146251398Y-80083574D01*
X146226016Y-80195295D01*
X146197305Y-80259780D01*
X146179418Y-80299956D01*
X146179417Y-80299957D01*
X146113377Y-80393576D01*
X146030410Y-80472584D01*
X145933677Y-80533972D01*
X145826863Y-80575402D01*
X145826860Y-80575403D01*
X145744768Y-80589878D01*
X145714036Y-80595297D01*
X145714035Y-80595297D01*
X145661659Y-80594200D01*
X145599494Y-80592898D01*
X145487599Y-80568296D01*
X145382613Y-80522429D01*
X145288536Y-80457044D01*
X145208951Y-80374631D01*
X145160827Y-80299957D01*
X145146888Y-80278328D01*
X145104713Y-80171806D01*
X145084032Y-80059124D01*
X145084032Y-80059121D01*
X145085631Y-79944565D01*
X145109451Y-79832501D01*
X145154584Y-79727198D01*
X145219311Y-79632666D01*
X145260239Y-79592587D01*
X145301168Y-79552506D01*
X145397033Y-79489775D01*
X145503258Y-79446857D01*
X145615796Y-79425389D01*
X145730361Y-79426189D01*
X145730361Y-79426189D01*
G37*
G36*
X148270361Y-79426189D02*
X148382589Y-79449226D01*
X148421344Y-79465517D01*
X148488204Y-79493622D01*
X148583184Y-79557687D01*
X148663915Y-79638984D01*
X148695614Y-79686695D01*
X148727314Y-79734408D01*
X148765297Y-79826563D01*
X148770973Y-79840333D01*
X148784657Y-79909444D01*
X148793225Y-79952716D01*
X148791398Y-80083574D01*
X148766016Y-80195295D01*
X148737305Y-80259780D01*
X148719418Y-80299956D01*
X148719417Y-80299957D01*
X148653377Y-80393576D01*
X148570410Y-80472584D01*
X148473677Y-80533972D01*
X148366863Y-80575402D01*
X148366860Y-80575403D01*
X148284768Y-80589878D01*
X148254036Y-80595297D01*
X148254035Y-80595297D01*
X148201659Y-80594200D01*
X148139494Y-80592898D01*
X148027599Y-80568296D01*
X147922613Y-80522429D01*
X147828536Y-80457044D01*
X147748951Y-80374631D01*
X147700827Y-80299957D01*
X147686888Y-80278328D01*
X147644713Y-80171806D01*
X147624032Y-80059124D01*
X147624032Y-80059121D01*
X147625631Y-79944565D01*
X147649451Y-79832501D01*
X147694584Y-79727198D01*
X147759311Y-79632666D01*
X147800239Y-79592587D01*
X147841168Y-79552506D01*
X147937033Y-79489775D01*
X148043258Y-79446857D01*
X148155796Y-79425389D01*
X148270361Y-79426189D01*
X148270361Y-79426189D01*
G37*
G36*
X150810361Y-79426189D02*
X150922589Y-79449226D01*
X150961344Y-79465517D01*
X151028204Y-79493622D01*
X151123184Y-79557687D01*
X151203915Y-79638984D01*
X151235614Y-79686695D01*
X151267314Y-79734408D01*
X151305297Y-79826563D01*
X151310973Y-79840333D01*
X151324657Y-79909444D01*
X151333225Y-79952716D01*
X151331398Y-80083574D01*
X151306016Y-80195295D01*
X151277305Y-80259780D01*
X151259418Y-80299956D01*
X151259417Y-80299957D01*
X151193377Y-80393576D01*
X151110410Y-80472584D01*
X151013677Y-80533972D01*
X150906863Y-80575402D01*
X150906860Y-80575403D01*
X150824768Y-80589878D01*
X150794036Y-80595297D01*
X150794035Y-80595297D01*
X150741659Y-80594200D01*
X150679494Y-80592898D01*
X150567599Y-80568296D01*
X150462613Y-80522429D01*
X150368536Y-80457044D01*
X150288951Y-80374631D01*
X150240827Y-80299957D01*
X150226888Y-80278328D01*
X150184713Y-80171806D01*
X150164032Y-80059124D01*
X150164032Y-80059121D01*
X150165631Y-79944565D01*
X150189451Y-79832501D01*
X150234584Y-79727198D01*
X150299311Y-79632666D01*
X150340239Y-79592587D01*
X150381168Y-79552506D01*
X150477033Y-79489775D01*
X150583258Y-79446857D01*
X150695796Y-79425389D01*
X150810361Y-79426189D01*
X150810361Y-79426189D01*
G37*
G36*
X124394361Y-79426189D02*
X124506589Y-79449226D01*
X124545344Y-79465517D01*
X124612204Y-79493622D01*
X124707184Y-79557687D01*
X124787915Y-79638984D01*
X124819614Y-79686695D01*
X124851314Y-79734408D01*
X124889297Y-79826563D01*
X124894973Y-79840333D01*
X124908657Y-79909444D01*
X124917225Y-79952716D01*
X124915398Y-80083574D01*
X124890016Y-80195295D01*
X124861305Y-80259780D01*
X124843418Y-80299956D01*
X124843417Y-80299957D01*
X124777377Y-80393576D01*
X124694410Y-80472584D01*
X124597677Y-80533972D01*
X124490863Y-80575402D01*
X124490860Y-80575403D01*
X124408768Y-80589878D01*
X124378036Y-80595297D01*
X124378035Y-80595297D01*
X124325659Y-80594200D01*
X124263494Y-80592898D01*
X124151599Y-80568296D01*
X124046613Y-80522429D01*
X123952536Y-80457044D01*
X123872951Y-80374631D01*
X123824827Y-80299957D01*
X123810888Y-80278328D01*
X123768713Y-80171806D01*
X123748032Y-80059124D01*
X123748032Y-80059121D01*
X123749631Y-79944565D01*
X123773451Y-79832501D01*
X123818584Y-79727198D01*
X123883311Y-79632666D01*
X123924239Y-79592587D01*
X123965168Y-79552506D01*
X124061033Y-79489775D01*
X124167258Y-79446857D01*
X124279796Y-79425389D01*
X124394361Y-79426189D01*
X124394361Y-79426189D01*
G37*
G36*
X117297200Y-80594200D02*
X116128800Y-80594200D01*
X116128800Y-79425800D01*
X117297200Y-79425800D01*
X117297200Y-80594200D01*
X117297200Y-80594200D01*
G37*
G36*
X143713200Y-80594200D02*
X142544800Y-80594200D01*
X142544800Y-79425800D01*
X143713200Y-79425800D01*
X143713200Y-80594200D01*
X143713200Y-80594200D01*
G37*
G36*
X130505200Y-80594200D02*
X129336800Y-80594200D01*
X129336800Y-79425800D01*
X130505200Y-79425800D01*
X130505200Y-80594200D01*
X130505200Y-80594200D01*
G37*
G36*
X104089200Y-80594200D02*
X102920800Y-80594200D01*
X102920800Y-79425800D01*
X104089200Y-79425800D01*
X104089200Y-80594200D01*
X104089200Y-80594200D01*
G37*
G36*
X151939200Y-77194400D02*
X151336800Y-77194400D01*
X151336800Y-76452000D01*
X151939200Y-76452000D01*
X151939200Y-77194400D01*
X151939200Y-77194400D01*
G37*
G36*
X138731200Y-77194400D02*
X138128800Y-77194400D01*
X138128800Y-76452000D01*
X138731200Y-76452000D01*
X138731200Y-77194400D01*
X138731200Y-77194400D01*
G37*
G36*
X112061200Y-77194400D02*
X111458800Y-77194400D01*
X111458800Y-76452000D01*
X112061200Y-76452000D01*
X112061200Y-77194400D01*
X112061200Y-77194400D01*
G37*
G36*
X125396200Y-77194400D02*
X124793800Y-77194400D01*
X124793800Y-76452000D01*
X125396200Y-76452000D01*
X125396200Y-77194400D01*
X125396200Y-77194400D01*
G37*
G36*
X123715400Y-77044400D02*
X122113000Y-77044400D01*
X122113000Y-76442000D01*
X123715400Y-76442000D01*
X123715400Y-77044400D01*
X123715400Y-77044400D01*
G37*
G36*
X136923400Y-77044400D02*
X135321000Y-77044400D01*
X135321000Y-76442000D01*
X136923400Y-76442000D01*
X136923400Y-77044400D01*
X136923400Y-77044400D01*
G37*
G36*
X131023400Y-77044400D02*
X129421000Y-77044400D01*
X129421000Y-76442000D01*
X131023400Y-76442000D01*
X131023400Y-77044400D01*
X131023400Y-77044400D01*
G37*
G36*
X117815400Y-77044400D02*
X116213000Y-77044400D01*
X116213000Y-76442000D01*
X117815400Y-76442000D01*
X117815400Y-77044400D01*
X117815400Y-77044400D01*
G37*
G36*
X110507400Y-77044400D02*
X108905000Y-77044400D01*
X108905000Y-76442000D01*
X110507400Y-76442000D01*
X110507400Y-77044400D01*
X110507400Y-77044400D01*
G37*
G36*
X144231400Y-77044400D02*
X142629000Y-77044400D01*
X142629000Y-76442000D01*
X144231400Y-76442000D01*
X144231400Y-77044400D01*
X144231400Y-77044400D01*
G37*
G36*
X150131400Y-77044400D02*
X148529000Y-77044400D01*
X148529000Y-76442000D01*
X150131400Y-76442000D01*
X150131400Y-77044400D01*
X150131400Y-77044400D01*
G37*
G36*
X104607400Y-77044400D02*
X103005000Y-77044400D01*
X103005000Y-76442000D01*
X104607400Y-76442000D01*
X104607400Y-77044400D01*
X104607400Y-77044400D01*
G37*
G36*
X144231400Y-76394400D02*
X142629000Y-76394400D01*
X142629000Y-75792000D01*
X144231400Y-75792000D01*
X144231400Y-76394400D01*
X144231400Y-76394400D01*
G37*
G36*
X136923400Y-76394400D02*
X135321000Y-76394400D01*
X135321000Y-75792000D01*
X136923400Y-75792000D01*
X136923400Y-76394400D01*
X136923400Y-76394400D01*
G37*
G36*
X104607400Y-76394400D02*
X103005000Y-76394400D01*
X103005000Y-75792000D01*
X104607400Y-75792000D01*
X104607400Y-76394400D01*
X104607400Y-76394400D01*
G37*
G36*
X110507400Y-76394400D02*
X108905000Y-76394400D01*
X108905000Y-75792000D01*
X110507400Y-75792000D01*
X110507400Y-76394400D01*
X110507400Y-76394400D01*
G37*
G36*
X117815400Y-76394400D02*
X116213000Y-76394400D01*
X116213000Y-75792000D01*
X117815400Y-75792000D01*
X117815400Y-76394400D01*
X117815400Y-76394400D01*
G37*
G36*
X123715400Y-76394400D02*
X122113000Y-76394400D01*
X122113000Y-75792000D01*
X123715400Y-75792000D01*
X123715400Y-76394400D01*
X123715400Y-76394400D01*
G37*
G36*
X131023400Y-76394400D02*
X129421000Y-76394400D01*
X129421000Y-75792000D01*
X131023400Y-75792000D01*
X131023400Y-76394400D01*
X131023400Y-76394400D01*
G37*
G36*
X150131400Y-76394400D02*
X148529000Y-76394400D01*
X148529000Y-75792000D01*
X150131400Y-75792000D01*
X150131400Y-76394400D01*
X150131400Y-76394400D01*
G37*
G36*
X144231400Y-75744400D02*
X142629000Y-75744400D01*
X142629000Y-75142000D01*
X144231400Y-75142000D01*
X144231400Y-75744400D01*
X144231400Y-75744400D01*
G37*
G36*
X150131400Y-75744400D02*
X148529000Y-75744400D01*
X148529000Y-75142000D01*
X150131400Y-75142000D01*
X150131400Y-75744400D01*
X150131400Y-75744400D01*
G37*
G36*
X136923400Y-75744400D02*
X135321000Y-75744400D01*
X135321000Y-75142000D01*
X136923400Y-75142000D01*
X136923400Y-75744400D01*
X136923400Y-75744400D01*
G37*
G36*
X131023400Y-75744400D02*
X129421000Y-75744400D01*
X129421000Y-75142000D01*
X131023400Y-75142000D01*
X131023400Y-75744400D01*
X131023400Y-75744400D01*
G37*
G36*
X123715400Y-75744400D02*
X122113000Y-75744400D01*
X122113000Y-75142000D01*
X123715400Y-75142000D01*
X123715400Y-75744400D01*
X123715400Y-75744400D01*
G37*
G36*
X117815400Y-75744400D02*
X116213000Y-75744400D01*
X116213000Y-75142000D01*
X117815400Y-75142000D01*
X117815400Y-75744400D01*
X117815400Y-75744400D01*
G37*
G36*
X110507400Y-75744400D02*
X108905000Y-75744400D01*
X108905000Y-75142000D01*
X110507400Y-75142000D01*
X110507400Y-75744400D01*
X110507400Y-75744400D01*
G37*
G36*
X104607400Y-75744400D02*
X103005000Y-75744400D01*
X103005000Y-75142000D01*
X104607400Y-75142000D01*
X104607400Y-75744400D01*
X104607400Y-75744400D01*
G37*
G36*
X150131400Y-75094400D02*
X148529000Y-75094400D01*
X148529000Y-74492000D01*
X150131400Y-74492000D01*
X150131400Y-75094400D01*
X150131400Y-75094400D01*
G37*
G36*
X144231400Y-75094400D02*
X142629000Y-75094400D01*
X142629000Y-74492000D01*
X144231400Y-74492000D01*
X144231400Y-75094400D01*
X144231400Y-75094400D01*
G37*
G36*
X136923400Y-75094400D02*
X135321000Y-75094400D01*
X135321000Y-74492000D01*
X136923400Y-74492000D01*
X136923400Y-75094400D01*
X136923400Y-75094400D01*
G37*
G36*
X131023400Y-75094400D02*
X129421000Y-75094400D01*
X129421000Y-74492000D01*
X131023400Y-74492000D01*
X131023400Y-75094400D01*
X131023400Y-75094400D01*
G37*
G36*
X123715400Y-75094400D02*
X122113000Y-75094400D01*
X122113000Y-74492000D01*
X123715400Y-74492000D01*
X123715400Y-75094400D01*
X123715400Y-75094400D01*
G37*
G36*
X117815400Y-75094400D02*
X116213000Y-75094400D01*
X116213000Y-74492000D01*
X117815400Y-74492000D01*
X117815400Y-75094400D01*
X117815400Y-75094400D01*
G37*
G36*
X110507400Y-75094400D02*
X108905000Y-75094400D01*
X108905000Y-74492000D01*
X110507400Y-74492000D01*
X110507400Y-75094400D01*
X110507400Y-75094400D01*
G37*
G36*
X104607400Y-75094400D02*
X103005000Y-75094400D01*
X103005000Y-74492000D01*
X104607400Y-74492000D01*
X104607400Y-75094400D01*
X104607400Y-75094400D01*
G37*
G36*
X112061200Y-75084400D02*
X111458800Y-75084400D01*
X111458800Y-74342000D01*
X112061200Y-74342000D01*
X112061200Y-75084400D01*
X112061200Y-75084400D01*
G37*
G36*
X125396200Y-75084400D02*
X124793800Y-75084400D01*
X124793800Y-74342000D01*
X125396200Y-74342000D01*
X125396200Y-75084400D01*
X125396200Y-75084400D01*
G37*
G36*
X138731200Y-75084400D02*
X138128800Y-75084400D01*
X138128800Y-74342000D01*
X138731200Y-74342000D01*
X138731200Y-75084400D01*
X138731200Y-75084400D01*
G37*
G36*
X151939200Y-75084400D02*
X151336800Y-75084400D01*
X151336800Y-74342000D01*
X151939200Y-74342000D01*
X151939200Y-75084400D01*
X151939200Y-75084400D01*
G37*
G36*
X138627200Y-72854200D02*
X137724800Y-72854200D01*
X137724800Y-71901800D01*
X138627200Y-71901800D01*
X138627200Y-72854200D01*
X138627200Y-72854200D01*
G37*
G36*
X129610200Y-72854200D02*
X128707800Y-72854200D01*
X128707800Y-71901800D01*
X129610200Y-71901800D01*
X129610200Y-72854200D01*
X129610200Y-72854200D01*
G37*
G36*
X125419200Y-72854200D02*
X124516800Y-72854200D01*
X124516800Y-71901800D01*
X125419200Y-71901800D01*
X125419200Y-72854200D01*
X125419200Y-72854200D01*
G37*
G36*
X116402200Y-72854200D02*
X115499800Y-72854200D01*
X115499800Y-71901800D01*
X116402200Y-71901800D01*
X116402200Y-72854200D01*
X116402200Y-72854200D01*
G37*
G36*
X112211200Y-72854200D02*
X111308800Y-72854200D01*
X111308800Y-71901800D01*
X112211200Y-71901800D01*
X112211200Y-72854200D01*
X112211200Y-72854200D01*
G37*
G36*
X103194200Y-72854200D02*
X102291800Y-72854200D01*
X102291800Y-71901800D01*
X103194200Y-71901800D01*
X103194200Y-72854200D01*
X103194200Y-72854200D01*
G37*
G36*
X142818200Y-72854200D02*
X141915800Y-72854200D01*
X141915800Y-71901800D01*
X142818200Y-71901800D01*
X142818200Y-72854200D01*
X142818200Y-72854200D01*
G37*
G36*
X151835200Y-72854200D02*
X150932800Y-72854200D01*
X150932800Y-71901800D01*
X151835200Y-71901800D01*
X151835200Y-72854200D01*
X151835200Y-72854200D01*
G37*
G36*
X105174200Y-72704200D02*
X104121800Y-72704200D01*
X104121800Y-72051800D01*
X105174200Y-72051800D01*
X105174200Y-72704200D01*
X105174200Y-72704200D01*
G37*
G36*
X106952200Y-72704200D02*
X105899800Y-72704200D01*
X105899800Y-72051800D01*
X106952200Y-72051800D01*
X106952200Y-72704200D01*
X106952200Y-72704200D01*
G37*
G36*
X108730200Y-72704200D02*
X107677800Y-72704200D01*
X107677800Y-72051800D01*
X108730200Y-72051800D01*
X108730200Y-72704200D01*
X108730200Y-72704200D01*
G37*
G36*
X110508200Y-72704200D02*
X109455800Y-72704200D01*
X109455800Y-72051800D01*
X110508200Y-72051800D01*
X110508200Y-72704200D01*
X110508200Y-72704200D01*
G37*
G36*
X118382200Y-72704200D02*
X117329800Y-72704200D01*
X117329800Y-72051800D01*
X118382200Y-72051800D01*
X118382200Y-72704200D01*
X118382200Y-72704200D01*
G37*
G36*
X120160200Y-72704200D02*
X119107800Y-72704200D01*
X119107800Y-72051800D01*
X120160200Y-72051800D01*
X120160200Y-72704200D01*
X120160200Y-72704200D01*
G37*
G36*
X121938200Y-72704200D02*
X120885800Y-72704200D01*
X120885800Y-72051800D01*
X121938200Y-72051800D01*
X121938200Y-72704200D01*
X121938200Y-72704200D01*
G37*
G36*
X123716200Y-72704200D02*
X122663800Y-72704200D01*
X122663800Y-72051800D01*
X123716200Y-72051800D01*
X123716200Y-72704200D01*
X123716200Y-72704200D01*
G37*
G36*
X131590200Y-72704200D02*
X130537800Y-72704200D01*
X130537800Y-72051800D01*
X131590200Y-72051800D01*
X131590200Y-72704200D01*
X131590200Y-72704200D01*
G37*
G36*
X133368200Y-72704200D02*
X132315800Y-72704200D01*
X132315800Y-72051800D01*
X133368200Y-72051800D01*
X133368200Y-72704200D01*
X133368200Y-72704200D01*
G37*
G36*
X135146200Y-72704200D02*
X134093800Y-72704200D01*
X134093800Y-72051800D01*
X135146200Y-72051800D01*
X135146200Y-72704200D01*
X135146200Y-72704200D01*
G37*
G36*
X150132200Y-72704200D02*
X149079800Y-72704200D01*
X149079800Y-72051800D01*
X150132200Y-72051800D01*
X150132200Y-72704200D01*
X150132200Y-72704200D01*
G37*
G36*
X148354200Y-72704200D02*
X147301800Y-72704200D01*
X147301800Y-72051800D01*
X148354200Y-72051800D01*
X148354200Y-72704200D01*
X148354200Y-72704200D01*
G37*
G36*
X146576200Y-72704200D02*
X145523800Y-72704200D01*
X145523800Y-72051800D01*
X146576200Y-72051800D01*
X146576200Y-72704200D01*
X146576200Y-72704200D01*
G37*
G36*
X144798200Y-72704200D02*
X143745800Y-72704200D01*
X143745800Y-72051800D01*
X144798200Y-72051800D01*
X144798200Y-72704200D01*
X144798200Y-72704200D01*
G37*
G36*
X136924200Y-72704200D02*
X135871800Y-72704200D01*
X135871800Y-72051800D01*
X136924200Y-72051800D01*
X136924200Y-72704200D01*
X136924200Y-72704200D01*
G37*
G36*
X151835200Y-71354200D02*
X150932800Y-71354200D01*
X150932800Y-70401800D01*
X151835200Y-70401800D01*
X151835200Y-71354200D01*
X151835200Y-71354200D01*
G37*
G36*
X103194200Y-71354200D02*
X102291800Y-71354200D01*
X102291800Y-70401800D01*
X103194200Y-70401800D01*
X103194200Y-71354200D01*
X103194200Y-71354200D01*
G37*
G36*
X116402200Y-71354200D02*
X115499800Y-71354200D01*
X115499800Y-70401800D01*
X116402200Y-70401800D01*
X116402200Y-71354200D01*
X116402200Y-71354200D01*
G37*
G36*
X125419200Y-71354200D02*
X124516800Y-71354200D01*
X124516800Y-70401800D01*
X125419200Y-70401800D01*
X125419200Y-71354200D01*
X125419200Y-71354200D01*
G37*
G36*
X129610200Y-71354200D02*
X128707800Y-71354200D01*
X128707800Y-70401800D01*
X129610200Y-70401800D01*
X129610200Y-71354200D01*
X129610200Y-71354200D01*
G37*
G36*
X138627200Y-71354200D02*
X137724800Y-71354200D01*
X137724800Y-70401800D01*
X138627200Y-70401800D01*
X138627200Y-71354200D01*
X138627200Y-71354200D01*
G37*
G36*
X142818200Y-71354200D02*
X141915800Y-71354200D01*
X141915800Y-70401800D01*
X142818200Y-70401800D01*
X142818200Y-71354200D01*
X142818200Y-71354200D01*
G37*
G36*
X112211200Y-71354200D02*
X111308800Y-71354200D01*
X111308800Y-70401800D01*
X112211200Y-70401800D01*
X112211200Y-71354200D01*
X112211200Y-71354200D01*
G37*
G36*
X146576200Y-71204200D02*
X145523800Y-71204200D01*
X145523800Y-70551800D01*
X146576200Y-70551800D01*
X146576200Y-71204200D01*
X146576200Y-71204200D01*
G37*
G36*
X148354200Y-71204200D02*
X147301800Y-71204200D01*
X147301800Y-70551800D01*
X148354200Y-70551800D01*
X148354200Y-71204200D01*
X148354200Y-71204200D01*
G37*
G36*
X133368200Y-71204200D02*
X132315800Y-71204200D01*
X132315800Y-70551800D01*
X133368200Y-70551800D01*
X133368200Y-71204200D01*
X133368200Y-71204200D01*
G37*
G36*
X135146200Y-71204200D02*
X134093800Y-71204200D01*
X134093800Y-70551800D01*
X135146200Y-70551800D01*
X135146200Y-71204200D01*
X135146200Y-71204200D01*
G37*
G36*
X144798200Y-71204200D02*
X143745800Y-71204200D01*
X143745800Y-70551800D01*
X144798200Y-70551800D01*
X144798200Y-71204200D01*
X144798200Y-71204200D01*
G37*
G36*
X150132200Y-71204200D02*
X149079800Y-71204200D01*
X149079800Y-70551800D01*
X150132200Y-70551800D01*
X150132200Y-71204200D01*
X150132200Y-71204200D01*
G37*
G36*
X131590200Y-71204200D02*
X130537800Y-71204200D01*
X130537800Y-70551800D01*
X131590200Y-70551800D01*
X131590200Y-71204200D01*
X131590200Y-71204200D01*
G37*
G36*
X136924200Y-71204200D02*
X135871800Y-71204200D01*
X135871800Y-70551800D01*
X136924200Y-70551800D01*
X136924200Y-71204200D01*
X136924200Y-71204200D01*
G37*
G36*
X123716200Y-71204200D02*
X122663800Y-71204200D01*
X122663800Y-70551800D01*
X123716200Y-70551800D01*
X123716200Y-71204200D01*
X123716200Y-71204200D01*
G37*
G36*
X105174200Y-71204200D02*
X104121800Y-71204200D01*
X104121800Y-70551800D01*
X105174200Y-70551800D01*
X105174200Y-71204200D01*
X105174200Y-71204200D01*
G37*
G36*
X106952200Y-71204200D02*
X105899800Y-71204200D01*
X105899800Y-70551800D01*
X106952200Y-70551800D01*
X106952200Y-71204200D01*
X106952200Y-71204200D01*
G37*
G36*
X108730200Y-71204200D02*
X107677800Y-71204200D01*
X107677800Y-70551800D01*
X108730200Y-70551800D01*
X108730200Y-71204200D01*
X108730200Y-71204200D01*
G37*
G36*
X110508200Y-71204200D02*
X109455800Y-71204200D01*
X109455800Y-70551800D01*
X110508200Y-70551800D01*
X110508200Y-71204200D01*
X110508200Y-71204200D01*
G37*
G36*
X118382200Y-71204200D02*
X117329800Y-71204200D01*
X117329800Y-70551800D01*
X118382200Y-70551800D01*
X118382200Y-71204200D01*
X118382200Y-71204200D01*
G37*
G36*
X120160200Y-71204200D02*
X119107800Y-71204200D01*
X119107800Y-70551800D01*
X120160200Y-70551800D01*
X120160200Y-71204200D01*
X120160200Y-71204200D01*
G37*
G36*
X121938200Y-71204200D02*
X120885800Y-71204200D01*
X120885800Y-70551800D01*
X121938200Y-70551800D01*
X121938200Y-71204200D01*
X121938200Y-71204200D01*
G37*
G36*
X146065200Y-68648200D02*
X142762800Y-68648200D01*
X142762800Y-67495800D01*
X146065200Y-67495800D01*
X146065200Y-68648200D01*
X146065200Y-68648200D01*
G37*
G36*
X137907200Y-68648200D02*
X134604800Y-68648200D01*
X134604800Y-67495800D01*
X137907200Y-67495800D01*
X137907200Y-68648200D01*
X137907200Y-68648200D01*
G37*
G36*
X132857200Y-68648200D02*
X129554800Y-68648200D01*
X129554800Y-67495800D01*
X132857200Y-67495800D01*
X132857200Y-68648200D01*
X132857200Y-68648200D01*
G37*
G36*
X111491200Y-68648200D02*
X108188800Y-68648200D01*
X108188800Y-67495800D01*
X111491200Y-67495800D01*
X111491200Y-68648200D01*
X111491200Y-68648200D01*
G37*
G36*
X151115200Y-68648200D02*
X147812800Y-68648200D01*
X147812800Y-67495800D01*
X151115200Y-67495800D01*
X151115200Y-68648200D01*
X151115200Y-68648200D01*
G37*
G36*
X124699200Y-68648200D02*
X121396800Y-68648200D01*
X121396800Y-67495800D01*
X124699200Y-67495800D01*
X124699200Y-68648200D01*
X124699200Y-68648200D01*
G37*
G36*
X119649200Y-68648200D02*
X116346800Y-68648200D01*
X116346800Y-67495800D01*
X119649200Y-67495800D01*
X119649200Y-68648200D01*
X119649200Y-68648200D01*
G37*
G36*
X106441200Y-68648200D02*
X103138800Y-68648200D01*
X103138800Y-67495800D01*
X106441200Y-67495800D01*
X106441200Y-68648200D01*
X106441200Y-68648200D01*
G37*
G36*
X151820915Y-63551477D02*
X152016093Y-63591541D01*
X152016096Y-63591542D01*
X152016095Y-63591542D01*
X152199772Y-63668753D01*
X152364956Y-63780170D01*
X152435650Y-63851360D01*
X152505353Y-63921551D01*
X152615615Y-64087509D01*
X152691543Y-64271723D01*
X152730244Y-64467176D01*
X152727066Y-64694755D01*
X152727046Y-64694843D01*
X152727046Y-64694845D01*
X152721057Y-64721203D01*
X152682923Y-64889051D01*
X152653428Y-64955297D01*
X152601882Y-65071072D01*
X152599859Y-65073940D01*
X152487028Y-65233888D01*
X152342739Y-65371293D01*
X152174508Y-65478055D01*
X151988745Y-65550108D01*
X151988742Y-65550108D01*
X151988741Y-65550109D01*
X151865977Y-65571755D01*
X151792524Y-65584707D01*
X151792523Y-65584707D01*
X151593322Y-65580535D01*
X151519772Y-65564364D01*
X151398720Y-65537749D01*
X151216136Y-65457980D01*
X151135148Y-65401692D01*
X151131956Y-65400086D01*
X151128442Y-65399433D01*
X151124886Y-65399784D01*
X151121568Y-65401112D01*
X151118752Y-65403312D01*
X151116660Y-65406209D01*
X151115458Y-65409575D01*
X151115200Y-65412121D01*
X151115200Y-66108200D01*
X147812800Y-66108200D01*
X147812800Y-64955800D01*
X150756746Y-64955800D01*
X150760284Y-64955297D01*
X150763542Y-64953829D01*
X150766262Y-64951510D01*
X150768228Y-64948526D01*
X150769286Y-64945113D01*
X150769350Y-64941540D01*
X150768554Y-64938425D01*
X150732832Y-64848202D01*
X150696864Y-64652231D01*
X150696864Y-64652228D01*
X150699646Y-64453000D01*
X150723646Y-64340087D01*
X150741071Y-64258108D01*
X150819564Y-64074970D01*
X150932131Y-63910569D01*
X151074491Y-63771160D01*
X151241214Y-63662061D01*
X151425953Y-63587421D01*
X151621672Y-63550086D01*
X151820915Y-63551477D01*
X151820915Y-63551477D01*
G37*
G36*
X146065200Y-66108200D02*
X142762800Y-66108200D01*
X142762800Y-64955800D01*
X146065200Y-64955800D01*
X146065200Y-66108200D01*
X146065200Y-66108200D01*
G37*
G36*
X137907200Y-66108200D02*
X134604800Y-66108200D01*
X134604800Y-64955800D01*
X137907200Y-64955800D01*
X137907200Y-66108200D01*
X137907200Y-66108200D01*
G37*
G36*
X132857200Y-66108200D02*
X129554800Y-66108200D01*
X129554800Y-64955800D01*
X132857200Y-64955800D01*
X132857200Y-66108200D01*
X132857200Y-66108200D01*
G37*
G36*
X124699200Y-66108200D02*
X121396800Y-66108200D01*
X121396800Y-64955800D01*
X124699200Y-64955800D01*
X124699200Y-66108200D01*
X124699200Y-66108200D01*
G37*
G36*
X119649200Y-66108200D02*
X116346800Y-66108200D01*
X116346800Y-64955800D01*
X119649200Y-64955800D01*
X119649200Y-66108200D01*
X119649200Y-66108200D01*
G37*
G36*
X111491200Y-66108200D02*
X108188800Y-66108200D01*
X108188800Y-64955800D01*
X111491200Y-64955800D01*
X111491200Y-66108200D01*
X111491200Y-66108200D01*
G37*
G36*
X102646515Y-63424477D02*
X102841693Y-63464541D01*
X102841696Y-63464542D01*
X102841695Y-63464542D01*
X103025372Y-63541753D01*
X103190556Y-63653170D01*
X103206030Y-63668753D01*
X103330953Y-63794551D01*
X103330955Y-63794554D01*
X103415334Y-63921554D01*
X103441215Y-63960509D01*
X103517143Y-64144723D01*
X103555844Y-64340176D01*
X103552666Y-64567755D01*
X103508523Y-64762051D01*
X103444228Y-64906458D01*
X103430214Y-64937934D01*
X103429234Y-64941371D01*
X103429251Y-64944945D01*
X103430262Y-64948372D01*
X103432188Y-64951382D01*
X103434877Y-64953737D01*
X103438115Y-64955249D01*
X103441816Y-64955800D01*
X106441200Y-64955800D01*
X106441200Y-66108200D01*
X103138800Y-66108200D01*
X103138800Y-65286140D01*
X103138297Y-65282602D01*
X103136829Y-65279344D01*
X103134510Y-65276624D01*
X103131526Y-65274658D01*
X103128113Y-65273600D01*
X103124540Y-65273536D01*
X103121090Y-65274470D01*
X103119296Y-65275417D01*
X103000108Y-65351055D01*
X102814345Y-65423108D01*
X102814342Y-65423108D01*
X102814341Y-65423109D01*
X102691577Y-65444755D01*
X102618124Y-65457707D01*
X102618123Y-65457707D01*
X102418922Y-65453535D01*
X102345372Y-65437364D01*
X102224320Y-65410749D01*
X102041736Y-65330980D01*
X101878124Y-65217267D01*
X101739715Y-65073940D01*
X101737867Y-65071073D01*
X101631780Y-64906458D01*
X101558432Y-64721202D01*
X101522464Y-64525231D01*
X101523473Y-64452995D01*
X101525246Y-64326000D01*
X101525247Y-64325995D01*
X101566671Y-64131108D01*
X101645164Y-63947970D01*
X101757731Y-63783569D01*
X101900091Y-63644160D01*
X102066814Y-63535061D01*
X102251553Y-63460421D01*
X102447272Y-63423086D01*
X102646515Y-63424477D01*
X102646515Y-63424477D01*
G37*
M02*
