G04 #@! TF.FileFunction,Paste,Top*
%FSLAX46Y46*%
G04 Gerber Fmt 4.6, Leading zero omitted, Abs format (unit mm)*
G04 Created by KiCad (PCBNEW 4.0.2-stable) date Tuesday, February 20, 2018 'AMt' 07:17:42 AM*
%MOMM*%
G01*
G04 APERTURE LIST*
%ADD10C,0.025400*%
%ADD11R,0.549200X0.449200*%
%ADD12R,0.449200X0.549200*%
%ADD13R,0.399200X0.539200*%
%ADD14R,0.949960X1.450340*%
%ADD15R,1.948180X2.948940*%
%ADD16R,0.599200X1.009200*%
%ADD17R,3.099200X0.949200*%
G04 APERTURE END LIST*
D10*
D11*
X103844000Y-90830400D03*
X104944000Y-90830400D03*
D12*
X107670600Y-94217400D03*
X107670600Y-95317400D03*
D13*
X107670600Y-90283400D03*
X107670600Y-92393400D03*
D11*
X109770000Y-97307400D03*
X108670000Y-97307400D03*
X109863800Y-90551000D03*
X110963800Y-90551000D03*
X112183000Y-97307400D03*
X111083000Y-97307400D03*
X109863800Y-91795600D03*
X110963800Y-91795600D03*
D14*
X105895140Y-93144340D03*
X104394000Y-93144340D03*
X102892860Y-93144340D03*
D15*
X104394000Y-96095820D03*
D10*
G36*
X103418640Y-94595950D02*
X103919020Y-93897450D01*
X104868980Y-93897450D01*
X105369360Y-94595950D01*
X103418640Y-94595950D01*
X103418640Y-94595950D01*
G37*
D16*
X109463800Y-95664200D03*
X110413800Y-95664200D03*
X111363800Y-95664200D03*
X111363800Y-93464200D03*
X109463800Y-93464200D03*
D17*
X104790000Y-85090000D03*
X109840000Y-85090000D03*
X104790000Y-87630000D03*
X109840000Y-87630000D03*
D11*
X117052000Y-90830400D03*
X118152000Y-90830400D03*
D12*
X120878600Y-94217400D03*
X120878600Y-95317400D03*
D11*
X130260000Y-90830400D03*
X131360000Y-90830400D03*
D12*
X134086600Y-94217400D03*
X134086600Y-95317400D03*
D11*
X143468000Y-90830400D03*
X144568000Y-90830400D03*
D12*
X147294600Y-94217400D03*
X147294600Y-95317400D03*
D13*
X120878600Y-90283400D03*
X120878600Y-92393400D03*
X134086600Y-90283400D03*
X134086600Y-92393400D03*
X147294600Y-90283400D03*
X147294600Y-92393400D03*
D17*
X117998000Y-85090000D03*
X123048000Y-85090000D03*
X117998000Y-87630000D03*
X123048000Y-87630000D03*
X131206000Y-85090000D03*
X136256000Y-85090000D03*
X131206000Y-87630000D03*
X136256000Y-87630000D03*
X144414000Y-85090000D03*
X149464000Y-85090000D03*
X144414000Y-87630000D03*
X149464000Y-87630000D03*
D11*
X125391000Y-97307400D03*
X124291000Y-97307400D03*
X122978000Y-97307400D03*
X121878000Y-97307400D03*
X123071800Y-91795600D03*
X124171800Y-91795600D03*
X123071800Y-90551000D03*
X124171800Y-90551000D03*
X138599000Y-97307400D03*
X137499000Y-97307400D03*
X136186000Y-97307400D03*
X135086000Y-97307400D03*
X136279800Y-91795600D03*
X137379800Y-91795600D03*
X136279800Y-90551000D03*
X137379800Y-90551000D03*
X151807000Y-97307400D03*
X150707000Y-97307400D03*
X149394000Y-97307400D03*
X148294000Y-97307400D03*
X149487800Y-91795600D03*
X150587800Y-91795600D03*
X149487800Y-90551000D03*
X150587800Y-90551000D03*
D14*
X119103140Y-93144340D03*
X117602000Y-93144340D03*
X116100860Y-93144340D03*
D15*
X117602000Y-96095820D03*
D10*
G36*
X116626640Y-94595950D02*
X117127020Y-93897450D01*
X118076980Y-93897450D01*
X118577360Y-94595950D01*
X116626640Y-94595950D01*
X116626640Y-94595950D01*
G37*
D16*
X122671800Y-95664200D03*
X123621800Y-95664200D03*
X124571800Y-95664200D03*
X124571800Y-93464200D03*
X122671800Y-93464200D03*
D14*
X132311140Y-93144340D03*
X130810000Y-93144340D03*
X129308860Y-93144340D03*
D15*
X130810000Y-96095820D03*
D10*
G36*
X129834640Y-94595950D02*
X130335020Y-93897450D01*
X131284980Y-93897450D01*
X131785360Y-94595950D01*
X129834640Y-94595950D01*
X129834640Y-94595950D01*
G37*
D16*
X135879800Y-95664200D03*
X136829800Y-95664200D03*
X137779800Y-95664200D03*
X137779800Y-93464200D03*
X135879800Y-93464200D03*
D14*
X145519140Y-93144340D03*
X144018000Y-93144340D03*
X142516860Y-93144340D03*
D15*
X144018000Y-96095820D03*
D10*
G36*
X143042640Y-94595950D02*
X143543020Y-93897450D01*
X144492980Y-93897450D01*
X144993360Y-94595950D01*
X143042640Y-94595950D01*
X143042640Y-94595950D01*
G37*
D16*
X149087800Y-95664200D03*
X150037800Y-95664200D03*
X150987800Y-95664200D03*
X150987800Y-93464200D03*
X149087800Y-93464200D03*
M02*
