M48
;DRILL file {KiCad 4.0.2-stable} date Tuesday, February 20, 2018 'AMt' 07:18:07 AM
;FORMAT={2:4/ absolute / inch / suppress leading zeros}
FMAT,2
INCH,TZ
T1C0.013
T2C0.020
%
G90
G05
M72
T1
X41100Y-36170
X41720Y-35760
X42240Y-33500
X42380Y-37920
X42390Y-35990
X43470Y-37240
X44080Y-35640
X46300Y-36170
X46840Y-35760
X47450Y-33500
X47590Y-35990
X47590Y-37880
X48670Y-37250
X49280Y-35650
X51500Y-36150
X52080Y-35760
X52670Y-33500
X52790Y-35960
X52790Y-37870
X53870Y-37210
X54460Y-35650
X56700Y-36180
X57280Y-35760
X57870Y-33500
X57990Y-35960
X57990Y-37910
X59080Y-37250
X59620Y-35650
T2
X40700Y-39300
X41700Y-39300
X42700Y-39300
X43700Y-39300
X45900Y-39300
X46900Y-39300
X47900Y-39300
X48900Y-39300
X51100Y-39300
X52100Y-39300
X53100Y-39300
X54100Y-39300
X56300Y-39300
X57300Y-39300
X58300Y-39300
X59300Y-39300
T0
M30
