G04 #@! TF.FileFunction,Legend,Top*
%FSLAX46Y46*%
G04 Gerber Fmt 4.6, Leading zero omitted, Abs format (unit mm)*
G04 Created by KiCad (PCBNEW 4.0.2-stable) date Tuesday, April 24, 2018 'PMt' 12:07:57 PM*
%MOMM*%
G01*
G04 APERTURE LIST*
%ADD10C,0.025400*%
%ADD11C,0.127000*%
%ADD12C,0.228600*%
%ADD13C,0.076200*%
%ADD14C,0.150000*%
%ADD15C,0.120000*%
G04 APERTURE END LIST*
D10*
D11*
X151284214Y-69169644D02*
X152046214Y-68915644D01*
X151284214Y-68661644D01*
X152046214Y-68298786D02*
X152009929Y-68371358D01*
X151973643Y-68407643D01*
X151901071Y-68443929D01*
X151683357Y-68443929D01*
X151610786Y-68407643D01*
X151574500Y-68371358D01*
X151538214Y-68298786D01*
X151538214Y-68189929D01*
X151574500Y-68117358D01*
X151610786Y-68081072D01*
X151683357Y-68044786D01*
X151901071Y-68044786D01*
X151973643Y-68081072D01*
X152009929Y-68117358D01*
X152046214Y-68189929D01*
X152046214Y-68298786D01*
X151538214Y-67391643D02*
X152046214Y-67391643D01*
X151538214Y-67718214D02*
X151937357Y-67718214D01*
X152009929Y-67681929D01*
X152046214Y-67609357D01*
X152046214Y-67500500D01*
X152009929Y-67427929D01*
X151973643Y-67391643D01*
X151538214Y-67137643D02*
X151538214Y-66847357D01*
X151284214Y-67028785D02*
X151937357Y-67028785D01*
X152009929Y-66992500D01*
X152046214Y-66919928D01*
X152046214Y-66847357D01*
X138266714Y-69605072D02*
X139028714Y-69351072D01*
X138266714Y-69097072D01*
X139028714Y-68734214D02*
X138992429Y-68806786D01*
X138956143Y-68843071D01*
X138883571Y-68879357D01*
X138665857Y-68879357D01*
X138593286Y-68843071D01*
X138557000Y-68806786D01*
X138520714Y-68734214D01*
X138520714Y-68625357D01*
X138557000Y-68552786D01*
X138593286Y-68516500D01*
X138665857Y-68480214D01*
X138883571Y-68480214D01*
X138956143Y-68516500D01*
X138992429Y-68552786D01*
X139028714Y-68625357D01*
X139028714Y-68734214D01*
X138520714Y-67827071D02*
X139028714Y-67827071D01*
X138520714Y-68153642D02*
X138919857Y-68153642D01*
X138992429Y-68117357D01*
X139028714Y-68044785D01*
X139028714Y-67935928D01*
X138992429Y-67863357D01*
X138956143Y-67827071D01*
X138520714Y-67573071D02*
X138520714Y-67282785D01*
X138266714Y-67464213D02*
X138919857Y-67464213D01*
X138992429Y-67427928D01*
X139028714Y-67355356D01*
X139028714Y-67282785D01*
X138303000Y-66049071D02*
X138266714Y-66121642D01*
X138266714Y-66230499D01*
X138303000Y-66339356D01*
X138375571Y-66411928D01*
X138448143Y-66448213D01*
X138593286Y-66484499D01*
X138702143Y-66484499D01*
X138847286Y-66448213D01*
X138919857Y-66411928D01*
X138992429Y-66339356D01*
X139028714Y-66230499D01*
X139028714Y-66157928D01*
X138992429Y-66049071D01*
X138956143Y-66012785D01*
X138702143Y-66012785D01*
X138702143Y-66157928D01*
X139028714Y-65686213D02*
X138266714Y-65686213D01*
X139028714Y-65250785D01*
X138266714Y-65250785D01*
X139028714Y-64887927D02*
X138266714Y-64887927D01*
X138266714Y-64706499D01*
X138303000Y-64597642D01*
X138375571Y-64525070D01*
X138448143Y-64488785D01*
X138593286Y-64452499D01*
X138702143Y-64452499D01*
X138847286Y-64488785D01*
X138919857Y-64525070D01*
X138992429Y-64597642D01*
X139028714Y-64706499D01*
X139028714Y-64887927D01*
X125122214Y-69605072D02*
X125884214Y-69351072D01*
X125122214Y-69097072D01*
X125884214Y-68734214D02*
X125847929Y-68806786D01*
X125811643Y-68843071D01*
X125739071Y-68879357D01*
X125521357Y-68879357D01*
X125448786Y-68843071D01*
X125412500Y-68806786D01*
X125376214Y-68734214D01*
X125376214Y-68625357D01*
X125412500Y-68552786D01*
X125448786Y-68516500D01*
X125521357Y-68480214D01*
X125739071Y-68480214D01*
X125811643Y-68516500D01*
X125847929Y-68552786D01*
X125884214Y-68625357D01*
X125884214Y-68734214D01*
X125376214Y-67827071D02*
X125884214Y-67827071D01*
X125376214Y-68153642D02*
X125775357Y-68153642D01*
X125847929Y-68117357D01*
X125884214Y-68044785D01*
X125884214Y-67935928D01*
X125847929Y-67863357D01*
X125811643Y-67827071D01*
X125376214Y-67573071D02*
X125376214Y-67282785D01*
X125122214Y-67464213D02*
X125775357Y-67464213D01*
X125847929Y-67427928D01*
X125884214Y-67355356D01*
X125884214Y-67282785D01*
X125158500Y-66049071D02*
X125122214Y-66121642D01*
X125122214Y-66230499D01*
X125158500Y-66339356D01*
X125231071Y-66411928D01*
X125303643Y-66448213D01*
X125448786Y-66484499D01*
X125557643Y-66484499D01*
X125702786Y-66448213D01*
X125775357Y-66411928D01*
X125847929Y-66339356D01*
X125884214Y-66230499D01*
X125884214Y-66157928D01*
X125847929Y-66049071D01*
X125811643Y-66012785D01*
X125557643Y-66012785D01*
X125557643Y-66157928D01*
X125884214Y-65686213D02*
X125122214Y-65686213D01*
X125884214Y-65250785D01*
X125122214Y-65250785D01*
X125884214Y-64887927D02*
X125122214Y-64887927D01*
X125122214Y-64706499D01*
X125158500Y-64597642D01*
X125231071Y-64525070D01*
X125303643Y-64488785D01*
X125448786Y-64452499D01*
X125557643Y-64452499D01*
X125702786Y-64488785D01*
X125775357Y-64525070D01*
X125847929Y-64597642D01*
X125884214Y-64706499D01*
X125884214Y-64887927D01*
X111787214Y-69605072D02*
X112549214Y-69351072D01*
X111787214Y-69097072D01*
X112549214Y-68734214D02*
X112512929Y-68806786D01*
X112476643Y-68843071D01*
X112404071Y-68879357D01*
X112186357Y-68879357D01*
X112113786Y-68843071D01*
X112077500Y-68806786D01*
X112041214Y-68734214D01*
X112041214Y-68625357D01*
X112077500Y-68552786D01*
X112113786Y-68516500D01*
X112186357Y-68480214D01*
X112404071Y-68480214D01*
X112476643Y-68516500D01*
X112512929Y-68552786D01*
X112549214Y-68625357D01*
X112549214Y-68734214D01*
X112041214Y-67827071D02*
X112549214Y-67827071D01*
X112041214Y-68153642D02*
X112440357Y-68153642D01*
X112512929Y-68117357D01*
X112549214Y-68044785D01*
X112549214Y-67935928D01*
X112512929Y-67863357D01*
X112476643Y-67827071D01*
X112041214Y-67573071D02*
X112041214Y-67282785D01*
X111787214Y-67464213D02*
X112440357Y-67464213D01*
X112512929Y-67427928D01*
X112549214Y-67355356D01*
X112549214Y-67282785D01*
X111823500Y-66049071D02*
X111787214Y-66121642D01*
X111787214Y-66230499D01*
X111823500Y-66339356D01*
X111896071Y-66411928D01*
X111968643Y-66448213D01*
X112113786Y-66484499D01*
X112222643Y-66484499D01*
X112367786Y-66448213D01*
X112440357Y-66411928D01*
X112512929Y-66339356D01*
X112549214Y-66230499D01*
X112549214Y-66157928D01*
X112512929Y-66049071D01*
X112476643Y-66012785D01*
X112222643Y-66012785D01*
X112222643Y-66157928D01*
X112549214Y-65686213D02*
X111787214Y-65686213D01*
X112549214Y-65250785D01*
X111787214Y-65250785D01*
X112549214Y-64887927D02*
X111787214Y-64887927D01*
X111787214Y-64706499D01*
X111823500Y-64597642D01*
X111896071Y-64525070D01*
X111968643Y-64488785D01*
X112113786Y-64452499D01*
X112222643Y-64452499D01*
X112367786Y-64488785D01*
X112440357Y-64525070D01*
X112512929Y-64597642D01*
X112549214Y-64706499D01*
X112549214Y-64887927D01*
X111787214Y-88909072D02*
X112549214Y-88655072D01*
X111787214Y-88401072D01*
X112549214Y-88038214D02*
X112512929Y-88110786D01*
X112476643Y-88147071D01*
X112404071Y-88183357D01*
X112186357Y-88183357D01*
X112113786Y-88147071D01*
X112077500Y-88110786D01*
X112041214Y-88038214D01*
X112041214Y-87929357D01*
X112077500Y-87856786D01*
X112113786Y-87820500D01*
X112186357Y-87784214D01*
X112404071Y-87784214D01*
X112476643Y-87820500D01*
X112512929Y-87856786D01*
X112549214Y-87929357D01*
X112549214Y-88038214D01*
X112041214Y-87131071D02*
X112549214Y-87131071D01*
X112041214Y-87457642D02*
X112440357Y-87457642D01*
X112512929Y-87421357D01*
X112549214Y-87348785D01*
X112549214Y-87239928D01*
X112512929Y-87167357D01*
X112476643Y-87131071D01*
X112041214Y-86877071D02*
X112041214Y-86586785D01*
X111787214Y-86768213D02*
X112440357Y-86768213D01*
X112512929Y-86731928D01*
X112549214Y-86659356D01*
X112549214Y-86586785D01*
X111823500Y-85353071D02*
X111787214Y-85425642D01*
X111787214Y-85534499D01*
X111823500Y-85643356D01*
X111896071Y-85715928D01*
X111968643Y-85752213D01*
X112113786Y-85788499D01*
X112222643Y-85788499D01*
X112367786Y-85752213D01*
X112440357Y-85715928D01*
X112512929Y-85643356D01*
X112549214Y-85534499D01*
X112549214Y-85461928D01*
X112512929Y-85353071D01*
X112476643Y-85316785D01*
X112222643Y-85316785D01*
X112222643Y-85461928D01*
X112549214Y-84990213D02*
X111787214Y-84990213D01*
X112549214Y-84554785D01*
X111787214Y-84554785D01*
X112549214Y-84191927D02*
X111787214Y-84191927D01*
X111787214Y-84010499D01*
X111823500Y-83901642D01*
X111896071Y-83829070D01*
X111968643Y-83792785D01*
X112113786Y-83756499D01*
X112222643Y-83756499D01*
X112367786Y-83792785D01*
X112440357Y-83829070D01*
X112512929Y-83901642D01*
X112549214Y-84010499D01*
X112549214Y-84191927D01*
X124995214Y-89036072D02*
X125757214Y-88782072D01*
X124995214Y-88528072D01*
X125757214Y-88165214D02*
X125720929Y-88237786D01*
X125684643Y-88274071D01*
X125612071Y-88310357D01*
X125394357Y-88310357D01*
X125321786Y-88274071D01*
X125285500Y-88237786D01*
X125249214Y-88165214D01*
X125249214Y-88056357D01*
X125285500Y-87983786D01*
X125321786Y-87947500D01*
X125394357Y-87911214D01*
X125612071Y-87911214D01*
X125684643Y-87947500D01*
X125720929Y-87983786D01*
X125757214Y-88056357D01*
X125757214Y-88165214D01*
X125249214Y-87258071D02*
X125757214Y-87258071D01*
X125249214Y-87584642D02*
X125648357Y-87584642D01*
X125720929Y-87548357D01*
X125757214Y-87475785D01*
X125757214Y-87366928D01*
X125720929Y-87294357D01*
X125684643Y-87258071D01*
X125249214Y-87004071D02*
X125249214Y-86713785D01*
X124995214Y-86895213D02*
X125648357Y-86895213D01*
X125720929Y-86858928D01*
X125757214Y-86786356D01*
X125757214Y-86713785D01*
X125031500Y-85480071D02*
X124995214Y-85552642D01*
X124995214Y-85661499D01*
X125031500Y-85770356D01*
X125104071Y-85842928D01*
X125176643Y-85879213D01*
X125321786Y-85915499D01*
X125430643Y-85915499D01*
X125575786Y-85879213D01*
X125648357Y-85842928D01*
X125720929Y-85770356D01*
X125757214Y-85661499D01*
X125757214Y-85588928D01*
X125720929Y-85480071D01*
X125684643Y-85443785D01*
X125430643Y-85443785D01*
X125430643Y-85588928D01*
X125757214Y-85117213D02*
X124995214Y-85117213D01*
X125757214Y-84681785D01*
X124995214Y-84681785D01*
X125757214Y-84318927D02*
X124995214Y-84318927D01*
X124995214Y-84137499D01*
X125031500Y-84028642D01*
X125104071Y-83956070D01*
X125176643Y-83919785D01*
X125321786Y-83883499D01*
X125430643Y-83883499D01*
X125575786Y-83919785D01*
X125648357Y-83956070D01*
X125720929Y-84028642D01*
X125757214Y-84137499D01*
X125757214Y-84318927D01*
X138266714Y-89036072D02*
X139028714Y-88782072D01*
X138266714Y-88528072D01*
X139028714Y-88165214D02*
X138992429Y-88237786D01*
X138956143Y-88274071D01*
X138883571Y-88310357D01*
X138665857Y-88310357D01*
X138593286Y-88274071D01*
X138557000Y-88237786D01*
X138520714Y-88165214D01*
X138520714Y-88056357D01*
X138557000Y-87983786D01*
X138593286Y-87947500D01*
X138665857Y-87911214D01*
X138883571Y-87911214D01*
X138956143Y-87947500D01*
X138992429Y-87983786D01*
X139028714Y-88056357D01*
X139028714Y-88165214D01*
X138520714Y-87258071D02*
X139028714Y-87258071D01*
X138520714Y-87584642D02*
X138919857Y-87584642D01*
X138992429Y-87548357D01*
X139028714Y-87475785D01*
X139028714Y-87366928D01*
X138992429Y-87294357D01*
X138956143Y-87258071D01*
X138520714Y-87004071D02*
X138520714Y-86713785D01*
X138266714Y-86895213D02*
X138919857Y-86895213D01*
X138992429Y-86858928D01*
X139028714Y-86786356D01*
X139028714Y-86713785D01*
X138303000Y-85480071D02*
X138266714Y-85552642D01*
X138266714Y-85661499D01*
X138303000Y-85770356D01*
X138375571Y-85842928D01*
X138448143Y-85879213D01*
X138593286Y-85915499D01*
X138702143Y-85915499D01*
X138847286Y-85879213D01*
X138919857Y-85842928D01*
X138992429Y-85770356D01*
X139028714Y-85661499D01*
X139028714Y-85588928D01*
X138992429Y-85480071D01*
X138956143Y-85443785D01*
X138702143Y-85443785D01*
X138702143Y-85588928D01*
X139028714Y-85117213D02*
X138266714Y-85117213D01*
X139028714Y-84681785D01*
X138266714Y-84681785D01*
X139028714Y-84318927D02*
X138266714Y-84318927D01*
X138266714Y-84137499D01*
X138303000Y-84028642D01*
X138375571Y-83956070D01*
X138448143Y-83919785D01*
X138593286Y-83883499D01*
X138702143Y-83883499D01*
X138847286Y-83919785D01*
X138919857Y-83956070D01*
X138992429Y-84028642D01*
X139028714Y-84137499D01*
X139028714Y-84318927D01*
X151284214Y-89226572D02*
X152046214Y-88972572D01*
X151284214Y-88718572D01*
X152046214Y-88355714D02*
X152009929Y-88428286D01*
X151973643Y-88464571D01*
X151901071Y-88500857D01*
X151683357Y-88500857D01*
X151610786Y-88464571D01*
X151574500Y-88428286D01*
X151538214Y-88355714D01*
X151538214Y-88246857D01*
X151574500Y-88174286D01*
X151610786Y-88138000D01*
X151683357Y-88101714D01*
X151901071Y-88101714D01*
X151973643Y-88138000D01*
X152009929Y-88174286D01*
X152046214Y-88246857D01*
X152046214Y-88355714D01*
X151538214Y-87448571D02*
X152046214Y-87448571D01*
X151538214Y-87775142D02*
X151937357Y-87775142D01*
X152009929Y-87738857D01*
X152046214Y-87666285D01*
X152046214Y-87557428D01*
X152009929Y-87484857D01*
X151973643Y-87448571D01*
X151538214Y-87194571D02*
X151538214Y-86904285D01*
X151284214Y-87085713D02*
X151937357Y-87085713D01*
X152009929Y-87049428D01*
X152046214Y-86976856D01*
X152046214Y-86904285D01*
X151320500Y-85670571D02*
X151284214Y-85743142D01*
X151284214Y-85851999D01*
X151320500Y-85960856D01*
X151393071Y-86033428D01*
X151465643Y-86069713D01*
X151610786Y-86105999D01*
X151719643Y-86105999D01*
X151864786Y-86069713D01*
X151937357Y-86033428D01*
X152009929Y-85960856D01*
X152046214Y-85851999D01*
X152046214Y-85779428D01*
X152009929Y-85670571D01*
X151973643Y-85634285D01*
X151719643Y-85634285D01*
X151719643Y-85779428D01*
X152046214Y-85307713D02*
X151284214Y-85307713D01*
X152046214Y-84872285D01*
X151284214Y-84872285D01*
X152046214Y-84509427D02*
X151284214Y-84509427D01*
X151284214Y-84327999D01*
X151320500Y-84219142D01*
X151393071Y-84146570D01*
X151465643Y-84110285D01*
X151610786Y-84073999D01*
X151719643Y-84073999D01*
X151864786Y-84110285D01*
X151937357Y-84146570D01*
X152009929Y-84219142D01*
X152046214Y-84327999D01*
X152046214Y-84509427D01*
X142040429Y-88700428D02*
X142040429Y-88119857D01*
X142330714Y-88410143D02*
X141750143Y-88410143D01*
X141568714Y-87394142D02*
X141568714Y-87756999D01*
X141931571Y-87793285D01*
X141895286Y-87756999D01*
X141859000Y-87684428D01*
X141859000Y-87502999D01*
X141895286Y-87430428D01*
X141931571Y-87394142D01*
X142004143Y-87357857D01*
X142185571Y-87357857D01*
X142258143Y-87394142D01*
X142294429Y-87430428D01*
X142330714Y-87502999D01*
X142330714Y-87684428D01*
X142294429Y-87756999D01*
X142258143Y-87793285D01*
X141822714Y-87103857D02*
X142330714Y-86922428D01*
X141822714Y-86741000D01*
X128959429Y-88573428D02*
X128959429Y-87992857D01*
X129249714Y-88283143D02*
X128669143Y-88283143D01*
X128487714Y-87267142D02*
X128487714Y-87629999D01*
X128850571Y-87666285D01*
X128814286Y-87629999D01*
X128778000Y-87557428D01*
X128778000Y-87375999D01*
X128814286Y-87303428D01*
X128850571Y-87267142D01*
X128923143Y-87230857D01*
X129104571Y-87230857D01*
X129177143Y-87267142D01*
X129213429Y-87303428D01*
X129249714Y-87375999D01*
X129249714Y-87557428D01*
X129213429Y-87629999D01*
X129177143Y-87666285D01*
X128741714Y-86976857D02*
X129249714Y-86795428D01*
X128741714Y-86614000D01*
X115687929Y-88636928D02*
X115687929Y-88056357D01*
X115978214Y-88346643D02*
X115397643Y-88346643D01*
X115216214Y-87330642D02*
X115216214Y-87693499D01*
X115579071Y-87729785D01*
X115542786Y-87693499D01*
X115506500Y-87620928D01*
X115506500Y-87439499D01*
X115542786Y-87366928D01*
X115579071Y-87330642D01*
X115651643Y-87294357D01*
X115833071Y-87294357D01*
X115905643Y-87330642D01*
X115941929Y-87366928D01*
X115978214Y-87439499D01*
X115978214Y-87620928D01*
X115941929Y-87693499D01*
X115905643Y-87729785D01*
X115470214Y-87040357D02*
X115978214Y-86858928D01*
X115470214Y-86677500D01*
X102670429Y-88636928D02*
X102670429Y-88056357D01*
X102960714Y-88346643D02*
X102380143Y-88346643D01*
X102198714Y-87330642D02*
X102198714Y-87693499D01*
X102561571Y-87729785D01*
X102525286Y-87693499D01*
X102489000Y-87620928D01*
X102489000Y-87439499D01*
X102525286Y-87366928D01*
X102561571Y-87330642D01*
X102634143Y-87294357D01*
X102815571Y-87294357D01*
X102888143Y-87330642D01*
X102924429Y-87366928D01*
X102960714Y-87439499D01*
X102960714Y-87620928D01*
X102924429Y-87693499D01*
X102888143Y-87729785D01*
X102452714Y-87040357D02*
X102960714Y-86858928D01*
X102452714Y-86677500D01*
X142103929Y-69396428D02*
X142103929Y-68815857D01*
X142394214Y-69106143D02*
X141813643Y-69106143D01*
X141632214Y-68090142D02*
X141632214Y-68452999D01*
X141995071Y-68489285D01*
X141958786Y-68452999D01*
X141922500Y-68380428D01*
X141922500Y-68198999D01*
X141958786Y-68126428D01*
X141995071Y-68090142D01*
X142067643Y-68053857D01*
X142249071Y-68053857D01*
X142321643Y-68090142D01*
X142357929Y-68126428D01*
X142394214Y-68198999D01*
X142394214Y-68380428D01*
X142357929Y-68452999D01*
X142321643Y-68489285D01*
X141886214Y-67799857D02*
X142394214Y-67618428D01*
X141886214Y-67437000D01*
X128959429Y-69205928D02*
X128959429Y-68625357D01*
X129249714Y-68915643D02*
X128669143Y-68915643D01*
X128487714Y-67899642D02*
X128487714Y-68262499D01*
X128850571Y-68298785D01*
X128814286Y-68262499D01*
X128778000Y-68189928D01*
X128778000Y-68008499D01*
X128814286Y-67935928D01*
X128850571Y-67899642D01*
X128923143Y-67863357D01*
X129104571Y-67863357D01*
X129177143Y-67899642D01*
X129213429Y-67935928D01*
X129249714Y-68008499D01*
X129249714Y-68189928D01*
X129213429Y-68262499D01*
X129177143Y-68298785D01*
X128741714Y-67609357D02*
X129249714Y-67427928D01*
X128741714Y-67246500D01*
X115624429Y-69269428D02*
X115624429Y-68688857D01*
X115914714Y-68979143D02*
X115334143Y-68979143D01*
X115152714Y-67963142D02*
X115152714Y-68325999D01*
X115515571Y-68362285D01*
X115479286Y-68325999D01*
X115443000Y-68253428D01*
X115443000Y-68071999D01*
X115479286Y-67999428D01*
X115515571Y-67963142D01*
X115588143Y-67926857D01*
X115769571Y-67926857D01*
X115842143Y-67963142D01*
X115878429Y-67999428D01*
X115914714Y-68071999D01*
X115914714Y-68253428D01*
X115878429Y-68325999D01*
X115842143Y-68362285D01*
X115406714Y-67672857D02*
X115914714Y-67491428D01*
X115406714Y-67310000D01*
X102543429Y-69142428D02*
X102543429Y-68561857D01*
X102833714Y-68852143D02*
X102253143Y-68852143D01*
X102071714Y-67836142D02*
X102071714Y-68198999D01*
X102434571Y-68235285D01*
X102398286Y-68198999D01*
X102362000Y-68126428D01*
X102362000Y-67944999D01*
X102398286Y-67872428D01*
X102434571Y-67836142D01*
X102507143Y-67799857D01*
X102688571Y-67799857D01*
X102761143Y-67836142D01*
X102797429Y-67872428D01*
X102833714Y-67944999D01*
X102833714Y-68126428D01*
X102797429Y-68198999D01*
X102761143Y-68235285D01*
X102325714Y-67545857D02*
X102833714Y-67364428D01*
X102325714Y-67183000D01*
D12*
X142240000Y-85090000D02*
G75*
G03X142240000Y-85090000I-141990J0D01*
G01*
X128778000Y-85026500D02*
G75*
G03X128778000Y-85026500I-141990J0D01*
G01*
X115775490Y-85090000D02*
G75*
G03X115775490Y-85090000I-141990J0D01*
G01*
X102694490Y-85026500D02*
G75*
G03X102694490Y-85026500I-141990J0D01*
G01*
X142318490Y-65468500D02*
G75*
G03X142318490Y-65468500I-141990J0D01*
G01*
X129110490Y-65595500D02*
G75*
G03X129110490Y-65595500I-141990J0D01*
G01*
X115838990Y-65468500D02*
G75*
G03X115838990Y-65468500I-141990J0D01*
G01*
X102567490Y-66040000D02*
G75*
G03X102567490Y-66040000I-141990J0D01*
G01*
X150509990Y-97472500D02*
G75*
G03X150509990Y-97472500I-141990J0D01*
G01*
X137238490Y-97472500D02*
G75*
G03X137238490Y-97472500I-141990J0D01*
G01*
X124093990Y-97472500D02*
G75*
G03X124093990Y-97472500I-141990J0D01*
G01*
X110885990Y-97472500D02*
G75*
G03X110885990Y-97472500I-141990J0D01*
G01*
X150446490Y-77914500D02*
G75*
G03X150446490Y-77914500I-141990J0D01*
G01*
X137301990Y-77914500D02*
G75*
G03X137301990Y-77914500I-141990J0D01*
G01*
X124030490Y-77836010D02*
G75*
G03X124030490Y-77836010I-141990J0D01*
G01*
X110885990Y-77978000D02*
G75*
G03X110885990Y-77978000I-141990J0D01*
G01*
D13*
X142409332Y-101159733D02*
X142172266Y-100821067D01*
X142002932Y-101159733D02*
X142002932Y-100448533D01*
X142273866Y-100448533D01*
X142341599Y-100482400D01*
X142375466Y-100516267D01*
X142409332Y-100584000D01*
X142409332Y-100685600D01*
X142375466Y-100753333D01*
X142341599Y-100787200D01*
X142273866Y-100821067D01*
X142002932Y-100821067D01*
X142714132Y-100787200D02*
X142951199Y-100787200D01*
X143052799Y-101159733D02*
X142714132Y-101159733D01*
X142714132Y-100448533D01*
X143052799Y-100448533D01*
X143357599Y-101159733D02*
X143357599Y-100448533D01*
X143526933Y-100448533D01*
X143628533Y-100482400D01*
X143696266Y-100550133D01*
X143730133Y-100617867D01*
X143763999Y-100753333D01*
X143763999Y-100854933D01*
X143730133Y-100990400D01*
X143696266Y-101058133D01*
X143628533Y-101125867D01*
X143526933Y-101159733D01*
X143357599Y-101159733D01*
X144847733Y-100787200D02*
X144949333Y-100821067D01*
X144983200Y-100854933D01*
X145017066Y-100922667D01*
X145017066Y-101024267D01*
X144983200Y-101092000D01*
X144949333Y-101125867D01*
X144881600Y-101159733D01*
X144610666Y-101159733D01*
X144610666Y-100448533D01*
X144847733Y-100448533D01*
X144915466Y-100482400D01*
X144949333Y-100516267D01*
X144983200Y-100584000D01*
X144983200Y-100651733D01*
X144949333Y-100719467D01*
X144915466Y-100753333D01*
X144847733Y-100787200D01*
X144610666Y-100787200D01*
X145660533Y-101159733D02*
X145321866Y-101159733D01*
X145321866Y-100448533D01*
X145897599Y-101159733D02*
X145897599Y-100448533D01*
X146303999Y-101159733D02*
X145999199Y-100753333D01*
X146303999Y-100448533D02*
X145897599Y-100854933D01*
X147082933Y-100448533D02*
X147252266Y-101159733D01*
X147387733Y-100651733D01*
X147523200Y-101159733D01*
X147692533Y-100448533D01*
X147963466Y-101159733D02*
X147963466Y-100448533D01*
X147963466Y-100787200D02*
X148369866Y-100787200D01*
X148369866Y-101159733D02*
X148369866Y-100448533D01*
X148606933Y-100448533D02*
X149013333Y-100448533D01*
X148810133Y-101159733D02*
X148810133Y-100448533D01*
X150164801Y-100482400D02*
X150097067Y-100448533D01*
X149995467Y-100448533D01*
X149893867Y-100482400D01*
X149826134Y-100550133D01*
X149792267Y-100617867D01*
X149758401Y-100753333D01*
X149758401Y-100854933D01*
X149792267Y-100990400D01*
X149826134Y-101058133D01*
X149893867Y-101125867D01*
X149995467Y-101159733D01*
X150063201Y-101159733D01*
X150164801Y-101125867D01*
X150198667Y-101092000D01*
X150198667Y-100854933D01*
X150063201Y-100854933D01*
X150909867Y-101159733D02*
X150672801Y-100821067D01*
X150503467Y-101159733D02*
X150503467Y-100448533D01*
X150774401Y-100448533D01*
X150842134Y-100482400D01*
X150876001Y-100516267D01*
X150909867Y-100584000D01*
X150909867Y-100685600D01*
X150876001Y-100753333D01*
X150842134Y-100787200D01*
X150774401Y-100821067D01*
X150503467Y-100821067D01*
X151214667Y-101159733D02*
X151214667Y-100448533D01*
X151621067Y-101159733D01*
X151621067Y-100448533D01*
X129455332Y-101159733D02*
X129218266Y-100821067D01*
X129048932Y-101159733D02*
X129048932Y-100448533D01*
X129319866Y-100448533D01*
X129387599Y-100482400D01*
X129421466Y-100516267D01*
X129455332Y-100584000D01*
X129455332Y-100685600D01*
X129421466Y-100753333D01*
X129387599Y-100787200D01*
X129319866Y-100821067D01*
X129048932Y-100821067D01*
X129760132Y-100787200D02*
X129997199Y-100787200D01*
X130098799Y-101159733D02*
X129760132Y-101159733D01*
X129760132Y-100448533D01*
X130098799Y-100448533D01*
X130403599Y-101159733D02*
X130403599Y-100448533D01*
X130572933Y-100448533D01*
X130674533Y-100482400D01*
X130742266Y-100550133D01*
X130776133Y-100617867D01*
X130809999Y-100753333D01*
X130809999Y-100854933D01*
X130776133Y-100990400D01*
X130742266Y-101058133D01*
X130674533Y-101125867D01*
X130572933Y-101159733D01*
X130403599Y-101159733D01*
X131893733Y-100787200D02*
X131995333Y-100821067D01*
X132029200Y-100854933D01*
X132063066Y-100922667D01*
X132063066Y-101024267D01*
X132029200Y-101092000D01*
X131995333Y-101125867D01*
X131927600Y-101159733D01*
X131656666Y-101159733D01*
X131656666Y-100448533D01*
X131893733Y-100448533D01*
X131961466Y-100482400D01*
X131995333Y-100516267D01*
X132029200Y-100584000D01*
X132029200Y-100651733D01*
X131995333Y-100719467D01*
X131961466Y-100753333D01*
X131893733Y-100787200D01*
X131656666Y-100787200D01*
X132706533Y-101159733D02*
X132367866Y-101159733D01*
X132367866Y-100448533D01*
X132943599Y-101159733D02*
X132943599Y-100448533D01*
X133349999Y-101159733D02*
X133045199Y-100753333D01*
X133349999Y-100448533D02*
X132943599Y-100854933D01*
X134128933Y-100448533D02*
X134298266Y-101159733D01*
X134433733Y-100651733D01*
X134569200Y-101159733D01*
X134738533Y-100448533D01*
X135009466Y-101159733D02*
X135009466Y-100448533D01*
X135009466Y-100787200D02*
X135415866Y-100787200D01*
X135415866Y-101159733D02*
X135415866Y-100448533D01*
X135652933Y-100448533D02*
X136059333Y-100448533D01*
X135856133Y-101159733D02*
X135856133Y-100448533D01*
X137210801Y-100482400D02*
X137143067Y-100448533D01*
X137041467Y-100448533D01*
X136939867Y-100482400D01*
X136872134Y-100550133D01*
X136838267Y-100617867D01*
X136804401Y-100753333D01*
X136804401Y-100854933D01*
X136838267Y-100990400D01*
X136872134Y-101058133D01*
X136939867Y-101125867D01*
X137041467Y-101159733D01*
X137109201Y-101159733D01*
X137210801Y-101125867D01*
X137244667Y-101092000D01*
X137244667Y-100854933D01*
X137109201Y-100854933D01*
X137955867Y-101159733D02*
X137718801Y-100821067D01*
X137549467Y-101159733D02*
X137549467Y-100448533D01*
X137820401Y-100448533D01*
X137888134Y-100482400D01*
X137922001Y-100516267D01*
X137955867Y-100584000D01*
X137955867Y-100685600D01*
X137922001Y-100753333D01*
X137888134Y-100787200D01*
X137820401Y-100821067D01*
X137549467Y-100821067D01*
X138260667Y-101159733D02*
X138260667Y-100448533D01*
X138667067Y-101159733D01*
X138667067Y-100448533D01*
X115739332Y-101159733D02*
X115502266Y-100821067D01*
X115332932Y-101159733D02*
X115332932Y-100448533D01*
X115603866Y-100448533D01*
X115671599Y-100482400D01*
X115705466Y-100516267D01*
X115739332Y-100584000D01*
X115739332Y-100685600D01*
X115705466Y-100753333D01*
X115671599Y-100787200D01*
X115603866Y-100821067D01*
X115332932Y-100821067D01*
X116044132Y-100787200D02*
X116281199Y-100787200D01*
X116382799Y-101159733D02*
X116044132Y-101159733D01*
X116044132Y-100448533D01*
X116382799Y-100448533D01*
X116687599Y-101159733D02*
X116687599Y-100448533D01*
X116856933Y-100448533D01*
X116958533Y-100482400D01*
X117026266Y-100550133D01*
X117060133Y-100617867D01*
X117093999Y-100753333D01*
X117093999Y-100854933D01*
X117060133Y-100990400D01*
X117026266Y-101058133D01*
X116958533Y-101125867D01*
X116856933Y-101159733D01*
X116687599Y-101159733D01*
X118177733Y-100787200D02*
X118279333Y-100821067D01*
X118313200Y-100854933D01*
X118347066Y-100922667D01*
X118347066Y-101024267D01*
X118313200Y-101092000D01*
X118279333Y-101125867D01*
X118211600Y-101159733D01*
X117940666Y-101159733D01*
X117940666Y-100448533D01*
X118177733Y-100448533D01*
X118245466Y-100482400D01*
X118279333Y-100516267D01*
X118313200Y-100584000D01*
X118313200Y-100651733D01*
X118279333Y-100719467D01*
X118245466Y-100753333D01*
X118177733Y-100787200D01*
X117940666Y-100787200D01*
X118990533Y-101159733D02*
X118651866Y-101159733D01*
X118651866Y-100448533D01*
X119227599Y-101159733D02*
X119227599Y-100448533D01*
X119633999Y-101159733D02*
X119329199Y-100753333D01*
X119633999Y-100448533D02*
X119227599Y-100854933D01*
X120412933Y-100448533D02*
X120582266Y-101159733D01*
X120717733Y-100651733D01*
X120853200Y-101159733D01*
X121022533Y-100448533D01*
X121293466Y-101159733D02*
X121293466Y-100448533D01*
X121293466Y-100787200D02*
X121699866Y-100787200D01*
X121699866Y-101159733D02*
X121699866Y-100448533D01*
X121936933Y-100448533D02*
X122343333Y-100448533D01*
X122140133Y-101159733D02*
X122140133Y-100448533D01*
X123494801Y-100482400D02*
X123427067Y-100448533D01*
X123325467Y-100448533D01*
X123223867Y-100482400D01*
X123156134Y-100550133D01*
X123122267Y-100617867D01*
X123088401Y-100753333D01*
X123088401Y-100854933D01*
X123122267Y-100990400D01*
X123156134Y-101058133D01*
X123223867Y-101125867D01*
X123325467Y-101159733D01*
X123393201Y-101159733D01*
X123494801Y-101125867D01*
X123528667Y-101092000D01*
X123528667Y-100854933D01*
X123393201Y-100854933D01*
X124239867Y-101159733D02*
X124002801Y-100821067D01*
X123833467Y-101159733D02*
X123833467Y-100448533D01*
X124104401Y-100448533D01*
X124172134Y-100482400D01*
X124206001Y-100516267D01*
X124239867Y-100584000D01*
X124239867Y-100685600D01*
X124206001Y-100753333D01*
X124172134Y-100787200D01*
X124104401Y-100821067D01*
X123833467Y-100821067D01*
X124544667Y-101159733D02*
X124544667Y-100448533D01*
X124951067Y-101159733D01*
X124951067Y-100448533D01*
X103039332Y-101159733D02*
X102802266Y-100821067D01*
X102632932Y-101159733D02*
X102632932Y-100448533D01*
X102903866Y-100448533D01*
X102971599Y-100482400D01*
X103005466Y-100516267D01*
X103039332Y-100584000D01*
X103039332Y-100685600D01*
X103005466Y-100753333D01*
X102971599Y-100787200D01*
X102903866Y-100821067D01*
X102632932Y-100821067D01*
X103344132Y-100787200D02*
X103581199Y-100787200D01*
X103682799Y-101159733D02*
X103344132Y-101159733D01*
X103344132Y-100448533D01*
X103682799Y-100448533D01*
X103987599Y-101159733D02*
X103987599Y-100448533D01*
X104156933Y-100448533D01*
X104258533Y-100482400D01*
X104326266Y-100550133D01*
X104360133Y-100617867D01*
X104393999Y-100753333D01*
X104393999Y-100854933D01*
X104360133Y-100990400D01*
X104326266Y-101058133D01*
X104258533Y-101125867D01*
X104156933Y-101159733D01*
X103987599Y-101159733D01*
X105477733Y-100787200D02*
X105579333Y-100821067D01*
X105613200Y-100854933D01*
X105647066Y-100922667D01*
X105647066Y-101024267D01*
X105613200Y-101092000D01*
X105579333Y-101125867D01*
X105511600Y-101159733D01*
X105240666Y-101159733D01*
X105240666Y-100448533D01*
X105477733Y-100448533D01*
X105545466Y-100482400D01*
X105579333Y-100516267D01*
X105613200Y-100584000D01*
X105613200Y-100651733D01*
X105579333Y-100719467D01*
X105545466Y-100753333D01*
X105477733Y-100787200D01*
X105240666Y-100787200D01*
X106290533Y-101159733D02*
X105951866Y-101159733D01*
X105951866Y-100448533D01*
X106527599Y-101159733D02*
X106527599Y-100448533D01*
X106933999Y-101159733D02*
X106629199Y-100753333D01*
X106933999Y-100448533D02*
X106527599Y-100854933D01*
X107712933Y-100448533D02*
X107882266Y-101159733D01*
X108017733Y-100651733D01*
X108153200Y-101159733D01*
X108322533Y-100448533D01*
X108593466Y-101159733D02*
X108593466Y-100448533D01*
X108593466Y-100787200D02*
X108999866Y-100787200D01*
X108999866Y-101159733D02*
X108999866Y-100448533D01*
X109236933Y-100448533D02*
X109643333Y-100448533D01*
X109440133Y-101159733D02*
X109440133Y-100448533D01*
X110794801Y-100482400D02*
X110727067Y-100448533D01*
X110625467Y-100448533D01*
X110523867Y-100482400D01*
X110456134Y-100550133D01*
X110422267Y-100617867D01*
X110388401Y-100753333D01*
X110388401Y-100854933D01*
X110422267Y-100990400D01*
X110456134Y-101058133D01*
X110523867Y-101125867D01*
X110625467Y-101159733D01*
X110693201Y-101159733D01*
X110794801Y-101125867D01*
X110828667Y-101092000D01*
X110828667Y-100854933D01*
X110693201Y-100854933D01*
X111539867Y-101159733D02*
X111302801Y-100821067D01*
X111133467Y-101159733D02*
X111133467Y-100448533D01*
X111404401Y-100448533D01*
X111472134Y-100482400D01*
X111506001Y-100516267D01*
X111539867Y-100584000D01*
X111539867Y-100685600D01*
X111506001Y-100753333D01*
X111472134Y-100787200D01*
X111404401Y-100821067D01*
X111133467Y-100821067D01*
X111844667Y-101159733D02*
X111844667Y-100448533D01*
X112251067Y-101159733D01*
X112251067Y-100448533D01*
X142434732Y-81601733D02*
X142197666Y-81263067D01*
X142028332Y-81601733D02*
X142028332Y-80890533D01*
X142299266Y-80890533D01*
X142366999Y-80924400D01*
X142400866Y-80958267D01*
X142434732Y-81026000D01*
X142434732Y-81127600D01*
X142400866Y-81195333D01*
X142366999Y-81229200D01*
X142299266Y-81263067D01*
X142028332Y-81263067D01*
X142739532Y-81229200D02*
X142976599Y-81229200D01*
X143078199Y-81601733D02*
X142739532Y-81601733D01*
X142739532Y-80890533D01*
X143078199Y-80890533D01*
X143382999Y-81601733D02*
X143382999Y-80890533D01*
X143552333Y-80890533D01*
X143653933Y-80924400D01*
X143721666Y-80992133D01*
X143755533Y-81059867D01*
X143789399Y-81195333D01*
X143789399Y-81296933D01*
X143755533Y-81432400D01*
X143721666Y-81500133D01*
X143653933Y-81567867D01*
X143552333Y-81601733D01*
X143382999Y-81601733D01*
X144873133Y-81229200D02*
X144974733Y-81263067D01*
X145008600Y-81296933D01*
X145042466Y-81364667D01*
X145042466Y-81466267D01*
X145008600Y-81534000D01*
X144974733Y-81567867D01*
X144907000Y-81601733D01*
X144636066Y-81601733D01*
X144636066Y-80890533D01*
X144873133Y-80890533D01*
X144940866Y-80924400D01*
X144974733Y-80958267D01*
X145008600Y-81026000D01*
X145008600Y-81093733D01*
X144974733Y-81161467D01*
X144940866Y-81195333D01*
X144873133Y-81229200D01*
X144636066Y-81229200D01*
X145685933Y-81601733D02*
X145347266Y-81601733D01*
X145347266Y-80890533D01*
X145922999Y-81601733D02*
X145922999Y-80890533D01*
X146329399Y-81601733D02*
X146024599Y-81195333D01*
X146329399Y-80890533D02*
X145922999Y-81296933D01*
X147108333Y-80890533D02*
X147277666Y-81601733D01*
X147413133Y-81093733D01*
X147548600Y-81601733D01*
X147717933Y-80890533D01*
X147988866Y-81601733D02*
X147988866Y-80890533D01*
X147988866Y-81229200D02*
X148395266Y-81229200D01*
X148395266Y-81601733D02*
X148395266Y-80890533D01*
X148632333Y-80890533D02*
X149038733Y-80890533D01*
X148835533Y-81601733D02*
X148835533Y-80890533D01*
X150190201Y-80924400D02*
X150122467Y-80890533D01*
X150020867Y-80890533D01*
X149919267Y-80924400D01*
X149851534Y-80992133D01*
X149817667Y-81059867D01*
X149783801Y-81195333D01*
X149783801Y-81296933D01*
X149817667Y-81432400D01*
X149851534Y-81500133D01*
X149919267Y-81567867D01*
X150020867Y-81601733D01*
X150088601Y-81601733D01*
X150190201Y-81567867D01*
X150224067Y-81534000D01*
X150224067Y-81296933D01*
X150088601Y-81296933D01*
X150935267Y-81601733D02*
X150698201Y-81263067D01*
X150528867Y-81601733D02*
X150528867Y-80890533D01*
X150799801Y-80890533D01*
X150867534Y-80924400D01*
X150901401Y-80958267D01*
X150935267Y-81026000D01*
X150935267Y-81127600D01*
X150901401Y-81195333D01*
X150867534Y-81229200D01*
X150799801Y-81263067D01*
X150528867Y-81263067D01*
X151240067Y-81601733D02*
X151240067Y-80890533D01*
X151646467Y-81601733D01*
X151646467Y-80890533D01*
X129455332Y-81601733D02*
X129218266Y-81263067D01*
X129048932Y-81601733D02*
X129048932Y-80890533D01*
X129319866Y-80890533D01*
X129387599Y-80924400D01*
X129421466Y-80958267D01*
X129455332Y-81026000D01*
X129455332Y-81127600D01*
X129421466Y-81195333D01*
X129387599Y-81229200D01*
X129319866Y-81263067D01*
X129048932Y-81263067D01*
X129760132Y-81229200D02*
X129997199Y-81229200D01*
X130098799Y-81601733D02*
X129760132Y-81601733D01*
X129760132Y-80890533D01*
X130098799Y-80890533D01*
X130403599Y-81601733D02*
X130403599Y-80890533D01*
X130572933Y-80890533D01*
X130674533Y-80924400D01*
X130742266Y-80992133D01*
X130776133Y-81059867D01*
X130809999Y-81195333D01*
X130809999Y-81296933D01*
X130776133Y-81432400D01*
X130742266Y-81500133D01*
X130674533Y-81567867D01*
X130572933Y-81601733D01*
X130403599Y-81601733D01*
X131893733Y-81229200D02*
X131995333Y-81263067D01*
X132029200Y-81296933D01*
X132063066Y-81364667D01*
X132063066Y-81466267D01*
X132029200Y-81534000D01*
X131995333Y-81567867D01*
X131927600Y-81601733D01*
X131656666Y-81601733D01*
X131656666Y-80890533D01*
X131893733Y-80890533D01*
X131961466Y-80924400D01*
X131995333Y-80958267D01*
X132029200Y-81026000D01*
X132029200Y-81093733D01*
X131995333Y-81161467D01*
X131961466Y-81195333D01*
X131893733Y-81229200D01*
X131656666Y-81229200D01*
X132706533Y-81601733D02*
X132367866Y-81601733D01*
X132367866Y-80890533D01*
X132943599Y-81601733D02*
X132943599Y-80890533D01*
X133349999Y-81601733D02*
X133045199Y-81195333D01*
X133349999Y-80890533D02*
X132943599Y-81296933D01*
X134128933Y-80890533D02*
X134298266Y-81601733D01*
X134433733Y-81093733D01*
X134569200Y-81601733D01*
X134738533Y-80890533D01*
X135009466Y-81601733D02*
X135009466Y-80890533D01*
X135009466Y-81229200D02*
X135415866Y-81229200D01*
X135415866Y-81601733D02*
X135415866Y-80890533D01*
X135652933Y-80890533D02*
X136059333Y-80890533D01*
X135856133Y-81601733D02*
X135856133Y-80890533D01*
X137210801Y-80924400D02*
X137143067Y-80890533D01*
X137041467Y-80890533D01*
X136939867Y-80924400D01*
X136872134Y-80992133D01*
X136838267Y-81059867D01*
X136804401Y-81195333D01*
X136804401Y-81296933D01*
X136838267Y-81432400D01*
X136872134Y-81500133D01*
X136939867Y-81567867D01*
X137041467Y-81601733D01*
X137109201Y-81601733D01*
X137210801Y-81567867D01*
X137244667Y-81534000D01*
X137244667Y-81296933D01*
X137109201Y-81296933D01*
X137955867Y-81601733D02*
X137718801Y-81263067D01*
X137549467Y-81601733D02*
X137549467Y-80890533D01*
X137820401Y-80890533D01*
X137888134Y-80924400D01*
X137922001Y-80958267D01*
X137955867Y-81026000D01*
X137955867Y-81127600D01*
X137922001Y-81195333D01*
X137888134Y-81229200D01*
X137820401Y-81263067D01*
X137549467Y-81263067D01*
X138260667Y-81601733D02*
X138260667Y-80890533D01*
X138667067Y-81601733D01*
X138667067Y-80890533D01*
X115993332Y-81601733D02*
X115756266Y-81263067D01*
X115586932Y-81601733D02*
X115586932Y-80890533D01*
X115857866Y-80890533D01*
X115925599Y-80924400D01*
X115959466Y-80958267D01*
X115993332Y-81026000D01*
X115993332Y-81127600D01*
X115959466Y-81195333D01*
X115925599Y-81229200D01*
X115857866Y-81263067D01*
X115586932Y-81263067D01*
X116298132Y-81229200D02*
X116535199Y-81229200D01*
X116636799Y-81601733D02*
X116298132Y-81601733D01*
X116298132Y-80890533D01*
X116636799Y-80890533D01*
X116941599Y-81601733D02*
X116941599Y-80890533D01*
X117110933Y-80890533D01*
X117212533Y-80924400D01*
X117280266Y-80992133D01*
X117314133Y-81059867D01*
X117347999Y-81195333D01*
X117347999Y-81296933D01*
X117314133Y-81432400D01*
X117280266Y-81500133D01*
X117212533Y-81567867D01*
X117110933Y-81601733D01*
X116941599Y-81601733D01*
X118431733Y-81229200D02*
X118533333Y-81263067D01*
X118567200Y-81296933D01*
X118601066Y-81364667D01*
X118601066Y-81466267D01*
X118567200Y-81534000D01*
X118533333Y-81567867D01*
X118465600Y-81601733D01*
X118194666Y-81601733D01*
X118194666Y-80890533D01*
X118431733Y-80890533D01*
X118499466Y-80924400D01*
X118533333Y-80958267D01*
X118567200Y-81026000D01*
X118567200Y-81093733D01*
X118533333Y-81161467D01*
X118499466Y-81195333D01*
X118431733Y-81229200D01*
X118194666Y-81229200D01*
X119244533Y-81601733D02*
X118905866Y-81601733D01*
X118905866Y-80890533D01*
X119481599Y-81601733D02*
X119481599Y-80890533D01*
X119887999Y-81601733D02*
X119583199Y-81195333D01*
X119887999Y-80890533D02*
X119481599Y-81296933D01*
X120666933Y-80890533D02*
X120836266Y-81601733D01*
X120971733Y-81093733D01*
X121107200Y-81601733D01*
X121276533Y-80890533D01*
X121547466Y-81601733D02*
X121547466Y-80890533D01*
X121547466Y-81229200D02*
X121953866Y-81229200D01*
X121953866Y-81601733D02*
X121953866Y-80890533D01*
X122190933Y-80890533D02*
X122597333Y-80890533D01*
X122394133Y-81601733D02*
X122394133Y-80890533D01*
X123748801Y-80924400D02*
X123681067Y-80890533D01*
X123579467Y-80890533D01*
X123477867Y-80924400D01*
X123410134Y-80992133D01*
X123376267Y-81059867D01*
X123342401Y-81195333D01*
X123342401Y-81296933D01*
X123376267Y-81432400D01*
X123410134Y-81500133D01*
X123477867Y-81567867D01*
X123579467Y-81601733D01*
X123647201Y-81601733D01*
X123748801Y-81567867D01*
X123782667Y-81534000D01*
X123782667Y-81296933D01*
X123647201Y-81296933D01*
X124493867Y-81601733D02*
X124256801Y-81263067D01*
X124087467Y-81601733D02*
X124087467Y-80890533D01*
X124358401Y-80890533D01*
X124426134Y-80924400D01*
X124460001Y-80958267D01*
X124493867Y-81026000D01*
X124493867Y-81127600D01*
X124460001Y-81195333D01*
X124426134Y-81229200D01*
X124358401Y-81263067D01*
X124087467Y-81263067D01*
X124798667Y-81601733D02*
X124798667Y-80890533D01*
X125205067Y-81601733D01*
X125205067Y-80890533D01*
X102912332Y-81601733D02*
X102675266Y-81263067D01*
X102505932Y-81601733D02*
X102505932Y-80890533D01*
X102776866Y-80890533D01*
X102844599Y-80924400D01*
X102878466Y-80958267D01*
X102912332Y-81026000D01*
X102912332Y-81127600D01*
X102878466Y-81195333D01*
X102844599Y-81229200D01*
X102776866Y-81263067D01*
X102505932Y-81263067D01*
X103217132Y-81229200D02*
X103454199Y-81229200D01*
X103555799Y-81601733D02*
X103217132Y-81601733D01*
X103217132Y-80890533D01*
X103555799Y-80890533D01*
X103860599Y-81601733D02*
X103860599Y-80890533D01*
X104029933Y-80890533D01*
X104131533Y-80924400D01*
X104199266Y-80992133D01*
X104233133Y-81059867D01*
X104266999Y-81195333D01*
X104266999Y-81296933D01*
X104233133Y-81432400D01*
X104199266Y-81500133D01*
X104131533Y-81567867D01*
X104029933Y-81601733D01*
X103860599Y-81601733D01*
X105350733Y-81229200D02*
X105452333Y-81263067D01*
X105486200Y-81296933D01*
X105520066Y-81364667D01*
X105520066Y-81466267D01*
X105486200Y-81534000D01*
X105452333Y-81567867D01*
X105384600Y-81601733D01*
X105113666Y-81601733D01*
X105113666Y-80890533D01*
X105350733Y-80890533D01*
X105418466Y-80924400D01*
X105452333Y-80958267D01*
X105486200Y-81026000D01*
X105486200Y-81093733D01*
X105452333Y-81161467D01*
X105418466Y-81195333D01*
X105350733Y-81229200D01*
X105113666Y-81229200D01*
X106163533Y-81601733D02*
X105824866Y-81601733D01*
X105824866Y-80890533D01*
X106400599Y-81601733D02*
X106400599Y-80890533D01*
X106806999Y-81601733D02*
X106502199Y-81195333D01*
X106806999Y-80890533D02*
X106400599Y-81296933D01*
X107585933Y-80890533D02*
X107755266Y-81601733D01*
X107890733Y-81093733D01*
X108026200Y-81601733D01*
X108195533Y-80890533D01*
X108466466Y-81601733D02*
X108466466Y-80890533D01*
X108466466Y-81229200D02*
X108872866Y-81229200D01*
X108872866Y-81601733D02*
X108872866Y-80890533D01*
X109109933Y-80890533D02*
X109516333Y-80890533D01*
X109313133Y-81601733D02*
X109313133Y-80890533D01*
X110667801Y-80924400D02*
X110600067Y-80890533D01*
X110498467Y-80890533D01*
X110396867Y-80924400D01*
X110329134Y-80992133D01*
X110295267Y-81059867D01*
X110261401Y-81195333D01*
X110261401Y-81296933D01*
X110295267Y-81432400D01*
X110329134Y-81500133D01*
X110396867Y-81567867D01*
X110498467Y-81601733D01*
X110566201Y-81601733D01*
X110667801Y-81567867D01*
X110701667Y-81534000D01*
X110701667Y-81296933D01*
X110566201Y-81296933D01*
X111412867Y-81601733D02*
X111175801Y-81263067D01*
X111006467Y-81601733D02*
X111006467Y-80890533D01*
X111277401Y-80890533D01*
X111345134Y-80924400D01*
X111379001Y-80958267D01*
X111412867Y-81026000D01*
X111412867Y-81127600D01*
X111379001Y-81195333D01*
X111345134Y-81229200D01*
X111277401Y-81263067D01*
X111006467Y-81263067D01*
X111717667Y-81601733D02*
X111717667Y-80890533D01*
X112124067Y-81601733D01*
X112124067Y-80890533D01*
D14*
X125095000Y-76018200D02*
X125095000Y-76268200D01*
X125095000Y-75518200D02*
X125095000Y-75268200D01*
X125095000Y-75518200D02*
X125445000Y-76018200D01*
X125445000Y-76018200D02*
X124745000Y-76018200D01*
X124745000Y-76018200D02*
X125095000Y-75518200D01*
X125445000Y-75518200D02*
X124745000Y-75518200D01*
X124295000Y-74468200D02*
X124295000Y-76868200D01*
X125895000Y-74468200D02*
X125895000Y-76868200D01*
D15*
X117923000Y-64202000D02*
X123123000Y-64202000D01*
X117923000Y-69402000D02*
X123123000Y-69402000D01*
X116483000Y-64772000D02*
X117923000Y-64772000D01*
X117923000Y-64202000D02*
X117923000Y-64772000D01*
X123123000Y-64202000D02*
X123123000Y-64772000D01*
X117923000Y-68832000D02*
X117923000Y-69402000D01*
X123123000Y-68832000D02*
X123123000Y-69402000D01*
X117923000Y-66292000D02*
X117923000Y-67312000D01*
X123123000Y-66292000D02*
X123123000Y-67312000D01*
D14*
X112360000Y-71278000D02*
X112360000Y-71978000D01*
X111160000Y-71978000D02*
X111160000Y-71278000D01*
X125568000Y-71278000D02*
X125568000Y-71978000D01*
X124368000Y-71978000D02*
X124368000Y-71278000D01*
X102143000Y-71978000D02*
X102143000Y-71278000D01*
X103343000Y-71278000D02*
X103343000Y-71978000D01*
X115351000Y-71978000D02*
X115351000Y-71278000D01*
X116551000Y-71278000D02*
X116551000Y-71978000D01*
X138776000Y-71278000D02*
X138776000Y-71978000D01*
X137576000Y-71978000D02*
X137576000Y-71278000D01*
X151984000Y-71278000D02*
X151984000Y-71978000D01*
X150784000Y-71978000D02*
X150784000Y-71278000D01*
X128559000Y-71978000D02*
X128559000Y-71278000D01*
X129759000Y-71278000D02*
X129759000Y-71978000D01*
X141767000Y-71978000D02*
X141767000Y-71278000D01*
X142967000Y-71278000D02*
X142967000Y-71978000D01*
X112360000Y-90836000D02*
X112360000Y-91536000D01*
X111160000Y-91536000D02*
X111160000Y-90836000D01*
X125568000Y-90836000D02*
X125568000Y-91536000D01*
X124368000Y-91536000D02*
X124368000Y-90836000D01*
X102143000Y-91536000D02*
X102143000Y-90836000D01*
X103343000Y-90836000D02*
X103343000Y-91536000D01*
X115351000Y-91536000D02*
X115351000Y-90836000D01*
X116551000Y-90836000D02*
X116551000Y-91536000D01*
X138776000Y-90836000D02*
X138776000Y-91536000D01*
X137576000Y-91536000D02*
X137576000Y-90836000D01*
X151984000Y-90836000D02*
X151984000Y-91536000D01*
X150784000Y-91536000D02*
X150784000Y-90836000D01*
X128559000Y-91536000D02*
X128559000Y-90836000D01*
X129759000Y-90836000D02*
X129759000Y-91536000D01*
X141767000Y-91536000D02*
X141767000Y-90836000D01*
X142967000Y-90836000D02*
X142967000Y-91536000D01*
X111760000Y-76018200D02*
X111760000Y-76268200D01*
X111760000Y-75518200D02*
X111760000Y-75268200D01*
X111760000Y-75518200D02*
X112110000Y-76018200D01*
X112110000Y-76018200D02*
X111410000Y-76018200D01*
X111410000Y-76018200D02*
X111760000Y-75518200D01*
X112110000Y-75518200D02*
X111410000Y-75518200D01*
X110960000Y-74468200D02*
X110960000Y-76868200D01*
X112560000Y-74468200D02*
X112560000Y-76868200D01*
X138430000Y-76018200D02*
X138430000Y-76268200D01*
X138430000Y-75518200D02*
X138430000Y-75268200D01*
X138430000Y-75518200D02*
X138780000Y-76018200D01*
X138780000Y-76018200D02*
X138080000Y-76018200D01*
X138080000Y-76018200D02*
X138430000Y-75518200D01*
X138780000Y-75518200D02*
X138080000Y-75518200D01*
X137630000Y-74468200D02*
X137630000Y-76868200D01*
X139230000Y-74468200D02*
X139230000Y-76868200D01*
X151638000Y-76018200D02*
X151638000Y-76268200D01*
X151638000Y-75518200D02*
X151638000Y-75268200D01*
X151638000Y-75518200D02*
X151988000Y-76018200D01*
X151988000Y-76018200D02*
X151288000Y-76018200D01*
X151288000Y-76018200D02*
X151638000Y-75518200D01*
X151988000Y-75518200D02*
X151288000Y-75518200D01*
X150838000Y-74468200D02*
X150838000Y-76868200D01*
X152438000Y-74468200D02*
X152438000Y-76868200D01*
X111760000Y-95576200D02*
X111760000Y-95826200D01*
X111760000Y-95076200D02*
X111760000Y-94826200D01*
X111760000Y-95076200D02*
X112110000Y-95576200D01*
X112110000Y-95576200D02*
X111410000Y-95576200D01*
X111410000Y-95576200D02*
X111760000Y-95076200D01*
X112110000Y-95076200D02*
X111410000Y-95076200D01*
X110960000Y-94026200D02*
X110960000Y-96426200D01*
X112560000Y-94026200D02*
X112560000Y-96426200D01*
X124968000Y-95576200D02*
X124968000Y-95826200D01*
X124968000Y-95076200D02*
X124968000Y-94826200D01*
X124968000Y-95076200D02*
X125318000Y-95576200D01*
X125318000Y-95576200D02*
X124618000Y-95576200D01*
X124618000Y-95576200D02*
X124968000Y-95076200D01*
X125318000Y-95076200D02*
X124618000Y-95076200D01*
X124168000Y-94026200D02*
X124168000Y-96426200D01*
X125768000Y-94026200D02*
X125768000Y-96426200D01*
X138303000Y-95576200D02*
X138303000Y-95826200D01*
X138303000Y-95076200D02*
X138303000Y-94826200D01*
X138303000Y-95076200D02*
X138653000Y-95576200D01*
X138653000Y-95576200D02*
X137953000Y-95576200D01*
X137953000Y-95576200D02*
X138303000Y-95076200D01*
X138653000Y-95076200D02*
X137953000Y-95076200D01*
X137503000Y-94026200D02*
X137503000Y-96426200D01*
X139103000Y-94026200D02*
X139103000Y-96426200D01*
X151638000Y-95576200D02*
X151638000Y-95826200D01*
X151638000Y-95076200D02*
X151638000Y-94826200D01*
X151638000Y-95076200D02*
X151988000Y-95576200D01*
X151988000Y-95576200D02*
X151288000Y-95576200D01*
X151288000Y-95576200D02*
X151638000Y-95076200D01*
X151988000Y-95076200D02*
X151288000Y-95076200D01*
X150838000Y-94026200D02*
X150838000Y-96426200D01*
X152438000Y-94026200D02*
X152438000Y-96426200D01*
D15*
X104715000Y-64202000D02*
X109915000Y-64202000D01*
X104715000Y-69402000D02*
X109915000Y-69402000D01*
X103275000Y-64772000D02*
X104715000Y-64772000D01*
X104715000Y-64202000D02*
X104715000Y-64772000D01*
X109915000Y-64202000D02*
X109915000Y-64772000D01*
X104715000Y-68832000D02*
X104715000Y-69402000D01*
X109915000Y-68832000D02*
X109915000Y-69402000D01*
X104715000Y-66292000D02*
X104715000Y-67312000D01*
X109915000Y-66292000D02*
X109915000Y-67312000D01*
X131131000Y-64202000D02*
X136331000Y-64202000D01*
X131131000Y-69402000D02*
X136331000Y-69402000D01*
X129691000Y-64772000D02*
X131131000Y-64772000D01*
X131131000Y-64202000D02*
X131131000Y-64772000D01*
X136331000Y-64202000D02*
X136331000Y-64772000D01*
X131131000Y-68832000D02*
X131131000Y-69402000D01*
X136331000Y-68832000D02*
X136331000Y-69402000D01*
X131131000Y-66292000D02*
X131131000Y-67312000D01*
X136331000Y-66292000D02*
X136331000Y-67312000D01*
X144339000Y-64202000D02*
X149539000Y-64202000D01*
X144339000Y-69402000D02*
X149539000Y-69402000D01*
X142899000Y-64772000D02*
X144339000Y-64772000D01*
X144339000Y-64202000D02*
X144339000Y-64772000D01*
X149539000Y-64202000D02*
X149539000Y-64772000D01*
X144339000Y-68832000D02*
X144339000Y-69402000D01*
X149539000Y-68832000D02*
X149539000Y-69402000D01*
X144339000Y-66292000D02*
X144339000Y-67312000D01*
X149539000Y-66292000D02*
X149539000Y-67312000D01*
X104715000Y-83760000D02*
X109915000Y-83760000D01*
X104715000Y-88960000D02*
X109915000Y-88960000D01*
X103275000Y-84330000D02*
X104715000Y-84330000D01*
X104715000Y-83760000D02*
X104715000Y-84330000D01*
X109915000Y-83760000D02*
X109915000Y-84330000D01*
X104715000Y-88390000D02*
X104715000Y-88960000D01*
X109915000Y-88390000D02*
X109915000Y-88960000D01*
X104715000Y-85850000D02*
X104715000Y-86870000D01*
X109915000Y-85850000D02*
X109915000Y-86870000D01*
X117923000Y-83760000D02*
X123123000Y-83760000D01*
X117923000Y-88960000D02*
X123123000Y-88960000D01*
X116483000Y-84330000D02*
X117923000Y-84330000D01*
X117923000Y-83760000D02*
X117923000Y-84330000D01*
X123123000Y-83760000D02*
X123123000Y-84330000D01*
X117923000Y-88390000D02*
X117923000Y-88960000D01*
X123123000Y-88390000D02*
X123123000Y-88960000D01*
X117923000Y-85850000D02*
X117923000Y-86870000D01*
X123123000Y-85850000D02*
X123123000Y-86870000D01*
X131131000Y-83760000D02*
X136331000Y-83760000D01*
X131131000Y-88960000D02*
X136331000Y-88960000D01*
X129691000Y-84330000D02*
X131131000Y-84330000D01*
X131131000Y-83760000D02*
X131131000Y-84330000D01*
X136331000Y-83760000D02*
X136331000Y-84330000D01*
X131131000Y-88390000D02*
X131131000Y-88960000D01*
X136331000Y-88390000D02*
X136331000Y-88960000D01*
X131131000Y-85850000D02*
X131131000Y-86870000D01*
X136331000Y-85850000D02*
X136331000Y-86870000D01*
X144339000Y-83760000D02*
X149539000Y-83760000D01*
X144339000Y-88960000D02*
X149539000Y-88960000D01*
X142899000Y-84330000D02*
X144339000Y-84330000D01*
X144339000Y-83760000D02*
X144339000Y-84330000D01*
X149539000Y-83760000D02*
X149539000Y-84330000D01*
X144339000Y-88390000D02*
X144339000Y-88960000D01*
X149539000Y-88390000D02*
X149539000Y-88960000D01*
X144339000Y-85850000D02*
X144339000Y-86870000D01*
X149539000Y-85850000D02*
X149539000Y-86870000D01*
D14*
X110657000Y-71128000D02*
X110657000Y-72128000D01*
X109307000Y-72128000D02*
X109307000Y-71128000D01*
X105323000Y-71128000D02*
X105323000Y-72128000D01*
X103973000Y-72128000D02*
X103973000Y-71128000D01*
X123865000Y-71128000D02*
X123865000Y-72128000D01*
X122515000Y-72128000D02*
X122515000Y-71128000D01*
X118531000Y-71128000D02*
X118531000Y-72128000D01*
X117181000Y-72128000D02*
X117181000Y-71128000D01*
X107529000Y-72128000D02*
X107529000Y-71128000D01*
X108879000Y-71128000D02*
X108879000Y-72128000D01*
X105751000Y-72128000D02*
X105751000Y-71128000D01*
X107101000Y-71128000D02*
X107101000Y-72128000D01*
X120737000Y-72128000D02*
X120737000Y-71128000D01*
X122087000Y-71128000D02*
X122087000Y-72128000D01*
X118959000Y-72128000D02*
X118959000Y-71128000D01*
X120309000Y-71128000D02*
X120309000Y-72128000D01*
X137073000Y-71128000D02*
X137073000Y-72128000D01*
X135723000Y-72128000D02*
X135723000Y-71128000D01*
X131739000Y-71128000D02*
X131739000Y-72128000D01*
X130389000Y-72128000D02*
X130389000Y-71128000D01*
X150281000Y-71128000D02*
X150281000Y-72128000D01*
X148931000Y-72128000D02*
X148931000Y-71128000D01*
X144947000Y-71128000D02*
X144947000Y-72128000D01*
X143597000Y-72128000D02*
X143597000Y-71128000D01*
X133945000Y-72128000D02*
X133945000Y-71128000D01*
X135295000Y-71128000D02*
X135295000Y-72128000D01*
X132167000Y-72128000D02*
X132167000Y-71128000D01*
X133517000Y-71128000D02*
X133517000Y-72128000D01*
X147153000Y-72128000D02*
X147153000Y-71128000D01*
X148503000Y-71128000D02*
X148503000Y-72128000D01*
X145375000Y-72128000D02*
X145375000Y-71128000D01*
X146725000Y-71128000D02*
X146725000Y-72128000D01*
X110657000Y-90686000D02*
X110657000Y-91686000D01*
X109307000Y-91686000D02*
X109307000Y-90686000D01*
X105323000Y-90686000D02*
X105323000Y-91686000D01*
X103973000Y-91686000D02*
X103973000Y-90686000D01*
X123865000Y-90686000D02*
X123865000Y-91686000D01*
X122515000Y-91686000D02*
X122515000Y-90686000D01*
X118531000Y-90686000D02*
X118531000Y-91686000D01*
X117181000Y-91686000D02*
X117181000Y-90686000D01*
X107529000Y-91686000D02*
X107529000Y-90686000D01*
X108879000Y-90686000D02*
X108879000Y-91686000D01*
X105751000Y-91686000D02*
X105751000Y-90686000D01*
X107101000Y-90686000D02*
X107101000Y-91686000D01*
X120737000Y-91686000D02*
X120737000Y-90686000D01*
X122087000Y-90686000D02*
X122087000Y-91686000D01*
X118959000Y-91686000D02*
X118959000Y-90686000D01*
X120309000Y-90686000D02*
X120309000Y-91686000D01*
X137073000Y-90686000D02*
X137073000Y-91686000D01*
X135723000Y-91686000D02*
X135723000Y-90686000D01*
X131739000Y-90686000D02*
X131739000Y-91686000D01*
X130389000Y-91686000D02*
X130389000Y-90686000D01*
X150281000Y-90686000D02*
X150281000Y-91686000D01*
X148931000Y-91686000D02*
X148931000Y-90686000D01*
X144947000Y-90686000D02*
X144947000Y-91686000D01*
X143597000Y-91686000D02*
X143597000Y-90686000D01*
X133945000Y-91686000D02*
X133945000Y-90686000D01*
X135295000Y-90686000D02*
X135295000Y-91686000D01*
X132167000Y-91686000D02*
X132167000Y-90686000D01*
X133517000Y-90686000D02*
X133517000Y-91686000D01*
X147153000Y-91686000D02*
X147153000Y-90686000D01*
X148503000Y-90686000D02*
X148503000Y-91686000D01*
X145375000Y-91686000D02*
X145375000Y-90686000D01*
X146725000Y-90686000D02*
X146725000Y-91686000D01*
X109081200Y-77393200D02*
X109081200Y-77293200D01*
X104431200Y-77393200D02*
X104431200Y-77193200D01*
X104431200Y-74143200D02*
X104431200Y-74343200D01*
X109081200Y-74143200D02*
X109081200Y-74343200D01*
X109081200Y-77393200D02*
X104431200Y-77393200D01*
X109081200Y-74143200D02*
X104431200Y-74143200D01*
X109081200Y-77293200D02*
X110431200Y-77293200D01*
X122289200Y-77393200D02*
X122289200Y-77293200D01*
X117639200Y-77393200D02*
X117639200Y-77193200D01*
X117639200Y-74143200D02*
X117639200Y-74343200D01*
X122289200Y-74143200D02*
X122289200Y-74343200D01*
X122289200Y-77393200D02*
X117639200Y-77393200D01*
X122289200Y-74143200D02*
X117639200Y-74143200D01*
X122289200Y-77293200D02*
X123639200Y-77293200D01*
X135497200Y-77393200D02*
X135497200Y-77293200D01*
X130847200Y-77393200D02*
X130847200Y-77193200D01*
X130847200Y-74143200D02*
X130847200Y-74343200D01*
X135497200Y-74143200D02*
X135497200Y-74343200D01*
X135497200Y-77393200D02*
X130847200Y-77393200D01*
X135497200Y-74143200D02*
X130847200Y-74143200D01*
X135497200Y-77293200D02*
X136847200Y-77293200D01*
X148705200Y-77393200D02*
X148705200Y-77293200D01*
X144055200Y-77393200D02*
X144055200Y-77193200D01*
X144055200Y-74143200D02*
X144055200Y-74343200D01*
X148705200Y-74143200D02*
X148705200Y-74343200D01*
X148705200Y-77393200D02*
X144055200Y-77393200D01*
X148705200Y-74143200D02*
X144055200Y-74143200D01*
X148705200Y-77293200D02*
X150055200Y-77293200D01*
X109081200Y-96951200D02*
X109081200Y-96851200D01*
X104431200Y-96951200D02*
X104431200Y-96751200D01*
X104431200Y-93701200D02*
X104431200Y-93901200D01*
X109081200Y-93701200D02*
X109081200Y-93901200D01*
X109081200Y-96951200D02*
X104431200Y-96951200D01*
X109081200Y-93701200D02*
X104431200Y-93701200D01*
X109081200Y-96851200D02*
X110431200Y-96851200D01*
X122289200Y-96951200D02*
X122289200Y-96851200D01*
X117639200Y-96951200D02*
X117639200Y-96751200D01*
X117639200Y-93701200D02*
X117639200Y-93901200D01*
X122289200Y-93701200D02*
X122289200Y-93901200D01*
X122289200Y-96951200D02*
X117639200Y-96951200D01*
X122289200Y-93701200D02*
X117639200Y-93701200D01*
X122289200Y-96851200D02*
X123639200Y-96851200D01*
X135497200Y-96951200D02*
X135497200Y-96851200D01*
X130847200Y-96951200D02*
X130847200Y-96751200D01*
X130847200Y-93701200D02*
X130847200Y-93901200D01*
X135497200Y-93701200D02*
X135497200Y-93901200D01*
X135497200Y-96951200D02*
X130847200Y-96951200D01*
X135497200Y-93701200D02*
X130847200Y-93701200D01*
X135497200Y-96851200D02*
X136847200Y-96851200D01*
X148705200Y-96951200D02*
X148705200Y-96851200D01*
X144055200Y-96951200D02*
X144055200Y-96751200D01*
X144055200Y-93701200D02*
X144055200Y-93901200D01*
X148705200Y-93701200D02*
X148705200Y-93901200D01*
X148705200Y-96951200D02*
X144055200Y-96951200D01*
X148705200Y-93701200D02*
X144055200Y-93701200D01*
X148705200Y-96851200D02*
X150055200Y-96851200D01*
M02*
