G04 #@! TF.FileFunction,Soldermask,Bot*
%FSLAX46Y46*%
G04 Gerber Fmt 4.6, Leading zero omitted, Abs format (unit mm)*
G04 Created by KiCad (PCBNEW 4.0.2-stable) date Tuesday, February 20, 2018 'AMt' 07:17:42 AM*
%MOMM*%
G01*
G04 APERTURE LIST*
%ADD10C,0.025400*%
G04 APERTURE END LIST*
D10*
G36*
X113833352Y-100444562D02*
X113908984Y-100460087D01*
X113935102Y-100471066D01*
X113980159Y-100490006D01*
X114018384Y-100515790D01*
X114044168Y-100533181D01*
X114098572Y-100587966D01*
X114098574Y-100587969D01*
X114141297Y-100652273D01*
X114170721Y-100723660D01*
X114182275Y-100782015D01*
X114185717Y-100799396D01*
X114184486Y-100887582D01*
X114184466Y-100887670D01*
X114184466Y-100887673D01*
X114167381Y-100962870D01*
X114167380Y-100962872D01*
X114135977Y-101033406D01*
X114100477Y-101083729D01*
X114091469Y-101096499D01*
X114035559Y-101149741D01*
X113970372Y-101191110D01*
X113898383Y-101219033D01*
X113822350Y-101232439D01*
X113745159Y-101230822D01*
X113669751Y-101214243D01*
X113599000Y-101183332D01*
X113535601Y-101139268D01*
X113535600Y-101139267D01*
X113481966Y-101083729D01*
X113449535Y-101033405D01*
X113440142Y-101018830D01*
X113428889Y-100990407D01*
X113411719Y-100947043D01*
X113397782Y-100871106D01*
X113397782Y-100871103D01*
X113398860Y-100793902D01*
X113400255Y-100787341D01*
X113414911Y-100718383D01*
X113445328Y-100647416D01*
X113488947Y-100583711D01*
X113544113Y-100529689D01*
X113560707Y-100518831D01*
X113608718Y-100487413D01*
X113680304Y-100458491D01*
X113756145Y-100444023D01*
X113833352Y-100444562D01*
X113833352Y-100444562D01*
G37*
G36*
X140249352Y-100444562D02*
X140324984Y-100460087D01*
X140351102Y-100471066D01*
X140396159Y-100490006D01*
X140434384Y-100515790D01*
X140460168Y-100533181D01*
X140514572Y-100587966D01*
X140514574Y-100587969D01*
X140557297Y-100652273D01*
X140586721Y-100723660D01*
X140598275Y-100782015D01*
X140601717Y-100799396D01*
X140600486Y-100887582D01*
X140600466Y-100887670D01*
X140600466Y-100887673D01*
X140583381Y-100962870D01*
X140583380Y-100962872D01*
X140551977Y-101033406D01*
X140516477Y-101083729D01*
X140507469Y-101096499D01*
X140451559Y-101149741D01*
X140386372Y-101191110D01*
X140314383Y-101219033D01*
X140238350Y-101232439D01*
X140161159Y-101230822D01*
X140085751Y-101214243D01*
X140015000Y-101183332D01*
X139951601Y-101139268D01*
X139951600Y-101139267D01*
X139897966Y-101083729D01*
X139865535Y-101033405D01*
X139856142Y-101018830D01*
X139844889Y-100990407D01*
X139827719Y-100947043D01*
X139813782Y-100871106D01*
X139813782Y-100871103D01*
X139814860Y-100793902D01*
X139816255Y-100787341D01*
X139830911Y-100718383D01*
X139861328Y-100647416D01*
X139904947Y-100583711D01*
X139960113Y-100529689D01*
X139976707Y-100518831D01*
X140024718Y-100487413D01*
X140096304Y-100458491D01*
X140172145Y-100444023D01*
X140249352Y-100444562D01*
X140249352Y-100444562D01*
G37*
G36*
X127041352Y-100444562D02*
X127116984Y-100460087D01*
X127143102Y-100471066D01*
X127188159Y-100490006D01*
X127226384Y-100515790D01*
X127252168Y-100533181D01*
X127306572Y-100587966D01*
X127306574Y-100587969D01*
X127349297Y-100652273D01*
X127378721Y-100723660D01*
X127390275Y-100782015D01*
X127393717Y-100799396D01*
X127392486Y-100887582D01*
X127392466Y-100887670D01*
X127392466Y-100887673D01*
X127375381Y-100962870D01*
X127375380Y-100962872D01*
X127343977Y-101033406D01*
X127308477Y-101083729D01*
X127299469Y-101096499D01*
X127243559Y-101149741D01*
X127178372Y-101191110D01*
X127106383Y-101219033D01*
X127030350Y-101232439D01*
X126953159Y-101230822D01*
X126877751Y-101214243D01*
X126807000Y-101183332D01*
X126743601Y-101139268D01*
X126743600Y-101139267D01*
X126689966Y-101083729D01*
X126657535Y-101033405D01*
X126648142Y-101018830D01*
X126636889Y-100990407D01*
X126619719Y-100947043D01*
X126605782Y-100871106D01*
X126605782Y-100871103D01*
X126606860Y-100793902D01*
X126608255Y-100787341D01*
X126622911Y-100718383D01*
X126653328Y-100647416D01*
X126696947Y-100583711D01*
X126752113Y-100529689D01*
X126768707Y-100518831D01*
X126816718Y-100487413D01*
X126888304Y-100458491D01*
X126964145Y-100444023D01*
X127041352Y-100444562D01*
X127041352Y-100444562D01*
G37*
G36*
X105979361Y-99238189D02*
X106091589Y-99261226D01*
X106130344Y-99277517D01*
X106197204Y-99305622D01*
X106292184Y-99369687D01*
X106372915Y-99450984D01*
X106386488Y-99471414D01*
X106436314Y-99546408D01*
X106473353Y-99636273D01*
X106479973Y-99652333D01*
X106489882Y-99702381D01*
X106502225Y-99764716D01*
X106500398Y-99895574D01*
X106475016Y-100007295D01*
X106448109Y-100067729D01*
X106428418Y-100111956D01*
X106428417Y-100111957D01*
X106362377Y-100205576D01*
X106279410Y-100284584D01*
X106182677Y-100345972D01*
X106075863Y-100387402D01*
X106075860Y-100387403D01*
X105993768Y-100401878D01*
X105963036Y-100407297D01*
X105963035Y-100407297D01*
X105910659Y-100406200D01*
X105848494Y-100404898D01*
X105736599Y-100380296D01*
X105631613Y-100334429D01*
X105537536Y-100269044D01*
X105457951Y-100186631D01*
X105445514Y-100167333D01*
X105395888Y-100090328D01*
X105353713Y-99983806D01*
X105333032Y-99871124D01*
X105333256Y-99855103D01*
X105334631Y-99756565D01*
X105358451Y-99644501D01*
X105403584Y-99539198D01*
X105468311Y-99444666D01*
X105509239Y-99404587D01*
X105550168Y-99364506D01*
X105646033Y-99301775D01*
X105752258Y-99258857D01*
X105864796Y-99237389D01*
X105979361Y-99238189D01*
X105979361Y-99238189D01*
G37*
G36*
X108519361Y-99238189D02*
X108631589Y-99261226D01*
X108670344Y-99277517D01*
X108737204Y-99305622D01*
X108832184Y-99369687D01*
X108912915Y-99450984D01*
X108926488Y-99471414D01*
X108976314Y-99546408D01*
X109013353Y-99636273D01*
X109019973Y-99652333D01*
X109029882Y-99702381D01*
X109042225Y-99764716D01*
X109040398Y-99895574D01*
X109015016Y-100007295D01*
X108988109Y-100067729D01*
X108968418Y-100111956D01*
X108968417Y-100111957D01*
X108902377Y-100205576D01*
X108819410Y-100284584D01*
X108722677Y-100345972D01*
X108615863Y-100387402D01*
X108615860Y-100387403D01*
X108533768Y-100401878D01*
X108503036Y-100407297D01*
X108503035Y-100407297D01*
X108450659Y-100406200D01*
X108388494Y-100404898D01*
X108276599Y-100380296D01*
X108171613Y-100334429D01*
X108077536Y-100269044D01*
X107997951Y-100186631D01*
X107985514Y-100167333D01*
X107935888Y-100090328D01*
X107893713Y-99983806D01*
X107873032Y-99871124D01*
X107873256Y-99855103D01*
X107874631Y-99756565D01*
X107898451Y-99644501D01*
X107943584Y-99539198D01*
X108008311Y-99444666D01*
X108049239Y-99404587D01*
X108090168Y-99364506D01*
X108186033Y-99301775D01*
X108292258Y-99258857D01*
X108404796Y-99237389D01*
X108519361Y-99238189D01*
X108519361Y-99238189D01*
G37*
G36*
X111059361Y-99238189D02*
X111171589Y-99261226D01*
X111210344Y-99277517D01*
X111277204Y-99305622D01*
X111372184Y-99369687D01*
X111452915Y-99450984D01*
X111466488Y-99471414D01*
X111516314Y-99546408D01*
X111553353Y-99636273D01*
X111559973Y-99652333D01*
X111569882Y-99702381D01*
X111582225Y-99764716D01*
X111580398Y-99895574D01*
X111555016Y-100007295D01*
X111528109Y-100067729D01*
X111508418Y-100111956D01*
X111508417Y-100111957D01*
X111442377Y-100205576D01*
X111359410Y-100284584D01*
X111262677Y-100345972D01*
X111155863Y-100387402D01*
X111155860Y-100387403D01*
X111073768Y-100401878D01*
X111043036Y-100407297D01*
X111043035Y-100407297D01*
X110990659Y-100406200D01*
X110928494Y-100404898D01*
X110816599Y-100380296D01*
X110711613Y-100334429D01*
X110617536Y-100269044D01*
X110537951Y-100186631D01*
X110525514Y-100167333D01*
X110475888Y-100090328D01*
X110433713Y-99983806D01*
X110413032Y-99871124D01*
X110413256Y-99855103D01*
X110414631Y-99756565D01*
X110438451Y-99644501D01*
X110483584Y-99539198D01*
X110548311Y-99444666D01*
X110589239Y-99404587D01*
X110630168Y-99364506D01*
X110726033Y-99301775D01*
X110832258Y-99258857D01*
X110944796Y-99237389D01*
X111059361Y-99238189D01*
X111059361Y-99238189D01*
G37*
G36*
X119187361Y-99238189D02*
X119299589Y-99261226D01*
X119338344Y-99277517D01*
X119405204Y-99305622D01*
X119500184Y-99369687D01*
X119580915Y-99450984D01*
X119594488Y-99471414D01*
X119644314Y-99546408D01*
X119681353Y-99636273D01*
X119687973Y-99652333D01*
X119697882Y-99702381D01*
X119710225Y-99764716D01*
X119708398Y-99895574D01*
X119683016Y-100007295D01*
X119656109Y-100067729D01*
X119636418Y-100111956D01*
X119636417Y-100111957D01*
X119570377Y-100205576D01*
X119487410Y-100284584D01*
X119390677Y-100345972D01*
X119283863Y-100387402D01*
X119283860Y-100387403D01*
X119201768Y-100401878D01*
X119171036Y-100407297D01*
X119171035Y-100407297D01*
X119118659Y-100406200D01*
X119056494Y-100404898D01*
X118944599Y-100380296D01*
X118839613Y-100334429D01*
X118745536Y-100269044D01*
X118665951Y-100186631D01*
X118653514Y-100167333D01*
X118603888Y-100090328D01*
X118561713Y-99983806D01*
X118541032Y-99871124D01*
X118541256Y-99855103D01*
X118542631Y-99756565D01*
X118566451Y-99644501D01*
X118611584Y-99539198D01*
X118676311Y-99444666D01*
X118717239Y-99404587D01*
X118758168Y-99364506D01*
X118854033Y-99301775D01*
X118960258Y-99258857D01*
X119072796Y-99237389D01*
X119187361Y-99238189D01*
X119187361Y-99238189D01*
G37*
G36*
X121727361Y-99238189D02*
X121839589Y-99261226D01*
X121878344Y-99277517D01*
X121945204Y-99305622D01*
X122040184Y-99369687D01*
X122120915Y-99450984D01*
X122134488Y-99471414D01*
X122184314Y-99546408D01*
X122221353Y-99636273D01*
X122227973Y-99652333D01*
X122237882Y-99702381D01*
X122250225Y-99764716D01*
X122248398Y-99895574D01*
X122223016Y-100007295D01*
X122196109Y-100067729D01*
X122176418Y-100111956D01*
X122176417Y-100111957D01*
X122110377Y-100205576D01*
X122027410Y-100284584D01*
X121930677Y-100345972D01*
X121823863Y-100387402D01*
X121823860Y-100387403D01*
X121741768Y-100401878D01*
X121711036Y-100407297D01*
X121711035Y-100407297D01*
X121658659Y-100406200D01*
X121596494Y-100404898D01*
X121484599Y-100380296D01*
X121379613Y-100334429D01*
X121285536Y-100269044D01*
X121205951Y-100186631D01*
X121193514Y-100167333D01*
X121143888Y-100090328D01*
X121101713Y-99983806D01*
X121081032Y-99871124D01*
X121081256Y-99855103D01*
X121082631Y-99756565D01*
X121106451Y-99644501D01*
X121151584Y-99539198D01*
X121216311Y-99444666D01*
X121257239Y-99404587D01*
X121298168Y-99364506D01*
X121394033Y-99301775D01*
X121500258Y-99258857D01*
X121612796Y-99237389D01*
X121727361Y-99238189D01*
X121727361Y-99238189D01*
G37*
G36*
X124267361Y-99238189D02*
X124379589Y-99261226D01*
X124418344Y-99277517D01*
X124485204Y-99305622D01*
X124580184Y-99369687D01*
X124660915Y-99450984D01*
X124674488Y-99471414D01*
X124724314Y-99546408D01*
X124761353Y-99636273D01*
X124767973Y-99652333D01*
X124777882Y-99702381D01*
X124790225Y-99764716D01*
X124788398Y-99895574D01*
X124763016Y-100007295D01*
X124736109Y-100067729D01*
X124716418Y-100111956D01*
X124716417Y-100111957D01*
X124650377Y-100205576D01*
X124567410Y-100284584D01*
X124470677Y-100345972D01*
X124363863Y-100387402D01*
X124363860Y-100387403D01*
X124281768Y-100401878D01*
X124251036Y-100407297D01*
X124251035Y-100407297D01*
X124198659Y-100406200D01*
X124136494Y-100404898D01*
X124024599Y-100380296D01*
X123919613Y-100334429D01*
X123825536Y-100269044D01*
X123745951Y-100186631D01*
X123733514Y-100167333D01*
X123683888Y-100090328D01*
X123641713Y-99983806D01*
X123621032Y-99871124D01*
X123621256Y-99855103D01*
X123622631Y-99756565D01*
X123646451Y-99644501D01*
X123691584Y-99539198D01*
X123756311Y-99444666D01*
X123797239Y-99404587D01*
X123838168Y-99364506D01*
X123934033Y-99301775D01*
X124040258Y-99258857D01*
X124152796Y-99237389D01*
X124267361Y-99238189D01*
X124267361Y-99238189D01*
G37*
G36*
X132395361Y-99238189D02*
X132507589Y-99261226D01*
X132546344Y-99277517D01*
X132613204Y-99305622D01*
X132708184Y-99369687D01*
X132788915Y-99450984D01*
X132802488Y-99471414D01*
X132852314Y-99546408D01*
X132889353Y-99636273D01*
X132895973Y-99652333D01*
X132905882Y-99702381D01*
X132918225Y-99764716D01*
X132916398Y-99895574D01*
X132891016Y-100007295D01*
X132864109Y-100067729D01*
X132844418Y-100111956D01*
X132844417Y-100111957D01*
X132778377Y-100205576D01*
X132695410Y-100284584D01*
X132598677Y-100345972D01*
X132491863Y-100387402D01*
X132491860Y-100387403D01*
X132409768Y-100401878D01*
X132379036Y-100407297D01*
X132379035Y-100407297D01*
X132326659Y-100406200D01*
X132264494Y-100404898D01*
X132152599Y-100380296D01*
X132047613Y-100334429D01*
X131953536Y-100269044D01*
X131873951Y-100186631D01*
X131861514Y-100167333D01*
X131811888Y-100090328D01*
X131769713Y-99983806D01*
X131749032Y-99871124D01*
X131749256Y-99855103D01*
X131750631Y-99756565D01*
X131774451Y-99644501D01*
X131819584Y-99539198D01*
X131884311Y-99444666D01*
X131925239Y-99404587D01*
X131966168Y-99364506D01*
X132062033Y-99301775D01*
X132168258Y-99258857D01*
X132280796Y-99237389D01*
X132395361Y-99238189D01*
X132395361Y-99238189D01*
G37*
G36*
X134935361Y-99238189D02*
X135047589Y-99261226D01*
X135086344Y-99277517D01*
X135153204Y-99305622D01*
X135248184Y-99369687D01*
X135328915Y-99450984D01*
X135342488Y-99471414D01*
X135392314Y-99546408D01*
X135429353Y-99636273D01*
X135435973Y-99652333D01*
X135445882Y-99702381D01*
X135458225Y-99764716D01*
X135456398Y-99895574D01*
X135431016Y-100007295D01*
X135404109Y-100067729D01*
X135384418Y-100111956D01*
X135384417Y-100111957D01*
X135318377Y-100205576D01*
X135235410Y-100284584D01*
X135138677Y-100345972D01*
X135031863Y-100387402D01*
X135031860Y-100387403D01*
X134949768Y-100401878D01*
X134919036Y-100407297D01*
X134919035Y-100407297D01*
X134866659Y-100406200D01*
X134804494Y-100404898D01*
X134692599Y-100380296D01*
X134587613Y-100334429D01*
X134493536Y-100269044D01*
X134413951Y-100186631D01*
X134401514Y-100167333D01*
X134351888Y-100090328D01*
X134309713Y-99983806D01*
X134289032Y-99871124D01*
X134289256Y-99855103D01*
X134290631Y-99756565D01*
X134314451Y-99644501D01*
X134359584Y-99539198D01*
X134424311Y-99444666D01*
X134465239Y-99404587D01*
X134506168Y-99364506D01*
X134602033Y-99301775D01*
X134708258Y-99258857D01*
X134820796Y-99237389D01*
X134935361Y-99238189D01*
X134935361Y-99238189D01*
G37*
G36*
X137475361Y-99238189D02*
X137587589Y-99261226D01*
X137626344Y-99277517D01*
X137693204Y-99305622D01*
X137788184Y-99369687D01*
X137868915Y-99450984D01*
X137882488Y-99471414D01*
X137932314Y-99546408D01*
X137969353Y-99636273D01*
X137975973Y-99652333D01*
X137985882Y-99702381D01*
X137998225Y-99764716D01*
X137996398Y-99895574D01*
X137971016Y-100007295D01*
X137944109Y-100067729D01*
X137924418Y-100111956D01*
X137924417Y-100111957D01*
X137858377Y-100205576D01*
X137775410Y-100284584D01*
X137678677Y-100345972D01*
X137571863Y-100387402D01*
X137571860Y-100387403D01*
X137489768Y-100401878D01*
X137459036Y-100407297D01*
X137459035Y-100407297D01*
X137406659Y-100406200D01*
X137344494Y-100404898D01*
X137232599Y-100380296D01*
X137127613Y-100334429D01*
X137033536Y-100269044D01*
X136953951Y-100186631D01*
X136941514Y-100167333D01*
X136891888Y-100090328D01*
X136849713Y-99983806D01*
X136829032Y-99871124D01*
X136829256Y-99855103D01*
X136830631Y-99756565D01*
X136854451Y-99644501D01*
X136899584Y-99539198D01*
X136964311Y-99444666D01*
X137005239Y-99404587D01*
X137046168Y-99364506D01*
X137142033Y-99301775D01*
X137248258Y-99258857D01*
X137360796Y-99237389D01*
X137475361Y-99238189D01*
X137475361Y-99238189D01*
G37*
G36*
X145603361Y-99238189D02*
X145715589Y-99261226D01*
X145754344Y-99277517D01*
X145821204Y-99305622D01*
X145916184Y-99369687D01*
X145996915Y-99450984D01*
X146010488Y-99471414D01*
X146060314Y-99546408D01*
X146097353Y-99636273D01*
X146103973Y-99652333D01*
X146113882Y-99702381D01*
X146126225Y-99764716D01*
X146124398Y-99895574D01*
X146099016Y-100007295D01*
X146072109Y-100067729D01*
X146052418Y-100111956D01*
X146052417Y-100111957D01*
X145986377Y-100205576D01*
X145903410Y-100284584D01*
X145806677Y-100345972D01*
X145699863Y-100387402D01*
X145699860Y-100387403D01*
X145617768Y-100401878D01*
X145587036Y-100407297D01*
X145587035Y-100407297D01*
X145534659Y-100406200D01*
X145472494Y-100404898D01*
X145360599Y-100380296D01*
X145255613Y-100334429D01*
X145161536Y-100269044D01*
X145081951Y-100186631D01*
X145069514Y-100167333D01*
X145019888Y-100090328D01*
X144977713Y-99983806D01*
X144957032Y-99871124D01*
X144957256Y-99855103D01*
X144958631Y-99756565D01*
X144982451Y-99644501D01*
X145027584Y-99539198D01*
X145092311Y-99444666D01*
X145133239Y-99404587D01*
X145174168Y-99364506D01*
X145270033Y-99301775D01*
X145376258Y-99258857D01*
X145488796Y-99237389D01*
X145603361Y-99238189D01*
X145603361Y-99238189D01*
G37*
G36*
X148143361Y-99238189D02*
X148255589Y-99261226D01*
X148294344Y-99277517D01*
X148361204Y-99305622D01*
X148456184Y-99369687D01*
X148536915Y-99450984D01*
X148550488Y-99471414D01*
X148600314Y-99546408D01*
X148637353Y-99636273D01*
X148643973Y-99652333D01*
X148653882Y-99702381D01*
X148666225Y-99764716D01*
X148664398Y-99895574D01*
X148639016Y-100007295D01*
X148612109Y-100067729D01*
X148592418Y-100111956D01*
X148592417Y-100111957D01*
X148526377Y-100205576D01*
X148443410Y-100284584D01*
X148346677Y-100345972D01*
X148239863Y-100387402D01*
X148239860Y-100387403D01*
X148157768Y-100401878D01*
X148127036Y-100407297D01*
X148127035Y-100407297D01*
X148074659Y-100406200D01*
X148012494Y-100404898D01*
X147900599Y-100380296D01*
X147795613Y-100334429D01*
X147701536Y-100269044D01*
X147621951Y-100186631D01*
X147609514Y-100167333D01*
X147559888Y-100090328D01*
X147517713Y-99983806D01*
X147497032Y-99871124D01*
X147497256Y-99855103D01*
X147498631Y-99756565D01*
X147522451Y-99644501D01*
X147567584Y-99539198D01*
X147632311Y-99444666D01*
X147673239Y-99404587D01*
X147714168Y-99364506D01*
X147810033Y-99301775D01*
X147916258Y-99258857D01*
X148028796Y-99237389D01*
X148143361Y-99238189D01*
X148143361Y-99238189D01*
G37*
G36*
X150683361Y-99238189D02*
X150795589Y-99261226D01*
X150834344Y-99277517D01*
X150901204Y-99305622D01*
X150996184Y-99369687D01*
X151076915Y-99450984D01*
X151090488Y-99471414D01*
X151140314Y-99546408D01*
X151177353Y-99636273D01*
X151183973Y-99652333D01*
X151193882Y-99702381D01*
X151206225Y-99764716D01*
X151204398Y-99895574D01*
X151179016Y-100007295D01*
X151152109Y-100067729D01*
X151132418Y-100111956D01*
X151132417Y-100111957D01*
X151066377Y-100205576D01*
X150983410Y-100284584D01*
X150886677Y-100345972D01*
X150779863Y-100387402D01*
X150779860Y-100387403D01*
X150697768Y-100401878D01*
X150667036Y-100407297D01*
X150667035Y-100407297D01*
X150614659Y-100406200D01*
X150552494Y-100404898D01*
X150440599Y-100380296D01*
X150335613Y-100334429D01*
X150241536Y-100269044D01*
X150161951Y-100186631D01*
X150149514Y-100167333D01*
X150099888Y-100090328D01*
X150057713Y-99983806D01*
X150037032Y-99871124D01*
X150037256Y-99855103D01*
X150038631Y-99756565D01*
X150062451Y-99644501D01*
X150107584Y-99539198D01*
X150172311Y-99444666D01*
X150213239Y-99404587D01*
X150254168Y-99364506D01*
X150350033Y-99301775D01*
X150456258Y-99258857D01*
X150568796Y-99237389D01*
X150683361Y-99238189D01*
X150683361Y-99238189D01*
G37*
G36*
X103962200Y-100406200D02*
X102793800Y-100406200D01*
X102793800Y-99237800D01*
X103962200Y-99237800D01*
X103962200Y-100406200D01*
X103962200Y-100406200D01*
G37*
G36*
X143586200Y-100406200D02*
X142417800Y-100406200D01*
X142417800Y-99237800D01*
X143586200Y-99237800D01*
X143586200Y-100406200D01*
X143586200Y-100406200D01*
G37*
G36*
X130378200Y-100406200D02*
X129209800Y-100406200D01*
X129209800Y-99237800D01*
X130378200Y-99237800D01*
X130378200Y-100406200D01*
X130378200Y-100406200D01*
G37*
G36*
X117170200Y-100406200D02*
X116001800Y-100406200D01*
X116001800Y-99237800D01*
X117170200Y-99237800D01*
X117170200Y-100406200D01*
X117170200Y-100406200D01*
G37*
G36*
X113833352Y-99428562D02*
X113908984Y-99444087D01*
X113935102Y-99455066D01*
X113980159Y-99474006D01*
X114018384Y-99499790D01*
X114044168Y-99517181D01*
X114098572Y-99571966D01*
X114141298Y-99636275D01*
X114144689Y-99644502D01*
X114170721Y-99707660D01*
X114180403Y-99756561D01*
X114185717Y-99783396D01*
X114184486Y-99871582D01*
X114184466Y-99871670D01*
X114184466Y-99871673D01*
X114167381Y-99946870D01*
X114167380Y-99946872D01*
X114135977Y-100017406D01*
X114100477Y-100067729D01*
X114091469Y-100080499D01*
X114035559Y-100133741D01*
X113970372Y-100175110D01*
X113898383Y-100203033D01*
X113822350Y-100216439D01*
X113745159Y-100214822D01*
X113669751Y-100198243D01*
X113599000Y-100167332D01*
X113535601Y-100123268D01*
X113524677Y-100111956D01*
X113481966Y-100067729D01*
X113443020Y-100007295D01*
X113440142Y-100002830D01*
X113428889Y-99974407D01*
X113411719Y-99931043D01*
X113397782Y-99855106D01*
X113397782Y-99855103D01*
X113398860Y-99777902D01*
X113403396Y-99756561D01*
X113414911Y-99702383D01*
X113445328Y-99631416D01*
X113488947Y-99567711D01*
X113544113Y-99513689D01*
X113560707Y-99502831D01*
X113608718Y-99471413D01*
X113680304Y-99442491D01*
X113756145Y-99428023D01*
X113833352Y-99428562D01*
X113833352Y-99428562D01*
G37*
G36*
X140249352Y-99428562D02*
X140324984Y-99444087D01*
X140351102Y-99455066D01*
X140396159Y-99474006D01*
X140434384Y-99499790D01*
X140460168Y-99517181D01*
X140514572Y-99571966D01*
X140557298Y-99636275D01*
X140560689Y-99644502D01*
X140586721Y-99707660D01*
X140596403Y-99756561D01*
X140601717Y-99783396D01*
X140600486Y-99871582D01*
X140600466Y-99871670D01*
X140600466Y-99871673D01*
X140583381Y-99946870D01*
X140583380Y-99946872D01*
X140551977Y-100017406D01*
X140516477Y-100067729D01*
X140507469Y-100080499D01*
X140451559Y-100133741D01*
X140386372Y-100175110D01*
X140314383Y-100203033D01*
X140238350Y-100216439D01*
X140161159Y-100214822D01*
X140085751Y-100198243D01*
X140015000Y-100167332D01*
X139951601Y-100123268D01*
X139940677Y-100111956D01*
X139897966Y-100067729D01*
X139859020Y-100007295D01*
X139856142Y-100002830D01*
X139844889Y-99974407D01*
X139827719Y-99931043D01*
X139813782Y-99855106D01*
X139813782Y-99855103D01*
X139814860Y-99777902D01*
X139819396Y-99756561D01*
X139830911Y-99702383D01*
X139861328Y-99631416D01*
X139904947Y-99567711D01*
X139960113Y-99513689D01*
X139976707Y-99502831D01*
X140024718Y-99471413D01*
X140096304Y-99442491D01*
X140172145Y-99428023D01*
X140249352Y-99428562D01*
X140249352Y-99428562D01*
G37*
G36*
X127041352Y-99428562D02*
X127116984Y-99444087D01*
X127143102Y-99455066D01*
X127188159Y-99474006D01*
X127226384Y-99499790D01*
X127252168Y-99517181D01*
X127306572Y-99571966D01*
X127349298Y-99636275D01*
X127352689Y-99644502D01*
X127378721Y-99707660D01*
X127388403Y-99756561D01*
X127393717Y-99783396D01*
X127392486Y-99871582D01*
X127392466Y-99871670D01*
X127392466Y-99871673D01*
X127375381Y-99946870D01*
X127375380Y-99946872D01*
X127343977Y-100017406D01*
X127308477Y-100067729D01*
X127299469Y-100080499D01*
X127243559Y-100133741D01*
X127178372Y-100175110D01*
X127106383Y-100203033D01*
X127030350Y-100216439D01*
X126953159Y-100214822D01*
X126877751Y-100198243D01*
X126807000Y-100167332D01*
X126743601Y-100123268D01*
X126732677Y-100111956D01*
X126689966Y-100067729D01*
X126651020Y-100007295D01*
X126648142Y-100002830D01*
X126636889Y-99974407D01*
X126619719Y-99931043D01*
X126605782Y-99855106D01*
X126605782Y-99855103D01*
X126606860Y-99777902D01*
X126611396Y-99756561D01*
X126622911Y-99702383D01*
X126653328Y-99631416D01*
X126696947Y-99567711D01*
X126752113Y-99513689D01*
X126768707Y-99502831D01*
X126816718Y-99471413D01*
X126888304Y-99442491D01*
X126964145Y-99428023D01*
X127041352Y-99428562D01*
X127041352Y-99428562D01*
G37*
G36*
X127041352Y-98412562D02*
X127116984Y-98428087D01*
X127143102Y-98439066D01*
X127188159Y-98458006D01*
X127226384Y-98483790D01*
X127252168Y-98501181D01*
X127306572Y-98555966D01*
X127306574Y-98555969D01*
X127349297Y-98620273D01*
X127378721Y-98691660D01*
X127390275Y-98750015D01*
X127393717Y-98767396D01*
X127392486Y-98855582D01*
X127392466Y-98855670D01*
X127392466Y-98855673D01*
X127375381Y-98930870D01*
X127375380Y-98930872D01*
X127343977Y-99001406D01*
X127308477Y-99051729D01*
X127299469Y-99064499D01*
X127243559Y-99117741D01*
X127178372Y-99159110D01*
X127106383Y-99187033D01*
X127030350Y-99200439D01*
X126953159Y-99198822D01*
X126877751Y-99182243D01*
X126807000Y-99151332D01*
X126743601Y-99107268D01*
X126743600Y-99107267D01*
X126689966Y-99051729D01*
X126657535Y-99001405D01*
X126648142Y-98986830D01*
X126636889Y-98958407D01*
X126619719Y-98915043D01*
X126605782Y-98839106D01*
X126605782Y-98839103D01*
X126606860Y-98761902D01*
X126608255Y-98755341D01*
X126622911Y-98686383D01*
X126653328Y-98615416D01*
X126696947Y-98551711D01*
X126752113Y-98497689D01*
X126768707Y-98486831D01*
X126816718Y-98455413D01*
X126888304Y-98426491D01*
X126964145Y-98412023D01*
X127041352Y-98412562D01*
X127041352Y-98412562D01*
G37*
G36*
X140249352Y-98412562D02*
X140324984Y-98428087D01*
X140351102Y-98439066D01*
X140396159Y-98458006D01*
X140434384Y-98483790D01*
X140460168Y-98501181D01*
X140514572Y-98555966D01*
X140514574Y-98555969D01*
X140557297Y-98620273D01*
X140586721Y-98691660D01*
X140598275Y-98750015D01*
X140601717Y-98767396D01*
X140600486Y-98855582D01*
X140600466Y-98855670D01*
X140600466Y-98855673D01*
X140583381Y-98930870D01*
X140583380Y-98930872D01*
X140551977Y-99001406D01*
X140516477Y-99051729D01*
X140507469Y-99064499D01*
X140451559Y-99117741D01*
X140386372Y-99159110D01*
X140314383Y-99187033D01*
X140238350Y-99200439D01*
X140161159Y-99198822D01*
X140085751Y-99182243D01*
X140015000Y-99151332D01*
X139951601Y-99107268D01*
X139951600Y-99107267D01*
X139897966Y-99051729D01*
X139865535Y-99001405D01*
X139856142Y-98986830D01*
X139844889Y-98958407D01*
X139827719Y-98915043D01*
X139813782Y-98839106D01*
X139813782Y-98839103D01*
X139814860Y-98761902D01*
X139816255Y-98755341D01*
X139830911Y-98686383D01*
X139861328Y-98615416D01*
X139904947Y-98551711D01*
X139960113Y-98497689D01*
X139976707Y-98486831D01*
X140024718Y-98455413D01*
X140096304Y-98426491D01*
X140172145Y-98412023D01*
X140249352Y-98412562D01*
X140249352Y-98412562D01*
G37*
G36*
X113833352Y-98412562D02*
X113908984Y-98428087D01*
X113935102Y-98439066D01*
X113980159Y-98458006D01*
X114018384Y-98483790D01*
X114044168Y-98501181D01*
X114098572Y-98555966D01*
X114098574Y-98555969D01*
X114141297Y-98620273D01*
X114170721Y-98691660D01*
X114182275Y-98750015D01*
X114185717Y-98767396D01*
X114184486Y-98855582D01*
X114184466Y-98855670D01*
X114184466Y-98855673D01*
X114167381Y-98930870D01*
X114167380Y-98930872D01*
X114135977Y-99001406D01*
X114100477Y-99051729D01*
X114091469Y-99064499D01*
X114035559Y-99117741D01*
X113970372Y-99159110D01*
X113898383Y-99187033D01*
X113822350Y-99200439D01*
X113745159Y-99198822D01*
X113669751Y-99182243D01*
X113599000Y-99151332D01*
X113535601Y-99107268D01*
X113535600Y-99107267D01*
X113481966Y-99051729D01*
X113449535Y-99001405D01*
X113440142Y-98986830D01*
X113428889Y-98958407D01*
X113411719Y-98915043D01*
X113397782Y-98839106D01*
X113397782Y-98839103D01*
X113398860Y-98761902D01*
X113400255Y-98755341D01*
X113414911Y-98686383D01*
X113445328Y-98615416D01*
X113488947Y-98551711D01*
X113544113Y-98497689D01*
X113560707Y-98486831D01*
X113608718Y-98455413D01*
X113680304Y-98426491D01*
X113756145Y-98412023D01*
X113833352Y-98412562D01*
X113833352Y-98412562D01*
G37*
G36*
X127041352Y-97396562D02*
X127116984Y-97412087D01*
X127143102Y-97423066D01*
X127188159Y-97442006D01*
X127226384Y-97467790D01*
X127252168Y-97485181D01*
X127306572Y-97539966D01*
X127306574Y-97539969D01*
X127349297Y-97604273D01*
X127378721Y-97675660D01*
X127390275Y-97734015D01*
X127393717Y-97751396D01*
X127392486Y-97839582D01*
X127392466Y-97839670D01*
X127392466Y-97839673D01*
X127375381Y-97914870D01*
X127375380Y-97914872D01*
X127343977Y-97985406D01*
X127308477Y-98035729D01*
X127299469Y-98048499D01*
X127243559Y-98101741D01*
X127178372Y-98143110D01*
X127106383Y-98171033D01*
X127030350Y-98184439D01*
X126953159Y-98182822D01*
X126877751Y-98166243D01*
X126807000Y-98135332D01*
X126743601Y-98091268D01*
X126743600Y-98091267D01*
X126689966Y-98035729D01*
X126657535Y-97985405D01*
X126648142Y-97970830D01*
X126636889Y-97942407D01*
X126619719Y-97899043D01*
X126605782Y-97823106D01*
X126605782Y-97823103D01*
X126606860Y-97745902D01*
X126608255Y-97739341D01*
X126622911Y-97670383D01*
X126653328Y-97599416D01*
X126696947Y-97535711D01*
X126752113Y-97481689D01*
X126768707Y-97470831D01*
X126816718Y-97439413D01*
X126888304Y-97410491D01*
X126964145Y-97396023D01*
X127041352Y-97396562D01*
X127041352Y-97396562D01*
G37*
G36*
X140249352Y-97396562D02*
X140324984Y-97412087D01*
X140351102Y-97423066D01*
X140396159Y-97442006D01*
X140434384Y-97467790D01*
X140460168Y-97485181D01*
X140514572Y-97539966D01*
X140514574Y-97539969D01*
X140557297Y-97604273D01*
X140586721Y-97675660D01*
X140598275Y-97734015D01*
X140601717Y-97751396D01*
X140600486Y-97839582D01*
X140600466Y-97839670D01*
X140600466Y-97839673D01*
X140583381Y-97914870D01*
X140583380Y-97914872D01*
X140551977Y-97985406D01*
X140516477Y-98035729D01*
X140507469Y-98048499D01*
X140451559Y-98101741D01*
X140386372Y-98143110D01*
X140314383Y-98171033D01*
X140238350Y-98184439D01*
X140161159Y-98182822D01*
X140085751Y-98166243D01*
X140015000Y-98135332D01*
X139951601Y-98091268D01*
X139951600Y-98091267D01*
X139897966Y-98035729D01*
X139865535Y-97985405D01*
X139856142Y-97970830D01*
X139844889Y-97942407D01*
X139827719Y-97899043D01*
X139813782Y-97823106D01*
X139813782Y-97823103D01*
X139814860Y-97745902D01*
X139816255Y-97739341D01*
X139830911Y-97670383D01*
X139861328Y-97599416D01*
X139904947Y-97535711D01*
X139960113Y-97481689D01*
X139976707Y-97470831D01*
X140024718Y-97439413D01*
X140096304Y-97410491D01*
X140172145Y-97396023D01*
X140249352Y-97396562D01*
X140249352Y-97396562D01*
G37*
G36*
X113833352Y-97396562D02*
X113908984Y-97412087D01*
X113935102Y-97423066D01*
X113980159Y-97442006D01*
X114018384Y-97467790D01*
X114044168Y-97485181D01*
X114098572Y-97539966D01*
X114098574Y-97539969D01*
X114141297Y-97604273D01*
X114170721Y-97675660D01*
X114182275Y-97734015D01*
X114185717Y-97751396D01*
X114184486Y-97839582D01*
X114184466Y-97839670D01*
X114184466Y-97839673D01*
X114167381Y-97914870D01*
X114167380Y-97914872D01*
X114135977Y-97985406D01*
X114100477Y-98035729D01*
X114091469Y-98048499D01*
X114035559Y-98101741D01*
X113970372Y-98143110D01*
X113898383Y-98171033D01*
X113822350Y-98184439D01*
X113745159Y-98182822D01*
X113669751Y-98166243D01*
X113599000Y-98135332D01*
X113535601Y-98091268D01*
X113535600Y-98091267D01*
X113481966Y-98035729D01*
X113449535Y-97985405D01*
X113440142Y-97970830D01*
X113428889Y-97942407D01*
X113411719Y-97899043D01*
X113397782Y-97823106D01*
X113397782Y-97823103D01*
X113398860Y-97745902D01*
X113400255Y-97739341D01*
X113414911Y-97670383D01*
X113445328Y-97599416D01*
X113488947Y-97535711D01*
X113544113Y-97481689D01*
X113560707Y-97470831D01*
X113608718Y-97439413D01*
X113680304Y-97410491D01*
X113756145Y-97396023D01*
X113833352Y-97396562D01*
X113833352Y-97396562D01*
G37*
G36*
X113833352Y-96380562D02*
X113908984Y-96396087D01*
X113935102Y-96407066D01*
X113980159Y-96426006D01*
X114018384Y-96451790D01*
X114044168Y-96469181D01*
X114098572Y-96523966D01*
X114098574Y-96523969D01*
X114141297Y-96588273D01*
X114170721Y-96659660D01*
X114182275Y-96718015D01*
X114185717Y-96735396D01*
X114184486Y-96823582D01*
X114184466Y-96823670D01*
X114184466Y-96823673D01*
X114167381Y-96898870D01*
X114167380Y-96898872D01*
X114135977Y-96969406D01*
X114100477Y-97019729D01*
X114091469Y-97032499D01*
X114035559Y-97085741D01*
X113970372Y-97127110D01*
X113898383Y-97155033D01*
X113822350Y-97168439D01*
X113745159Y-97166822D01*
X113669751Y-97150243D01*
X113599000Y-97119332D01*
X113535601Y-97075268D01*
X113535600Y-97075267D01*
X113481966Y-97019729D01*
X113449535Y-96969405D01*
X113440142Y-96954830D01*
X113428889Y-96926407D01*
X113411719Y-96883043D01*
X113397782Y-96807106D01*
X113397782Y-96807103D01*
X113398860Y-96729902D01*
X113400255Y-96723341D01*
X113414911Y-96654383D01*
X113445328Y-96583416D01*
X113488947Y-96519711D01*
X113544113Y-96465689D01*
X113560707Y-96454831D01*
X113608718Y-96423413D01*
X113680304Y-96394491D01*
X113756145Y-96380023D01*
X113833352Y-96380562D01*
X113833352Y-96380562D01*
G37*
G36*
X140249352Y-96380562D02*
X140324984Y-96396087D01*
X140351102Y-96407066D01*
X140396159Y-96426006D01*
X140434384Y-96451790D01*
X140460168Y-96469181D01*
X140514572Y-96523966D01*
X140514574Y-96523969D01*
X140557297Y-96588273D01*
X140586721Y-96659660D01*
X140598275Y-96718015D01*
X140601717Y-96735396D01*
X140600486Y-96823582D01*
X140600466Y-96823670D01*
X140600466Y-96823673D01*
X140583381Y-96898870D01*
X140583380Y-96898872D01*
X140551977Y-96969406D01*
X140516477Y-97019729D01*
X140507469Y-97032499D01*
X140451559Y-97085741D01*
X140386372Y-97127110D01*
X140314383Y-97155033D01*
X140238350Y-97168439D01*
X140161159Y-97166822D01*
X140085751Y-97150243D01*
X140015000Y-97119332D01*
X139951601Y-97075268D01*
X139951600Y-97075267D01*
X139897966Y-97019729D01*
X139865535Y-96969405D01*
X139856142Y-96954830D01*
X139844889Y-96926407D01*
X139827719Y-96883043D01*
X139813782Y-96807106D01*
X139813782Y-96807103D01*
X139814860Y-96729902D01*
X139816255Y-96723341D01*
X139830911Y-96654383D01*
X139861328Y-96583416D01*
X139904947Y-96519711D01*
X139960113Y-96465689D01*
X139976707Y-96454831D01*
X140024718Y-96423413D01*
X140096304Y-96394491D01*
X140172145Y-96380023D01*
X140249352Y-96380562D01*
X140249352Y-96380562D01*
G37*
G36*
X127041352Y-96380562D02*
X127116984Y-96396087D01*
X127143102Y-96407066D01*
X127188159Y-96426006D01*
X127226384Y-96451790D01*
X127252168Y-96469181D01*
X127306572Y-96523966D01*
X127306574Y-96523969D01*
X127349297Y-96588273D01*
X127378721Y-96659660D01*
X127390275Y-96718015D01*
X127393717Y-96735396D01*
X127392486Y-96823582D01*
X127392466Y-96823670D01*
X127392466Y-96823673D01*
X127375381Y-96898870D01*
X127375380Y-96898872D01*
X127343977Y-96969406D01*
X127308477Y-97019729D01*
X127299469Y-97032499D01*
X127243559Y-97085741D01*
X127178372Y-97127110D01*
X127106383Y-97155033D01*
X127030350Y-97168439D01*
X126953159Y-97166822D01*
X126877751Y-97150243D01*
X126807000Y-97119332D01*
X126743601Y-97075268D01*
X126743600Y-97075267D01*
X126689966Y-97019729D01*
X126657535Y-96969405D01*
X126648142Y-96954830D01*
X126636889Y-96926407D01*
X126619719Y-96883043D01*
X126605782Y-96807106D01*
X126605782Y-96807103D01*
X126606860Y-96729902D01*
X126608255Y-96723341D01*
X126622911Y-96654383D01*
X126653328Y-96583416D01*
X126696947Y-96519711D01*
X126752113Y-96465689D01*
X126768707Y-96454831D01*
X126816718Y-96423413D01*
X126888304Y-96394491D01*
X126964145Y-96380023D01*
X127041352Y-96380562D01*
X127041352Y-96380562D01*
G37*
G36*
X127041352Y-95364562D02*
X127116984Y-95380087D01*
X127143102Y-95391066D01*
X127188159Y-95410006D01*
X127226384Y-95435790D01*
X127252168Y-95453181D01*
X127306572Y-95507966D01*
X127306574Y-95507969D01*
X127349297Y-95572273D01*
X127378721Y-95643660D01*
X127390275Y-95702015D01*
X127393717Y-95719396D01*
X127392486Y-95807582D01*
X127392466Y-95807670D01*
X127392466Y-95807673D01*
X127375381Y-95882870D01*
X127375380Y-95882872D01*
X127343977Y-95953406D01*
X127308477Y-96003729D01*
X127299469Y-96016499D01*
X127243559Y-96069741D01*
X127178372Y-96111110D01*
X127106383Y-96139033D01*
X127030350Y-96152439D01*
X126953159Y-96150822D01*
X126877751Y-96134243D01*
X126807000Y-96103332D01*
X126743601Y-96059268D01*
X126743600Y-96059267D01*
X126689966Y-96003729D01*
X126657535Y-95953405D01*
X126648142Y-95938830D01*
X126636889Y-95910407D01*
X126619719Y-95867043D01*
X126605782Y-95791106D01*
X126605782Y-95791103D01*
X126606860Y-95713902D01*
X126608255Y-95707341D01*
X126622911Y-95638383D01*
X126653328Y-95567416D01*
X126696947Y-95503711D01*
X126752113Y-95449689D01*
X126768707Y-95438831D01*
X126816718Y-95407413D01*
X126888304Y-95378491D01*
X126964145Y-95364023D01*
X127041352Y-95364562D01*
X127041352Y-95364562D01*
G37*
G36*
X140249352Y-95364562D02*
X140324984Y-95380087D01*
X140351102Y-95391066D01*
X140396159Y-95410006D01*
X140434384Y-95435790D01*
X140460168Y-95453181D01*
X140514572Y-95507966D01*
X140514574Y-95507969D01*
X140557297Y-95572273D01*
X140586721Y-95643660D01*
X140598275Y-95702015D01*
X140601717Y-95719396D01*
X140600486Y-95807582D01*
X140600466Y-95807670D01*
X140600466Y-95807673D01*
X140583381Y-95882870D01*
X140583380Y-95882872D01*
X140551977Y-95953406D01*
X140516477Y-96003729D01*
X140507469Y-96016499D01*
X140451559Y-96069741D01*
X140386372Y-96111110D01*
X140314383Y-96139033D01*
X140238350Y-96152439D01*
X140161159Y-96150822D01*
X140085751Y-96134243D01*
X140015000Y-96103332D01*
X139951601Y-96059268D01*
X139951600Y-96059267D01*
X139897966Y-96003729D01*
X139865535Y-95953405D01*
X139856142Y-95938830D01*
X139844889Y-95910407D01*
X139827719Y-95867043D01*
X139813782Y-95791106D01*
X139813782Y-95791103D01*
X139814860Y-95713902D01*
X139816255Y-95707341D01*
X139830911Y-95638383D01*
X139861328Y-95567416D01*
X139904947Y-95503711D01*
X139960113Y-95449689D01*
X139976707Y-95438831D01*
X140024718Y-95407413D01*
X140096304Y-95378491D01*
X140172145Y-95364023D01*
X140249352Y-95364562D01*
X140249352Y-95364562D01*
G37*
G36*
X113833352Y-95364562D02*
X113908984Y-95380087D01*
X113935102Y-95391066D01*
X113980159Y-95410006D01*
X114018384Y-95435790D01*
X114044168Y-95453181D01*
X114098572Y-95507966D01*
X114098574Y-95507969D01*
X114141297Y-95572273D01*
X114170721Y-95643660D01*
X114182275Y-95702015D01*
X114185717Y-95719396D01*
X114184486Y-95807582D01*
X114184466Y-95807670D01*
X114184466Y-95807673D01*
X114167381Y-95882870D01*
X114167380Y-95882872D01*
X114135977Y-95953406D01*
X114100477Y-96003729D01*
X114091469Y-96016499D01*
X114035559Y-96069741D01*
X113970372Y-96111110D01*
X113898383Y-96139033D01*
X113822350Y-96152439D01*
X113745159Y-96150822D01*
X113669751Y-96134243D01*
X113599000Y-96103332D01*
X113535601Y-96059268D01*
X113535600Y-96059267D01*
X113481966Y-96003729D01*
X113449535Y-95953405D01*
X113440142Y-95938830D01*
X113428889Y-95910407D01*
X113411719Y-95867043D01*
X113397782Y-95791106D01*
X113397782Y-95791103D01*
X113398860Y-95713902D01*
X113400255Y-95707341D01*
X113414911Y-95638383D01*
X113445328Y-95567416D01*
X113488947Y-95503711D01*
X113544113Y-95449689D01*
X113560707Y-95438831D01*
X113608718Y-95407413D01*
X113680304Y-95378491D01*
X113756145Y-95364023D01*
X113833352Y-95364562D01*
X113833352Y-95364562D01*
G37*
G36*
X140249352Y-94348562D02*
X140324984Y-94364087D01*
X140351102Y-94375066D01*
X140396159Y-94394006D01*
X140434384Y-94419790D01*
X140460168Y-94437181D01*
X140514572Y-94491966D01*
X140514574Y-94491969D01*
X140557297Y-94556273D01*
X140586721Y-94627660D01*
X140598275Y-94686015D01*
X140601717Y-94703396D01*
X140600486Y-94791582D01*
X140600466Y-94791670D01*
X140600466Y-94791673D01*
X140583381Y-94866870D01*
X140583380Y-94866872D01*
X140551977Y-94937406D01*
X140516477Y-94987729D01*
X140507469Y-95000499D01*
X140451559Y-95053741D01*
X140386372Y-95095110D01*
X140314383Y-95123033D01*
X140238350Y-95136439D01*
X140161159Y-95134822D01*
X140085751Y-95118243D01*
X140015000Y-95087332D01*
X139951601Y-95043268D01*
X139951600Y-95043267D01*
X139897966Y-94987729D01*
X139865535Y-94937405D01*
X139856142Y-94922830D01*
X139844889Y-94894407D01*
X139827719Y-94851043D01*
X139813782Y-94775106D01*
X139813782Y-94775103D01*
X139814860Y-94697902D01*
X139816255Y-94691341D01*
X139830911Y-94622383D01*
X139861328Y-94551416D01*
X139904947Y-94487711D01*
X139960113Y-94433689D01*
X139976707Y-94422831D01*
X140024718Y-94391413D01*
X140096304Y-94362491D01*
X140172145Y-94348023D01*
X140249352Y-94348562D01*
X140249352Y-94348562D01*
G37*
G36*
X113833352Y-94348562D02*
X113908984Y-94364087D01*
X113935102Y-94375066D01*
X113980159Y-94394006D01*
X114018384Y-94419790D01*
X114044168Y-94437181D01*
X114098572Y-94491966D01*
X114098574Y-94491969D01*
X114141297Y-94556273D01*
X114170721Y-94627660D01*
X114182275Y-94686015D01*
X114185717Y-94703396D01*
X114184486Y-94791582D01*
X114184466Y-94791670D01*
X114184466Y-94791673D01*
X114167381Y-94866870D01*
X114167380Y-94866872D01*
X114135977Y-94937406D01*
X114100477Y-94987729D01*
X114091469Y-95000499D01*
X114035559Y-95053741D01*
X113970372Y-95095110D01*
X113898383Y-95123033D01*
X113822350Y-95136439D01*
X113745159Y-95134822D01*
X113669751Y-95118243D01*
X113599000Y-95087332D01*
X113535601Y-95043268D01*
X113535600Y-95043267D01*
X113481966Y-94987729D01*
X113449535Y-94937405D01*
X113440142Y-94922830D01*
X113428889Y-94894407D01*
X113411719Y-94851043D01*
X113397782Y-94775106D01*
X113397782Y-94775103D01*
X113398860Y-94697902D01*
X113400255Y-94691341D01*
X113414911Y-94622383D01*
X113445328Y-94551416D01*
X113488947Y-94487711D01*
X113544113Y-94433689D01*
X113560707Y-94422831D01*
X113608718Y-94391413D01*
X113680304Y-94362491D01*
X113756145Y-94348023D01*
X113833352Y-94348562D01*
X113833352Y-94348562D01*
G37*
G36*
X127041352Y-94348562D02*
X127116984Y-94364087D01*
X127143102Y-94375066D01*
X127188159Y-94394006D01*
X127226384Y-94419790D01*
X127252168Y-94437181D01*
X127306572Y-94491966D01*
X127306574Y-94491969D01*
X127349297Y-94556273D01*
X127378721Y-94627660D01*
X127390275Y-94686015D01*
X127393717Y-94703396D01*
X127392486Y-94791582D01*
X127392466Y-94791670D01*
X127392466Y-94791673D01*
X127375381Y-94866870D01*
X127375380Y-94866872D01*
X127343977Y-94937406D01*
X127308477Y-94987729D01*
X127299469Y-95000499D01*
X127243559Y-95053741D01*
X127178372Y-95095110D01*
X127106383Y-95123033D01*
X127030350Y-95136439D01*
X126953159Y-95134822D01*
X126877751Y-95118243D01*
X126807000Y-95087332D01*
X126743601Y-95043268D01*
X126743600Y-95043267D01*
X126689966Y-94987729D01*
X126657535Y-94937405D01*
X126648142Y-94922830D01*
X126636889Y-94894407D01*
X126619719Y-94851043D01*
X126605782Y-94775106D01*
X126605782Y-94775103D01*
X126606860Y-94697902D01*
X126608255Y-94691341D01*
X126622911Y-94622383D01*
X126653328Y-94551416D01*
X126696947Y-94487711D01*
X126752113Y-94433689D01*
X126768707Y-94422831D01*
X126816718Y-94391413D01*
X126888304Y-94362491D01*
X126964145Y-94348023D01*
X127041352Y-94348562D01*
X127041352Y-94348562D01*
G37*
G36*
X113833352Y-93332562D02*
X113908984Y-93348087D01*
X113935102Y-93359066D01*
X113980159Y-93378006D01*
X114018384Y-93403790D01*
X114044168Y-93421181D01*
X114098572Y-93475966D01*
X114098574Y-93475969D01*
X114141297Y-93540273D01*
X114170721Y-93611660D01*
X114182275Y-93670015D01*
X114185717Y-93687396D01*
X114184486Y-93775582D01*
X114184466Y-93775670D01*
X114184466Y-93775673D01*
X114167381Y-93850870D01*
X114167380Y-93850872D01*
X114135977Y-93921406D01*
X114100477Y-93971729D01*
X114091469Y-93984499D01*
X114035559Y-94037741D01*
X113970372Y-94079110D01*
X113898383Y-94107033D01*
X113822350Y-94120439D01*
X113745159Y-94118822D01*
X113669751Y-94102243D01*
X113599000Y-94071332D01*
X113535601Y-94027268D01*
X113535600Y-94027267D01*
X113481966Y-93971729D01*
X113449535Y-93921405D01*
X113440142Y-93906830D01*
X113428889Y-93878407D01*
X113411719Y-93835043D01*
X113397782Y-93759106D01*
X113397782Y-93759103D01*
X113398860Y-93681902D01*
X113400255Y-93675341D01*
X113414911Y-93606383D01*
X113445328Y-93535416D01*
X113488947Y-93471711D01*
X113544113Y-93417689D01*
X113560707Y-93406831D01*
X113608718Y-93375413D01*
X113680304Y-93346491D01*
X113756145Y-93332023D01*
X113833352Y-93332562D01*
X113833352Y-93332562D01*
G37*
G36*
X140249352Y-93332562D02*
X140324984Y-93348087D01*
X140351102Y-93359066D01*
X140396159Y-93378006D01*
X140434384Y-93403790D01*
X140460168Y-93421181D01*
X140514572Y-93475966D01*
X140514574Y-93475969D01*
X140557297Y-93540273D01*
X140586721Y-93611660D01*
X140598275Y-93670015D01*
X140601717Y-93687396D01*
X140600486Y-93775582D01*
X140600466Y-93775670D01*
X140600466Y-93775673D01*
X140583381Y-93850870D01*
X140583380Y-93850872D01*
X140551977Y-93921406D01*
X140516477Y-93971729D01*
X140507469Y-93984499D01*
X140451559Y-94037741D01*
X140386372Y-94079110D01*
X140314383Y-94107033D01*
X140238350Y-94120439D01*
X140161159Y-94118822D01*
X140085751Y-94102243D01*
X140015000Y-94071332D01*
X139951601Y-94027268D01*
X139951600Y-94027267D01*
X139897966Y-93971729D01*
X139865535Y-93921405D01*
X139856142Y-93906830D01*
X139844889Y-93878407D01*
X139827719Y-93835043D01*
X139813782Y-93759106D01*
X139813782Y-93759103D01*
X139814860Y-93681902D01*
X139816255Y-93675341D01*
X139830911Y-93606383D01*
X139861328Y-93535416D01*
X139904947Y-93471711D01*
X139960113Y-93417689D01*
X139976707Y-93406831D01*
X140024718Y-93375413D01*
X140096304Y-93346491D01*
X140172145Y-93332023D01*
X140249352Y-93332562D01*
X140249352Y-93332562D01*
G37*
G36*
X127041352Y-93332562D02*
X127116984Y-93348087D01*
X127143102Y-93359066D01*
X127188159Y-93378006D01*
X127226384Y-93403790D01*
X127252168Y-93421181D01*
X127306572Y-93475966D01*
X127306574Y-93475969D01*
X127349297Y-93540273D01*
X127378721Y-93611660D01*
X127390275Y-93670015D01*
X127393717Y-93687396D01*
X127392486Y-93775582D01*
X127392466Y-93775670D01*
X127392466Y-93775673D01*
X127375381Y-93850870D01*
X127375380Y-93850872D01*
X127343977Y-93921406D01*
X127308477Y-93971729D01*
X127299469Y-93984499D01*
X127243559Y-94037741D01*
X127178372Y-94079110D01*
X127106383Y-94107033D01*
X127030350Y-94120439D01*
X126953159Y-94118822D01*
X126877751Y-94102243D01*
X126807000Y-94071332D01*
X126743601Y-94027268D01*
X126743600Y-94027267D01*
X126689966Y-93971729D01*
X126657535Y-93921405D01*
X126648142Y-93906830D01*
X126636889Y-93878407D01*
X126619719Y-93835043D01*
X126605782Y-93759106D01*
X126605782Y-93759103D01*
X126606860Y-93681902D01*
X126608255Y-93675341D01*
X126622911Y-93606383D01*
X126653328Y-93535416D01*
X126696947Y-93471711D01*
X126752113Y-93417689D01*
X126768707Y-93406831D01*
X126816718Y-93375413D01*
X126888304Y-93346491D01*
X126964145Y-93332023D01*
X127041352Y-93332562D01*
X127041352Y-93332562D01*
G37*
G36*
X140249352Y-92316562D02*
X140324984Y-92332087D01*
X140351102Y-92343066D01*
X140396159Y-92362006D01*
X140434384Y-92387790D01*
X140460168Y-92405181D01*
X140514572Y-92459966D01*
X140514574Y-92459969D01*
X140557297Y-92524273D01*
X140586721Y-92595660D01*
X140598275Y-92654015D01*
X140601717Y-92671396D01*
X140600486Y-92759582D01*
X140600466Y-92759670D01*
X140600466Y-92759673D01*
X140583381Y-92834870D01*
X140583380Y-92834872D01*
X140551977Y-92905406D01*
X140516477Y-92955729D01*
X140507469Y-92968499D01*
X140451559Y-93021741D01*
X140386372Y-93063110D01*
X140314383Y-93091033D01*
X140238350Y-93104439D01*
X140161159Y-93102822D01*
X140085751Y-93086243D01*
X140015000Y-93055332D01*
X139951601Y-93011268D01*
X139951600Y-93011267D01*
X139897966Y-92955729D01*
X139865535Y-92905405D01*
X139856142Y-92890830D01*
X139844889Y-92862407D01*
X139827719Y-92819043D01*
X139813782Y-92743106D01*
X139813782Y-92743103D01*
X139814860Y-92665902D01*
X139816255Y-92659341D01*
X139830911Y-92590383D01*
X139861328Y-92519416D01*
X139904947Y-92455711D01*
X139960113Y-92401689D01*
X139976707Y-92390831D01*
X140024718Y-92359413D01*
X140096304Y-92330491D01*
X140172145Y-92316023D01*
X140249352Y-92316562D01*
X140249352Y-92316562D01*
G37*
G36*
X127041352Y-92316562D02*
X127116984Y-92332087D01*
X127143102Y-92343066D01*
X127188159Y-92362006D01*
X127226384Y-92387790D01*
X127252168Y-92405181D01*
X127306572Y-92459966D01*
X127306574Y-92459969D01*
X127349297Y-92524273D01*
X127378721Y-92595660D01*
X127390275Y-92654015D01*
X127393717Y-92671396D01*
X127392486Y-92759582D01*
X127392466Y-92759670D01*
X127392466Y-92759673D01*
X127375381Y-92834870D01*
X127375380Y-92834872D01*
X127343977Y-92905406D01*
X127308477Y-92955729D01*
X127299469Y-92968499D01*
X127243559Y-93021741D01*
X127178372Y-93063110D01*
X127106383Y-93091033D01*
X127030350Y-93104439D01*
X126953159Y-93102822D01*
X126877751Y-93086243D01*
X126807000Y-93055332D01*
X126743601Y-93011268D01*
X126743600Y-93011267D01*
X126689966Y-92955729D01*
X126657535Y-92905405D01*
X126648142Y-92890830D01*
X126636889Y-92862407D01*
X126619719Y-92819043D01*
X126605782Y-92743106D01*
X126605782Y-92743103D01*
X126606860Y-92665902D01*
X126608255Y-92659341D01*
X126622911Y-92590383D01*
X126653328Y-92519416D01*
X126696947Y-92455711D01*
X126752113Y-92401689D01*
X126768707Y-92390831D01*
X126816718Y-92359413D01*
X126888304Y-92330491D01*
X126964145Y-92316023D01*
X127041352Y-92316562D01*
X127041352Y-92316562D01*
G37*
G36*
X113833352Y-92316562D02*
X113908984Y-92332087D01*
X113935102Y-92343066D01*
X113980159Y-92362006D01*
X114018384Y-92387790D01*
X114044168Y-92405181D01*
X114098572Y-92459966D01*
X114098574Y-92459969D01*
X114141297Y-92524273D01*
X114170721Y-92595660D01*
X114182275Y-92654015D01*
X114185717Y-92671396D01*
X114184486Y-92759582D01*
X114184466Y-92759670D01*
X114184466Y-92759673D01*
X114167381Y-92834870D01*
X114167380Y-92834872D01*
X114135977Y-92905406D01*
X114100477Y-92955729D01*
X114091469Y-92968499D01*
X114035559Y-93021741D01*
X113970372Y-93063110D01*
X113898383Y-93091033D01*
X113822350Y-93104439D01*
X113745159Y-93102822D01*
X113669751Y-93086243D01*
X113599000Y-93055332D01*
X113535601Y-93011268D01*
X113535600Y-93011267D01*
X113481966Y-92955729D01*
X113449535Y-92905405D01*
X113440142Y-92890830D01*
X113428889Y-92862407D01*
X113411719Y-92819043D01*
X113397782Y-92743106D01*
X113397782Y-92743103D01*
X113398860Y-92665902D01*
X113400255Y-92659341D01*
X113414911Y-92590383D01*
X113445328Y-92519416D01*
X113488947Y-92455711D01*
X113544113Y-92401689D01*
X113560707Y-92390831D01*
X113608718Y-92359413D01*
X113680304Y-92330491D01*
X113756145Y-92316023D01*
X113833352Y-92316562D01*
X113833352Y-92316562D01*
G37*
G36*
X113833352Y-91300562D02*
X113908984Y-91316087D01*
X113935102Y-91327066D01*
X113980159Y-91346006D01*
X114018384Y-91371790D01*
X114044168Y-91389181D01*
X114098572Y-91443966D01*
X114098574Y-91443969D01*
X114141297Y-91508273D01*
X114170721Y-91579660D01*
X114182275Y-91638015D01*
X114185717Y-91655396D01*
X114184486Y-91743582D01*
X114184466Y-91743670D01*
X114184466Y-91743673D01*
X114167381Y-91818870D01*
X114167380Y-91818872D01*
X114135977Y-91889406D01*
X114100477Y-91939729D01*
X114091469Y-91952499D01*
X114035559Y-92005741D01*
X113970372Y-92047110D01*
X113898383Y-92075033D01*
X113822350Y-92088439D01*
X113745159Y-92086822D01*
X113669751Y-92070243D01*
X113599000Y-92039332D01*
X113535601Y-91995268D01*
X113535600Y-91995267D01*
X113481966Y-91939729D01*
X113449535Y-91889405D01*
X113440142Y-91874830D01*
X113428889Y-91846407D01*
X113411719Y-91803043D01*
X113397782Y-91727106D01*
X113397782Y-91727103D01*
X113398860Y-91649902D01*
X113400255Y-91643341D01*
X113414911Y-91574383D01*
X113445328Y-91503416D01*
X113488947Y-91439711D01*
X113544113Y-91385689D01*
X113560707Y-91374831D01*
X113608718Y-91343413D01*
X113680304Y-91314491D01*
X113756145Y-91300023D01*
X113833352Y-91300562D01*
X113833352Y-91300562D01*
G37*
G36*
X127041352Y-91300562D02*
X127116984Y-91316087D01*
X127143102Y-91327066D01*
X127188159Y-91346006D01*
X127226384Y-91371790D01*
X127252168Y-91389181D01*
X127306572Y-91443966D01*
X127306574Y-91443969D01*
X127349297Y-91508273D01*
X127378721Y-91579660D01*
X127390275Y-91638015D01*
X127393717Y-91655396D01*
X127392486Y-91743582D01*
X127392466Y-91743670D01*
X127392466Y-91743673D01*
X127375381Y-91818870D01*
X127375380Y-91818872D01*
X127343977Y-91889406D01*
X127308477Y-91939729D01*
X127299469Y-91952499D01*
X127243559Y-92005741D01*
X127178372Y-92047110D01*
X127106383Y-92075033D01*
X127030350Y-92088439D01*
X126953159Y-92086822D01*
X126877751Y-92070243D01*
X126807000Y-92039332D01*
X126743601Y-91995268D01*
X126743600Y-91995267D01*
X126689966Y-91939729D01*
X126657535Y-91889405D01*
X126648142Y-91874830D01*
X126636889Y-91846407D01*
X126619719Y-91803043D01*
X126605782Y-91727106D01*
X126605782Y-91727103D01*
X126606860Y-91649902D01*
X126608255Y-91643341D01*
X126622911Y-91574383D01*
X126653328Y-91503416D01*
X126696947Y-91439711D01*
X126752113Y-91385689D01*
X126768707Y-91374831D01*
X126816718Y-91343413D01*
X126888304Y-91314491D01*
X126964145Y-91300023D01*
X127041352Y-91300562D01*
X127041352Y-91300562D01*
G37*
G36*
X140249352Y-91300562D02*
X140324984Y-91316087D01*
X140351102Y-91327066D01*
X140396159Y-91346006D01*
X140434384Y-91371790D01*
X140460168Y-91389181D01*
X140514572Y-91443966D01*
X140514574Y-91443969D01*
X140557297Y-91508273D01*
X140586721Y-91579660D01*
X140598275Y-91638015D01*
X140601717Y-91655396D01*
X140600486Y-91743582D01*
X140600466Y-91743670D01*
X140600466Y-91743673D01*
X140583381Y-91818870D01*
X140583380Y-91818872D01*
X140551977Y-91889406D01*
X140516477Y-91939729D01*
X140507469Y-91952499D01*
X140451559Y-92005741D01*
X140386372Y-92047110D01*
X140314383Y-92075033D01*
X140238350Y-92088439D01*
X140161159Y-92086822D01*
X140085751Y-92070243D01*
X140015000Y-92039332D01*
X139951601Y-91995268D01*
X139951600Y-91995267D01*
X139897966Y-91939729D01*
X139865535Y-91889405D01*
X139856142Y-91874830D01*
X139844889Y-91846407D01*
X139827719Y-91803043D01*
X139813782Y-91727106D01*
X139813782Y-91727103D01*
X139814860Y-91649902D01*
X139816255Y-91643341D01*
X139830911Y-91574383D01*
X139861328Y-91503416D01*
X139904947Y-91439711D01*
X139960113Y-91385689D01*
X139976707Y-91374831D01*
X140024718Y-91343413D01*
X140096304Y-91314491D01*
X140172145Y-91300023D01*
X140249352Y-91300562D01*
X140249352Y-91300562D01*
G37*
G36*
X140249352Y-90284562D02*
X140324984Y-90300087D01*
X140351102Y-90311066D01*
X140396159Y-90330006D01*
X140434384Y-90355790D01*
X140460168Y-90373181D01*
X140514572Y-90427966D01*
X140514574Y-90427969D01*
X140557297Y-90492273D01*
X140586721Y-90563660D01*
X140598275Y-90622015D01*
X140601717Y-90639396D01*
X140600486Y-90727582D01*
X140600466Y-90727670D01*
X140600466Y-90727673D01*
X140583381Y-90802870D01*
X140583380Y-90802872D01*
X140551977Y-90873406D01*
X140516477Y-90923729D01*
X140507469Y-90936499D01*
X140451559Y-90989741D01*
X140386372Y-91031110D01*
X140314383Y-91059033D01*
X140238350Y-91072439D01*
X140161159Y-91070822D01*
X140085751Y-91054243D01*
X140015000Y-91023332D01*
X139951601Y-90979268D01*
X139951600Y-90979267D01*
X139897966Y-90923729D01*
X139865535Y-90873405D01*
X139856142Y-90858830D01*
X139844889Y-90830407D01*
X139827719Y-90787043D01*
X139813782Y-90711106D01*
X139813782Y-90711103D01*
X139814860Y-90633902D01*
X139816255Y-90627341D01*
X139830911Y-90558383D01*
X139861328Y-90487416D01*
X139904947Y-90423711D01*
X139960113Y-90369689D01*
X139976707Y-90358831D01*
X140024718Y-90327413D01*
X140096304Y-90298491D01*
X140172145Y-90284023D01*
X140249352Y-90284562D01*
X140249352Y-90284562D01*
G37*
G36*
X127041352Y-90284562D02*
X127116984Y-90300087D01*
X127143102Y-90311066D01*
X127188159Y-90330006D01*
X127226384Y-90355790D01*
X127252168Y-90373181D01*
X127306572Y-90427966D01*
X127306574Y-90427969D01*
X127349297Y-90492273D01*
X127378721Y-90563660D01*
X127390275Y-90622015D01*
X127393717Y-90639396D01*
X127392486Y-90727582D01*
X127392466Y-90727670D01*
X127392466Y-90727673D01*
X127375381Y-90802870D01*
X127375380Y-90802872D01*
X127343977Y-90873406D01*
X127308477Y-90923729D01*
X127299469Y-90936499D01*
X127243559Y-90989741D01*
X127178372Y-91031110D01*
X127106383Y-91059033D01*
X127030350Y-91072439D01*
X126953159Y-91070822D01*
X126877751Y-91054243D01*
X126807000Y-91023332D01*
X126743601Y-90979268D01*
X126743600Y-90979267D01*
X126689966Y-90923729D01*
X126657535Y-90873405D01*
X126648142Y-90858830D01*
X126636889Y-90830407D01*
X126619719Y-90787043D01*
X126605782Y-90711106D01*
X126605782Y-90711103D01*
X126606860Y-90633902D01*
X126608255Y-90627341D01*
X126622911Y-90558383D01*
X126653328Y-90487416D01*
X126696947Y-90423711D01*
X126752113Y-90369689D01*
X126768707Y-90358831D01*
X126816718Y-90327413D01*
X126888304Y-90298491D01*
X126964145Y-90284023D01*
X127041352Y-90284562D01*
X127041352Y-90284562D01*
G37*
G36*
X113833352Y-90284562D02*
X113908984Y-90300087D01*
X113935102Y-90311066D01*
X113980159Y-90330006D01*
X114018384Y-90355790D01*
X114044168Y-90373181D01*
X114098572Y-90427966D01*
X114098574Y-90427969D01*
X114141297Y-90492273D01*
X114170721Y-90563660D01*
X114182275Y-90622015D01*
X114185717Y-90639396D01*
X114184486Y-90727582D01*
X114184466Y-90727670D01*
X114184466Y-90727673D01*
X114167381Y-90802870D01*
X114167380Y-90802872D01*
X114135977Y-90873406D01*
X114100477Y-90923729D01*
X114091469Y-90936499D01*
X114035559Y-90989741D01*
X113970372Y-91031110D01*
X113898383Y-91059033D01*
X113822350Y-91072439D01*
X113745159Y-91070822D01*
X113669751Y-91054243D01*
X113599000Y-91023332D01*
X113535601Y-90979268D01*
X113535600Y-90979267D01*
X113481966Y-90923729D01*
X113449535Y-90873405D01*
X113440142Y-90858830D01*
X113428889Y-90830407D01*
X113411719Y-90787043D01*
X113397782Y-90711106D01*
X113397782Y-90711103D01*
X113398860Y-90633902D01*
X113400255Y-90627341D01*
X113414911Y-90558383D01*
X113445328Y-90487416D01*
X113488947Y-90423711D01*
X113544113Y-90369689D01*
X113560707Y-90358831D01*
X113608718Y-90327413D01*
X113680304Y-90298491D01*
X113756145Y-90284023D01*
X113833352Y-90284562D01*
X113833352Y-90284562D01*
G37*
G36*
X113833352Y-89268562D02*
X113908984Y-89284087D01*
X113935102Y-89295066D01*
X113980159Y-89314006D01*
X114018384Y-89339790D01*
X114044168Y-89357181D01*
X114098572Y-89411966D01*
X114098574Y-89411969D01*
X114141297Y-89476273D01*
X114170721Y-89547660D01*
X114182275Y-89606015D01*
X114185717Y-89623396D01*
X114184486Y-89711582D01*
X114184466Y-89711670D01*
X114184466Y-89711673D01*
X114167381Y-89786870D01*
X114167380Y-89786872D01*
X114135977Y-89857406D01*
X114100477Y-89907729D01*
X114091469Y-89920499D01*
X114035559Y-89973741D01*
X113970372Y-90015110D01*
X113898383Y-90043033D01*
X113822350Y-90056439D01*
X113745159Y-90054822D01*
X113669751Y-90038243D01*
X113599000Y-90007332D01*
X113535601Y-89963268D01*
X113535600Y-89963267D01*
X113481966Y-89907729D01*
X113449535Y-89857405D01*
X113440142Y-89842830D01*
X113428889Y-89814407D01*
X113411719Y-89771043D01*
X113397782Y-89695106D01*
X113397782Y-89695103D01*
X113398860Y-89617902D01*
X113400255Y-89611341D01*
X113414911Y-89542383D01*
X113445328Y-89471416D01*
X113488947Y-89407711D01*
X113544113Y-89353689D01*
X113560707Y-89342831D01*
X113608718Y-89311413D01*
X113680304Y-89282491D01*
X113756145Y-89268023D01*
X113833352Y-89268562D01*
X113833352Y-89268562D01*
G37*
G36*
X127041352Y-89268562D02*
X127116984Y-89284087D01*
X127143102Y-89295066D01*
X127188159Y-89314006D01*
X127226384Y-89339790D01*
X127252168Y-89357181D01*
X127306572Y-89411966D01*
X127306574Y-89411969D01*
X127349297Y-89476273D01*
X127378721Y-89547660D01*
X127390275Y-89606015D01*
X127393717Y-89623396D01*
X127392486Y-89711582D01*
X127392466Y-89711670D01*
X127392466Y-89711673D01*
X127375381Y-89786870D01*
X127375380Y-89786872D01*
X127343977Y-89857406D01*
X127308477Y-89907729D01*
X127299469Y-89920499D01*
X127243559Y-89973741D01*
X127178372Y-90015110D01*
X127106383Y-90043033D01*
X127030350Y-90056439D01*
X126953159Y-90054822D01*
X126877751Y-90038243D01*
X126807000Y-90007332D01*
X126743601Y-89963268D01*
X126743600Y-89963267D01*
X126689966Y-89907729D01*
X126657535Y-89857405D01*
X126648142Y-89842830D01*
X126636889Y-89814407D01*
X126619719Y-89771043D01*
X126605782Y-89695106D01*
X126605782Y-89695103D01*
X126606860Y-89617902D01*
X126608255Y-89611341D01*
X126622911Y-89542383D01*
X126653328Y-89471416D01*
X126696947Y-89407711D01*
X126752113Y-89353689D01*
X126768707Y-89342831D01*
X126816718Y-89311413D01*
X126888304Y-89282491D01*
X126964145Y-89268023D01*
X127041352Y-89268562D01*
X127041352Y-89268562D01*
G37*
G36*
X140249352Y-89268562D02*
X140324984Y-89284087D01*
X140351102Y-89295066D01*
X140396159Y-89314006D01*
X140434384Y-89339790D01*
X140460168Y-89357181D01*
X140514572Y-89411966D01*
X140514574Y-89411969D01*
X140557297Y-89476273D01*
X140586721Y-89547660D01*
X140598275Y-89606015D01*
X140601717Y-89623396D01*
X140600486Y-89711582D01*
X140600466Y-89711670D01*
X140600466Y-89711673D01*
X140583381Y-89786870D01*
X140583380Y-89786872D01*
X140551977Y-89857406D01*
X140516477Y-89907729D01*
X140507469Y-89920499D01*
X140451559Y-89973741D01*
X140386372Y-90015110D01*
X140314383Y-90043033D01*
X140238350Y-90056439D01*
X140161159Y-90054822D01*
X140085751Y-90038243D01*
X140015000Y-90007332D01*
X139951601Y-89963268D01*
X139951600Y-89963267D01*
X139897966Y-89907729D01*
X139865535Y-89857405D01*
X139856142Y-89842830D01*
X139844889Y-89814407D01*
X139827719Y-89771043D01*
X139813782Y-89695106D01*
X139813782Y-89695103D01*
X139814860Y-89617902D01*
X139816255Y-89611341D01*
X139830911Y-89542383D01*
X139861328Y-89471416D01*
X139904947Y-89407711D01*
X139960113Y-89353689D01*
X139976707Y-89342831D01*
X140024718Y-89311413D01*
X140096304Y-89282491D01*
X140172145Y-89268023D01*
X140249352Y-89268562D01*
X140249352Y-89268562D01*
G37*
G36*
X113833352Y-88252562D02*
X113908984Y-88268087D01*
X113935102Y-88279066D01*
X113980159Y-88298006D01*
X114018384Y-88323790D01*
X114044168Y-88341181D01*
X114098572Y-88395966D01*
X114098574Y-88395969D01*
X114141297Y-88460273D01*
X114170721Y-88531660D01*
X114182275Y-88590015D01*
X114185717Y-88607396D01*
X114184486Y-88695582D01*
X114184466Y-88695670D01*
X114184466Y-88695673D01*
X114167381Y-88770870D01*
X114167380Y-88770872D01*
X114135977Y-88841406D01*
X114100477Y-88891729D01*
X114091469Y-88904499D01*
X114035559Y-88957741D01*
X113970372Y-88999110D01*
X113898383Y-89027033D01*
X113822350Y-89040439D01*
X113745159Y-89038822D01*
X113669751Y-89022243D01*
X113599000Y-88991332D01*
X113535601Y-88947268D01*
X113535600Y-88947267D01*
X113481966Y-88891729D01*
X113449535Y-88841405D01*
X113440142Y-88826830D01*
X113428889Y-88798407D01*
X113411719Y-88755043D01*
X113397782Y-88679106D01*
X113397782Y-88679103D01*
X113398860Y-88601902D01*
X113400255Y-88595341D01*
X113414911Y-88526383D01*
X113445328Y-88455416D01*
X113488947Y-88391711D01*
X113544113Y-88337689D01*
X113560707Y-88326831D01*
X113608718Y-88295413D01*
X113680304Y-88266491D01*
X113756145Y-88252023D01*
X113833352Y-88252562D01*
X113833352Y-88252562D01*
G37*
G36*
X127041352Y-88252562D02*
X127116984Y-88268087D01*
X127143102Y-88279066D01*
X127188159Y-88298006D01*
X127226384Y-88323790D01*
X127252168Y-88341181D01*
X127306572Y-88395966D01*
X127306574Y-88395969D01*
X127349297Y-88460273D01*
X127378721Y-88531660D01*
X127390275Y-88590015D01*
X127393717Y-88607396D01*
X127392486Y-88695582D01*
X127392466Y-88695670D01*
X127392466Y-88695673D01*
X127375381Y-88770870D01*
X127375380Y-88770872D01*
X127343977Y-88841406D01*
X127308477Y-88891729D01*
X127299469Y-88904499D01*
X127243559Y-88957741D01*
X127178372Y-88999110D01*
X127106383Y-89027033D01*
X127030350Y-89040439D01*
X126953159Y-89038822D01*
X126877751Y-89022243D01*
X126807000Y-88991332D01*
X126743601Y-88947268D01*
X126743600Y-88947267D01*
X126689966Y-88891729D01*
X126657535Y-88841405D01*
X126648142Y-88826830D01*
X126636889Y-88798407D01*
X126619719Y-88755043D01*
X126605782Y-88679106D01*
X126605782Y-88679103D01*
X126606860Y-88601902D01*
X126608255Y-88595341D01*
X126622911Y-88526383D01*
X126653328Y-88455416D01*
X126696947Y-88391711D01*
X126752113Y-88337689D01*
X126768707Y-88326831D01*
X126816718Y-88295413D01*
X126888304Y-88266491D01*
X126964145Y-88252023D01*
X127041352Y-88252562D01*
X127041352Y-88252562D01*
G37*
G36*
X140249352Y-88252562D02*
X140324984Y-88268087D01*
X140351102Y-88279066D01*
X140396159Y-88298006D01*
X140434384Y-88323790D01*
X140460168Y-88341181D01*
X140514572Y-88395966D01*
X140514574Y-88395969D01*
X140557297Y-88460273D01*
X140586721Y-88531660D01*
X140598275Y-88590015D01*
X140601717Y-88607396D01*
X140600486Y-88695582D01*
X140600466Y-88695670D01*
X140600466Y-88695673D01*
X140583381Y-88770870D01*
X140583380Y-88770872D01*
X140551977Y-88841406D01*
X140516477Y-88891729D01*
X140507469Y-88904499D01*
X140451559Y-88957741D01*
X140386372Y-88999110D01*
X140314383Y-89027033D01*
X140238350Y-89040439D01*
X140161159Y-89038822D01*
X140085751Y-89022243D01*
X140015000Y-88991332D01*
X139951601Y-88947268D01*
X139951600Y-88947267D01*
X139897966Y-88891729D01*
X139865535Y-88841405D01*
X139856142Y-88826830D01*
X139844889Y-88798407D01*
X139827719Y-88755043D01*
X139813782Y-88679106D01*
X139813782Y-88679103D01*
X139814860Y-88601902D01*
X139816255Y-88595341D01*
X139830911Y-88526383D01*
X139861328Y-88455416D01*
X139904947Y-88391711D01*
X139960113Y-88337689D01*
X139976707Y-88326831D01*
X140024718Y-88295413D01*
X140096304Y-88266491D01*
X140172145Y-88252023D01*
X140249352Y-88252562D01*
X140249352Y-88252562D01*
G37*
G36*
X113833352Y-87236562D02*
X113908984Y-87252087D01*
X113935102Y-87263066D01*
X113980159Y-87282006D01*
X114018384Y-87307790D01*
X114044168Y-87325181D01*
X114098572Y-87379966D01*
X114098574Y-87379969D01*
X114141297Y-87444273D01*
X114170721Y-87515660D01*
X114182275Y-87574015D01*
X114185717Y-87591396D01*
X114184486Y-87679582D01*
X114184466Y-87679670D01*
X114184466Y-87679673D01*
X114167381Y-87754870D01*
X114167380Y-87754872D01*
X114135977Y-87825406D01*
X114100477Y-87875729D01*
X114091469Y-87888499D01*
X114035559Y-87941741D01*
X113970372Y-87983110D01*
X113898383Y-88011033D01*
X113822350Y-88024439D01*
X113745159Y-88022822D01*
X113669751Y-88006243D01*
X113599000Y-87975332D01*
X113535601Y-87931268D01*
X113535600Y-87931267D01*
X113481966Y-87875729D01*
X113449535Y-87825405D01*
X113440142Y-87810830D01*
X113428889Y-87782407D01*
X113411719Y-87739043D01*
X113397782Y-87663106D01*
X113397782Y-87663103D01*
X113398860Y-87585902D01*
X113400255Y-87579341D01*
X113414911Y-87510383D01*
X113445328Y-87439416D01*
X113488947Y-87375711D01*
X113544113Y-87321689D01*
X113560707Y-87310831D01*
X113608718Y-87279413D01*
X113680304Y-87250491D01*
X113756145Y-87236023D01*
X113833352Y-87236562D01*
X113833352Y-87236562D01*
G37*
G36*
X127041352Y-87236562D02*
X127116984Y-87252087D01*
X127143102Y-87263066D01*
X127188159Y-87282006D01*
X127226384Y-87307790D01*
X127252168Y-87325181D01*
X127306572Y-87379966D01*
X127306574Y-87379969D01*
X127349297Y-87444273D01*
X127378721Y-87515660D01*
X127390275Y-87574015D01*
X127393717Y-87591396D01*
X127392486Y-87679582D01*
X127392466Y-87679670D01*
X127392466Y-87679673D01*
X127375381Y-87754870D01*
X127375380Y-87754872D01*
X127343977Y-87825406D01*
X127308477Y-87875729D01*
X127299469Y-87888499D01*
X127243559Y-87941741D01*
X127178372Y-87983110D01*
X127106383Y-88011033D01*
X127030350Y-88024439D01*
X126953159Y-88022822D01*
X126877751Y-88006243D01*
X126807000Y-87975332D01*
X126743601Y-87931268D01*
X126743600Y-87931267D01*
X126689966Y-87875729D01*
X126657535Y-87825405D01*
X126648142Y-87810830D01*
X126636889Y-87782407D01*
X126619719Y-87739043D01*
X126605782Y-87663106D01*
X126605782Y-87663103D01*
X126606860Y-87585902D01*
X126608255Y-87579341D01*
X126622911Y-87510383D01*
X126653328Y-87439416D01*
X126696947Y-87375711D01*
X126752113Y-87321689D01*
X126768707Y-87310831D01*
X126816718Y-87279413D01*
X126888304Y-87250491D01*
X126964145Y-87236023D01*
X127041352Y-87236562D01*
X127041352Y-87236562D01*
G37*
G36*
X140249352Y-87236562D02*
X140324984Y-87252087D01*
X140351102Y-87263066D01*
X140396159Y-87282006D01*
X140434384Y-87307790D01*
X140460168Y-87325181D01*
X140514572Y-87379966D01*
X140514574Y-87379969D01*
X140557297Y-87444273D01*
X140586721Y-87515660D01*
X140598275Y-87574015D01*
X140601717Y-87591396D01*
X140600486Y-87679582D01*
X140600466Y-87679670D01*
X140600466Y-87679673D01*
X140583381Y-87754870D01*
X140583380Y-87754872D01*
X140551977Y-87825406D01*
X140516477Y-87875729D01*
X140507469Y-87888499D01*
X140451559Y-87941741D01*
X140386372Y-87983110D01*
X140314383Y-88011033D01*
X140238350Y-88024439D01*
X140161159Y-88022822D01*
X140085751Y-88006243D01*
X140015000Y-87975332D01*
X139951601Y-87931268D01*
X139951600Y-87931267D01*
X139897966Y-87875729D01*
X139865535Y-87825405D01*
X139856142Y-87810830D01*
X139844889Y-87782407D01*
X139827719Y-87739043D01*
X139813782Y-87663106D01*
X139813782Y-87663103D01*
X139814860Y-87585902D01*
X139816255Y-87579341D01*
X139830911Y-87510383D01*
X139861328Y-87439416D01*
X139904947Y-87375711D01*
X139960113Y-87321689D01*
X139976707Y-87310831D01*
X140024718Y-87279413D01*
X140096304Y-87250491D01*
X140172145Y-87236023D01*
X140249352Y-87236562D01*
X140249352Y-87236562D01*
G37*
G36*
X113833352Y-86220562D02*
X113908984Y-86236087D01*
X113935102Y-86247066D01*
X113980159Y-86266006D01*
X114018384Y-86291790D01*
X114044168Y-86309181D01*
X114098572Y-86363966D01*
X114098574Y-86363969D01*
X114141297Y-86428273D01*
X114170721Y-86499660D01*
X114182275Y-86558015D01*
X114185717Y-86575396D01*
X114184486Y-86663582D01*
X114184466Y-86663670D01*
X114184466Y-86663673D01*
X114167381Y-86738870D01*
X114167380Y-86738872D01*
X114135977Y-86809406D01*
X114100477Y-86859729D01*
X114091469Y-86872499D01*
X114035559Y-86925741D01*
X113970372Y-86967110D01*
X113898383Y-86995033D01*
X113822350Y-87008439D01*
X113745159Y-87006822D01*
X113669751Y-86990243D01*
X113599000Y-86959332D01*
X113535601Y-86915268D01*
X113535600Y-86915267D01*
X113481966Y-86859729D01*
X113449535Y-86809405D01*
X113440142Y-86794830D01*
X113428889Y-86766407D01*
X113411719Y-86723043D01*
X113397782Y-86647106D01*
X113397782Y-86647103D01*
X113398860Y-86569902D01*
X113400255Y-86563341D01*
X113414911Y-86494383D01*
X113445328Y-86423416D01*
X113488947Y-86359711D01*
X113544113Y-86305689D01*
X113560707Y-86294831D01*
X113608718Y-86263413D01*
X113680304Y-86234491D01*
X113756145Y-86220023D01*
X113833352Y-86220562D01*
X113833352Y-86220562D01*
G37*
G36*
X127041352Y-86220562D02*
X127116984Y-86236087D01*
X127143102Y-86247066D01*
X127188159Y-86266006D01*
X127226384Y-86291790D01*
X127252168Y-86309181D01*
X127306572Y-86363966D01*
X127306574Y-86363969D01*
X127349297Y-86428273D01*
X127378721Y-86499660D01*
X127390275Y-86558015D01*
X127393717Y-86575396D01*
X127392486Y-86663582D01*
X127392466Y-86663670D01*
X127392466Y-86663673D01*
X127375381Y-86738870D01*
X127375380Y-86738872D01*
X127343977Y-86809406D01*
X127308477Y-86859729D01*
X127299469Y-86872499D01*
X127243559Y-86925741D01*
X127178372Y-86967110D01*
X127106383Y-86995033D01*
X127030350Y-87008439D01*
X126953159Y-87006822D01*
X126877751Y-86990243D01*
X126807000Y-86959332D01*
X126743601Y-86915268D01*
X126743600Y-86915267D01*
X126689966Y-86859729D01*
X126657535Y-86809405D01*
X126648142Y-86794830D01*
X126636889Y-86766407D01*
X126619719Y-86723043D01*
X126605782Y-86647106D01*
X126605782Y-86647103D01*
X126606860Y-86569902D01*
X126608255Y-86563341D01*
X126622911Y-86494383D01*
X126653328Y-86423416D01*
X126696947Y-86359711D01*
X126752113Y-86305689D01*
X126768707Y-86294831D01*
X126816718Y-86263413D01*
X126888304Y-86234491D01*
X126964145Y-86220023D01*
X127041352Y-86220562D01*
X127041352Y-86220562D01*
G37*
G36*
X140249352Y-86220562D02*
X140324984Y-86236087D01*
X140351102Y-86247066D01*
X140396159Y-86266006D01*
X140434384Y-86291790D01*
X140460168Y-86309181D01*
X140514572Y-86363966D01*
X140514574Y-86363969D01*
X140557297Y-86428273D01*
X140586721Y-86499660D01*
X140598275Y-86558015D01*
X140601717Y-86575396D01*
X140600486Y-86663582D01*
X140600466Y-86663670D01*
X140600466Y-86663673D01*
X140583381Y-86738870D01*
X140583380Y-86738872D01*
X140551977Y-86809406D01*
X140516477Y-86859729D01*
X140507469Y-86872499D01*
X140451559Y-86925741D01*
X140386372Y-86967110D01*
X140314383Y-86995033D01*
X140238350Y-87008439D01*
X140161159Y-87006822D01*
X140085751Y-86990243D01*
X140015000Y-86959332D01*
X139951601Y-86915268D01*
X139951600Y-86915267D01*
X139897966Y-86859729D01*
X139865535Y-86809405D01*
X139856142Y-86794830D01*
X139844889Y-86766407D01*
X139827719Y-86723043D01*
X139813782Y-86647106D01*
X139813782Y-86647103D01*
X139814860Y-86569902D01*
X139816255Y-86563341D01*
X139830911Y-86494383D01*
X139861328Y-86423416D01*
X139904947Y-86359711D01*
X139960113Y-86305689D01*
X139976707Y-86294831D01*
X140024718Y-86263413D01*
X140096304Y-86234491D01*
X140172145Y-86220023D01*
X140249352Y-86220562D01*
X140249352Y-86220562D01*
G37*
G36*
X113833352Y-85204562D02*
X113908984Y-85220087D01*
X113935102Y-85231066D01*
X113980159Y-85250006D01*
X114018384Y-85275790D01*
X114044168Y-85293181D01*
X114098572Y-85347966D01*
X114098574Y-85347969D01*
X114141297Y-85412273D01*
X114170721Y-85483660D01*
X114182275Y-85542015D01*
X114185717Y-85559396D01*
X114184486Y-85647582D01*
X114184466Y-85647670D01*
X114184466Y-85647673D01*
X114167381Y-85722870D01*
X114167380Y-85722872D01*
X114135977Y-85793406D01*
X114100477Y-85843729D01*
X114091469Y-85856499D01*
X114035559Y-85909741D01*
X113970372Y-85951110D01*
X113898383Y-85979033D01*
X113822350Y-85992439D01*
X113745159Y-85990822D01*
X113669751Y-85974243D01*
X113599000Y-85943332D01*
X113535601Y-85899268D01*
X113535600Y-85899267D01*
X113481966Y-85843729D01*
X113449535Y-85793405D01*
X113440142Y-85778830D01*
X113428889Y-85750407D01*
X113411719Y-85707043D01*
X113397782Y-85631106D01*
X113397782Y-85631103D01*
X113398860Y-85553902D01*
X113400255Y-85547341D01*
X113414911Y-85478383D01*
X113445328Y-85407416D01*
X113488947Y-85343711D01*
X113544113Y-85289689D01*
X113560707Y-85278831D01*
X113608718Y-85247413D01*
X113680304Y-85218491D01*
X113756145Y-85204023D01*
X113833352Y-85204562D01*
X113833352Y-85204562D01*
G37*
G36*
X127041352Y-85204562D02*
X127116984Y-85220087D01*
X127143102Y-85231066D01*
X127188159Y-85250006D01*
X127226384Y-85275790D01*
X127252168Y-85293181D01*
X127306572Y-85347966D01*
X127306574Y-85347969D01*
X127349297Y-85412273D01*
X127378721Y-85483660D01*
X127390275Y-85542015D01*
X127393717Y-85559396D01*
X127392486Y-85647582D01*
X127392466Y-85647670D01*
X127392466Y-85647673D01*
X127375381Y-85722870D01*
X127375380Y-85722872D01*
X127343977Y-85793406D01*
X127308477Y-85843729D01*
X127299469Y-85856499D01*
X127243559Y-85909741D01*
X127178372Y-85951110D01*
X127106383Y-85979033D01*
X127030350Y-85992439D01*
X126953159Y-85990822D01*
X126877751Y-85974243D01*
X126807000Y-85943332D01*
X126743601Y-85899268D01*
X126743600Y-85899267D01*
X126689966Y-85843729D01*
X126657535Y-85793405D01*
X126648142Y-85778830D01*
X126636889Y-85750407D01*
X126619719Y-85707043D01*
X126605782Y-85631106D01*
X126605782Y-85631103D01*
X126606860Y-85553902D01*
X126608255Y-85547341D01*
X126622911Y-85478383D01*
X126653328Y-85407416D01*
X126696947Y-85343711D01*
X126752113Y-85289689D01*
X126768707Y-85278831D01*
X126816718Y-85247413D01*
X126888304Y-85218491D01*
X126964145Y-85204023D01*
X127041352Y-85204562D01*
X127041352Y-85204562D01*
G37*
G36*
X140249352Y-85204562D02*
X140324984Y-85220087D01*
X140351102Y-85231066D01*
X140396159Y-85250006D01*
X140434384Y-85275790D01*
X140460168Y-85293181D01*
X140514572Y-85347966D01*
X140514574Y-85347969D01*
X140557297Y-85412273D01*
X140586721Y-85483660D01*
X140598275Y-85542015D01*
X140601717Y-85559396D01*
X140600486Y-85647582D01*
X140600466Y-85647670D01*
X140600466Y-85647673D01*
X140583381Y-85722870D01*
X140583380Y-85722872D01*
X140551977Y-85793406D01*
X140516477Y-85843729D01*
X140507469Y-85856499D01*
X140451559Y-85909741D01*
X140386372Y-85951110D01*
X140314383Y-85979033D01*
X140238350Y-85992439D01*
X140161159Y-85990822D01*
X140085751Y-85974243D01*
X140015000Y-85943332D01*
X139951601Y-85899268D01*
X139951600Y-85899267D01*
X139897966Y-85843729D01*
X139865535Y-85793405D01*
X139856142Y-85778830D01*
X139844889Y-85750407D01*
X139827719Y-85707043D01*
X139813782Y-85631106D01*
X139813782Y-85631103D01*
X139814860Y-85553902D01*
X139816255Y-85547341D01*
X139830911Y-85478383D01*
X139861328Y-85407416D01*
X139904947Y-85343711D01*
X139960113Y-85289689D01*
X139976707Y-85278831D01*
X140024718Y-85247413D01*
X140096304Y-85218491D01*
X140172145Y-85204023D01*
X140249352Y-85204562D01*
X140249352Y-85204562D01*
G37*
G36*
X113833352Y-84188562D02*
X113908984Y-84204087D01*
X113935102Y-84215066D01*
X113980159Y-84234006D01*
X114018384Y-84259790D01*
X114044168Y-84277181D01*
X114098572Y-84331966D01*
X114098574Y-84331969D01*
X114141297Y-84396273D01*
X114170721Y-84467660D01*
X114182275Y-84526015D01*
X114185717Y-84543396D01*
X114184486Y-84631582D01*
X114184466Y-84631670D01*
X114184466Y-84631673D01*
X114167381Y-84706870D01*
X114167380Y-84706872D01*
X114135977Y-84777406D01*
X114100477Y-84827729D01*
X114091469Y-84840499D01*
X114035559Y-84893741D01*
X113970372Y-84935110D01*
X113898383Y-84963033D01*
X113822350Y-84976439D01*
X113745159Y-84974822D01*
X113669751Y-84958243D01*
X113599000Y-84927332D01*
X113535601Y-84883268D01*
X113535600Y-84883267D01*
X113481966Y-84827729D01*
X113449535Y-84777405D01*
X113440142Y-84762830D01*
X113428889Y-84734407D01*
X113411719Y-84691043D01*
X113397782Y-84615106D01*
X113397782Y-84615103D01*
X113398860Y-84537902D01*
X113400255Y-84531341D01*
X113414911Y-84462383D01*
X113445328Y-84391416D01*
X113488947Y-84327711D01*
X113544113Y-84273689D01*
X113560707Y-84262831D01*
X113608718Y-84231413D01*
X113680304Y-84202491D01*
X113756145Y-84188023D01*
X113833352Y-84188562D01*
X113833352Y-84188562D01*
G37*
G36*
X127041352Y-84188562D02*
X127116984Y-84204087D01*
X127143102Y-84215066D01*
X127188159Y-84234006D01*
X127226384Y-84259790D01*
X127252168Y-84277181D01*
X127306572Y-84331966D01*
X127306574Y-84331969D01*
X127349297Y-84396273D01*
X127378721Y-84467660D01*
X127390275Y-84526015D01*
X127393717Y-84543396D01*
X127392486Y-84631582D01*
X127392466Y-84631670D01*
X127392466Y-84631673D01*
X127375381Y-84706870D01*
X127375380Y-84706872D01*
X127343977Y-84777406D01*
X127308477Y-84827729D01*
X127299469Y-84840499D01*
X127243559Y-84893741D01*
X127178372Y-84935110D01*
X127106383Y-84963033D01*
X127030350Y-84976439D01*
X126953159Y-84974822D01*
X126877751Y-84958243D01*
X126807000Y-84927332D01*
X126743601Y-84883268D01*
X126743600Y-84883267D01*
X126689966Y-84827729D01*
X126657535Y-84777405D01*
X126648142Y-84762830D01*
X126636889Y-84734407D01*
X126619719Y-84691043D01*
X126605782Y-84615106D01*
X126605782Y-84615103D01*
X126606860Y-84537902D01*
X126608255Y-84531341D01*
X126622911Y-84462383D01*
X126653328Y-84391416D01*
X126696947Y-84327711D01*
X126752113Y-84273689D01*
X126768707Y-84262831D01*
X126816718Y-84231413D01*
X126888304Y-84202491D01*
X126964145Y-84188023D01*
X127041352Y-84188562D01*
X127041352Y-84188562D01*
G37*
G36*
X140249352Y-84188562D02*
X140324984Y-84204087D01*
X140351102Y-84215066D01*
X140396159Y-84234006D01*
X140434384Y-84259790D01*
X140460168Y-84277181D01*
X140514572Y-84331966D01*
X140514574Y-84331969D01*
X140557297Y-84396273D01*
X140586721Y-84467660D01*
X140598275Y-84526015D01*
X140601717Y-84543396D01*
X140600486Y-84631582D01*
X140600466Y-84631670D01*
X140600466Y-84631673D01*
X140583381Y-84706870D01*
X140583380Y-84706872D01*
X140551977Y-84777406D01*
X140516477Y-84827729D01*
X140507469Y-84840499D01*
X140451559Y-84893741D01*
X140386372Y-84935110D01*
X140314383Y-84963033D01*
X140238350Y-84976439D01*
X140161159Y-84974822D01*
X140085751Y-84958243D01*
X140015000Y-84927332D01*
X139951601Y-84883268D01*
X139951600Y-84883267D01*
X139897966Y-84827729D01*
X139865535Y-84777405D01*
X139856142Y-84762830D01*
X139844889Y-84734407D01*
X139827719Y-84691043D01*
X139813782Y-84615106D01*
X139813782Y-84615103D01*
X139814860Y-84537902D01*
X139816255Y-84531341D01*
X139830911Y-84462383D01*
X139861328Y-84391416D01*
X139904947Y-84327711D01*
X139960113Y-84273689D01*
X139976707Y-84262831D01*
X140024718Y-84231413D01*
X140096304Y-84202491D01*
X140172145Y-84188023D01*
X140249352Y-84188562D01*
X140249352Y-84188562D01*
G37*
M02*
