M48
;DRILL file {KiCad 4.0.2-stable} date Tuesday, April 24, 2018 'PMt' 12:08:09 PM
;FORMAT={2:4/ absolute / inch / suppress leading zeros}
FMAT,2
INCH,TZ
T1C0.016
T2C0.020
%
G90
G05
M72
T1
X40450Y-27600
X40450Y-35275
X41900Y-35275
X41920Y-27606
X42200Y-25800
X42250Y-33500
X42680Y-29480
X42729Y-37146
X43990Y-28810
X44000Y-30500
X44000Y-36525
X44000Y-38250
X45650Y-35275
X45675Y-27575
X47100Y-27600
X47100Y-35275
X47475Y-25800
X47475Y-33500
X47800Y-29450
X47900Y-37150
X49200Y-28825
X49200Y-38225
X49200Y-36525
X49250Y-30550
X50850Y-27600
X50850Y-35225
X52300Y-27625
X52311Y-35271
X52625Y-33475
X52650Y-25800
X53104Y-29446
X53104Y-37146
X54400Y-28850
X54400Y-36500
X54450Y-38175
X54518Y-30532
X56050Y-27575
X56050Y-35275
X57500Y-27575
X57500Y-35250
X57875Y-33500
X57900Y-25800
X58300Y-29450
X58300Y-37150
X59600Y-28825
X59600Y-36525
X59675Y-30550
X59675Y-38225
T2
X40750Y-31500
X40750Y-39200
X41750Y-31500
X41750Y-39200
X42750Y-31500
X42750Y-39200
X43750Y-31500
X43750Y-39200
X45950Y-31500
X45950Y-39200
X46950Y-31500
X46950Y-39200
X47950Y-31500
X47950Y-39200
X48950Y-31500
X48950Y-39200
X51150Y-31500
X51150Y-39200
X52150Y-31500
X52150Y-39200
X53150Y-31500
X53150Y-39200
X54150Y-31500
X54150Y-39200
X56350Y-31500
X56350Y-39200
X57350Y-31500
X57350Y-39200
X58350Y-31500
X58350Y-39200
X59350Y-31500
X59350Y-39200
T0
M30
