G04 #@! TF.FileFunction,Paste,Top*
%FSLAX46Y46*%
G04 Gerber Fmt 4.6, Leading zero omitted, Abs format (unit mm)*
G04 Created by KiCad (PCBNEW 4.0.2-stable) date Tuesday, April 24, 2018 'PMt' 12:07:57 PM*
%MOMM*%
G01*
G04 APERTURE LIST*
%ADD10C,0.025400*%
%ADD11R,0.399200X0.539200*%
%ADD12R,3.099200X0.949200*%
%ADD13R,0.699200X0.749200*%
%ADD14R,0.849200X0.449200*%
%ADD15R,1.399200X0.399200*%
G04 APERTURE END LIST*
D10*
D11*
X125095000Y-74713200D03*
X125095000Y-76823200D03*
D12*
X117998000Y-65532000D03*
X123048000Y-65532000D03*
X117998000Y-68072000D03*
X123048000Y-68072000D03*
D13*
X111760000Y-70878000D03*
X111760000Y-72378000D03*
X124968000Y-70878000D03*
X124968000Y-72378000D03*
X102743000Y-72378000D03*
X102743000Y-70878000D03*
X115951000Y-72378000D03*
X115951000Y-70878000D03*
X138176000Y-70878000D03*
X138176000Y-72378000D03*
X151384000Y-70878000D03*
X151384000Y-72378000D03*
X129159000Y-72378000D03*
X129159000Y-70878000D03*
X142367000Y-72378000D03*
X142367000Y-70878000D03*
X111760000Y-90436000D03*
X111760000Y-91936000D03*
X124968000Y-90436000D03*
X124968000Y-91936000D03*
X102743000Y-91936000D03*
X102743000Y-90436000D03*
X115951000Y-91936000D03*
X115951000Y-90436000D03*
X138176000Y-90436000D03*
X138176000Y-91936000D03*
X151384000Y-90436000D03*
X151384000Y-91936000D03*
X129159000Y-91936000D03*
X129159000Y-90436000D03*
X142367000Y-91936000D03*
X142367000Y-90436000D03*
D11*
X111760000Y-74713200D03*
X111760000Y-76823200D03*
X138430000Y-74713200D03*
X138430000Y-76823200D03*
X151638000Y-74713200D03*
X151638000Y-76823200D03*
X111760000Y-94271200D03*
X111760000Y-96381200D03*
X124968000Y-94271200D03*
X124968000Y-96381200D03*
X138303000Y-94271200D03*
X138303000Y-96381200D03*
X151638000Y-94271200D03*
X151638000Y-96381200D03*
D12*
X104790000Y-65532000D03*
X109840000Y-65532000D03*
X104790000Y-68072000D03*
X109840000Y-68072000D03*
X131206000Y-65532000D03*
X136256000Y-65532000D03*
X131206000Y-68072000D03*
X136256000Y-68072000D03*
X144414000Y-65532000D03*
X149464000Y-65532000D03*
X144414000Y-68072000D03*
X149464000Y-68072000D03*
X104790000Y-85090000D03*
X109840000Y-85090000D03*
X104790000Y-87630000D03*
X109840000Y-87630000D03*
X117998000Y-85090000D03*
X123048000Y-85090000D03*
X117998000Y-87630000D03*
X123048000Y-87630000D03*
X131206000Y-85090000D03*
X136256000Y-85090000D03*
X131206000Y-87630000D03*
X136256000Y-87630000D03*
X144414000Y-85090000D03*
X149464000Y-85090000D03*
X144414000Y-87630000D03*
X149464000Y-87630000D03*
D14*
X109982000Y-72378000D03*
X109982000Y-70878000D03*
X104648000Y-72378000D03*
X104648000Y-70878000D03*
X123190000Y-72378000D03*
X123190000Y-70878000D03*
X117856000Y-72378000D03*
X117856000Y-70878000D03*
X108204000Y-70878000D03*
X108204000Y-72378000D03*
X106426000Y-70878000D03*
X106426000Y-72378000D03*
X121412000Y-70878000D03*
X121412000Y-72378000D03*
X119634000Y-70878000D03*
X119634000Y-72378000D03*
X136398000Y-72378000D03*
X136398000Y-70878000D03*
X131064000Y-72378000D03*
X131064000Y-70878000D03*
X149606000Y-72378000D03*
X149606000Y-70878000D03*
X144272000Y-72378000D03*
X144272000Y-70878000D03*
X134620000Y-70878000D03*
X134620000Y-72378000D03*
X132842000Y-70878000D03*
X132842000Y-72378000D03*
X147828000Y-70878000D03*
X147828000Y-72378000D03*
X146050000Y-70878000D03*
X146050000Y-72378000D03*
X109982000Y-91936000D03*
X109982000Y-90436000D03*
X104648000Y-91936000D03*
X104648000Y-90436000D03*
X123190000Y-91936000D03*
X123190000Y-90436000D03*
X117856000Y-91936000D03*
X117856000Y-90436000D03*
X108204000Y-90436000D03*
X108204000Y-91936000D03*
X106426000Y-90436000D03*
X106426000Y-91936000D03*
X121412000Y-90436000D03*
X121412000Y-91936000D03*
X119634000Y-90436000D03*
X119634000Y-91936000D03*
X136398000Y-91936000D03*
X136398000Y-90436000D03*
X131064000Y-91936000D03*
X131064000Y-90436000D03*
X149606000Y-91936000D03*
X149606000Y-90436000D03*
X144272000Y-91936000D03*
X144272000Y-90436000D03*
X134620000Y-90436000D03*
X134620000Y-91936000D03*
X132842000Y-90436000D03*
X132842000Y-91936000D03*
X147828000Y-90436000D03*
X147828000Y-91936000D03*
X146050000Y-90436000D03*
X146050000Y-91936000D03*
D15*
X109706200Y-76743200D03*
X109706200Y-76093200D03*
X109706200Y-75443200D03*
X109706200Y-74793200D03*
X103806200Y-74793200D03*
X103806200Y-75443200D03*
X103806200Y-76093200D03*
X103806200Y-76743200D03*
X122914200Y-76743200D03*
X122914200Y-76093200D03*
X122914200Y-75443200D03*
X122914200Y-74793200D03*
X117014200Y-74793200D03*
X117014200Y-75443200D03*
X117014200Y-76093200D03*
X117014200Y-76743200D03*
X136122200Y-76743200D03*
X136122200Y-76093200D03*
X136122200Y-75443200D03*
X136122200Y-74793200D03*
X130222200Y-74793200D03*
X130222200Y-75443200D03*
X130222200Y-76093200D03*
X130222200Y-76743200D03*
X149330200Y-76743200D03*
X149330200Y-76093200D03*
X149330200Y-75443200D03*
X149330200Y-74793200D03*
X143430200Y-74793200D03*
X143430200Y-75443200D03*
X143430200Y-76093200D03*
X143430200Y-76743200D03*
X109706200Y-96301200D03*
X109706200Y-95651200D03*
X109706200Y-95001200D03*
X109706200Y-94351200D03*
X103806200Y-94351200D03*
X103806200Y-95001200D03*
X103806200Y-95651200D03*
X103806200Y-96301200D03*
X122914200Y-96301200D03*
X122914200Y-95651200D03*
X122914200Y-95001200D03*
X122914200Y-94351200D03*
X117014200Y-94351200D03*
X117014200Y-95001200D03*
X117014200Y-95651200D03*
X117014200Y-96301200D03*
X136122200Y-96301200D03*
X136122200Y-95651200D03*
X136122200Y-95001200D03*
X136122200Y-94351200D03*
X130222200Y-94351200D03*
X130222200Y-95001200D03*
X130222200Y-95651200D03*
X130222200Y-96301200D03*
X149330200Y-96301200D03*
X149330200Y-95651200D03*
X149330200Y-95001200D03*
X149330200Y-94351200D03*
X143430200Y-94351200D03*
X143430200Y-95001200D03*
X143430200Y-95651200D03*
X143430200Y-96301200D03*
M02*
