M48
;DRILL file {KiCad 4.0.2-stable} date Tuesday, February 20, 2018 'AMt' 07:18:07 AM
;FORMAT={2:4/ absolute / inch / suppress leading zeros}
FMAT,2
INCH,TZ
T1C0.020
%
G90
G05
M72
T1
X44800Y-33300
X44800Y-33700
X44800Y-34100
X44800Y-34500
X44800Y-34900
X44800Y-35300
X44800Y-35700
X44800Y-36100
X44800Y-36500
X44800Y-36900
X44800Y-37300
X44800Y-37700
X44800Y-38100
X44800Y-38500
X44800Y-38900
X44800Y-39300
X44800Y-39700
X50000Y-33300
X50000Y-33700
X50000Y-34100
X50000Y-34500
X50000Y-34900
X50000Y-35300
X50000Y-35700
X50000Y-36100
X50000Y-36500
X50000Y-36900
X50000Y-37300
X50000Y-37700
X50000Y-38100
X50000Y-38500
X50000Y-38900
X50000Y-39300
X50000Y-39700
X55200Y-33300
X55200Y-33700
X55200Y-34100
X55200Y-34500
X55200Y-34900
X55200Y-35300
X55200Y-35700
X55200Y-36100
X55200Y-36500
X55200Y-36900
X55200Y-37300
X55200Y-37700
X55200Y-38100
X55200Y-38500
X55200Y-38900
X55200Y-39300
X55200Y-39700
T0
M30
