G04 #@! TF.FileFunction,Copper,L2,Bot,Signal*
%FSLAX46Y46*%
G04 Gerber Fmt 4.6, Leading zero omitted, Abs format (unit mm)*
G04 Created by KiCad (PCBNEW 4.0.2-stable) date Tuesday, April 24, 2018 'PMt' 12:07:57 PM*
%MOMM*%
G01*
G04 APERTURE LIST*
%ADD10C,0.025400*%
%ADD11R,1.016000X1.016000*%
%ADD12C,1.016000*%
%ADD13C,0.600000*%
%ADD14C,0.250000*%
%ADD15C,0.254000*%
G04 APERTURE END LIST*
D10*
D11*
X116713000Y-80010000D03*
D12*
X119253000Y-80010000D03*
X121793000Y-80010000D03*
X124333000Y-80010000D03*
D11*
X103505000Y-80010000D03*
D12*
X106045000Y-80010000D03*
X108585000Y-80010000D03*
X111125000Y-80010000D03*
D11*
X129921000Y-80010000D03*
D12*
X132461000Y-80010000D03*
X135001000Y-80010000D03*
X137541000Y-80010000D03*
D11*
X143129000Y-80010000D03*
D12*
X145669000Y-80010000D03*
X148209000Y-80010000D03*
X150749000Y-80010000D03*
D11*
X103505000Y-99568000D03*
D12*
X106045000Y-99568000D03*
X108585000Y-99568000D03*
X111125000Y-99568000D03*
D11*
X116713000Y-99568000D03*
D12*
X119253000Y-99568000D03*
X121793000Y-99568000D03*
X124333000Y-99568000D03*
D11*
X129921000Y-99568000D03*
D12*
X132461000Y-99568000D03*
X135001000Y-99568000D03*
X137541000Y-99568000D03*
D11*
X143129000Y-99568000D03*
D12*
X145669000Y-99568000D03*
X148209000Y-99568000D03*
X150749000Y-99568000D03*
D13*
X106476800Y-70119410D03*
X111734600Y-73177400D03*
X108407200Y-74879200D03*
X111760000Y-77470000D03*
X107188000Y-65532000D03*
X102743000Y-70104000D03*
X119634000Y-70104000D03*
X125095000Y-77596992D03*
X124968000Y-73215500D03*
X116014500Y-70040500D03*
X121412000Y-74803000D03*
X120586500Y-65532000D03*
X134883800Y-74793200D03*
X138475999Y-77551001D03*
X138176000Y-73279000D03*
X129159000Y-70104000D03*
X132842000Y-70167500D03*
X133731000Y-65532000D03*
X148082000Y-74803000D03*
X151574500Y-77597000D03*
X151384000Y-73215500D03*
X142367000Y-70040500D03*
X146050000Y-70040500D03*
X147066000Y-65532000D03*
X111760000Y-97155000D03*
X111760000Y-92773500D03*
X108531300Y-94351200D03*
X106426000Y-89598500D03*
X102743000Y-89598500D03*
X107315000Y-85090000D03*
X124968002Y-92773500D03*
X124968000Y-97091500D03*
X121666000Y-94361000D03*
X119634000Y-89598500D03*
X115951000Y-89598500D03*
X120586500Y-85090000D03*
X132869827Y-89588510D03*
X134883800Y-94351200D03*
X138303000Y-96964500D03*
X138176000Y-92710000D03*
X129159000Y-89471500D03*
X133667500Y-85026500D03*
X142367003Y-89598503D03*
X151574500Y-97091500D03*
X148082000Y-94361000D03*
X151384000Y-92773500D03*
X146050000Y-89535000D03*
X147002500Y-85090000D03*
D14*
X107188000Y-65532000D02*
X107188000Y-69405500D01*
X107188000Y-69405500D02*
X106476800Y-70116700D01*
X106476800Y-70116700D02*
X106476800Y-70119410D01*
X108407200Y-74879200D02*
X108445300Y-74879200D01*
X108445300Y-74879200D02*
X110109000Y-73215500D01*
X110109000Y-73215500D02*
X111696500Y-73215500D01*
X111696500Y-73215500D02*
X111734600Y-73177400D01*
X108407200Y-74879200D02*
X106476800Y-72948800D01*
X102743000Y-70104000D02*
X106461390Y-70104000D01*
X106461390Y-70104000D02*
X106476800Y-70119410D01*
X106476800Y-72948800D02*
X106476800Y-70543674D01*
X106476800Y-70543674D02*
X106476800Y-70119410D01*
X111760000Y-77470000D02*
X111760000Y-73202800D01*
X111760000Y-73202800D02*
X111734600Y-73177400D01*
X106299000Y-80010000D02*
X106299000Y-76987400D01*
X108107201Y-75179199D02*
X108407200Y-74879200D01*
X106299000Y-76987400D02*
X108107201Y-75179199D01*
X119634000Y-70528264D02*
X119634000Y-70104000D01*
X119634000Y-73025000D02*
X119634000Y-70528264D01*
X121412000Y-74803000D02*
X119634000Y-73025000D01*
X119516990Y-70040500D02*
X119570500Y-70040500D01*
X120586500Y-69151500D02*
X119933999Y-69804001D01*
X120586500Y-65532000D02*
X120586500Y-69151500D01*
X119933999Y-69804001D02*
X119634000Y-70104000D01*
X119570500Y-70040500D02*
X119634000Y-70104000D01*
X124968000Y-77469992D02*
X125095000Y-77596992D01*
X124968000Y-73215500D02*
X124968000Y-77469992D01*
X122999500Y-73215500D02*
X124543736Y-73215500D01*
X124543736Y-73215500D02*
X124968000Y-73215500D01*
X121412000Y-74803000D02*
X122999500Y-73215500D01*
X119390228Y-70040500D02*
X116014500Y-70040500D01*
X121412000Y-74803000D02*
X121412000Y-77851000D01*
X121412000Y-77851000D02*
X119253000Y-80010000D01*
X134883800Y-74793200D02*
X136398000Y-73279000D01*
X136398000Y-73279000D02*
X138176000Y-73279000D01*
X133731000Y-65532000D02*
X133731000Y-69278500D01*
X133731000Y-69278500D02*
X132842000Y-70167500D01*
X132842000Y-70167500D02*
X132842000Y-72751400D01*
X132842000Y-72751400D02*
X134883800Y-74793200D01*
X134883800Y-74793200D02*
X134883800Y-77587200D01*
X134883800Y-77587200D02*
X132461000Y-80010000D01*
X138475999Y-73578999D02*
X138475999Y-76771500D01*
X138475999Y-76771500D02*
X138475999Y-77551001D01*
X138176000Y-73279000D02*
X138475999Y-73578999D01*
X129222500Y-70167500D02*
X129159000Y-70104000D01*
X132842000Y-70167500D02*
X129222500Y-70167500D01*
X147066000Y-65532000D02*
X147066000Y-69024500D01*
X147066000Y-69024500D02*
X146050000Y-70040500D01*
X148082000Y-74803000D02*
X145669000Y-77216000D01*
X145669000Y-77216000D02*
X145669000Y-80010000D01*
X146050000Y-70040500D02*
X146050000Y-72771000D01*
X146050000Y-72771000D02*
X148082000Y-74803000D01*
X148082000Y-74803000D02*
X149669500Y-73215500D01*
X149669500Y-73215500D02*
X151384000Y-73215500D01*
X151574500Y-73830264D02*
X151574500Y-77597000D01*
X151384000Y-73215500D02*
X151384000Y-73639764D01*
X151384000Y-73639764D02*
X151574500Y-73830264D01*
X146050000Y-70040500D02*
X142367000Y-70040500D01*
X111760000Y-92773500D02*
X111760000Y-97155000D01*
X107315000Y-85090000D02*
X107315000Y-88709500D01*
X107315000Y-88709500D02*
X106426000Y-89598500D01*
X108531300Y-94351200D02*
X110109000Y-92773500D01*
X110109000Y-92773500D02*
X111760000Y-92773500D01*
X106426000Y-89598500D02*
X106426000Y-92245900D01*
X106426000Y-92245900D02*
X108531300Y-94351200D01*
X106045000Y-99568000D02*
X108531300Y-97081700D01*
X108531300Y-97081700D02*
X108531300Y-94351200D01*
X102743000Y-89598500D02*
X106426000Y-89598500D01*
X124543738Y-92773500D02*
X124968002Y-92773500D01*
X123253500Y-92773500D02*
X124543738Y-92773500D01*
X121666000Y-94361000D02*
X123253500Y-92773500D01*
X124968000Y-92773502D02*
X124968002Y-92773500D01*
X124968000Y-97091500D02*
X124968000Y-92773502D01*
X119634000Y-89598500D02*
X119634000Y-92329000D01*
X119634000Y-92329000D02*
X121666000Y-94361000D01*
X119253000Y-99568000D02*
X121666000Y-97155000D01*
X121666000Y-97155000D02*
X121666000Y-94361000D01*
X120586500Y-85090000D02*
X120586500Y-88646000D01*
X120586500Y-88646000D02*
X119634000Y-89598500D01*
X115951000Y-89598500D02*
X119634000Y-89598500D01*
X133667500Y-85026500D02*
X133667500Y-88773000D01*
X133667500Y-88773000D02*
X132869827Y-89570673D01*
X132869827Y-89570673D02*
X132869827Y-89588510D01*
X132752817Y-89471500D02*
X132869827Y-89588510D01*
X133169826Y-89888509D02*
X132869827Y-89588510D01*
X134883800Y-91602483D02*
X133169826Y-89888509D01*
X134883800Y-94351200D02*
X134883800Y-91602483D01*
X129159000Y-89471500D02*
X132752817Y-89471500D01*
X134883800Y-94351200D02*
X134883800Y-97145200D01*
X134883800Y-97145200D02*
X132461000Y-99568000D01*
X138176000Y-92710000D02*
X138176000Y-96837500D01*
X138176000Y-96837500D02*
X138303000Y-96964500D01*
X134883800Y-94351200D02*
X136525000Y-92710000D01*
X136525000Y-92710000D02*
X138176000Y-92710000D01*
X147002500Y-85090000D02*
X147002500Y-88582500D01*
X147002500Y-88582500D02*
X146050000Y-89535000D01*
X142430506Y-89535000D02*
X142367003Y-89598503D01*
X146050000Y-89535000D02*
X142430506Y-89535000D01*
X148082000Y-94361000D02*
X148082000Y-97155000D01*
X148082000Y-97155000D02*
X145669000Y-99568000D01*
X146050000Y-89535000D02*
X146050000Y-92329000D01*
X146050000Y-92329000D02*
X148082000Y-94361000D01*
X151384000Y-96901000D02*
X151574500Y-97091500D01*
X151384000Y-92773500D02*
X151384000Y-96901000D01*
X148082000Y-94361000D02*
X149669500Y-92773500D01*
X149669500Y-92773500D02*
X151384000Y-92773500D01*
D15*
G36*
X112649000Y-81661000D02*
X102310000Y-81661000D01*
X102310000Y-79502000D01*
X102349560Y-79502000D01*
X102349560Y-80518000D01*
X102393838Y-80753317D01*
X102532910Y-80969441D01*
X102745110Y-81114431D01*
X102997000Y-81165440D01*
X104013000Y-81165440D01*
X104248317Y-81121162D01*
X104464441Y-80982090D01*
X104584813Y-80805919D01*
X105428686Y-80805919D01*
X105466824Y-81021856D01*
X105898055Y-81166091D01*
X106351657Y-81134322D01*
X106623176Y-81021856D01*
X106661314Y-80805919D01*
X106045000Y-80189605D01*
X105428686Y-80805919D01*
X104584813Y-80805919D01*
X104609431Y-80769890D01*
X104660440Y-80518000D01*
X104660440Y-79863055D01*
X104888909Y-79863055D01*
X104920678Y-80316657D01*
X105033144Y-80588176D01*
X105249081Y-80626314D01*
X105865395Y-80010000D01*
X106224605Y-80010000D01*
X106840919Y-80626314D01*
X107056856Y-80588176D01*
X107174529Y-80236359D01*
X107441802Y-80236359D01*
X107615446Y-80656612D01*
X107936697Y-80978423D01*
X108356646Y-81152801D01*
X108811359Y-81153198D01*
X109231612Y-80979554D01*
X109553423Y-80658303D01*
X109727801Y-80238354D01*
X109727802Y-80236359D01*
X109981802Y-80236359D01*
X110155446Y-80656612D01*
X110476697Y-80978423D01*
X110896646Y-81152801D01*
X111351359Y-81153198D01*
X111771612Y-80979554D01*
X112093423Y-80658303D01*
X112267801Y-80238354D01*
X112268198Y-79783641D01*
X112094554Y-79363388D01*
X111773303Y-79041577D01*
X111353354Y-78867199D01*
X110898641Y-78866802D01*
X110478388Y-79040446D01*
X110156577Y-79361697D01*
X109982199Y-79781646D01*
X109981802Y-80236359D01*
X109727802Y-80236359D01*
X109728198Y-79783641D01*
X109554554Y-79363388D01*
X109233303Y-79041577D01*
X108813354Y-78867199D01*
X108358641Y-78866802D01*
X107938388Y-79040446D01*
X107616577Y-79361697D01*
X107442199Y-79781646D01*
X107441802Y-80236359D01*
X107174529Y-80236359D01*
X107201091Y-80156945D01*
X107169322Y-79703343D01*
X107056856Y-79431824D01*
X106840919Y-79393686D01*
X106224605Y-80010000D01*
X105865395Y-80010000D01*
X105249081Y-79393686D01*
X105033144Y-79431824D01*
X104888909Y-79863055D01*
X104660440Y-79863055D01*
X104660440Y-79502000D01*
X104616162Y-79266683D01*
X104582314Y-79214081D01*
X105428686Y-79214081D01*
X106045000Y-79830395D01*
X106661314Y-79214081D01*
X106623176Y-78998144D01*
X106191945Y-78853909D01*
X105738343Y-78885678D01*
X105466824Y-78998144D01*
X105428686Y-79214081D01*
X104582314Y-79214081D01*
X104477090Y-79050559D01*
X104264890Y-78905569D01*
X104013000Y-78854560D01*
X102997000Y-78854560D01*
X102761683Y-78898838D01*
X102545559Y-79037910D01*
X102400569Y-79250110D01*
X102349560Y-79502000D01*
X102310000Y-79502000D01*
X102310000Y-64210000D01*
X112649000Y-64210000D01*
X112649000Y-81661000D01*
X112649000Y-81661000D01*
G37*
X112649000Y-81661000D02*
X102310000Y-81661000D01*
X102310000Y-79502000D01*
X102349560Y-79502000D01*
X102349560Y-80518000D01*
X102393838Y-80753317D01*
X102532910Y-80969441D01*
X102745110Y-81114431D01*
X102997000Y-81165440D01*
X104013000Y-81165440D01*
X104248317Y-81121162D01*
X104464441Y-80982090D01*
X104584813Y-80805919D01*
X105428686Y-80805919D01*
X105466824Y-81021856D01*
X105898055Y-81166091D01*
X106351657Y-81134322D01*
X106623176Y-81021856D01*
X106661314Y-80805919D01*
X106045000Y-80189605D01*
X105428686Y-80805919D01*
X104584813Y-80805919D01*
X104609431Y-80769890D01*
X104660440Y-80518000D01*
X104660440Y-79863055D01*
X104888909Y-79863055D01*
X104920678Y-80316657D01*
X105033144Y-80588176D01*
X105249081Y-80626314D01*
X105865395Y-80010000D01*
X106224605Y-80010000D01*
X106840919Y-80626314D01*
X107056856Y-80588176D01*
X107174529Y-80236359D01*
X107441802Y-80236359D01*
X107615446Y-80656612D01*
X107936697Y-80978423D01*
X108356646Y-81152801D01*
X108811359Y-81153198D01*
X109231612Y-80979554D01*
X109553423Y-80658303D01*
X109727801Y-80238354D01*
X109727802Y-80236359D01*
X109981802Y-80236359D01*
X110155446Y-80656612D01*
X110476697Y-80978423D01*
X110896646Y-81152801D01*
X111351359Y-81153198D01*
X111771612Y-80979554D01*
X112093423Y-80658303D01*
X112267801Y-80238354D01*
X112268198Y-79783641D01*
X112094554Y-79363388D01*
X111773303Y-79041577D01*
X111353354Y-78867199D01*
X110898641Y-78866802D01*
X110478388Y-79040446D01*
X110156577Y-79361697D01*
X109982199Y-79781646D01*
X109981802Y-80236359D01*
X109727802Y-80236359D01*
X109728198Y-79783641D01*
X109554554Y-79363388D01*
X109233303Y-79041577D01*
X108813354Y-78867199D01*
X108358641Y-78866802D01*
X107938388Y-79040446D01*
X107616577Y-79361697D01*
X107442199Y-79781646D01*
X107441802Y-80236359D01*
X107174529Y-80236359D01*
X107201091Y-80156945D01*
X107169322Y-79703343D01*
X107056856Y-79431824D01*
X106840919Y-79393686D01*
X106224605Y-80010000D01*
X105865395Y-80010000D01*
X105249081Y-79393686D01*
X105033144Y-79431824D01*
X104888909Y-79863055D01*
X104660440Y-79863055D01*
X104660440Y-79502000D01*
X104616162Y-79266683D01*
X104582314Y-79214081D01*
X105428686Y-79214081D01*
X106045000Y-79830395D01*
X106661314Y-79214081D01*
X106623176Y-78998144D01*
X106191945Y-78853909D01*
X105738343Y-78885678D01*
X105466824Y-78998144D01*
X105428686Y-79214081D01*
X104582314Y-79214081D01*
X104477090Y-79050559D01*
X104264890Y-78905569D01*
X104013000Y-78854560D01*
X102997000Y-78854560D01*
X102761683Y-78898838D01*
X102545559Y-79037910D01*
X102400569Y-79250110D01*
X102349560Y-79502000D01*
X102310000Y-79502000D01*
X102310000Y-64210000D01*
X112649000Y-64210000D01*
X112649000Y-81661000D01*
G36*
X125857000Y-81661000D02*
X114935000Y-81661000D01*
X114935000Y-79502000D01*
X115557560Y-79502000D01*
X115557560Y-80518000D01*
X115601838Y-80753317D01*
X115740910Y-80969441D01*
X115953110Y-81114431D01*
X116205000Y-81165440D01*
X117221000Y-81165440D01*
X117456317Y-81121162D01*
X117672441Y-80982090D01*
X117792813Y-80805919D01*
X118636686Y-80805919D01*
X118674824Y-81021856D01*
X119106055Y-81166091D01*
X119559657Y-81134322D01*
X119831176Y-81021856D01*
X119869314Y-80805919D01*
X119253000Y-80189605D01*
X118636686Y-80805919D01*
X117792813Y-80805919D01*
X117817431Y-80769890D01*
X117868440Y-80518000D01*
X117868440Y-79863055D01*
X118096909Y-79863055D01*
X118128678Y-80316657D01*
X118241144Y-80588176D01*
X118457081Y-80626314D01*
X119073395Y-80010000D01*
X119432605Y-80010000D01*
X120048919Y-80626314D01*
X120264856Y-80588176D01*
X120382529Y-80236359D01*
X120649802Y-80236359D01*
X120823446Y-80656612D01*
X121144697Y-80978423D01*
X121564646Y-81152801D01*
X122019359Y-81153198D01*
X122439612Y-80979554D01*
X122761423Y-80658303D01*
X122935801Y-80238354D01*
X122935802Y-80236359D01*
X123189802Y-80236359D01*
X123363446Y-80656612D01*
X123684697Y-80978423D01*
X124104646Y-81152801D01*
X124559359Y-81153198D01*
X124979612Y-80979554D01*
X125301423Y-80658303D01*
X125475801Y-80238354D01*
X125476198Y-79783641D01*
X125302554Y-79363388D01*
X124981303Y-79041577D01*
X124561354Y-78867199D01*
X124106641Y-78866802D01*
X123686388Y-79040446D01*
X123364577Y-79361697D01*
X123190199Y-79781646D01*
X123189802Y-80236359D01*
X122935802Y-80236359D01*
X122936198Y-79783641D01*
X122762554Y-79363388D01*
X122441303Y-79041577D01*
X122021354Y-78867199D01*
X121566641Y-78866802D01*
X121146388Y-79040446D01*
X120824577Y-79361697D01*
X120650199Y-79781646D01*
X120649802Y-80236359D01*
X120382529Y-80236359D01*
X120409091Y-80156945D01*
X120377322Y-79703343D01*
X120264856Y-79431824D01*
X120048919Y-79393686D01*
X119432605Y-80010000D01*
X119073395Y-80010000D01*
X118457081Y-79393686D01*
X118241144Y-79431824D01*
X118096909Y-79863055D01*
X117868440Y-79863055D01*
X117868440Y-79502000D01*
X117824162Y-79266683D01*
X117790314Y-79214081D01*
X118636686Y-79214081D01*
X119253000Y-79830395D01*
X119869314Y-79214081D01*
X119831176Y-78998144D01*
X119399945Y-78853909D01*
X118946343Y-78885678D01*
X118674824Y-78998144D01*
X118636686Y-79214081D01*
X117790314Y-79214081D01*
X117685090Y-79050559D01*
X117472890Y-78905569D01*
X117221000Y-78854560D01*
X116205000Y-78854560D01*
X115969683Y-78898838D01*
X115753559Y-79037910D01*
X115608569Y-79250110D01*
X115557560Y-79502000D01*
X114935000Y-79502000D01*
X114935000Y-64210000D01*
X125857000Y-64210000D01*
X125857000Y-81661000D01*
X125857000Y-81661000D01*
G37*
X125857000Y-81661000D02*
X114935000Y-81661000D01*
X114935000Y-79502000D01*
X115557560Y-79502000D01*
X115557560Y-80518000D01*
X115601838Y-80753317D01*
X115740910Y-80969441D01*
X115953110Y-81114431D01*
X116205000Y-81165440D01*
X117221000Y-81165440D01*
X117456317Y-81121162D01*
X117672441Y-80982090D01*
X117792813Y-80805919D01*
X118636686Y-80805919D01*
X118674824Y-81021856D01*
X119106055Y-81166091D01*
X119559657Y-81134322D01*
X119831176Y-81021856D01*
X119869314Y-80805919D01*
X119253000Y-80189605D01*
X118636686Y-80805919D01*
X117792813Y-80805919D01*
X117817431Y-80769890D01*
X117868440Y-80518000D01*
X117868440Y-79863055D01*
X118096909Y-79863055D01*
X118128678Y-80316657D01*
X118241144Y-80588176D01*
X118457081Y-80626314D01*
X119073395Y-80010000D01*
X119432605Y-80010000D01*
X120048919Y-80626314D01*
X120264856Y-80588176D01*
X120382529Y-80236359D01*
X120649802Y-80236359D01*
X120823446Y-80656612D01*
X121144697Y-80978423D01*
X121564646Y-81152801D01*
X122019359Y-81153198D01*
X122439612Y-80979554D01*
X122761423Y-80658303D01*
X122935801Y-80238354D01*
X122935802Y-80236359D01*
X123189802Y-80236359D01*
X123363446Y-80656612D01*
X123684697Y-80978423D01*
X124104646Y-81152801D01*
X124559359Y-81153198D01*
X124979612Y-80979554D01*
X125301423Y-80658303D01*
X125475801Y-80238354D01*
X125476198Y-79783641D01*
X125302554Y-79363388D01*
X124981303Y-79041577D01*
X124561354Y-78867199D01*
X124106641Y-78866802D01*
X123686388Y-79040446D01*
X123364577Y-79361697D01*
X123190199Y-79781646D01*
X123189802Y-80236359D01*
X122935802Y-80236359D01*
X122936198Y-79783641D01*
X122762554Y-79363388D01*
X122441303Y-79041577D01*
X122021354Y-78867199D01*
X121566641Y-78866802D01*
X121146388Y-79040446D01*
X120824577Y-79361697D01*
X120650199Y-79781646D01*
X120649802Y-80236359D01*
X120382529Y-80236359D01*
X120409091Y-80156945D01*
X120377322Y-79703343D01*
X120264856Y-79431824D01*
X120048919Y-79393686D01*
X119432605Y-80010000D01*
X119073395Y-80010000D01*
X118457081Y-79393686D01*
X118241144Y-79431824D01*
X118096909Y-79863055D01*
X117868440Y-79863055D01*
X117868440Y-79502000D01*
X117824162Y-79266683D01*
X117790314Y-79214081D01*
X118636686Y-79214081D01*
X119253000Y-79830395D01*
X119869314Y-79214081D01*
X119831176Y-78998144D01*
X119399945Y-78853909D01*
X118946343Y-78885678D01*
X118674824Y-78998144D01*
X118636686Y-79214081D01*
X117790314Y-79214081D01*
X117685090Y-79050559D01*
X117472890Y-78905569D01*
X117221000Y-78854560D01*
X116205000Y-78854560D01*
X115969683Y-78898838D01*
X115753559Y-79037910D01*
X115608569Y-79250110D01*
X115557560Y-79502000D01*
X114935000Y-79502000D01*
X114935000Y-64210000D01*
X125857000Y-64210000D01*
X125857000Y-81661000D01*
G36*
X139192000Y-81534028D02*
X128333500Y-81536426D01*
X128333500Y-79502000D01*
X128765560Y-79502000D01*
X128765560Y-80518000D01*
X128809838Y-80753317D01*
X128948910Y-80969441D01*
X129161110Y-81114431D01*
X129413000Y-81165440D01*
X130429000Y-81165440D01*
X130664317Y-81121162D01*
X130880441Y-80982090D01*
X131000813Y-80805919D01*
X131844686Y-80805919D01*
X131882824Y-81021856D01*
X132314055Y-81166091D01*
X132767657Y-81134322D01*
X133039176Y-81021856D01*
X133077314Y-80805919D01*
X132461000Y-80189605D01*
X131844686Y-80805919D01*
X131000813Y-80805919D01*
X131025431Y-80769890D01*
X131076440Y-80518000D01*
X131076440Y-79863055D01*
X131304909Y-79863055D01*
X131336678Y-80316657D01*
X131449144Y-80588176D01*
X131665081Y-80626314D01*
X132281395Y-80010000D01*
X132640605Y-80010000D01*
X133256919Y-80626314D01*
X133472856Y-80588176D01*
X133590529Y-80236359D01*
X133857802Y-80236359D01*
X134031446Y-80656612D01*
X134352697Y-80978423D01*
X134772646Y-81152801D01*
X135227359Y-81153198D01*
X135647612Y-80979554D01*
X135969423Y-80658303D01*
X136143801Y-80238354D01*
X136143802Y-80236359D01*
X136397802Y-80236359D01*
X136571446Y-80656612D01*
X136892697Y-80978423D01*
X137312646Y-81152801D01*
X137767359Y-81153198D01*
X138187612Y-80979554D01*
X138509423Y-80658303D01*
X138683801Y-80238354D01*
X138684198Y-79783641D01*
X138510554Y-79363388D01*
X138189303Y-79041577D01*
X137769354Y-78867199D01*
X137314641Y-78866802D01*
X136894388Y-79040446D01*
X136572577Y-79361697D01*
X136398199Y-79781646D01*
X136397802Y-80236359D01*
X136143802Y-80236359D01*
X136144198Y-79783641D01*
X135970554Y-79363388D01*
X135649303Y-79041577D01*
X135229354Y-78867199D01*
X134774641Y-78866802D01*
X134354388Y-79040446D01*
X134032577Y-79361697D01*
X133858199Y-79781646D01*
X133857802Y-80236359D01*
X133590529Y-80236359D01*
X133617091Y-80156945D01*
X133585322Y-79703343D01*
X133472856Y-79431824D01*
X133256919Y-79393686D01*
X132640605Y-80010000D01*
X132281395Y-80010000D01*
X131665081Y-79393686D01*
X131449144Y-79431824D01*
X131304909Y-79863055D01*
X131076440Y-79863055D01*
X131076440Y-79502000D01*
X131032162Y-79266683D01*
X130998314Y-79214081D01*
X131844686Y-79214081D01*
X132461000Y-79830395D01*
X133077314Y-79214081D01*
X133039176Y-78998144D01*
X132607945Y-78853909D01*
X132154343Y-78885678D01*
X131882824Y-78998144D01*
X131844686Y-79214081D01*
X130998314Y-79214081D01*
X130893090Y-79050559D01*
X130680890Y-78905569D01*
X130429000Y-78854560D01*
X129413000Y-78854560D01*
X129177683Y-78898838D01*
X128961559Y-79037910D01*
X128816569Y-79250110D01*
X128765560Y-79502000D01*
X128333500Y-79502000D01*
X128333500Y-64210000D01*
X139192000Y-64210000D01*
X139192000Y-81534028D01*
X139192000Y-81534028D01*
G37*
X139192000Y-81534028D02*
X128333500Y-81536426D01*
X128333500Y-79502000D01*
X128765560Y-79502000D01*
X128765560Y-80518000D01*
X128809838Y-80753317D01*
X128948910Y-80969441D01*
X129161110Y-81114431D01*
X129413000Y-81165440D01*
X130429000Y-81165440D01*
X130664317Y-81121162D01*
X130880441Y-80982090D01*
X131000813Y-80805919D01*
X131844686Y-80805919D01*
X131882824Y-81021856D01*
X132314055Y-81166091D01*
X132767657Y-81134322D01*
X133039176Y-81021856D01*
X133077314Y-80805919D01*
X132461000Y-80189605D01*
X131844686Y-80805919D01*
X131000813Y-80805919D01*
X131025431Y-80769890D01*
X131076440Y-80518000D01*
X131076440Y-79863055D01*
X131304909Y-79863055D01*
X131336678Y-80316657D01*
X131449144Y-80588176D01*
X131665081Y-80626314D01*
X132281395Y-80010000D01*
X132640605Y-80010000D01*
X133256919Y-80626314D01*
X133472856Y-80588176D01*
X133590529Y-80236359D01*
X133857802Y-80236359D01*
X134031446Y-80656612D01*
X134352697Y-80978423D01*
X134772646Y-81152801D01*
X135227359Y-81153198D01*
X135647612Y-80979554D01*
X135969423Y-80658303D01*
X136143801Y-80238354D01*
X136143802Y-80236359D01*
X136397802Y-80236359D01*
X136571446Y-80656612D01*
X136892697Y-80978423D01*
X137312646Y-81152801D01*
X137767359Y-81153198D01*
X138187612Y-80979554D01*
X138509423Y-80658303D01*
X138683801Y-80238354D01*
X138684198Y-79783641D01*
X138510554Y-79363388D01*
X138189303Y-79041577D01*
X137769354Y-78867199D01*
X137314641Y-78866802D01*
X136894388Y-79040446D01*
X136572577Y-79361697D01*
X136398199Y-79781646D01*
X136397802Y-80236359D01*
X136143802Y-80236359D01*
X136144198Y-79783641D01*
X135970554Y-79363388D01*
X135649303Y-79041577D01*
X135229354Y-78867199D01*
X134774641Y-78866802D01*
X134354388Y-79040446D01*
X134032577Y-79361697D01*
X133858199Y-79781646D01*
X133857802Y-80236359D01*
X133590529Y-80236359D01*
X133617091Y-80156945D01*
X133585322Y-79703343D01*
X133472856Y-79431824D01*
X133256919Y-79393686D01*
X132640605Y-80010000D01*
X132281395Y-80010000D01*
X131665081Y-79393686D01*
X131449144Y-79431824D01*
X131304909Y-79863055D01*
X131076440Y-79863055D01*
X131076440Y-79502000D01*
X131032162Y-79266683D01*
X130998314Y-79214081D01*
X131844686Y-79214081D01*
X132461000Y-79830395D01*
X133077314Y-79214081D01*
X133039176Y-78998144D01*
X132607945Y-78853909D01*
X132154343Y-78885678D01*
X131882824Y-78998144D01*
X131844686Y-79214081D01*
X130998314Y-79214081D01*
X130893090Y-79050559D01*
X130680890Y-78905569D01*
X130429000Y-78854560D01*
X129413000Y-78854560D01*
X129177683Y-78898838D01*
X128961559Y-79037910D01*
X128816569Y-79250110D01*
X128765560Y-79502000D01*
X128333500Y-79502000D01*
X128333500Y-64210000D01*
X139192000Y-64210000D01*
X139192000Y-81534028D01*
G36*
X151944000Y-81541842D02*
X141351000Y-81541842D01*
X141351000Y-79502000D01*
X141973560Y-79502000D01*
X141973560Y-80518000D01*
X142017838Y-80753317D01*
X142156910Y-80969441D01*
X142369110Y-81114431D01*
X142621000Y-81165440D01*
X143637000Y-81165440D01*
X143872317Y-81121162D01*
X144088441Y-80982090D01*
X144208813Y-80805919D01*
X145052686Y-80805919D01*
X145090824Y-81021856D01*
X145522055Y-81166091D01*
X145975657Y-81134322D01*
X146247176Y-81021856D01*
X146285314Y-80805919D01*
X145669000Y-80189605D01*
X145052686Y-80805919D01*
X144208813Y-80805919D01*
X144233431Y-80769890D01*
X144284440Y-80518000D01*
X144284440Y-79863055D01*
X144512909Y-79863055D01*
X144544678Y-80316657D01*
X144657144Y-80588176D01*
X144873081Y-80626314D01*
X145489395Y-80010000D01*
X145848605Y-80010000D01*
X146464919Y-80626314D01*
X146680856Y-80588176D01*
X146798529Y-80236359D01*
X147065802Y-80236359D01*
X147239446Y-80656612D01*
X147560697Y-80978423D01*
X147980646Y-81152801D01*
X148435359Y-81153198D01*
X148855612Y-80979554D01*
X149177423Y-80658303D01*
X149351801Y-80238354D01*
X149351802Y-80236359D01*
X149605802Y-80236359D01*
X149779446Y-80656612D01*
X150100697Y-80978423D01*
X150520646Y-81152801D01*
X150975359Y-81153198D01*
X151395612Y-80979554D01*
X151717423Y-80658303D01*
X151891801Y-80238354D01*
X151892198Y-79783641D01*
X151718554Y-79363388D01*
X151397303Y-79041577D01*
X150977354Y-78867199D01*
X150522641Y-78866802D01*
X150102388Y-79040446D01*
X149780577Y-79361697D01*
X149606199Y-79781646D01*
X149605802Y-80236359D01*
X149351802Y-80236359D01*
X149352198Y-79783641D01*
X149178554Y-79363388D01*
X148857303Y-79041577D01*
X148437354Y-78867199D01*
X147982641Y-78866802D01*
X147562388Y-79040446D01*
X147240577Y-79361697D01*
X147066199Y-79781646D01*
X147065802Y-80236359D01*
X146798529Y-80236359D01*
X146825091Y-80156945D01*
X146793322Y-79703343D01*
X146680856Y-79431824D01*
X146464919Y-79393686D01*
X145848605Y-80010000D01*
X145489395Y-80010000D01*
X144873081Y-79393686D01*
X144657144Y-79431824D01*
X144512909Y-79863055D01*
X144284440Y-79863055D01*
X144284440Y-79502000D01*
X144240162Y-79266683D01*
X144206314Y-79214081D01*
X145052686Y-79214081D01*
X145669000Y-79830395D01*
X146285314Y-79214081D01*
X146247176Y-78998144D01*
X145815945Y-78853909D01*
X145362343Y-78885678D01*
X145090824Y-78998144D01*
X145052686Y-79214081D01*
X144206314Y-79214081D01*
X144101090Y-79050559D01*
X143888890Y-78905569D01*
X143637000Y-78854560D01*
X142621000Y-78854560D01*
X142385683Y-78898838D01*
X142169559Y-79037910D01*
X142024569Y-79250110D01*
X141973560Y-79502000D01*
X141351000Y-79502000D01*
X141351000Y-64210000D01*
X151944000Y-64210000D01*
X151944000Y-81541842D01*
X151944000Y-81541842D01*
G37*
X151944000Y-81541842D02*
X141351000Y-81541842D01*
X141351000Y-79502000D01*
X141973560Y-79502000D01*
X141973560Y-80518000D01*
X142017838Y-80753317D01*
X142156910Y-80969441D01*
X142369110Y-81114431D01*
X142621000Y-81165440D01*
X143637000Y-81165440D01*
X143872317Y-81121162D01*
X144088441Y-80982090D01*
X144208813Y-80805919D01*
X145052686Y-80805919D01*
X145090824Y-81021856D01*
X145522055Y-81166091D01*
X145975657Y-81134322D01*
X146247176Y-81021856D01*
X146285314Y-80805919D01*
X145669000Y-80189605D01*
X145052686Y-80805919D01*
X144208813Y-80805919D01*
X144233431Y-80769890D01*
X144284440Y-80518000D01*
X144284440Y-79863055D01*
X144512909Y-79863055D01*
X144544678Y-80316657D01*
X144657144Y-80588176D01*
X144873081Y-80626314D01*
X145489395Y-80010000D01*
X145848605Y-80010000D01*
X146464919Y-80626314D01*
X146680856Y-80588176D01*
X146798529Y-80236359D01*
X147065802Y-80236359D01*
X147239446Y-80656612D01*
X147560697Y-80978423D01*
X147980646Y-81152801D01*
X148435359Y-81153198D01*
X148855612Y-80979554D01*
X149177423Y-80658303D01*
X149351801Y-80238354D01*
X149351802Y-80236359D01*
X149605802Y-80236359D01*
X149779446Y-80656612D01*
X150100697Y-80978423D01*
X150520646Y-81152801D01*
X150975359Y-81153198D01*
X151395612Y-80979554D01*
X151717423Y-80658303D01*
X151891801Y-80238354D01*
X151892198Y-79783641D01*
X151718554Y-79363388D01*
X151397303Y-79041577D01*
X150977354Y-78867199D01*
X150522641Y-78866802D01*
X150102388Y-79040446D01*
X149780577Y-79361697D01*
X149606199Y-79781646D01*
X149605802Y-80236359D01*
X149351802Y-80236359D01*
X149352198Y-79783641D01*
X149178554Y-79363388D01*
X148857303Y-79041577D01*
X148437354Y-78867199D01*
X147982641Y-78866802D01*
X147562388Y-79040446D01*
X147240577Y-79361697D01*
X147066199Y-79781646D01*
X147065802Y-80236359D01*
X146798529Y-80236359D01*
X146825091Y-80156945D01*
X146793322Y-79703343D01*
X146680856Y-79431824D01*
X146464919Y-79393686D01*
X145848605Y-80010000D01*
X145489395Y-80010000D01*
X144873081Y-79393686D01*
X144657144Y-79431824D01*
X144512909Y-79863055D01*
X144284440Y-79863055D01*
X144284440Y-79502000D01*
X144240162Y-79266683D01*
X144206314Y-79214081D01*
X145052686Y-79214081D01*
X145669000Y-79830395D01*
X146285314Y-79214081D01*
X146247176Y-78998144D01*
X145815945Y-78853909D01*
X145362343Y-78885678D01*
X145090824Y-78998144D01*
X145052686Y-79214081D01*
X144206314Y-79214081D01*
X144101090Y-79050559D01*
X143888890Y-78905569D01*
X143637000Y-78854560D01*
X142621000Y-78854560D01*
X142385683Y-78898838D01*
X142169559Y-79037910D01*
X142024569Y-79250110D01*
X141973560Y-79502000D01*
X141351000Y-79502000D01*
X141351000Y-64210000D01*
X151944000Y-64210000D01*
X151944000Y-81541842D01*
G36*
X112649000Y-83438281D02*
X112649000Y-100890000D01*
X102310000Y-100890000D01*
X102310000Y-99060000D01*
X102349560Y-99060000D01*
X102349560Y-100076000D01*
X102393838Y-100311317D01*
X102532910Y-100527441D01*
X102745110Y-100672431D01*
X102997000Y-100723440D01*
X104013000Y-100723440D01*
X104248317Y-100679162D01*
X104464441Y-100540090D01*
X104584813Y-100363919D01*
X105428686Y-100363919D01*
X105466824Y-100579856D01*
X105898055Y-100724091D01*
X106351657Y-100692322D01*
X106623176Y-100579856D01*
X106661314Y-100363919D01*
X106045000Y-99747605D01*
X105428686Y-100363919D01*
X104584813Y-100363919D01*
X104609431Y-100327890D01*
X104660440Y-100076000D01*
X104660440Y-99421055D01*
X104888909Y-99421055D01*
X104920678Y-99874657D01*
X105033144Y-100146176D01*
X105249081Y-100184314D01*
X105865395Y-99568000D01*
X106224605Y-99568000D01*
X106840919Y-100184314D01*
X107056856Y-100146176D01*
X107174529Y-99794359D01*
X107441802Y-99794359D01*
X107615446Y-100214612D01*
X107936697Y-100536423D01*
X108356646Y-100710801D01*
X108811359Y-100711198D01*
X109231612Y-100537554D01*
X109553423Y-100216303D01*
X109727801Y-99796354D01*
X109727802Y-99794359D01*
X109981802Y-99794359D01*
X110155446Y-100214612D01*
X110476697Y-100536423D01*
X110896646Y-100710801D01*
X111351359Y-100711198D01*
X111771612Y-100537554D01*
X112093423Y-100216303D01*
X112267801Y-99796354D01*
X112268198Y-99341641D01*
X112094554Y-98921388D01*
X111773303Y-98599577D01*
X111353354Y-98425199D01*
X110898641Y-98424802D01*
X110478388Y-98598446D01*
X110156577Y-98919697D01*
X109982199Y-99339646D01*
X109981802Y-99794359D01*
X109727802Y-99794359D01*
X109728198Y-99341641D01*
X109554554Y-98921388D01*
X109233303Y-98599577D01*
X108813354Y-98425199D01*
X108358641Y-98424802D01*
X107938388Y-98598446D01*
X107616577Y-98919697D01*
X107442199Y-99339646D01*
X107441802Y-99794359D01*
X107174529Y-99794359D01*
X107201091Y-99714945D01*
X107169322Y-99261343D01*
X107056856Y-98989824D01*
X106840919Y-98951686D01*
X106224605Y-99568000D01*
X105865395Y-99568000D01*
X105249081Y-98951686D01*
X105033144Y-98989824D01*
X104888909Y-99421055D01*
X104660440Y-99421055D01*
X104660440Y-99060000D01*
X104616162Y-98824683D01*
X104582314Y-98772081D01*
X105428686Y-98772081D01*
X106045000Y-99388395D01*
X106661314Y-98772081D01*
X106623176Y-98556144D01*
X106191945Y-98411909D01*
X105738343Y-98443678D01*
X105466824Y-98556144D01*
X105428686Y-98772081D01*
X104582314Y-98772081D01*
X104477090Y-98608559D01*
X104264890Y-98463569D01*
X104013000Y-98412560D01*
X102997000Y-98412560D01*
X102761683Y-98456838D01*
X102545559Y-98595910D01*
X102400569Y-98808110D01*
X102349560Y-99060000D01*
X102310000Y-99060000D01*
X102310000Y-83379537D01*
X112649000Y-83438281D01*
X112649000Y-83438281D01*
G37*
X112649000Y-83438281D02*
X112649000Y-100890000D01*
X102310000Y-100890000D01*
X102310000Y-99060000D01*
X102349560Y-99060000D01*
X102349560Y-100076000D01*
X102393838Y-100311317D01*
X102532910Y-100527441D01*
X102745110Y-100672431D01*
X102997000Y-100723440D01*
X104013000Y-100723440D01*
X104248317Y-100679162D01*
X104464441Y-100540090D01*
X104584813Y-100363919D01*
X105428686Y-100363919D01*
X105466824Y-100579856D01*
X105898055Y-100724091D01*
X106351657Y-100692322D01*
X106623176Y-100579856D01*
X106661314Y-100363919D01*
X106045000Y-99747605D01*
X105428686Y-100363919D01*
X104584813Y-100363919D01*
X104609431Y-100327890D01*
X104660440Y-100076000D01*
X104660440Y-99421055D01*
X104888909Y-99421055D01*
X104920678Y-99874657D01*
X105033144Y-100146176D01*
X105249081Y-100184314D01*
X105865395Y-99568000D01*
X106224605Y-99568000D01*
X106840919Y-100184314D01*
X107056856Y-100146176D01*
X107174529Y-99794359D01*
X107441802Y-99794359D01*
X107615446Y-100214612D01*
X107936697Y-100536423D01*
X108356646Y-100710801D01*
X108811359Y-100711198D01*
X109231612Y-100537554D01*
X109553423Y-100216303D01*
X109727801Y-99796354D01*
X109727802Y-99794359D01*
X109981802Y-99794359D01*
X110155446Y-100214612D01*
X110476697Y-100536423D01*
X110896646Y-100710801D01*
X111351359Y-100711198D01*
X111771612Y-100537554D01*
X112093423Y-100216303D01*
X112267801Y-99796354D01*
X112268198Y-99341641D01*
X112094554Y-98921388D01*
X111773303Y-98599577D01*
X111353354Y-98425199D01*
X110898641Y-98424802D01*
X110478388Y-98598446D01*
X110156577Y-98919697D01*
X109982199Y-99339646D01*
X109981802Y-99794359D01*
X109727802Y-99794359D01*
X109728198Y-99341641D01*
X109554554Y-98921388D01*
X109233303Y-98599577D01*
X108813354Y-98425199D01*
X108358641Y-98424802D01*
X107938388Y-98598446D01*
X107616577Y-98919697D01*
X107442199Y-99339646D01*
X107441802Y-99794359D01*
X107174529Y-99794359D01*
X107201091Y-99714945D01*
X107169322Y-99261343D01*
X107056856Y-98989824D01*
X106840919Y-98951686D01*
X106224605Y-99568000D01*
X105865395Y-99568000D01*
X105249081Y-98951686D01*
X105033144Y-98989824D01*
X104888909Y-99421055D01*
X104660440Y-99421055D01*
X104660440Y-99060000D01*
X104616162Y-98824683D01*
X104582314Y-98772081D01*
X105428686Y-98772081D01*
X106045000Y-99388395D01*
X106661314Y-98772081D01*
X106623176Y-98556144D01*
X106191945Y-98411909D01*
X105738343Y-98443678D01*
X105466824Y-98556144D01*
X105428686Y-98772081D01*
X104582314Y-98772081D01*
X104477090Y-98608559D01*
X104264890Y-98463569D01*
X104013000Y-98412560D01*
X102997000Y-98412560D01*
X102761683Y-98456838D01*
X102545559Y-98595910D01*
X102400569Y-98808110D01*
X102349560Y-99060000D01*
X102310000Y-99060000D01*
X102310000Y-83379537D01*
X112649000Y-83438281D01*
G36*
X125857000Y-100890000D02*
X114935000Y-100890000D01*
X114935000Y-99060000D01*
X115557560Y-99060000D01*
X115557560Y-100076000D01*
X115601838Y-100311317D01*
X115740910Y-100527441D01*
X115953110Y-100672431D01*
X116205000Y-100723440D01*
X117221000Y-100723440D01*
X117456317Y-100679162D01*
X117672441Y-100540090D01*
X117792813Y-100363919D01*
X118636686Y-100363919D01*
X118674824Y-100579856D01*
X119106055Y-100724091D01*
X119559657Y-100692322D01*
X119831176Y-100579856D01*
X119869314Y-100363919D01*
X119253000Y-99747605D01*
X118636686Y-100363919D01*
X117792813Y-100363919D01*
X117817431Y-100327890D01*
X117868440Y-100076000D01*
X117868440Y-99421055D01*
X118096909Y-99421055D01*
X118128678Y-99874657D01*
X118241144Y-100146176D01*
X118457081Y-100184314D01*
X119073395Y-99568000D01*
X119432605Y-99568000D01*
X120048919Y-100184314D01*
X120264856Y-100146176D01*
X120382529Y-99794359D01*
X120649802Y-99794359D01*
X120823446Y-100214612D01*
X121144697Y-100536423D01*
X121564646Y-100710801D01*
X122019359Y-100711198D01*
X122439612Y-100537554D01*
X122761423Y-100216303D01*
X122935801Y-99796354D01*
X122935802Y-99794359D01*
X123189802Y-99794359D01*
X123363446Y-100214612D01*
X123684697Y-100536423D01*
X124104646Y-100710801D01*
X124559359Y-100711198D01*
X124979612Y-100537554D01*
X125301423Y-100216303D01*
X125475801Y-99796354D01*
X125476198Y-99341641D01*
X125302554Y-98921388D01*
X124981303Y-98599577D01*
X124561354Y-98425199D01*
X124106641Y-98424802D01*
X123686388Y-98598446D01*
X123364577Y-98919697D01*
X123190199Y-99339646D01*
X123189802Y-99794359D01*
X122935802Y-99794359D01*
X122936198Y-99341641D01*
X122762554Y-98921388D01*
X122441303Y-98599577D01*
X122021354Y-98425199D01*
X121566641Y-98424802D01*
X121146388Y-98598446D01*
X120824577Y-98919697D01*
X120650199Y-99339646D01*
X120649802Y-99794359D01*
X120382529Y-99794359D01*
X120409091Y-99714945D01*
X120377322Y-99261343D01*
X120264856Y-98989824D01*
X120048919Y-98951686D01*
X119432605Y-99568000D01*
X119073395Y-99568000D01*
X118457081Y-98951686D01*
X118241144Y-98989824D01*
X118096909Y-99421055D01*
X117868440Y-99421055D01*
X117868440Y-99060000D01*
X117824162Y-98824683D01*
X117790314Y-98772081D01*
X118636686Y-98772081D01*
X119253000Y-99388395D01*
X119869314Y-98772081D01*
X119831176Y-98556144D01*
X119399945Y-98411909D01*
X118946343Y-98443678D01*
X118674824Y-98556144D01*
X118636686Y-98772081D01*
X117790314Y-98772081D01*
X117685090Y-98608559D01*
X117472890Y-98463569D01*
X117221000Y-98412560D01*
X116205000Y-98412560D01*
X115969683Y-98456838D01*
X115753559Y-98595910D01*
X115608569Y-98808110D01*
X115557560Y-99060000D01*
X114935000Y-99060000D01*
X114935000Y-83439000D01*
X125857000Y-83439000D01*
X125857000Y-100890000D01*
X125857000Y-100890000D01*
G37*
X125857000Y-100890000D02*
X114935000Y-100890000D01*
X114935000Y-99060000D01*
X115557560Y-99060000D01*
X115557560Y-100076000D01*
X115601838Y-100311317D01*
X115740910Y-100527441D01*
X115953110Y-100672431D01*
X116205000Y-100723440D01*
X117221000Y-100723440D01*
X117456317Y-100679162D01*
X117672441Y-100540090D01*
X117792813Y-100363919D01*
X118636686Y-100363919D01*
X118674824Y-100579856D01*
X119106055Y-100724091D01*
X119559657Y-100692322D01*
X119831176Y-100579856D01*
X119869314Y-100363919D01*
X119253000Y-99747605D01*
X118636686Y-100363919D01*
X117792813Y-100363919D01*
X117817431Y-100327890D01*
X117868440Y-100076000D01*
X117868440Y-99421055D01*
X118096909Y-99421055D01*
X118128678Y-99874657D01*
X118241144Y-100146176D01*
X118457081Y-100184314D01*
X119073395Y-99568000D01*
X119432605Y-99568000D01*
X120048919Y-100184314D01*
X120264856Y-100146176D01*
X120382529Y-99794359D01*
X120649802Y-99794359D01*
X120823446Y-100214612D01*
X121144697Y-100536423D01*
X121564646Y-100710801D01*
X122019359Y-100711198D01*
X122439612Y-100537554D01*
X122761423Y-100216303D01*
X122935801Y-99796354D01*
X122935802Y-99794359D01*
X123189802Y-99794359D01*
X123363446Y-100214612D01*
X123684697Y-100536423D01*
X124104646Y-100710801D01*
X124559359Y-100711198D01*
X124979612Y-100537554D01*
X125301423Y-100216303D01*
X125475801Y-99796354D01*
X125476198Y-99341641D01*
X125302554Y-98921388D01*
X124981303Y-98599577D01*
X124561354Y-98425199D01*
X124106641Y-98424802D01*
X123686388Y-98598446D01*
X123364577Y-98919697D01*
X123190199Y-99339646D01*
X123189802Y-99794359D01*
X122935802Y-99794359D01*
X122936198Y-99341641D01*
X122762554Y-98921388D01*
X122441303Y-98599577D01*
X122021354Y-98425199D01*
X121566641Y-98424802D01*
X121146388Y-98598446D01*
X120824577Y-98919697D01*
X120650199Y-99339646D01*
X120649802Y-99794359D01*
X120382529Y-99794359D01*
X120409091Y-99714945D01*
X120377322Y-99261343D01*
X120264856Y-98989824D01*
X120048919Y-98951686D01*
X119432605Y-99568000D01*
X119073395Y-99568000D01*
X118457081Y-98951686D01*
X118241144Y-98989824D01*
X118096909Y-99421055D01*
X117868440Y-99421055D01*
X117868440Y-99060000D01*
X117824162Y-98824683D01*
X117790314Y-98772081D01*
X118636686Y-98772081D01*
X119253000Y-99388395D01*
X119869314Y-98772081D01*
X119831176Y-98556144D01*
X119399945Y-98411909D01*
X118946343Y-98443678D01*
X118674824Y-98556144D01*
X118636686Y-98772081D01*
X117790314Y-98772081D01*
X117685090Y-98608559D01*
X117472890Y-98463569D01*
X117221000Y-98412560D01*
X116205000Y-98412560D01*
X115969683Y-98456838D01*
X115753559Y-98595910D01*
X115608569Y-98808110D01*
X115557560Y-99060000D01*
X114935000Y-99060000D01*
X114935000Y-83439000D01*
X125857000Y-83439000D01*
X125857000Y-100890000D01*
G36*
X139065000Y-100890000D02*
X128397000Y-100890000D01*
X128397000Y-99060000D01*
X128765560Y-99060000D01*
X128765560Y-100076000D01*
X128809838Y-100311317D01*
X128948910Y-100527441D01*
X129161110Y-100672431D01*
X129413000Y-100723440D01*
X130429000Y-100723440D01*
X130664317Y-100679162D01*
X130880441Y-100540090D01*
X131000813Y-100363919D01*
X131844686Y-100363919D01*
X131882824Y-100579856D01*
X132314055Y-100724091D01*
X132767657Y-100692322D01*
X133039176Y-100579856D01*
X133077314Y-100363919D01*
X132461000Y-99747605D01*
X131844686Y-100363919D01*
X131000813Y-100363919D01*
X131025431Y-100327890D01*
X131076440Y-100076000D01*
X131076440Y-99421055D01*
X131304909Y-99421055D01*
X131336678Y-99874657D01*
X131449144Y-100146176D01*
X131665081Y-100184314D01*
X132281395Y-99568000D01*
X132640605Y-99568000D01*
X133256919Y-100184314D01*
X133472856Y-100146176D01*
X133590529Y-99794359D01*
X133857802Y-99794359D01*
X134031446Y-100214612D01*
X134352697Y-100536423D01*
X134772646Y-100710801D01*
X135227359Y-100711198D01*
X135647612Y-100537554D01*
X135969423Y-100216303D01*
X136143801Y-99796354D01*
X136143802Y-99794359D01*
X136397802Y-99794359D01*
X136571446Y-100214612D01*
X136892697Y-100536423D01*
X137312646Y-100710801D01*
X137767359Y-100711198D01*
X138187612Y-100537554D01*
X138509423Y-100216303D01*
X138683801Y-99796354D01*
X138684198Y-99341641D01*
X138510554Y-98921388D01*
X138189303Y-98599577D01*
X137769354Y-98425199D01*
X137314641Y-98424802D01*
X136894388Y-98598446D01*
X136572577Y-98919697D01*
X136398199Y-99339646D01*
X136397802Y-99794359D01*
X136143802Y-99794359D01*
X136144198Y-99341641D01*
X135970554Y-98921388D01*
X135649303Y-98599577D01*
X135229354Y-98425199D01*
X134774641Y-98424802D01*
X134354388Y-98598446D01*
X134032577Y-98919697D01*
X133858199Y-99339646D01*
X133857802Y-99794359D01*
X133590529Y-99794359D01*
X133617091Y-99714945D01*
X133585322Y-99261343D01*
X133472856Y-98989824D01*
X133256919Y-98951686D01*
X132640605Y-99568000D01*
X132281395Y-99568000D01*
X131665081Y-98951686D01*
X131449144Y-98989824D01*
X131304909Y-99421055D01*
X131076440Y-99421055D01*
X131076440Y-99060000D01*
X131032162Y-98824683D01*
X130998314Y-98772081D01*
X131844686Y-98772081D01*
X132461000Y-99388395D01*
X133077314Y-98772081D01*
X133039176Y-98556144D01*
X132607945Y-98411909D01*
X132154343Y-98443678D01*
X131882824Y-98556144D01*
X131844686Y-98772081D01*
X130998314Y-98772081D01*
X130893090Y-98608559D01*
X130680890Y-98463569D01*
X130429000Y-98412560D01*
X129413000Y-98412560D01*
X129177683Y-98456838D01*
X128961559Y-98595910D01*
X128816569Y-98808110D01*
X128765560Y-99060000D01*
X128397000Y-99060000D01*
X128397000Y-83439000D01*
X139065000Y-83439000D01*
X139065000Y-100890000D01*
X139065000Y-100890000D01*
G37*
X139065000Y-100890000D02*
X128397000Y-100890000D01*
X128397000Y-99060000D01*
X128765560Y-99060000D01*
X128765560Y-100076000D01*
X128809838Y-100311317D01*
X128948910Y-100527441D01*
X129161110Y-100672431D01*
X129413000Y-100723440D01*
X130429000Y-100723440D01*
X130664317Y-100679162D01*
X130880441Y-100540090D01*
X131000813Y-100363919D01*
X131844686Y-100363919D01*
X131882824Y-100579856D01*
X132314055Y-100724091D01*
X132767657Y-100692322D01*
X133039176Y-100579856D01*
X133077314Y-100363919D01*
X132461000Y-99747605D01*
X131844686Y-100363919D01*
X131000813Y-100363919D01*
X131025431Y-100327890D01*
X131076440Y-100076000D01*
X131076440Y-99421055D01*
X131304909Y-99421055D01*
X131336678Y-99874657D01*
X131449144Y-100146176D01*
X131665081Y-100184314D01*
X132281395Y-99568000D01*
X132640605Y-99568000D01*
X133256919Y-100184314D01*
X133472856Y-100146176D01*
X133590529Y-99794359D01*
X133857802Y-99794359D01*
X134031446Y-100214612D01*
X134352697Y-100536423D01*
X134772646Y-100710801D01*
X135227359Y-100711198D01*
X135647612Y-100537554D01*
X135969423Y-100216303D01*
X136143801Y-99796354D01*
X136143802Y-99794359D01*
X136397802Y-99794359D01*
X136571446Y-100214612D01*
X136892697Y-100536423D01*
X137312646Y-100710801D01*
X137767359Y-100711198D01*
X138187612Y-100537554D01*
X138509423Y-100216303D01*
X138683801Y-99796354D01*
X138684198Y-99341641D01*
X138510554Y-98921388D01*
X138189303Y-98599577D01*
X137769354Y-98425199D01*
X137314641Y-98424802D01*
X136894388Y-98598446D01*
X136572577Y-98919697D01*
X136398199Y-99339646D01*
X136397802Y-99794359D01*
X136143802Y-99794359D01*
X136144198Y-99341641D01*
X135970554Y-98921388D01*
X135649303Y-98599577D01*
X135229354Y-98425199D01*
X134774641Y-98424802D01*
X134354388Y-98598446D01*
X134032577Y-98919697D01*
X133858199Y-99339646D01*
X133857802Y-99794359D01*
X133590529Y-99794359D01*
X133617091Y-99714945D01*
X133585322Y-99261343D01*
X133472856Y-98989824D01*
X133256919Y-98951686D01*
X132640605Y-99568000D01*
X132281395Y-99568000D01*
X131665081Y-98951686D01*
X131449144Y-98989824D01*
X131304909Y-99421055D01*
X131076440Y-99421055D01*
X131076440Y-99060000D01*
X131032162Y-98824683D01*
X130998314Y-98772081D01*
X131844686Y-98772081D01*
X132461000Y-99388395D01*
X133077314Y-98772081D01*
X133039176Y-98556144D01*
X132607945Y-98411909D01*
X132154343Y-98443678D01*
X131882824Y-98556144D01*
X131844686Y-98772081D01*
X130998314Y-98772081D01*
X130893090Y-98608559D01*
X130680890Y-98463569D01*
X130429000Y-98412560D01*
X129413000Y-98412560D01*
X129177683Y-98456838D01*
X128961559Y-98595910D01*
X128816569Y-98808110D01*
X128765560Y-99060000D01*
X128397000Y-99060000D01*
X128397000Y-83439000D01*
X139065000Y-83439000D01*
X139065000Y-100890000D01*
G36*
X151944000Y-100890000D02*
X141351000Y-100890000D01*
X141351000Y-99060000D01*
X141973560Y-99060000D01*
X141973560Y-100076000D01*
X142017838Y-100311317D01*
X142156910Y-100527441D01*
X142369110Y-100672431D01*
X142621000Y-100723440D01*
X143637000Y-100723440D01*
X143872317Y-100679162D01*
X144088441Y-100540090D01*
X144208813Y-100363919D01*
X145052686Y-100363919D01*
X145090824Y-100579856D01*
X145522055Y-100724091D01*
X145975657Y-100692322D01*
X146247176Y-100579856D01*
X146285314Y-100363919D01*
X145669000Y-99747605D01*
X145052686Y-100363919D01*
X144208813Y-100363919D01*
X144233431Y-100327890D01*
X144284440Y-100076000D01*
X144284440Y-99421055D01*
X144512909Y-99421055D01*
X144544678Y-99874657D01*
X144657144Y-100146176D01*
X144873081Y-100184314D01*
X145489395Y-99568000D01*
X145848605Y-99568000D01*
X146464919Y-100184314D01*
X146680856Y-100146176D01*
X146798529Y-99794359D01*
X147065802Y-99794359D01*
X147239446Y-100214612D01*
X147560697Y-100536423D01*
X147980646Y-100710801D01*
X148435359Y-100711198D01*
X148855612Y-100537554D01*
X149177423Y-100216303D01*
X149351801Y-99796354D01*
X149351802Y-99794359D01*
X149605802Y-99794359D01*
X149779446Y-100214612D01*
X150100697Y-100536423D01*
X150520646Y-100710801D01*
X150975359Y-100711198D01*
X151395612Y-100537554D01*
X151717423Y-100216303D01*
X151891801Y-99796354D01*
X151892198Y-99341641D01*
X151718554Y-98921388D01*
X151397303Y-98599577D01*
X150977354Y-98425199D01*
X150522641Y-98424802D01*
X150102388Y-98598446D01*
X149780577Y-98919697D01*
X149606199Y-99339646D01*
X149605802Y-99794359D01*
X149351802Y-99794359D01*
X149352198Y-99341641D01*
X149178554Y-98921388D01*
X148857303Y-98599577D01*
X148437354Y-98425199D01*
X147982641Y-98424802D01*
X147562388Y-98598446D01*
X147240577Y-98919697D01*
X147066199Y-99339646D01*
X147065802Y-99794359D01*
X146798529Y-99794359D01*
X146825091Y-99714945D01*
X146793322Y-99261343D01*
X146680856Y-98989824D01*
X146464919Y-98951686D01*
X145848605Y-99568000D01*
X145489395Y-99568000D01*
X144873081Y-98951686D01*
X144657144Y-98989824D01*
X144512909Y-99421055D01*
X144284440Y-99421055D01*
X144284440Y-99060000D01*
X144240162Y-98824683D01*
X144206314Y-98772081D01*
X145052686Y-98772081D01*
X145669000Y-99388395D01*
X146285314Y-98772081D01*
X146247176Y-98556144D01*
X145815945Y-98411909D01*
X145362343Y-98443678D01*
X145090824Y-98556144D01*
X145052686Y-98772081D01*
X144206314Y-98772081D01*
X144101090Y-98608559D01*
X143888890Y-98463569D01*
X143637000Y-98412560D01*
X142621000Y-98412560D01*
X142385683Y-98456838D01*
X142169559Y-98595910D01*
X142024569Y-98808110D01*
X141973560Y-99060000D01*
X141351000Y-99060000D01*
X141351000Y-83439000D01*
X151944000Y-83439000D01*
X151944000Y-100890000D01*
X151944000Y-100890000D01*
G37*
X151944000Y-100890000D02*
X141351000Y-100890000D01*
X141351000Y-99060000D01*
X141973560Y-99060000D01*
X141973560Y-100076000D01*
X142017838Y-100311317D01*
X142156910Y-100527441D01*
X142369110Y-100672431D01*
X142621000Y-100723440D01*
X143637000Y-100723440D01*
X143872317Y-100679162D01*
X144088441Y-100540090D01*
X144208813Y-100363919D01*
X145052686Y-100363919D01*
X145090824Y-100579856D01*
X145522055Y-100724091D01*
X145975657Y-100692322D01*
X146247176Y-100579856D01*
X146285314Y-100363919D01*
X145669000Y-99747605D01*
X145052686Y-100363919D01*
X144208813Y-100363919D01*
X144233431Y-100327890D01*
X144284440Y-100076000D01*
X144284440Y-99421055D01*
X144512909Y-99421055D01*
X144544678Y-99874657D01*
X144657144Y-100146176D01*
X144873081Y-100184314D01*
X145489395Y-99568000D01*
X145848605Y-99568000D01*
X146464919Y-100184314D01*
X146680856Y-100146176D01*
X146798529Y-99794359D01*
X147065802Y-99794359D01*
X147239446Y-100214612D01*
X147560697Y-100536423D01*
X147980646Y-100710801D01*
X148435359Y-100711198D01*
X148855612Y-100537554D01*
X149177423Y-100216303D01*
X149351801Y-99796354D01*
X149351802Y-99794359D01*
X149605802Y-99794359D01*
X149779446Y-100214612D01*
X150100697Y-100536423D01*
X150520646Y-100710801D01*
X150975359Y-100711198D01*
X151395612Y-100537554D01*
X151717423Y-100216303D01*
X151891801Y-99796354D01*
X151892198Y-99341641D01*
X151718554Y-98921388D01*
X151397303Y-98599577D01*
X150977354Y-98425199D01*
X150522641Y-98424802D01*
X150102388Y-98598446D01*
X149780577Y-98919697D01*
X149606199Y-99339646D01*
X149605802Y-99794359D01*
X149351802Y-99794359D01*
X149352198Y-99341641D01*
X149178554Y-98921388D01*
X148857303Y-98599577D01*
X148437354Y-98425199D01*
X147982641Y-98424802D01*
X147562388Y-98598446D01*
X147240577Y-98919697D01*
X147066199Y-99339646D01*
X147065802Y-99794359D01*
X146798529Y-99794359D01*
X146825091Y-99714945D01*
X146793322Y-99261343D01*
X146680856Y-98989824D01*
X146464919Y-98951686D01*
X145848605Y-99568000D01*
X145489395Y-99568000D01*
X144873081Y-98951686D01*
X144657144Y-98989824D01*
X144512909Y-99421055D01*
X144284440Y-99421055D01*
X144284440Y-99060000D01*
X144240162Y-98824683D01*
X144206314Y-98772081D01*
X145052686Y-98772081D01*
X145669000Y-99388395D01*
X146285314Y-98772081D01*
X146247176Y-98556144D01*
X145815945Y-98411909D01*
X145362343Y-98443678D01*
X145090824Y-98556144D01*
X145052686Y-98772081D01*
X144206314Y-98772081D01*
X144101090Y-98608559D01*
X143888890Y-98463569D01*
X143637000Y-98412560D01*
X142621000Y-98412560D01*
X142385683Y-98456838D01*
X142169559Y-98595910D01*
X142024569Y-98808110D01*
X141973560Y-99060000D01*
X141351000Y-99060000D01*
X141351000Y-83439000D01*
X151944000Y-83439000D01*
X151944000Y-100890000D01*
M02*
