G04 #@! TF.FileFunction,Copper,L1,Top,Signal*
%FSLAX46Y46*%
G04 Gerber Fmt 4.6, Leading zero omitted, Abs format (unit mm)*
G04 Created by KiCad (PCBNEW 4.0.2-stable) date Tuesday, April 24, 2018 'PMt' 12:07:57 PM*
%MOMM*%
G01*
G04 APERTURE LIST*
%ADD10C,0.025400*%
%ADD11R,0.450000X0.590000*%
%ADD12R,3.150000X1.000000*%
%ADD13R,1.016000X1.016000*%
%ADD14C,1.016000*%
%ADD15R,0.750000X0.800000*%
%ADD16R,0.900000X0.500000*%
%ADD17R,1.450000X0.450000*%
%ADD18C,0.600000*%
%ADD19C,0.250000*%
G04 APERTURE END LIST*
D10*
D11*
X125095000Y-74713200D03*
X125095000Y-76823200D03*
D12*
X117998000Y-65532000D03*
X123048000Y-65532000D03*
X117998000Y-68072000D03*
X123048000Y-68072000D03*
D13*
X116713000Y-80010000D03*
D14*
X119253000Y-80010000D03*
X121793000Y-80010000D03*
X124333000Y-80010000D03*
X102539800Y-64439800D03*
X151714200Y-64566800D03*
X151688800Y-100863400D03*
D15*
X111760000Y-70878000D03*
X111760000Y-72378000D03*
X124968000Y-70878000D03*
X124968000Y-72378000D03*
X102743000Y-72378000D03*
X102743000Y-70878000D03*
X115951000Y-72378000D03*
X115951000Y-70878000D03*
X138176000Y-70878000D03*
X138176000Y-72378000D03*
X151384000Y-70878000D03*
X151384000Y-72378000D03*
X129159000Y-72378000D03*
X129159000Y-70878000D03*
X142367000Y-72378000D03*
X142367000Y-70878000D03*
X111760000Y-90436000D03*
X111760000Y-91936000D03*
X124968000Y-90436000D03*
X124968000Y-91936000D03*
X102743000Y-91936000D03*
X102743000Y-90436000D03*
X115951000Y-91936000D03*
X115951000Y-90436000D03*
X138176000Y-90436000D03*
X138176000Y-91936000D03*
X151384000Y-90436000D03*
X151384000Y-91936000D03*
X129159000Y-91936000D03*
X129159000Y-90436000D03*
X142367000Y-91936000D03*
X142367000Y-90436000D03*
D11*
X111760000Y-74713200D03*
X111760000Y-76823200D03*
X138430000Y-74713200D03*
X138430000Y-76823200D03*
X151638000Y-74713200D03*
X151638000Y-76823200D03*
X111760000Y-94271200D03*
X111760000Y-96381200D03*
X124968000Y-94271200D03*
X124968000Y-96381200D03*
X138303000Y-94271200D03*
X138303000Y-96381200D03*
X151638000Y-94271200D03*
X151638000Y-96381200D03*
D12*
X104790000Y-65532000D03*
X109840000Y-65532000D03*
X104790000Y-68072000D03*
X109840000Y-68072000D03*
D13*
X103505000Y-80010000D03*
D14*
X106045000Y-80010000D03*
X108585000Y-80010000D03*
X111125000Y-80010000D03*
D12*
X131206000Y-65532000D03*
X136256000Y-65532000D03*
X131206000Y-68072000D03*
X136256000Y-68072000D03*
X144414000Y-65532000D03*
X149464000Y-65532000D03*
X144414000Y-68072000D03*
X149464000Y-68072000D03*
D13*
X129921000Y-80010000D03*
D14*
X132461000Y-80010000D03*
X135001000Y-80010000D03*
X137541000Y-80010000D03*
D13*
X143129000Y-80010000D03*
D14*
X145669000Y-80010000D03*
X148209000Y-80010000D03*
X150749000Y-80010000D03*
D12*
X104790000Y-85090000D03*
X109840000Y-85090000D03*
X104790000Y-87630000D03*
X109840000Y-87630000D03*
X117998000Y-85090000D03*
X123048000Y-85090000D03*
X117998000Y-87630000D03*
X123048000Y-87630000D03*
D13*
X103505000Y-99568000D03*
D14*
X106045000Y-99568000D03*
X108585000Y-99568000D03*
X111125000Y-99568000D03*
D13*
X116713000Y-99568000D03*
D14*
X119253000Y-99568000D03*
X121793000Y-99568000D03*
X124333000Y-99568000D03*
D12*
X131206000Y-85090000D03*
X136256000Y-85090000D03*
X131206000Y-87630000D03*
X136256000Y-87630000D03*
X144414000Y-85090000D03*
X149464000Y-85090000D03*
X144414000Y-87630000D03*
X149464000Y-87630000D03*
D13*
X129921000Y-99568000D03*
D14*
X132461000Y-99568000D03*
X135001000Y-99568000D03*
X137541000Y-99568000D03*
D13*
X143129000Y-99568000D03*
D14*
X145669000Y-99568000D03*
X148209000Y-99568000D03*
X150749000Y-99568000D03*
D16*
X109982000Y-72378000D03*
X109982000Y-70878000D03*
X104648000Y-72378000D03*
X104648000Y-70878000D03*
X123190000Y-72378000D03*
X123190000Y-70878000D03*
X117856000Y-72378000D03*
X117856000Y-70878000D03*
X108204000Y-70878000D03*
X108204000Y-72378000D03*
X106426000Y-70878000D03*
X106426000Y-72378000D03*
X121412000Y-70878000D03*
X121412000Y-72378000D03*
X119634000Y-70878000D03*
X119634000Y-72378000D03*
X136398000Y-72378000D03*
X136398000Y-70878000D03*
X131064000Y-72378000D03*
X131064000Y-70878000D03*
X149606000Y-72378000D03*
X149606000Y-70878000D03*
X144272000Y-72378000D03*
X144272000Y-70878000D03*
X134620000Y-70878000D03*
X134620000Y-72378000D03*
X132842000Y-70878000D03*
X132842000Y-72378000D03*
X147828000Y-70878000D03*
X147828000Y-72378000D03*
X146050000Y-70878000D03*
X146050000Y-72378000D03*
X109982000Y-91936000D03*
X109982000Y-90436000D03*
X104648000Y-91936000D03*
X104648000Y-90436000D03*
X123190000Y-91936000D03*
X123190000Y-90436000D03*
X117856000Y-91936000D03*
X117856000Y-90436000D03*
X108204000Y-90436000D03*
X108204000Y-91936000D03*
X106426000Y-90436000D03*
X106426000Y-91936000D03*
X121412000Y-90436000D03*
X121412000Y-91936000D03*
X119634000Y-90436000D03*
X119634000Y-91936000D03*
X136398000Y-91936000D03*
X136398000Y-90436000D03*
X131064000Y-91936000D03*
X131064000Y-90436000D03*
X149606000Y-91936000D03*
X149606000Y-90436000D03*
X144272000Y-91936000D03*
X144272000Y-90436000D03*
X134620000Y-90436000D03*
X134620000Y-91936000D03*
X132842000Y-90436000D03*
X132842000Y-91936000D03*
X147828000Y-90436000D03*
X147828000Y-91936000D03*
X146050000Y-90436000D03*
X146050000Y-91936000D03*
D17*
X109706200Y-76743200D03*
X109706200Y-76093200D03*
X109706200Y-75443200D03*
X109706200Y-74793200D03*
X103806200Y-74793200D03*
X103806200Y-75443200D03*
X103806200Y-76093200D03*
X103806200Y-76743200D03*
X122914200Y-76743200D03*
X122914200Y-76093200D03*
X122914200Y-75443200D03*
X122914200Y-74793200D03*
X117014200Y-74793200D03*
X117014200Y-75443200D03*
X117014200Y-76093200D03*
X117014200Y-76743200D03*
X136122200Y-76743200D03*
X136122200Y-76093200D03*
X136122200Y-75443200D03*
X136122200Y-74793200D03*
X130222200Y-74793200D03*
X130222200Y-75443200D03*
X130222200Y-76093200D03*
X130222200Y-76743200D03*
X149330200Y-76743200D03*
X149330200Y-76093200D03*
X149330200Y-75443200D03*
X149330200Y-74793200D03*
X143430200Y-74793200D03*
X143430200Y-75443200D03*
X143430200Y-76093200D03*
X143430200Y-76743200D03*
X109706200Y-96301200D03*
X109706200Y-95651200D03*
X109706200Y-95001200D03*
X109706200Y-94351200D03*
X103806200Y-94351200D03*
X103806200Y-95001200D03*
X103806200Y-95651200D03*
X103806200Y-96301200D03*
X122914200Y-96301200D03*
X122914200Y-95651200D03*
X122914200Y-95001200D03*
X122914200Y-94351200D03*
X117014200Y-94351200D03*
X117014200Y-95001200D03*
X117014200Y-95651200D03*
X117014200Y-96301200D03*
X136122200Y-96301200D03*
X136122200Y-95651200D03*
X136122200Y-95001200D03*
X136122200Y-94351200D03*
X130222200Y-94351200D03*
X130222200Y-95001200D03*
X130222200Y-95651200D03*
X130222200Y-96301200D03*
X149330200Y-96301200D03*
X149330200Y-95651200D03*
X149330200Y-95001200D03*
X149330200Y-94351200D03*
X143430200Y-94351200D03*
X143430200Y-95001200D03*
X143430200Y-95651200D03*
X143430200Y-96301200D03*
D18*
X106476800Y-70119410D03*
X111734600Y-73177400D03*
X108407200Y-74879200D03*
X111760000Y-77470000D03*
X107188000Y-65532000D03*
X102743000Y-70104000D03*
X119634000Y-70104000D03*
X125095000Y-77596992D03*
X124968000Y-73215500D03*
X116014500Y-70040500D03*
X121412000Y-74803000D03*
X120586500Y-65532000D03*
X134883800Y-74793200D03*
X138475999Y-77551001D03*
X138176000Y-73279000D03*
X129159000Y-70104000D03*
X132842000Y-70167500D03*
X133731000Y-65532000D03*
X148082000Y-74803000D03*
X151574500Y-77597000D03*
X151384000Y-73215500D03*
X142367000Y-70040500D03*
X146050000Y-70040500D03*
X147066000Y-65532000D03*
X111760000Y-97155000D03*
X111760000Y-92773500D03*
X108531300Y-94351200D03*
X106426000Y-89598500D03*
X102743000Y-89598500D03*
X107315000Y-85090000D03*
X124968002Y-92773500D03*
X124968000Y-97091500D03*
X121666000Y-94361000D03*
X119634000Y-89598500D03*
X115951000Y-89598500D03*
X120586500Y-85090000D03*
X132869827Y-89588510D03*
X134883800Y-94351200D03*
X138303000Y-96964500D03*
X138176000Y-92710000D03*
X129159000Y-89471500D03*
X133667500Y-85026500D03*
X142367003Y-89598503D03*
X151574500Y-97091500D03*
X148082000Y-94361000D03*
X151384000Y-92773500D03*
X146050000Y-89535000D03*
X147002500Y-85090000D03*
D19*
X104648000Y-70969412D02*
X104648000Y-70878000D01*
X103708200Y-71909212D02*
X104648000Y-70969412D01*
X103708200Y-72744189D02*
X103708200Y-71909212D01*
X102304011Y-74148378D02*
X103708200Y-72744189D01*
X102304011Y-75566011D02*
X102304011Y-74148378D01*
X102831200Y-76093200D02*
X102304011Y-75566011D01*
X103806200Y-76093200D02*
X102831200Y-76093200D01*
X105531600Y-69494400D02*
X108178600Y-69494400D01*
X108178600Y-69494400D02*
X108204000Y-69519800D01*
X104648000Y-70878000D02*
X104648000Y-70378000D01*
X104648000Y-70378000D02*
X105531600Y-69494400D01*
X108204000Y-69519800D02*
X108204000Y-70378000D01*
X108204000Y-70378000D02*
X108204000Y-70878000D01*
X111760000Y-74637000D02*
X111760000Y-74244200D01*
X112496600Y-71639600D02*
X111760000Y-70903000D01*
X111760000Y-74244200D02*
X112496600Y-73507600D01*
X112496600Y-73507600D02*
X112496600Y-71639600D01*
X111760000Y-70903000D02*
X111760000Y-70878000D01*
X109728000Y-68846000D02*
X109728000Y-69443600D01*
X109728000Y-69443600D02*
X109778800Y-69494400D01*
X109778800Y-69494400D02*
X110401400Y-69494400D01*
X110401400Y-69494400D02*
X111760000Y-70853000D01*
X111760000Y-70853000D02*
X111760000Y-70878000D01*
X108204000Y-69494400D02*
X109626400Y-69494400D01*
X109626400Y-69494400D02*
X109728000Y-69392800D01*
X109728000Y-69392800D02*
X109728000Y-68846000D01*
X109728000Y-68072000D02*
X109728000Y-68846000D01*
X130222200Y-76093200D02*
X129350787Y-76093200D01*
X129350787Y-76093200D02*
X128722188Y-75464601D01*
X128722188Y-75464601D02*
X128722188Y-74121799D01*
X128722188Y-74121799D02*
X130111500Y-72732487D01*
X130111500Y-72732487D02*
X130111500Y-71921913D01*
X130111500Y-71921913D02*
X131064000Y-70969413D01*
X131064000Y-70969413D02*
X131064000Y-70878000D01*
X136271000Y-69532500D02*
X136906000Y-69532500D01*
X136906000Y-69532500D02*
X138176000Y-70802500D01*
X138176000Y-70802500D02*
X138176000Y-70878000D01*
X131909500Y-69532500D02*
X134683500Y-69532500D01*
X134683500Y-69532500D02*
X136271000Y-69532500D01*
X134620000Y-70878000D02*
X134620000Y-69596000D01*
X134620000Y-69596000D02*
X134683500Y-69532500D01*
X136256000Y-68822000D02*
X136271000Y-68837000D01*
X136271000Y-68837000D02*
X136271000Y-69532500D01*
X136256000Y-68072000D02*
X136256000Y-68822000D01*
X131064000Y-70878000D02*
X131064000Y-70378000D01*
X131064000Y-70378000D02*
X131909500Y-69532500D01*
X138430000Y-74713200D02*
X138430000Y-74168200D01*
X138430000Y-74168200D02*
X138876001Y-73722199D01*
X138876001Y-73722199D02*
X138876001Y-71603001D01*
X138876001Y-71603001D02*
X138176000Y-70903000D01*
X138176000Y-70903000D02*
X138176000Y-70878000D01*
X129159000Y-72378000D02*
X129159000Y-72238002D01*
X129159000Y-72238002D02*
X129984500Y-71412502D01*
X129984500Y-71412502D02*
X129984500Y-68453000D01*
X129984500Y-68453000D02*
X130365500Y-68072000D01*
X130365500Y-68072000D02*
X131206000Y-68072000D01*
X128272177Y-73935399D02*
X129159000Y-73048576D01*
X129159000Y-73048576D02*
X129159000Y-72378000D01*
X128272177Y-73935399D02*
X128272177Y-75651001D01*
X128272177Y-75651001D02*
X129364376Y-76743200D01*
X129364376Y-76743200D02*
X130222200Y-76743200D01*
X130222200Y-76743200D02*
X130222200Y-79708800D01*
X130222200Y-79708800D02*
X129921000Y-80010000D01*
X143430200Y-76093200D02*
X142455200Y-76093200D01*
X141930188Y-75568188D02*
X141930188Y-74121799D01*
X142455200Y-76093200D02*
X141930188Y-75568188D01*
X141930188Y-74121799D02*
X143496999Y-72554988D01*
X143496999Y-72554988D02*
X143496999Y-71867999D01*
X143496999Y-71867999D02*
X144272000Y-71092998D01*
X144272000Y-71092998D02*
X144272000Y-70878000D01*
X147828000Y-70878000D02*
X147828000Y-69405500D01*
X147828000Y-69405500D02*
X147891500Y-69342000D01*
X149464000Y-68072000D02*
X149464000Y-69293500D01*
X149464000Y-69293500D02*
X149415500Y-69342000D01*
X149415500Y-69342000D02*
X149923500Y-69342000D01*
X149923500Y-69342000D02*
X151384000Y-70802500D01*
X151384000Y-70802500D02*
X151384000Y-70878000D01*
X145308000Y-69342000D02*
X147891500Y-69342000D01*
X147891500Y-69342000D02*
X149415500Y-69342000D01*
X144272000Y-70878000D02*
X144272000Y-70378000D01*
X144272000Y-70378000D02*
X145308000Y-69342000D01*
X151638000Y-74713200D02*
X151638000Y-74168200D01*
X151638000Y-74168200D02*
X152084001Y-73722199D01*
X152084001Y-73722199D02*
X152084001Y-71603001D01*
X152084001Y-71603001D02*
X151384000Y-70903000D01*
X151384000Y-70903000D02*
X151384000Y-70878000D01*
X142367000Y-72378000D02*
X142367000Y-72326500D01*
X142367000Y-72326500D02*
X143192500Y-71501000D01*
X143192500Y-71501000D02*
X143192500Y-68516500D01*
X143192500Y-68516500D02*
X143637000Y-68072000D01*
X143637000Y-68072000D02*
X144414000Y-68072000D01*
X141480177Y-75768177D02*
X141480177Y-73914823D01*
X141480177Y-73914823D02*
X142367000Y-73028000D01*
X142367000Y-73028000D02*
X142367000Y-72378000D01*
X142455200Y-76743200D02*
X143430200Y-76743200D01*
X141480177Y-75768177D02*
X142455200Y-76743200D01*
X143430200Y-76743200D02*
X143430200Y-79708800D01*
X143430200Y-79708800D02*
X143129000Y-80010000D01*
X129927386Y-73553012D02*
X131064000Y-73553012D01*
X130222200Y-75443200D02*
X129337198Y-75443200D01*
X129172199Y-74308199D02*
X129927386Y-73553012D01*
X129337198Y-75443200D02*
X129172199Y-75278201D01*
X129172199Y-75278201D02*
X129172199Y-74308199D01*
X131064000Y-73553012D02*
X132313988Y-73553012D01*
X131064000Y-72378000D02*
X131064000Y-72878000D01*
X131064000Y-72878000D02*
X131064000Y-73553012D01*
X132313988Y-73553012D02*
X132842000Y-73025000D01*
X132842000Y-73025000D02*
X132842000Y-72378000D01*
X102743000Y-72378000D02*
X102743000Y-72238002D01*
X102743000Y-72238002D02*
X103632000Y-71349002D01*
X103632000Y-71349002D02*
X103632000Y-68453000D01*
X104013000Y-68072000D02*
X104790000Y-68072000D01*
X103632000Y-68453000D02*
X104013000Y-68072000D01*
X102778200Y-76743200D02*
X101854000Y-75819000D01*
X101854000Y-73917000D02*
X102743000Y-73028000D01*
X101854000Y-75819000D02*
X101854000Y-73917000D01*
X103806200Y-76743200D02*
X102778200Y-76743200D01*
X102743000Y-73028000D02*
X102743000Y-72378000D01*
X103806200Y-76743200D02*
X103505000Y-77044400D01*
X103505000Y-77044400D02*
X103505000Y-79756000D01*
X103505000Y-79756000D02*
X103759000Y-80010000D01*
X102743000Y-72403000D02*
X102743000Y-72378000D01*
X115951000Y-72378000D02*
X115951000Y-72238002D01*
X115951000Y-72238002D02*
X116713000Y-71476002D01*
X116713000Y-71476002D02*
X116713000Y-68326000D01*
X116713000Y-68326000D02*
X116967000Y-68072000D01*
X116967000Y-68072000D02*
X117998000Y-68072000D01*
X115062000Y-75766000D02*
X115062000Y-73917000D01*
X115062000Y-73917000D02*
X115951000Y-73028000D01*
X115951000Y-73028000D02*
X115951000Y-72378000D01*
X117014200Y-76743200D02*
X117014200Y-79708800D01*
X117014200Y-79708800D02*
X116713000Y-80010000D01*
X117014200Y-76743200D02*
X116039200Y-76743200D01*
X116039200Y-76743200D02*
X115062000Y-75766000D01*
X109753400Y-75438000D02*
X108849602Y-75438000D01*
X108610400Y-77241400D02*
X110871001Y-79502001D01*
X108849602Y-75438000D02*
X108610400Y-75677202D01*
X108610400Y-75677202D02*
X108610400Y-77241400D01*
X110871001Y-79502001D02*
X111379000Y-80010000D01*
X117014200Y-74793200D02*
X117989200Y-74793200D01*
X117989200Y-74793200D02*
X121793000Y-78597000D01*
X121793000Y-78597000D02*
X121793000Y-79291580D01*
X121793000Y-79291580D02*
X121793000Y-80010000D01*
X122914200Y-75443200D02*
X121939200Y-75443200D01*
X121939200Y-75443200D02*
X121864199Y-75518201D01*
X121864199Y-75518201D02*
X121864199Y-77541199D01*
X121864199Y-77541199D02*
X123825001Y-79502001D01*
X123825001Y-79502001D02*
X124333000Y-80010000D01*
X143430200Y-74793200D02*
X144405200Y-74793200D01*
X144405200Y-74793200D02*
X148209000Y-78597000D01*
X148209000Y-78597000D02*
X148209000Y-79291580D01*
X148209000Y-79291580D02*
X148209000Y-80010000D01*
X150495000Y-79756000D02*
X150749000Y-80010000D01*
X149330200Y-75443200D02*
X148355200Y-75443200D01*
X148355200Y-75443200D02*
X148280199Y-75518201D01*
X148280199Y-75518201D02*
X148280199Y-77541199D01*
X148280199Y-77541199D02*
X150495000Y-79756000D01*
X150830210Y-76218190D02*
X150830210Y-74121798D01*
X150381001Y-73672589D02*
X150381001Y-71453001D01*
X149330200Y-76743200D02*
X150305200Y-76743200D01*
X150305200Y-76743200D02*
X150830210Y-76218190D01*
X150381001Y-71453001D02*
X149806000Y-70878000D01*
X150830210Y-74121798D02*
X150381001Y-73672589D01*
X149806000Y-70878000D02*
X149606000Y-70878000D01*
X136398000Y-72378000D02*
X136398000Y-72878000D01*
X136398000Y-72878000D02*
X136333502Y-72942498D01*
X136333502Y-72942498D02*
X136333502Y-73469500D01*
X135191500Y-73469500D02*
X134620000Y-72898000D01*
X134620000Y-72898000D02*
X134620000Y-72378000D01*
X136333502Y-73469500D02*
X135191500Y-73469500D01*
X136122200Y-76093200D02*
X137097200Y-76093200D01*
X137097200Y-76093200D02*
X137172201Y-76018199D01*
X137172201Y-76018199D02*
X137172201Y-74308199D01*
X137172201Y-74308199D02*
X136333502Y-73469500D01*
X106426000Y-70170210D02*
X106476800Y-70119410D01*
X106426000Y-70878000D02*
X106426000Y-70170210D01*
X111760000Y-72378000D02*
X111760000Y-73152000D01*
X111760000Y-73152000D02*
X111734600Y-73177400D01*
X108959800Y-74879200D02*
X108831464Y-74879200D01*
X108995000Y-74844000D02*
X108959800Y-74879200D01*
X108831464Y-74879200D02*
X108407200Y-74879200D01*
X111760000Y-76747000D02*
X111760000Y-77470000D01*
X107188000Y-65532000D02*
X109728000Y-65532000D01*
X104678000Y-65532000D02*
X107188000Y-65532000D01*
X102743000Y-70228000D02*
X102743000Y-70104000D01*
X102743000Y-70878000D02*
X102743000Y-70228000D01*
X108839000Y-80010000D02*
X108585000Y-79756000D01*
X108585000Y-79756000D02*
X108585000Y-78155800D01*
X108585000Y-78155800D02*
X105222400Y-74793200D01*
X105222400Y-74793200D02*
X103806200Y-74793200D01*
X109706200Y-76093200D02*
X110681200Y-76093200D01*
X110681200Y-76093200D02*
X110759988Y-76014412D01*
X110759988Y-76014412D02*
X110759988Y-73955388D01*
X110759988Y-73955388D02*
X110032800Y-73228200D01*
X110032800Y-73228200D02*
X109982000Y-73177400D01*
X109982000Y-73177400D02*
X109982000Y-72378000D01*
X108204000Y-72878000D02*
X108204000Y-72378000D01*
X110032800Y-73228200D02*
X108554200Y-73228200D01*
X108554200Y-73228200D02*
X108204000Y-72878000D01*
X109982000Y-72378000D02*
X110083600Y-72479600D01*
X109706200Y-76743200D02*
X110681200Y-76743200D01*
X110921800Y-73480789D02*
X110921800Y-71617800D01*
X110681200Y-76743200D02*
X111209999Y-76214401D01*
X111209999Y-76214401D02*
X111209999Y-73768988D01*
X111209999Y-73768988D02*
X110921800Y-73480789D01*
X110921800Y-71617800D02*
X110182000Y-70878000D01*
X110182000Y-70878000D02*
X109982000Y-70878000D01*
X102754022Y-74334778D02*
X103784400Y-73304400D01*
X102754022Y-75366022D02*
X102754022Y-74334778D01*
X102831200Y-75443200D02*
X102754022Y-75366022D01*
X103806200Y-75443200D02*
X102831200Y-75443200D01*
X103784400Y-73304400D02*
X104648000Y-73304400D01*
X104648000Y-73304400D02*
X106070400Y-73304400D01*
X104648000Y-72378000D02*
X104648000Y-73304400D01*
X106070400Y-73304400D02*
X106426000Y-72948800D01*
X106426000Y-72948800D02*
X106426000Y-72378000D01*
X123964201Y-75928201D02*
X123964201Y-74308199D01*
X123899201Y-74242201D02*
X123190000Y-73533000D01*
X122914200Y-76093200D02*
X123014199Y-75993201D01*
X123014199Y-75993201D02*
X123899201Y-75993201D01*
X123899201Y-75993201D02*
X123964201Y-75928201D01*
X123899201Y-74243199D02*
X123899201Y-74242201D01*
X123964201Y-74308199D02*
X123899201Y-74243199D01*
X123190000Y-73533000D02*
X123190000Y-73215500D01*
X121729500Y-73215500D02*
X121412000Y-72898000D01*
X121412000Y-72898000D02*
X121412000Y-72378000D01*
X123190000Y-73215500D02*
X121729500Y-73215500D01*
X123190000Y-73215500D02*
X123190000Y-72378000D01*
X123390000Y-70878000D02*
X123190000Y-70878000D01*
X123965001Y-71453001D02*
X123390000Y-70878000D01*
X124414210Y-76218190D02*
X124414210Y-74120800D01*
X123889200Y-76743200D02*
X124414210Y-76218190D01*
X122914200Y-76743200D02*
X123889200Y-76743200D01*
X123965001Y-73671591D02*
X123965001Y-71453001D01*
X124414210Y-74120800D02*
X123965001Y-73671591D01*
X117856000Y-73215500D02*
X119316500Y-73215500D01*
X117056898Y-73215500D02*
X117856000Y-73215500D01*
X117856000Y-73215500D02*
X117856000Y-72378000D01*
X119634000Y-72898000D02*
X119634000Y-72378000D01*
X119316500Y-73215500D02*
X119634000Y-72898000D01*
X116039200Y-75443200D02*
X115964199Y-75368199D01*
X115964199Y-74308199D02*
X117056898Y-73215500D01*
X117014200Y-75443200D02*
X116039200Y-75443200D01*
X115964199Y-75368199D02*
X115964199Y-74308199D01*
X137287000Y-73786588D02*
X137287000Y-71567000D01*
X137287000Y-71567000D02*
X136598000Y-70878000D01*
X136598000Y-70878000D02*
X136398000Y-70878000D01*
X136122200Y-76743200D02*
X137097200Y-76743200D01*
X137097200Y-76743200D02*
X137622210Y-76218190D01*
X137622210Y-76218190D02*
X137622210Y-74121798D01*
X137622210Y-74121798D02*
X137287000Y-73786588D01*
X149330200Y-76093200D02*
X149350400Y-76073000D01*
X149350400Y-76073000D02*
X150235402Y-76073000D01*
X150235402Y-76073000D02*
X150380201Y-75928201D01*
X150380201Y-75928201D02*
X150380201Y-74308199D01*
X150380201Y-74308199D02*
X149923500Y-73851498D01*
X149923500Y-73851498D02*
X149923500Y-73850500D01*
X149923500Y-73850500D02*
X149606000Y-73533000D01*
X149606000Y-73533000D02*
X149606000Y-73215500D01*
X149606000Y-72378000D02*
X149606000Y-72878000D01*
X149606000Y-72878000D02*
X149606000Y-73215500D01*
X149606000Y-73215500D02*
X148018500Y-73215500D01*
X148018500Y-73215500D02*
X147828000Y-73025000D01*
X147828000Y-73025000D02*
X147828000Y-72378000D01*
X143409398Y-73279000D02*
X144272000Y-73279000D01*
X144272000Y-73279000D02*
X145796000Y-73279000D01*
X144272000Y-72378000D02*
X144272000Y-73279000D01*
X145796000Y-73279000D02*
X146050000Y-73025000D01*
X146050000Y-73025000D02*
X146050000Y-72378000D01*
X142380199Y-74308199D02*
X143409398Y-73279000D01*
X142455200Y-75443200D02*
X142380199Y-75368199D01*
X143430200Y-75443200D02*
X142455200Y-75443200D01*
X142380199Y-75368199D02*
X142380199Y-74308199D01*
X109706200Y-95651200D02*
X109806199Y-95551201D01*
X109806199Y-95551201D02*
X110691201Y-95551201D01*
X110691201Y-95551201D02*
X110756201Y-95486201D01*
X110756201Y-95486201D02*
X110756201Y-93866199D01*
X110756201Y-93866199D02*
X109982000Y-93091998D01*
X109982000Y-93027500D02*
X109982000Y-92837000D01*
X109982000Y-93091998D02*
X109982000Y-93027500D01*
X109982000Y-91936000D02*
X109982000Y-92436000D01*
X109982000Y-92436000D02*
X109982000Y-92837000D01*
X108521500Y-92837000D02*
X108204000Y-92519500D01*
X108204000Y-92519500D02*
X108204000Y-91936000D01*
X109982000Y-92837000D02*
X108521500Y-92837000D01*
X111206210Y-93679798D02*
X110757001Y-93230589D01*
X109706200Y-96301200D02*
X110681200Y-96301200D01*
X110681200Y-96301200D02*
X111206210Y-95776190D01*
X111206210Y-95776190D02*
X111206210Y-93679798D01*
X110757001Y-93230589D02*
X110757001Y-91011001D01*
X110757001Y-91011001D02*
X110182000Y-90436000D01*
X110182000Y-90436000D02*
X109982000Y-90436000D01*
X102756199Y-93866199D02*
X103721898Y-92900500D01*
X103721898Y-92900500D02*
X104648000Y-92900500D01*
X102756199Y-94753789D02*
X102756199Y-93866199D01*
X103806200Y-95001200D02*
X103003610Y-95001200D01*
X103003610Y-95001200D02*
X102756199Y-94753789D01*
X104648000Y-92900500D02*
X106045000Y-92900500D01*
X104648000Y-91936000D02*
X104648000Y-92436000D01*
X104648000Y-92436000D02*
X104648000Y-92900500D01*
X106045000Y-92900500D02*
X106426000Y-92519500D01*
X106426000Y-92519500D02*
X106426000Y-91936000D01*
X123190000Y-91936000D02*
X123190000Y-92436000D01*
X123190000Y-92436000D02*
X123189002Y-92436998D01*
X123189002Y-92436998D02*
X123189002Y-93091000D01*
X122914200Y-95651200D02*
X123889200Y-95651200D01*
X121412000Y-92710000D02*
X121412000Y-91936000D01*
X123889200Y-95651200D02*
X123964201Y-95576199D01*
X123964201Y-95576199D02*
X123964201Y-93866199D01*
X123964201Y-93866199D02*
X123189002Y-93091000D01*
X123189002Y-93091000D02*
X121793000Y-93091000D01*
X121793000Y-93091000D02*
X121412000Y-92710000D01*
X122914200Y-96301200D02*
X123889200Y-96301200D01*
X123889200Y-96301200D02*
X124417999Y-95772401D01*
X124417999Y-95772401D02*
X124417999Y-93429999D01*
X124417999Y-93429999D02*
X123965001Y-92977001D01*
X123965001Y-92977001D02*
X123965001Y-91011001D01*
X123965001Y-91011001D02*
X123390000Y-90436000D01*
X123390000Y-90436000D02*
X123190000Y-90436000D01*
X116692987Y-93111012D02*
X117856000Y-93111012D01*
X115964199Y-93839800D02*
X116692987Y-93111012D01*
X115964199Y-94926199D02*
X115964199Y-93839800D01*
X116039200Y-95001200D02*
X115964199Y-94926199D01*
X117014200Y-95001200D02*
X116039200Y-95001200D01*
X117856000Y-93111012D02*
X119169488Y-93111012D01*
X117856000Y-91936000D02*
X117856000Y-92436000D01*
X117856000Y-92436000D02*
X117856000Y-93111012D01*
X119169488Y-93111012D02*
X119634000Y-92646500D01*
X119634000Y-92646500D02*
X119634000Y-91936000D01*
X137287000Y-95312090D02*
X137287000Y-93980997D01*
X136398000Y-93091997D02*
X136398000Y-92837000D01*
X136122200Y-95651200D02*
X136947890Y-95651200D01*
X136947890Y-95651200D02*
X137287000Y-95312090D01*
X137287000Y-93980997D02*
X136398000Y-93091997D01*
X136398000Y-92436000D02*
X136398000Y-92837000D01*
X136398000Y-92837000D02*
X134874000Y-92837000D01*
X136398000Y-91936000D02*
X136398000Y-92436000D01*
X134874000Y-92837000D02*
X134620000Y-92583000D01*
X134620000Y-92583000D02*
X134620000Y-91936000D01*
X136598000Y-90436000D02*
X136398000Y-90436000D01*
X137173001Y-91011001D02*
X136598000Y-90436000D01*
X137737011Y-95661389D02*
X137737011Y-93794597D01*
X137097200Y-96301200D02*
X137737011Y-95661389D01*
X136122200Y-96301200D02*
X137097200Y-96301200D01*
X137737011Y-93794597D02*
X137173001Y-93230588D01*
X137173001Y-93230588D02*
X137173001Y-91011001D01*
X130074398Y-92964000D02*
X131064000Y-92964000D01*
X131064000Y-91936000D02*
X131064000Y-92964000D01*
X131064000Y-92964000D02*
X132588000Y-92964000D01*
X132588000Y-92964000D02*
X132842000Y-92710000D01*
X132842000Y-92710000D02*
X132842000Y-91936000D01*
X130222200Y-95001200D02*
X129247200Y-95001200D01*
X129172199Y-94926199D02*
X129172199Y-93866199D01*
X129247200Y-95001200D02*
X129172199Y-94926199D01*
X129172199Y-93866199D02*
X130074398Y-92964000D01*
X149330200Y-95651200D02*
X149430199Y-95551201D01*
X149430199Y-95551201D02*
X150315201Y-95551201D01*
X150315201Y-95551201D02*
X150380201Y-95486201D01*
X150380201Y-95486201D02*
X150380201Y-93866199D01*
X149669500Y-93155498D02*
X149669500Y-92773500D01*
X150380201Y-93866199D02*
X149669500Y-93155498D01*
X149606000Y-91936000D02*
X149606000Y-92710000D01*
X149606000Y-92710000D02*
X149669500Y-92773500D01*
X147955000Y-92773500D02*
X147828000Y-92646500D01*
X147828000Y-92646500D02*
X147828000Y-91936000D01*
X149669500Y-92773500D02*
X147955000Y-92773500D01*
X149330200Y-96301200D02*
X150305200Y-96301200D01*
X150381001Y-93230589D02*
X150381001Y-91011001D01*
X150830210Y-95776190D02*
X150830210Y-93679798D01*
X150305200Y-96301200D02*
X150830210Y-95776190D01*
X150830210Y-93679798D02*
X150381001Y-93230589D01*
X150381001Y-91011001D02*
X149806000Y-90436000D01*
X149806000Y-90436000D02*
X149606000Y-90436000D01*
X142380199Y-93866199D02*
X143345898Y-92900500D01*
X143430200Y-95001200D02*
X142545198Y-95001200D01*
X142380199Y-94836201D02*
X142380199Y-93866199D01*
X143345898Y-92900500D02*
X144272000Y-92900500D01*
X142545198Y-95001200D02*
X142380199Y-94836201D01*
X144272000Y-92900500D02*
X145732500Y-92900500D01*
X144272000Y-91936000D02*
X144272000Y-92436000D01*
X144272000Y-92436000D02*
X144272000Y-92900500D01*
X145732500Y-92900500D02*
X146050000Y-92583000D01*
X146050000Y-92583000D02*
X146050000Y-91936000D01*
X119634000Y-70878000D02*
X119634000Y-70104000D01*
X124968000Y-73215500D02*
X124968000Y-72378000D01*
X125095000Y-76913000D02*
X125095000Y-77596992D01*
X124841000Y-72378000D02*
X124968000Y-72505000D01*
X116014500Y-70464764D02*
X116014500Y-70040500D01*
X116014500Y-70802500D02*
X116014500Y-70464764D01*
X115951000Y-70866000D02*
X116014500Y-70802500D01*
X115951000Y-70104000D02*
X116014500Y-70040500D01*
X121929400Y-74803000D02*
X121412000Y-74803000D01*
X122914200Y-74793200D02*
X121939200Y-74793200D01*
X121939200Y-74793200D02*
X121929400Y-74803000D01*
X120586500Y-65532000D02*
X123048000Y-65532000D01*
X117998000Y-65532000D02*
X120586500Y-65532000D01*
X136122200Y-74793200D02*
X134883800Y-74793200D01*
X138430000Y-76823200D02*
X138430000Y-77505002D01*
X138430000Y-77505002D02*
X138475999Y-77551001D01*
X138176000Y-73028000D02*
X138176000Y-73279000D01*
X138176000Y-72378000D02*
X138176000Y-73028000D01*
X129159000Y-70878000D02*
X129159000Y-70104000D01*
X132842000Y-70378000D02*
X132842000Y-70167500D01*
X132842000Y-70878000D02*
X132842000Y-70378000D01*
X133731000Y-65532000D02*
X136256000Y-65532000D01*
X131206000Y-65532000D02*
X133731000Y-65532000D01*
X148345400Y-74803000D02*
X148082000Y-74803000D01*
X149330200Y-74793200D02*
X148355200Y-74793200D01*
X148355200Y-74793200D02*
X148345400Y-74803000D01*
X151574500Y-77597000D02*
X151574500Y-76886700D01*
X151574500Y-76886700D02*
X151638000Y-76823200D01*
X151384000Y-73028000D02*
X151384000Y-73215500D01*
X151384000Y-72378000D02*
X151384000Y-73028000D01*
X142367000Y-70878000D02*
X142367000Y-70040500D01*
X146050000Y-70378000D02*
X146050000Y-70040500D01*
X146050000Y-70878000D02*
X146050000Y-70378000D01*
X147066000Y-65532000D02*
X149464000Y-65532000D01*
X144414000Y-65532000D02*
X147066000Y-65532000D01*
X111823500Y-96329500D02*
X111760000Y-96393000D01*
X111760000Y-96393000D02*
X111760000Y-96730736D01*
X111760000Y-96730736D02*
X111760000Y-97155000D01*
X111875000Y-97155000D02*
X111760000Y-97155000D01*
X111760000Y-91936000D02*
X111760000Y-92773500D01*
X109706200Y-94351200D02*
X108531300Y-94351200D01*
X106426000Y-90436000D02*
X106426000Y-89598500D01*
X102743000Y-90436000D02*
X102743000Y-89598500D01*
X109840000Y-85090000D02*
X107315000Y-85090000D01*
X106615000Y-85090000D02*
X107315000Y-85090000D01*
X104790000Y-85090000D02*
X106615000Y-85090000D01*
X124968000Y-91936000D02*
X124968000Y-92773498D01*
X124968000Y-92773498D02*
X124968002Y-92773500D01*
X124968000Y-96381200D02*
X124968000Y-97091500D01*
X121666000Y-94361000D02*
X122904400Y-94361000D01*
X122904400Y-94361000D02*
X122914200Y-94351200D01*
X119634000Y-90436000D02*
X119634000Y-89598500D01*
X115951000Y-89786000D02*
X115951000Y-89598500D01*
X115951000Y-90436000D02*
X115951000Y-89786000D01*
X120586500Y-85090000D02*
X123048000Y-85090000D01*
X117998000Y-85090000D02*
X120586500Y-85090000D01*
X132842000Y-89616337D02*
X132869827Y-89588510D01*
X132842000Y-90436000D02*
X132842000Y-89616337D01*
X136122200Y-94351200D02*
X134883800Y-94351200D01*
X138303000Y-96381200D02*
X138303000Y-96964500D01*
X138176000Y-91936000D02*
X138176000Y-92710000D01*
X129159000Y-90436000D02*
X129159000Y-89471500D01*
X136256000Y-85090000D02*
X133731000Y-85090000D01*
X133731000Y-85090000D02*
X133667500Y-85026500D01*
X133031000Y-85090000D02*
X133604000Y-85090000D01*
X133604000Y-85090000D02*
X133667500Y-85026500D01*
X131206000Y-85090000D02*
X133031000Y-85090000D01*
X142367000Y-89598506D02*
X142367003Y-89598503D01*
X142367000Y-90436000D02*
X142367000Y-89598506D01*
X151638000Y-96381200D02*
X151638000Y-97028000D01*
X151638000Y-97028000D02*
X151574500Y-97091500D01*
X148301500Y-94297500D02*
X148145500Y-94297500D01*
X148145500Y-94297500D02*
X148082000Y-94361000D01*
X149330200Y-94351200D02*
X148355200Y-94351200D01*
X148355200Y-94351200D02*
X148301500Y-94297500D01*
X151384000Y-91936000D02*
X151384000Y-92773500D01*
X146050000Y-90436000D02*
X146050000Y-89535000D01*
X149464000Y-85090000D02*
X147002500Y-85090000D01*
X144414000Y-85090000D02*
X147002500Y-85090000D01*
X130222200Y-74793200D02*
X131197200Y-74793200D01*
X131197200Y-74793200D02*
X135001000Y-78597000D01*
X135001000Y-78597000D02*
X135001000Y-79291580D01*
X135001000Y-79291580D02*
X135001000Y-80010000D01*
X136122200Y-75443200D02*
X135147200Y-75443200D01*
X135147200Y-75443200D02*
X135072199Y-75518201D01*
X135072199Y-75518201D02*
X135072199Y-77541199D01*
X135072199Y-77541199D02*
X137033001Y-79502001D01*
X137033001Y-79502001D02*
X137541000Y-80010000D01*
X103806200Y-94351200D02*
X104781200Y-94351200D01*
X104781200Y-94351200D02*
X108585000Y-98155000D01*
X108585000Y-98155000D02*
X108585000Y-98849580D01*
X108585000Y-98849580D02*
X108585000Y-99568000D01*
X109706200Y-95001200D02*
X108731200Y-95001200D01*
X108656199Y-97099199D02*
X110617001Y-99060001D01*
X108731200Y-95001200D02*
X108656199Y-95076201D01*
X108656199Y-95076201D02*
X108656199Y-97099199D01*
X110617001Y-99060001D02*
X111125000Y-99568000D01*
X117014200Y-94351200D02*
X117989200Y-94351200D01*
X117989200Y-94351200D02*
X121793000Y-98155000D01*
X121793000Y-98155000D02*
X121793000Y-98849580D01*
X121793000Y-98849580D02*
X121793000Y-99568000D01*
X122914200Y-95001200D02*
X121939200Y-95001200D01*
X121939200Y-95001200D02*
X121864199Y-95076201D01*
X121864199Y-95076201D02*
X121864199Y-97099199D01*
X121864199Y-97099199D02*
X123825001Y-99060001D01*
X123825001Y-99060001D02*
X124333000Y-99568000D01*
X130222200Y-94351200D02*
X131197200Y-94351200D01*
X131197200Y-94351200D02*
X135001000Y-98155000D01*
X135001000Y-98155000D02*
X135001000Y-98849580D01*
X135001000Y-98849580D02*
X135001000Y-99568000D01*
X136122200Y-95001200D02*
X135147200Y-95001200D01*
X135147200Y-95001200D02*
X135072199Y-95076201D01*
X135072199Y-95076201D02*
X135072199Y-97099199D01*
X137033001Y-99060001D02*
X137541000Y-99568000D01*
X135072199Y-97099199D02*
X137033001Y-99060001D01*
X143430200Y-94351200D02*
X144405200Y-94351200D01*
X144405200Y-94351200D02*
X148209000Y-98155000D01*
X148209000Y-98155000D02*
X148209000Y-98849580D01*
X148209000Y-98849580D02*
X148209000Y-99568000D01*
X149330200Y-95001200D02*
X148355200Y-95001200D01*
X148355200Y-95001200D02*
X148280199Y-95076201D01*
X148280199Y-95076201D02*
X148280199Y-97099199D01*
X148280199Y-97099199D02*
X150241001Y-99060001D01*
X150241001Y-99060001D02*
X150749000Y-99568000D01*
X125095000Y-74713200D02*
X125095000Y-74168200D01*
X125095000Y-74168200D02*
X125668001Y-73595199D01*
X125668001Y-73595199D02*
X125668001Y-71502501D01*
X125668001Y-71502501D02*
X125043500Y-70878000D01*
X125043500Y-70878000D02*
X124841000Y-70878000D01*
X118818502Y-69415498D02*
X121412000Y-69415498D01*
X121412000Y-69415498D02*
X123063000Y-69415498D01*
X121412000Y-70878000D02*
X121412000Y-69415498D01*
X123063000Y-69415498D02*
X123834998Y-69415498D01*
X123048000Y-68072000D02*
X123048000Y-68822000D01*
X123063000Y-68837000D02*
X123063000Y-69415498D01*
X123048000Y-68822000D02*
X123063000Y-68837000D01*
X117856000Y-70878000D02*
X117856000Y-70378000D01*
X117856000Y-70378000D02*
X118818502Y-69415498D01*
X123834998Y-69415498D02*
X124841000Y-70421500D01*
X124841000Y-70421500D02*
X124841000Y-70878000D01*
X117856000Y-70994411D02*
X117856000Y-70878000D01*
X116870498Y-71979913D02*
X117856000Y-70994411D01*
X116870498Y-72765489D02*
X116870498Y-71979913D01*
X115514188Y-74121799D02*
X116870498Y-72765489D01*
X115514188Y-75568188D02*
X115514188Y-74121799D01*
X116039200Y-76093200D02*
X115514188Y-75568188D01*
X117014200Y-76093200D02*
X116039200Y-76093200D01*
X124841000Y-70878000D02*
X124841000Y-70866000D01*
X111760000Y-94271200D02*
X111786300Y-94271200D01*
X111786300Y-94271200D02*
X112460001Y-93597499D01*
X112460001Y-93597499D02*
X112460001Y-91161001D01*
X112460001Y-91161001D02*
X111760000Y-90461000D01*
X111760000Y-90461000D02*
X111760000Y-90436000D01*
X104648000Y-90642411D02*
X104648000Y-90436000D01*
X103806200Y-95651200D02*
X103017200Y-95651200D01*
X103017200Y-95651200D02*
X102306188Y-94940188D01*
X102306188Y-94940188D02*
X102306188Y-93679799D01*
X102306188Y-93679799D02*
X103828009Y-92157978D01*
X103828009Y-92157978D02*
X103828009Y-91462402D01*
X103828009Y-91462402D02*
X104648000Y-90642411D01*
X109840000Y-87630000D02*
X109840000Y-88948500D01*
X109840000Y-88948500D02*
X109855000Y-88963500D01*
X105620500Y-88963500D02*
X108204000Y-88963500D01*
X108204000Y-88963500D02*
X109855000Y-88963500D01*
X108204000Y-90436000D02*
X108204000Y-88963500D01*
X109855000Y-88963500D02*
X110312500Y-88963500D01*
X110312500Y-88963500D02*
X111760000Y-90411000D01*
X111760000Y-90411000D02*
X111760000Y-90436000D01*
X104648000Y-90436000D02*
X104648000Y-89936000D01*
X104648000Y-89936000D02*
X105620500Y-88963500D01*
X117014200Y-95651200D02*
X116039200Y-95651200D01*
X116039200Y-95651200D02*
X115512011Y-95124011D01*
X115512011Y-95124011D02*
X115512011Y-93655578D01*
X115512011Y-93655578D02*
X116903500Y-92264089D01*
X116903500Y-91603498D02*
X117792500Y-90714498D01*
X116903500Y-92264089D02*
X116903500Y-91603498D01*
X117792500Y-90714498D02*
X117792500Y-90572500D01*
X117792500Y-90572500D02*
X117656000Y-90436000D01*
X117656000Y-90436000D02*
X117856000Y-90436000D01*
X123063000Y-88920000D02*
X123527500Y-88920000D01*
X123527500Y-88920000D02*
X124968000Y-90360500D01*
X124968000Y-90360500D02*
X124968000Y-90436000D01*
X118872000Y-88920000D02*
X121412000Y-88920000D01*
X121412000Y-88920000D02*
X123063000Y-88920000D01*
X121412000Y-90436000D02*
X121412000Y-88920000D01*
X123048000Y-87630000D02*
X123048000Y-88380000D01*
X123048000Y-88380000D02*
X123063000Y-88395000D01*
X123063000Y-88395000D02*
X123063000Y-88920000D01*
X117856000Y-90436000D02*
X117856000Y-89936000D01*
X117856000Y-89936000D02*
X118872000Y-88920000D01*
X124968000Y-90461000D02*
X124968000Y-90436000D01*
X125668011Y-93501189D02*
X125668011Y-91161011D01*
X125668011Y-91161011D02*
X124968000Y-90461000D01*
X124968000Y-94201200D02*
X125668011Y-93501189D01*
X124968000Y-94271200D02*
X124968000Y-94201200D01*
X102743000Y-91936000D02*
X102743000Y-91911000D01*
X102743000Y-91911000D02*
X103695500Y-90958500D01*
X103695500Y-90958500D02*
X103695500Y-87884000D01*
X103695500Y-87884000D02*
X103949500Y-87630000D01*
X103949500Y-87630000D02*
X104790000Y-87630000D01*
X102743000Y-91936000D02*
X102743000Y-92586000D01*
X102743000Y-92586000D02*
X101856177Y-93472823D01*
X101856177Y-93472823D02*
X101856177Y-95188677D01*
X101856177Y-95188677D02*
X102968700Y-96301200D01*
X102968700Y-96301200D02*
X103806200Y-96301200D01*
X103806200Y-96301200D02*
X103806200Y-99266800D01*
X103806200Y-99266800D02*
X103505000Y-99568000D01*
X115951000Y-91936000D02*
X115951000Y-91911000D01*
X115951000Y-91911000D02*
X116903500Y-90958500D01*
X116903500Y-87884000D02*
X117157500Y-87630000D01*
X116903500Y-90958500D02*
X116903500Y-87884000D01*
X117157500Y-87630000D02*
X117998000Y-87630000D01*
X115951000Y-91936000D02*
X115951000Y-92265500D01*
X115050978Y-93218000D02*
X115062000Y-93229022D01*
X115062000Y-93229022D02*
X115062000Y-95324000D01*
X115951000Y-92265500D02*
X115050978Y-93165522D01*
X115062000Y-95324000D02*
X116039200Y-96301200D01*
X115050978Y-93165522D02*
X115050978Y-93218000D01*
X116039200Y-96301200D02*
X117014200Y-96301200D01*
X117014200Y-96301200D02*
X117014200Y-99266800D01*
X117014200Y-99266800D02*
X116713000Y-99568000D01*
X130222200Y-95651200D02*
X129247200Y-95651200D01*
X129247200Y-95651200D02*
X128722188Y-95126188D01*
X128722188Y-95126188D02*
X128722188Y-93679799D01*
X128722188Y-93679799D02*
X130048000Y-92353987D01*
X130048000Y-92353987D02*
X130048000Y-91757500D01*
X130048000Y-91757500D02*
X131064000Y-90741500D01*
X131064000Y-90741500D02*
X131064000Y-90436000D01*
X136207500Y-88963500D02*
X136715500Y-88963500D01*
X136715500Y-88963500D02*
X138176000Y-90424000D01*
X138176000Y-90424000D02*
X138176000Y-90436000D01*
X136256000Y-87630000D02*
X136256000Y-88915000D01*
X136256000Y-88915000D02*
X136207500Y-88963500D01*
X132036500Y-88963500D02*
X134747000Y-88963500D01*
X134747000Y-88963500D02*
X136207500Y-88963500D01*
X134620000Y-90436000D02*
X134620000Y-89090500D01*
X134620000Y-89090500D02*
X134747000Y-88963500D01*
X131064000Y-90436000D02*
X131064000Y-89936000D01*
X131064000Y-89936000D02*
X132036500Y-88963500D01*
X138303000Y-94271200D02*
X138303000Y-94201200D01*
X138303000Y-94201200D02*
X138876001Y-93628199D01*
X138176000Y-90461000D02*
X138176000Y-90436000D01*
X138876001Y-93628199D02*
X138876001Y-91161001D01*
X138876001Y-91161001D02*
X138176000Y-90461000D01*
X143192500Y-91694000D02*
X144272000Y-90614500D01*
X141930188Y-93679799D02*
X143192500Y-92417487D01*
X141930188Y-95022601D02*
X141930188Y-93679799D01*
X144272000Y-90614500D02*
X144272000Y-90436000D01*
X142558787Y-95651200D02*
X141930188Y-95022601D01*
X143192500Y-92417487D02*
X143192500Y-91694000D01*
X143430200Y-95651200D02*
X142558787Y-95651200D01*
X149479000Y-88856500D02*
X149943500Y-88856500D01*
X151384000Y-90297000D02*
X151384000Y-90436000D01*
X149943500Y-88856500D02*
X151384000Y-90297000D01*
X145351500Y-88856500D02*
X147828000Y-88856500D01*
X147828000Y-88856500D02*
X149479000Y-88856500D01*
X147828000Y-90436000D02*
X147828000Y-88856500D01*
X149464000Y-87630000D02*
X149464000Y-88380000D01*
X149464000Y-88380000D02*
X149479000Y-88395000D01*
X149479000Y-88395000D02*
X149479000Y-88856500D01*
X144272000Y-90436000D02*
X144272000Y-89936000D01*
X144272000Y-89936000D02*
X145351500Y-88856500D01*
X151638000Y-94271200D02*
X151638000Y-93726200D01*
X151638000Y-93726200D02*
X152084001Y-93280199D01*
X152084001Y-93280199D02*
X152084001Y-91161001D01*
X152084001Y-91161001D02*
X151384000Y-90461000D01*
X151384000Y-90461000D02*
X151384000Y-90436000D01*
X129159000Y-91936000D02*
X129159000Y-91796002D01*
X129159000Y-91796002D02*
X130111500Y-90843502D01*
X130111500Y-90843502D02*
X130111500Y-87884000D01*
X130111500Y-87884000D02*
X130365500Y-87630000D01*
X130365500Y-87630000D02*
X131206000Y-87630000D01*
X130222200Y-96301200D02*
X129247200Y-96301200D01*
X129247200Y-96301200D02*
X128270000Y-95324000D01*
X128270000Y-95324000D02*
X128270000Y-93475000D01*
X128270000Y-93475000D02*
X129159000Y-92586000D01*
X129159000Y-92586000D02*
X129159000Y-91936000D01*
X130222200Y-96301200D02*
X130222200Y-99266800D01*
X130222200Y-99266800D02*
X129921000Y-99568000D01*
X142367000Y-91936000D02*
X142367000Y-91796002D01*
X142367000Y-91796002D02*
X143192500Y-90970502D01*
X143192500Y-90970502D02*
X143192500Y-88074500D01*
X143192500Y-88074500D02*
X143637000Y-87630000D01*
X143637000Y-87630000D02*
X144414000Y-87630000D01*
X143430200Y-96301200D02*
X142572376Y-96301200D01*
X142572376Y-96301200D02*
X141478000Y-95206824D01*
X142367000Y-92586000D02*
X142367000Y-91936000D01*
X141478000Y-95206824D02*
X141478000Y-93495576D01*
X141478000Y-93495576D02*
X141541500Y-93432076D01*
X141541500Y-93432076D02*
X141541500Y-93411500D01*
X141541500Y-93411500D02*
X142367000Y-92586000D01*
X143430200Y-96301200D02*
X143430200Y-99266800D01*
X143430200Y-99266800D02*
X143129000Y-99568000D01*
M02*
