G04 #@! TF.FileFunction,Copper,L1,Top,Signal*
%FSLAX46Y46*%
G04 Gerber Fmt 4.6, Leading zero omitted, Abs format (unit mm)*
G04 Created by KiCad (PCBNEW 4.0.2-stable) date Tuesday, February 20, 2018 'AMt' 07:17:42 AM*
%MOMM*%
G01*
G04 APERTURE LIST*
%ADD10C,0.025400*%
%ADD11C,0.635000*%
%ADD12R,0.600000X0.500000*%
%ADD13R,0.500000X0.600000*%
%ADD14R,0.450000X0.590000*%
%ADD15R,1.000760X1.501140*%
%ADD16R,1.998980X2.999740*%
%ADD17R,0.650000X1.060000*%
%ADD18R,3.150000X1.000000*%
%ADD19R,1.016000X1.016000*%
%ADD20C,1.016000*%
%ADD21C,0.250000*%
G04 APERTURE END LIST*
D10*
D11*
X140208000Y-88646000D03*
X140208000Y-87630000D03*
X140208000Y-86614000D03*
X140208000Y-90678000D03*
X140208000Y-89662000D03*
X140208000Y-85598000D03*
X140208000Y-84582000D03*
X140208000Y-93726000D03*
X140208000Y-92710000D03*
X140208000Y-91694000D03*
X140208000Y-95758000D03*
X140208000Y-94742000D03*
X140208000Y-98806000D03*
X140208000Y-97790000D03*
X140208000Y-96774000D03*
X140208000Y-100838000D03*
X140208000Y-99822000D03*
X127000000Y-88646000D03*
X127000000Y-87630000D03*
X127000000Y-86614000D03*
X127000000Y-90678000D03*
X127000000Y-89662000D03*
X127000000Y-85598000D03*
X127000000Y-84582000D03*
X127000000Y-93726000D03*
X127000000Y-92710000D03*
X127000000Y-91694000D03*
X127000000Y-95758000D03*
X127000000Y-94742000D03*
X127000000Y-98806000D03*
X127000000Y-97790000D03*
X127000000Y-96774000D03*
X127000000Y-100838000D03*
X127000000Y-99822000D03*
X113792000Y-84582000D03*
X113792000Y-88646000D03*
X113792000Y-87630000D03*
X113792000Y-86614000D03*
X113792000Y-90678000D03*
X113792000Y-89662000D03*
X113792000Y-93726000D03*
X113792000Y-92710000D03*
X113792000Y-91694000D03*
X113792000Y-95758000D03*
X113792000Y-94742000D03*
D12*
X103844000Y-90830400D03*
X104944000Y-90830400D03*
D13*
X107670600Y-94217400D03*
X107670600Y-95317400D03*
D14*
X107670600Y-90283400D03*
X107670600Y-92393400D03*
D12*
X109770000Y-97307400D03*
X108670000Y-97307400D03*
X109863800Y-90551000D03*
X110963800Y-90551000D03*
X112183000Y-97307400D03*
X111083000Y-97307400D03*
X109863800Y-91795600D03*
X110963800Y-91795600D03*
D15*
X105895140Y-93144340D03*
X104394000Y-93144340D03*
X102892860Y-93144340D03*
D16*
X104394000Y-96095820D03*
D10*
G36*
X103393240Y-94621350D02*
X103893620Y-93872050D01*
X104894380Y-93872050D01*
X105394760Y-94621350D01*
X103393240Y-94621350D01*
X103393240Y-94621350D01*
G37*
D17*
X109463800Y-95664200D03*
X110413800Y-95664200D03*
X111363800Y-95664200D03*
X111363800Y-93464200D03*
X109463800Y-93464200D03*
D18*
X104790000Y-85090000D03*
X109840000Y-85090000D03*
X104790000Y-87630000D03*
X109840000Y-87630000D03*
D12*
X117052000Y-90830400D03*
X118152000Y-90830400D03*
D13*
X120878600Y-94217400D03*
X120878600Y-95317400D03*
D12*
X130260000Y-90830400D03*
X131360000Y-90830400D03*
D13*
X134086600Y-94217400D03*
X134086600Y-95317400D03*
D12*
X143468000Y-90830400D03*
X144568000Y-90830400D03*
D13*
X147294600Y-94217400D03*
X147294600Y-95317400D03*
D14*
X120878600Y-90283400D03*
X120878600Y-92393400D03*
X134086600Y-90283400D03*
X134086600Y-92393400D03*
X147294600Y-90283400D03*
X147294600Y-92393400D03*
D18*
X117998000Y-85090000D03*
X123048000Y-85090000D03*
X117998000Y-87630000D03*
X123048000Y-87630000D03*
X131206000Y-85090000D03*
X136256000Y-85090000D03*
X131206000Y-87630000D03*
X136256000Y-87630000D03*
X144414000Y-85090000D03*
X149464000Y-85090000D03*
X144414000Y-87630000D03*
X149464000Y-87630000D03*
D12*
X125391000Y-97307400D03*
X124291000Y-97307400D03*
X122978000Y-97307400D03*
X121878000Y-97307400D03*
X123071800Y-91795600D03*
X124171800Y-91795600D03*
X123071800Y-90551000D03*
X124171800Y-90551000D03*
X138599000Y-97307400D03*
X137499000Y-97307400D03*
X136186000Y-97307400D03*
X135086000Y-97307400D03*
X136279800Y-91795600D03*
X137379800Y-91795600D03*
X136279800Y-90551000D03*
X137379800Y-90551000D03*
X151807000Y-97307400D03*
X150707000Y-97307400D03*
X149394000Y-97307400D03*
X148294000Y-97307400D03*
X149487800Y-91795600D03*
X150587800Y-91795600D03*
X149487800Y-90551000D03*
X150587800Y-90551000D03*
D15*
X119103140Y-93144340D03*
X117602000Y-93144340D03*
X116100860Y-93144340D03*
D16*
X117602000Y-96095820D03*
D10*
G36*
X116601240Y-94621350D02*
X117101620Y-93872050D01*
X118102380Y-93872050D01*
X118602760Y-94621350D01*
X116601240Y-94621350D01*
X116601240Y-94621350D01*
G37*
D17*
X122671800Y-95664200D03*
X123621800Y-95664200D03*
X124571800Y-95664200D03*
X124571800Y-93464200D03*
X122671800Y-93464200D03*
D15*
X132311140Y-93144340D03*
X130810000Y-93144340D03*
X129308860Y-93144340D03*
D16*
X130810000Y-96095820D03*
D10*
G36*
X129809240Y-94621350D02*
X130309620Y-93872050D01*
X131310380Y-93872050D01*
X131810760Y-94621350D01*
X129809240Y-94621350D01*
X129809240Y-94621350D01*
G37*
D17*
X135879800Y-95664200D03*
X136829800Y-95664200D03*
X137779800Y-95664200D03*
X137779800Y-93464200D03*
X135879800Y-93464200D03*
D15*
X145519140Y-93144340D03*
X144018000Y-93144340D03*
X142516860Y-93144340D03*
D16*
X144018000Y-96095820D03*
D10*
G36*
X143017240Y-94621350D02*
X143517620Y-93872050D01*
X144518380Y-93872050D01*
X145018760Y-94621350D01*
X143017240Y-94621350D01*
X143017240Y-94621350D01*
G37*
D17*
X149087800Y-95664200D03*
X150037800Y-95664200D03*
X150987800Y-95664200D03*
X150987800Y-93464200D03*
X149087800Y-93464200D03*
D19*
X103378000Y-99822000D03*
D20*
X105918000Y-99822000D03*
X108458000Y-99822000D03*
X110998000Y-99822000D03*
D19*
X116586000Y-99822000D03*
D20*
X119126000Y-99822000D03*
X121666000Y-99822000D03*
X124206000Y-99822000D03*
D19*
X129794000Y-99822000D03*
D20*
X132334000Y-99822000D03*
X134874000Y-99822000D03*
X137414000Y-99822000D03*
D19*
X143002000Y-99822000D03*
D20*
X145542000Y-99822000D03*
X148082000Y-99822000D03*
X150622000Y-99822000D03*
D11*
X113792000Y-98806000D03*
X113792000Y-97790000D03*
X113792000Y-96774000D03*
X113792000Y-100838000D03*
X113792000Y-99822000D03*
X113792000Y-85598000D03*
D20*
X102539800Y-84277200D03*
X151714200Y-84124800D03*
X151688800Y-100863400D03*
D11*
X107645198Y-96316800D03*
X150063200Y-94615000D03*
X151434800Y-90551000D03*
X144018000Y-91897200D03*
X145491200Y-90830400D03*
X146989800Y-85090000D03*
X147294600Y-96291400D03*
X147294600Y-91338400D03*
X136829800Y-94513400D03*
X138328400Y-90551000D03*
X130810000Y-91821000D03*
X132283200Y-90830400D03*
X133781800Y-85090000D03*
X134086600Y-91338400D03*
X117602000Y-91871800D03*
X120878600Y-96215200D03*
X123621800Y-94615000D03*
X125171200Y-90551000D03*
X118973600Y-90830400D03*
X120878600Y-91414600D03*
X120523000Y-85090000D03*
X134086600Y-96189800D03*
X104394000Y-91871800D03*
X110413800Y-94589600D03*
X111963200Y-90525600D03*
X107670600Y-91414600D03*
X107289600Y-85090000D03*
X105968800Y-90830400D03*
D21*
X107670600Y-95317400D02*
X107670600Y-96291398D01*
X107670600Y-96291398D02*
X107645198Y-96316800D01*
X150063200Y-94858800D02*
X150063200Y-94615000D01*
X150037800Y-95664200D02*
X150037800Y-94884200D01*
X150037800Y-94884200D02*
X150063200Y-94858800D01*
X151434800Y-90551000D02*
X150587800Y-90551000D01*
X144018000Y-93144340D02*
X144018000Y-91897200D01*
X145118000Y-90830400D02*
X145491200Y-90830400D01*
X144568000Y-90830400D02*
X145118000Y-90830400D01*
X144414000Y-85090000D02*
X146989800Y-85090000D01*
X146989800Y-85090000D02*
X149464000Y-85090000D01*
X147294600Y-95317400D02*
X147294600Y-96291400D01*
X147294600Y-91848400D02*
X147294600Y-91338400D01*
X147294600Y-92393400D02*
X147294600Y-91848400D01*
X136829800Y-95664200D02*
X136829800Y-94513400D01*
X137379800Y-90551000D02*
X138328400Y-90551000D01*
X130810000Y-92143770D02*
X130810000Y-91821000D01*
X130810000Y-93144340D02*
X130810000Y-92143770D01*
X131910000Y-90830400D02*
X132283200Y-90830400D01*
X131360000Y-90830400D02*
X131910000Y-90830400D01*
X133781800Y-85090000D02*
X136256000Y-85090000D01*
X131206000Y-85090000D02*
X133781800Y-85090000D01*
X134086600Y-92393400D02*
X134086600Y-91338400D01*
X117602000Y-92143770D02*
X117602000Y-91871800D01*
X117602000Y-93144340D02*
X117602000Y-92143770D01*
X120878600Y-95317400D02*
X120878600Y-96215200D01*
X123621800Y-94884200D02*
X123621800Y-94615000D01*
X123621800Y-95664200D02*
X123621800Y-94884200D01*
X124171800Y-90551000D02*
X125171200Y-90551000D01*
X118702000Y-90830400D02*
X118973600Y-90830400D01*
X118152000Y-90830400D02*
X118702000Y-90830400D01*
X120878600Y-91848400D02*
X120878600Y-91414600D01*
X120878600Y-92393400D02*
X120878600Y-91848400D01*
X120523000Y-85090000D02*
X123048000Y-85090000D01*
X117998000Y-85090000D02*
X120523000Y-85090000D01*
X117602000Y-94246700D02*
X117602000Y-96095820D01*
X117602000Y-93144340D02*
X117602000Y-94246700D01*
X144018000Y-94246700D02*
X144018000Y-96095820D01*
X144018000Y-93144340D02*
X144018000Y-94246700D01*
X130810000Y-94246700D02*
X130810000Y-96095820D01*
X130810000Y-93144340D02*
X130810000Y-94246700D01*
X134086600Y-95317400D02*
X134086600Y-96189800D01*
X104394000Y-93144340D02*
X104394000Y-94246700D01*
X104394000Y-93144340D02*
X104394000Y-91871800D01*
X104394000Y-93144340D02*
X104394000Y-96095820D01*
X110413800Y-94884200D02*
X110413800Y-94589600D01*
X110413800Y-95664200D02*
X110413800Y-94884200D01*
X111937800Y-90551000D02*
X111963200Y-90525600D01*
X110963800Y-90551000D02*
X111937800Y-90551000D01*
X107670600Y-91848400D02*
X107670600Y-91414600D01*
X107670600Y-92393400D02*
X107670600Y-91848400D01*
X107289600Y-85090000D02*
X109840000Y-85090000D01*
X104790000Y-85090000D02*
X107289600Y-85090000D01*
X104944000Y-90830400D02*
X105968800Y-90830400D01*
X102892860Y-90277140D02*
X102892860Y-90830400D01*
X102892860Y-90830400D02*
X102892860Y-92143770D01*
X103844000Y-90830400D02*
X102892860Y-90830400D01*
X104790000Y-87630000D02*
X104790000Y-88380000D01*
X104790000Y-88380000D02*
X102892860Y-90277140D01*
X102892860Y-92143770D02*
X102892860Y-93144340D01*
X107670600Y-90283400D02*
X107670600Y-89687400D01*
X107670600Y-89687400D02*
X108458000Y-88900000D01*
X108458000Y-88900000D02*
X108984000Y-88900000D01*
X108984000Y-88900000D02*
X109220000Y-88664000D01*
X109118400Y-91600200D02*
X109118400Y-90424000D01*
X109118400Y-90424000D02*
X109118400Y-88765600D01*
X109863800Y-90551000D02*
X109245400Y-90551000D01*
X109245400Y-90551000D02*
X109118400Y-90424000D01*
X109863800Y-91795600D02*
X109313800Y-91795600D01*
X109220000Y-88664000D02*
X109840000Y-88044000D01*
X109313800Y-91795600D02*
X109118400Y-91600200D01*
X109118400Y-88765600D02*
X109220000Y-88664000D01*
X109840000Y-88044000D02*
X109840000Y-87630000D01*
X116100860Y-90277140D02*
X116100860Y-90805000D01*
X116100860Y-90805000D02*
X116100860Y-92143770D01*
X117052000Y-90830400D02*
X116126260Y-90830400D01*
X116126260Y-90830400D02*
X116100860Y-90805000D01*
X117998000Y-87630000D02*
X117998000Y-88380000D01*
X116100860Y-92143770D02*
X116100860Y-93144340D01*
X117998000Y-88380000D02*
X116100860Y-90277140D01*
X129308860Y-90277140D02*
X129308860Y-90830400D01*
X129308860Y-90830400D02*
X129308860Y-92143770D01*
X130260000Y-90830400D02*
X129308860Y-90830400D01*
X131206000Y-87630000D02*
X131206000Y-88380000D01*
X131206000Y-88380000D02*
X129308860Y-90277140D01*
X129308860Y-92143770D02*
X129308860Y-93144340D01*
X142516860Y-90277140D02*
X142516860Y-90805000D01*
X142516860Y-90805000D02*
X142516860Y-92143770D01*
X143468000Y-90830400D02*
X142542260Y-90830400D01*
X142542260Y-90830400D02*
X142516860Y-90805000D01*
X144414000Y-87630000D02*
X144414000Y-88380000D01*
X144414000Y-88380000D02*
X142516860Y-90277140D01*
X142516860Y-92143770D02*
X142516860Y-93144340D01*
X120878600Y-90283400D02*
X120878600Y-89738400D01*
X120878600Y-89738400D02*
X121635799Y-88981201D01*
X121635799Y-88981201D02*
X122446799Y-88981201D01*
X122446799Y-91220599D02*
X122446799Y-90551000D01*
X122446799Y-90551000D02*
X122446799Y-88981201D01*
X123071800Y-90551000D02*
X122446799Y-90551000D01*
X123071800Y-91795600D02*
X123021800Y-91795600D01*
X123021800Y-91795600D02*
X122446799Y-91220599D01*
X122446799Y-88981201D02*
X123048000Y-88380000D01*
X123048000Y-88380000D02*
X123048000Y-87630000D01*
X134086600Y-90283400D02*
X134086600Y-89687400D01*
X134086600Y-89687400D02*
X134856000Y-88918000D01*
X134856000Y-88918000D02*
X135382000Y-88918000D01*
X136279800Y-91795600D02*
X135839200Y-91795600D01*
X135382000Y-91338400D02*
X135382000Y-90551000D01*
X135839200Y-91795600D02*
X135382000Y-91338400D01*
X135382000Y-90551000D02*
X135382000Y-88918000D01*
X136279800Y-90551000D02*
X135382000Y-90551000D01*
X135382000Y-88918000D02*
X136256000Y-88044000D01*
X136256000Y-88044000D02*
X136256000Y-87630000D01*
X149487800Y-90551000D02*
X148971000Y-90551000D01*
X148971000Y-90551000D02*
X148844000Y-90424000D01*
X148844000Y-90424000D02*
X148844000Y-89154000D01*
X149487800Y-91795600D02*
X148937800Y-91795600D01*
X148937800Y-91795600D02*
X148844000Y-91701800D01*
X148844000Y-91701800D02*
X148844000Y-90424000D01*
X147294600Y-90283400D02*
X147294600Y-89941400D01*
X147294600Y-89941400D02*
X148082000Y-89154000D01*
X148082000Y-89154000D02*
X148844000Y-89154000D01*
X148844000Y-89154000D02*
X149464000Y-88534000D01*
X149464000Y-88534000D02*
X149464000Y-88380000D01*
X149464000Y-88380000D02*
X149464000Y-87630000D01*
X132311140Y-93144340D02*
X134112000Y-93144340D01*
X134112000Y-93144340D02*
X135559940Y-93144340D01*
X134086600Y-94217400D02*
X134086600Y-93667400D01*
X134086600Y-93667400D02*
X134112000Y-93642000D01*
X134112000Y-93642000D02*
X134112000Y-93144340D01*
X129794000Y-99822000D02*
X130769000Y-99822000D01*
X130769000Y-99822000D02*
X132311140Y-98279860D01*
X132311140Y-98279860D02*
X132311140Y-94144910D01*
X132311140Y-94144910D02*
X132311140Y-93144340D01*
X135559940Y-93144340D02*
X135879800Y-93464200D01*
X145519140Y-93144340D02*
X147243800Y-93144340D01*
X147243800Y-93144340D02*
X148767940Y-93144340D01*
X147294600Y-94217400D02*
X147294600Y-93667400D01*
X147294600Y-93667400D02*
X147243800Y-93616600D01*
X147243800Y-93616600D02*
X147243800Y-93144340D01*
X143002000Y-99822000D02*
X143977000Y-99822000D01*
X143977000Y-99822000D02*
X145519140Y-98279860D01*
X145519140Y-98279860D02*
X145519140Y-94144910D01*
X145519140Y-94144910D02*
X145519140Y-93144340D01*
X148767940Y-93144340D02*
X149087800Y-93464200D01*
X124171800Y-91795600D02*
X124587000Y-91795600D01*
X124587000Y-91795600D02*
X125391000Y-92599600D01*
X125391000Y-92599600D02*
X125391000Y-93370400D01*
X124571800Y-93464200D02*
X125382200Y-93464200D01*
X125382200Y-93464200D02*
X125399800Y-93446600D01*
X125399800Y-93446600D02*
X125391000Y-93437800D01*
X125391000Y-93437800D02*
X125391000Y-93370400D01*
X125391000Y-93370400D02*
X125391000Y-96807400D01*
X125391000Y-96807400D02*
X125391000Y-97307400D01*
X136186000Y-97307400D02*
X136779000Y-97307400D01*
X136779000Y-97307400D02*
X137499000Y-97307400D01*
X137779800Y-95664200D02*
X137779800Y-96444200D01*
X137779800Y-96444200D02*
X136916600Y-97307400D01*
X136916600Y-97307400D02*
X136779000Y-97307400D01*
X151807000Y-92464800D02*
X151807000Y-93497400D01*
X151807000Y-93497400D02*
X151807000Y-96807400D01*
X150987800Y-93464200D02*
X151773800Y-93464200D01*
X151773800Y-93464200D02*
X151807000Y-93497400D01*
X150587800Y-91795600D02*
X151137800Y-91795600D01*
X151137800Y-91795600D02*
X151807000Y-92464800D01*
X151807000Y-96807400D02*
X151807000Y-97307400D01*
X105895140Y-93144340D02*
X105895140Y-97939860D01*
X105895140Y-97939860D02*
X104013000Y-99822000D01*
X104013000Y-99822000D02*
X103378000Y-99822000D01*
X105895140Y-93144340D02*
X107645200Y-93144340D01*
X107645200Y-93144340D02*
X109143940Y-93144340D01*
X107670600Y-94217400D02*
X107670600Y-93169740D01*
X107670600Y-93169740D02*
X107645200Y-93144340D01*
X109143940Y-93144340D02*
X109463800Y-93464200D01*
X119103140Y-93144340D02*
X120878600Y-93144340D01*
X120878600Y-93144340D02*
X122351940Y-93144340D01*
X120878600Y-94217400D02*
X120878600Y-93144340D01*
X116586000Y-99822000D02*
X117561000Y-99822000D01*
X117561000Y-99822000D02*
X119103140Y-98279860D01*
X119103140Y-98279860D02*
X119103140Y-94144910D01*
X119103140Y-94144910D02*
X119103140Y-93144340D01*
X122351940Y-93144340D02*
X122671800Y-93464200D01*
X108670000Y-97307400D02*
X108670000Y-98002000D01*
X108670000Y-98002000D02*
X110490000Y-99822000D01*
X110490000Y-99822000D02*
X110998000Y-99822000D01*
X122096800Y-96444200D02*
X122671800Y-95869200D01*
X121600502Y-96444200D02*
X122096800Y-96444200D01*
X120941001Y-99097001D02*
X120941001Y-97103701D01*
X122671800Y-95869200D02*
X122671800Y-95664200D01*
X121666000Y-99822000D02*
X120941001Y-99097001D01*
X120941001Y-97103701D02*
X121600502Y-96444200D01*
X121878000Y-97307400D02*
X121878000Y-98002000D01*
X121878000Y-98002000D02*
X123698000Y-99822000D01*
X123698000Y-99822000D02*
X124206000Y-99822000D01*
X135879800Y-95869200D02*
X135879800Y-95664200D01*
X134783102Y-96444200D02*
X135304800Y-96444200D01*
X134149001Y-97078301D02*
X134783102Y-96444200D01*
X134149001Y-99097001D02*
X134149001Y-97078301D01*
X135304800Y-96444200D02*
X135879800Y-95869200D01*
X134874000Y-99822000D02*
X134149001Y-99097001D01*
X135086000Y-97307400D02*
X135086000Y-98002000D01*
X135086000Y-98002000D02*
X136906000Y-99822000D01*
X136906000Y-99822000D02*
X137414000Y-99822000D01*
X149087800Y-95869200D02*
X149087800Y-95664200D01*
X148512800Y-96444200D02*
X149087800Y-95869200D01*
X148092702Y-96444200D02*
X148512800Y-96444200D01*
X147357001Y-99097001D02*
X147357001Y-97179901D01*
X147357001Y-97179901D02*
X148092702Y-96444200D01*
X148082000Y-99822000D02*
X147357001Y-99097001D01*
X148294000Y-97307400D02*
X148294000Y-98027400D01*
X150088600Y-99822000D02*
X150622000Y-99822000D01*
X148294000Y-98027400D02*
X150088600Y-99822000D01*
X112183000Y-92464800D02*
X112183000Y-93446600D01*
X111956400Y-93446600D02*
X112183000Y-93446600D01*
X112183000Y-93446600D02*
X112183000Y-96807400D01*
X111363800Y-93464200D02*
X111938800Y-93464200D01*
X111938800Y-93464200D02*
X111956400Y-93446600D01*
X110963800Y-91795600D02*
X111513800Y-91795600D01*
X111513800Y-91795600D02*
X112183000Y-92464800D01*
X112183000Y-96807400D02*
X112183000Y-97307400D01*
X111363800Y-95664200D02*
X111363800Y-96128800D01*
X111363800Y-96128800D02*
X110439200Y-97053400D01*
X110439200Y-97053400D02*
X110439200Y-97307400D01*
X109770000Y-97307400D02*
X110439200Y-97307400D01*
X110439200Y-97307400D02*
X111083000Y-97307400D01*
X122978000Y-97307400D02*
X123672600Y-97307400D01*
X123672600Y-97307400D02*
X124291000Y-97307400D01*
X124571800Y-95664200D02*
X124571800Y-96444200D01*
X124571800Y-96444200D02*
X123708600Y-97307400D01*
X123708600Y-97307400D02*
X123672600Y-97307400D01*
X137379800Y-91795600D02*
X137744200Y-91795600D01*
X137744200Y-91795600D02*
X138599000Y-92650400D01*
X138599000Y-92650400D02*
X138599000Y-93395800D01*
X137779800Y-93464200D02*
X138590200Y-93464200D01*
X138590200Y-93464200D02*
X138607800Y-93446600D01*
X138607800Y-93446600D02*
X138607800Y-93404600D01*
X138607800Y-93404600D02*
X138599000Y-93395800D01*
X138599000Y-93395800D02*
X138599000Y-96807400D01*
X138599000Y-96807400D02*
X138599000Y-97307400D01*
X149394000Y-97307400D02*
X150063200Y-97307400D01*
X150063200Y-97307400D02*
X150707000Y-97307400D01*
X150987800Y-95664200D02*
X150987800Y-96444200D01*
X150124600Y-97307400D02*
X150063200Y-97307400D01*
X150987800Y-96444200D02*
X150124600Y-97307400D01*
X109463800Y-95869200D02*
X108888800Y-96444200D01*
X108888800Y-96444200D02*
X108519502Y-96444200D01*
X109463800Y-95664200D02*
X109463800Y-95869200D01*
X108519502Y-96444200D02*
X107950001Y-97013701D01*
X107950001Y-97013701D02*
X107950001Y-99314001D01*
X107950001Y-99314001D02*
X108458000Y-99822000D01*
M02*
